<?xml version="1.0" encoding="UTF-8" standalone="no"?><!DOCTYPE svg PUBLIC "-//W3C//DTD SVG 1.1//EN" "http://www.w3.org/Graphics/SVG/1.1/DTD/svg11.dtd"><svg width="100%" height="100%" viewBox="0 0 2223 2223" version="1.1" xmlns="http://www.w3.org/2000/svg" xmlns:xlink="http://www.w3.org/1999/xlink" xml:space="preserve" xmlns:serif="http://www.serif.com/" style="fill-rule:evenodd;clip-rule:evenodd;stroke-linecap:round;stroke-linejoin:round;stroke-miterlimit:1.5;"><path d="M2083.33,625l0,972.222c0,268.292 -217.819,486.111 -486.111,486.111l-972.222,0c-268.292,0 -486.111,-217.819 -486.111,-486.111l-0,-972.222c-0,-268.292 217.819,-486.111 486.111,-486.111l972.222,-0c268.292,-0 486.111,217.819 486.111,486.111Z" style="fill:#ba9653;"/><clipPath id="_clip1"><path d="M2083.33,625l0,972.222c0,268.292 -217.819,486.111 -486.111,486.111l-972.222,0c-268.292,0 -486.111,-217.819 -486.111,-486.111l-0,-972.222c-0,-268.292 217.819,-486.111 486.111,-486.111l972.222,-0c268.292,-0 486.111,217.819 486.111,486.111Z"/></clipPath><g clip-path="url(#_clip1)"><g><g id="Layer_3"><path d="M1915,1115c0,-213.889 -83.333,-415 -235,-566.111c-130,-130.556 -297.778,-211.111 -480,-230c-4.444,-4.445 -9.444,-8.333 -13.889,-11.111c-63.889,-41.667 -117.222,-10.556 -154.444,7.222c-2.223,1.111 -6.111,2.222 -9.445,5c-69.444,8.333 -137.222,25.556 -200.555,49.444c-7.223,-11.111 -16.111,-21.666 -26.111,-31.666c-38.334,-38.334 -90,-60 -145.556,-60c-112.778,-0 -205,91.666 -205,205c0,47.222 16.111,92.778 45.556,128.333c-111.667,137.222 -178.889,312.778 -178.889,504.445c-0,213.888 83.333,415 235,566.111c73.889,73.889 159.444,131.666 253.333,171.666c-5.556,42.223 1.667,70.556 9.444,82.778c-11.666,10 -16.666,16.111 -18.888,27.222c-18.889,25.556 26.666,57.778 45.555,72.223c37.778,29.444 57.778,24.444 88.333,22.777c36.667,-1.666 71.667,-44.444 90.556,-72.777c40,-5.556 47.222,0.555 48.333,5.555c12.223,-1.667 30,-5 53.334,-15c53.889,-22.222 37.777,-49.444 32.777,-54.444c-1.666,-1.111 -2.222,-3.334 -3.888,-5.556c126.666,-5 248.888,-38.889 357.222,-100c3.889,4.445 8.333,9.445 11.666,15c11.667,17.222 17.778,73.889 20.556,102.222c2.222,29.445 7.222,48.889 21.667,94.445c14.444,46.111 20,12.222 20.555,-0c0.556,-12.222 3.334,-57.222 1.111,-89.445c-1.666,-32.222 -2.222,-78.333 3.889,-98.333c6.111,-20 -5,-25 -8.333,-28.333c-3.333,-3.889 -0,-5 -8.333,-30c-0.556,-1.667 -1.112,-2.223 -1.112,-4.445c41.112,-27.778 78.889,-59.444 115,-95.555c152.223,-151.667 235.556,-352.778 235.556,-566.667" style="fill-rule:nonzero;"/></g><g id="Layer_5"><g><path d="M1038.89,1878.33c-9.445,-8.333 -24.445,-18.889 -26.667,-20.555c-1.666,-1.667 -7.222,0.555 -11.666,2.222c-0,0 3.888,1.667 6.666,5.556c4.445,4.444 16.667,13.888 21.667,18.888c5,4.445 3.333,10 1.667,13.889c-0.556,3.889 5.555,-0.555 12.777,-5c7.778,-4.444 5,-7.222 -4.444,-15Z" style="fill:#bb9753;fill-rule:nonzero;"/><path d="M1007.22,1909.44c-5,1.667 -10.555,0 -13.889,-3.333c-3.889,-3.889 -24.444,-21.111 -27.777,-25c-3.889,-3.889 -3.334,-8.889 -0,-11.111c-6.667,0.556 -11.112,0.556 -16.112,0.556c-4.444,0.555 -11.666,0.555 -6.111,6.111c5,5 32.778,31.111 37.778,36.111c5,5 10,5 15,3.889c5,-0.556 16.667,-8.889 11.111,-7.223Z" style="fill:#bb9753;fill-rule:nonzero;"/><path d="M1110,871.111c2.222,-6.111 7.222,-18.889 11.111,-28.333c-8.889,-0 -21.111,1.111 -28.333,1.111c-6.667,-0 -4.445,10 -5.556,16.111c-1.111,7.222 11.667,1.111 10,10.556c-0.555,3.888 10.556,6.666 12.778,0.555Z" style="fill:#bb9753;fill-rule:nonzero;"/><path d="M932.778,1747.78c-1.667,-0 -6.111,-0.556 -8.334,-1.667l-1.111,0l-4.444,-0.555c2.222,1.666 3.889,5.555 0.555,7.222c-5,3.333 -21.111,5.555 -37.777,4.444c-16.667,-0.555 -20.556,-10 -21.111,-16.111c-0,-3.889 0.555,-7.222 0.555,-13.889c0,-6.666 -1.667,-11.666 1.667,-14.444c3.889,-2.222 3.333,3.889 5.555,3.889c10.556,-0 47.223,3.889 56.111,5c8.889,0.555 8.334,-3.889 6.112,-10c-0.556,-1.667 -2.223,-1.111 -1.112,-0c-1.111,3.333 -9.444,1.666 -9.444,1.666c0,0 -16.111,-1.111 -26.667,-1.666c-11.111,-0.556 -19.444,-1.667 -25.555,-3.334c-6.111,-1.111 -14.445,-1.111 -13.889,1.667c0.555,3.333 1.667,41.667 2.222,47.222c0,5.556 0.556,7.222 3.333,7.222c6.667,0 54.445,0.556 65.556,0.556c11.111,0 10,-1.111 10.556,-7.222c1.111,-5 -0.556,-10 -2.778,-10Z" style="fill:#bb9753;fill-rule:nonzero;"/><path d="M987.222,546.111c3.334,3.889 6.667,6.667 11.111,10c7.223,-8.333 14.445,-15 21.667,-21.667l0,-0.555c4.444,-4.445 9.444,-9.445 15,-15c16.111,-15 31.667,-27.222 49.444,-38.889c10,-6.111 17.778,-12.222 27.223,-17.778l-0,-1.111c10.555,-6.111 17.777,-10 17.777,-10c0,0 10.556,-4.444 24.445,-10.555c15.555,-5.556 33.889,-10.556 57.778,-15.556c1.666,-5.556 1.666,-18.889 0.555,-23.333c-0.555,-17.223 -19.444,-33.889 -19.444,-33.889c1.666,-1.111 -1.111,-10 -2.222,-17.778c-21.667,6.111 -49.445,17.778 -73.889,30c-3.889,1.667 -3.889,1.667 -12.778,6.667l-0,-0.556c-4.445,1.667 -9.445,5 -12.778,6.667c-7.222,3.889 -18.889,10.555 -30.555,19.444c-17.223,11.667 -38.334,27.222 -57.778,44.445c-11.111,9.444 -30.556,32.777 -30.556,32.777c-3.333,4.445 -6.111,8.334 -8.333,12.223c1.667,4.444 2.222,8.333 3.889,11.666c1.666,5 8.333,23.334 19.444,32.778Z" style="fill:#bb9753;fill-rule:nonzero;"/></g><path d="M1075,843.889c-13.889,-6.111 -26.111,-21.111 -35,-37.778c0,0 0.556,-2.222 -3.333,-2.222c-3.889,-0 -17.223,-1.111 -40.556,-9.445c-23.333,-8.333 -26.111,-3.333 -29.444,6.667c-3.334,10 -5.556,27.778 -6.111,57.778c-0.556,30 12.222,48.333 20.555,45.555c3.889,-1.666 13.889,-6.111 25,-11.666l30.556,-12.778c12.777,-4.444 27.777,-12.778 32.777,-16.111l8.334,0.555c1.111,-11.666 0.555,-18.333 -2.778,-20.555Z" style="fill:#bb9753;fill-rule:nonzero;"/><path d="M1250,795.556c-20.556,-1.112 -44.444,2.222 -67.222,11.666l-11.111,3.334c-6.111,3.333 -13.889,6.111 -19.445,10c-31.666,19.444 -32.778,36.111 -25.555,41.666c6.111,5.556 20.555,8.334 43.333,22.778l8.889,8.333l0.555,0.556c33.889,25 42.223,11.111 47.778,-0.556c5,-11.666 16.111,-46.666 19.445,-65c1.666,-12.222 4.444,-23.333 3.333,-32.777Z" style="fill:#bb9753;fill-rule:nonzero;"/><path d="M1028.33,980c-5,-11.111 -6.111,-2.222 -20.555,19.444c-6.667,11.112 -42.778,51.112 -45.556,53.889c-31.666,38.889 -92.778,87.778 -92.778,87.778c-27.222,25 -42.222,43.333 -51.666,58.333l35.555,111.667c15.556,21.667 37.778,52.778 46.111,65.556c12.223,20.555 12.223,45.555 17.223,41.666c5,-3.889 16.666,-15 20.555,-17.777c3.889,-3.334 7.222,-6.667 5.556,-13.889c-1.667,-6.667 -9.445,-43.334 -6.667,-68.889c2.222,-29.445 16.111,-61.111 26.111,-78.889c10,-17.778 37.778,-73.889 45.556,-88.889c6.666,-15 19.444,-32.222 22.222,-46.111c2.778,-13.889 15,-45.556 20,-60c0,-8.889 -8.333,-33.889 -21.667,-63.889Z" style="fill:#bb9753;fill-rule:nonzero;"/><path d="M1323.33,1307.22c0,-14.444 -8.333,-25.555 -24.444,-52.222c-16.111,-26.111 -19.445,-37.222 -21.667,-64.444c-1.666,-17.223 0,-40 1.667,-61.667l-46.667,-46.667l-1.111,-41.111l-1.667,-8.889c-12.777,-61.666 16.667,-135 25,-155c8.889,-21.666 41.667,-82.778 53.889,-101.111c-6.111,-3.333 -22.222,-11.111 -31.666,-16.111c-9.445,-5 -13.889,-6.667 -16.111,-3.333c-2.223,3.333 -5.556,5.555 -10,11.111c-8.889,12.222 -1.112,10.555 1.111,10.555c2.222,0 12.777,13.889 15,16.667c1.666,3.333 -0,5.556 -4.445,15.556c-6.111,12.777 -9.444,42.777 -13.889,61.111c-15,53.889 -37.777,48.889 -48.889,41.666c-10.555,-6.666 -13.888,3.889 -24.444,18.889c-2.222,3.889 -8.333,11.667 -16.667,20.556l-9.444,14.444l-58.333,56.111c-0,0 -20,20.556 -26.112,23.334c-8.333,13.889 -15,30.555 -25,60c-13.888,41.666 -44.444,97.222 -57.777,118.889c-33.334,53.888 -38.889,104.444 -33.889,136.111c5,31.111 9.444,29.444 16.111,29.444c6.667,0 23.333,21.111 33.889,33.889c11.111,12.778 15.555,7.222 21.111,3.333c17.778,-13.889 53.889,-37.222 105,-61.666c21.667,-10 50.555,-21.667 78.333,-30l28.334,-8.889c26.666,-7.222 50.555,-11.667 62.777,-10.556c18.334,1.111 31.111,6.111 30,-10Z" style="fill:#bb9753;fill-rule:nonzero;"/></g><g id="Layer_2_2_"><g id="Layer_2_1_"><path d="M924.444,1862.78c30,-1.111 71.667,-10.556 90,-18.889c2.223,0.555 6.112,3.333 12.778,5.555c2.222,-20 -10,-61.666 -17.222,-80c-5,-12.222 -9.444,-21.111 -15,-33.888c-16.667,-3.334 -37.778,-12.223 -52.222,-17.778c-0,11.666 1.666,42.222 5,62.778c-6.111,0.555 -15,1.111 -25.556,1.111c1.667,21.666 3.334,62.222 2.222,81.111" style="fill:#008348;fill-rule:nonzero;"/><path d="M1484.44,1796.67c-5.555,-5.556 6.667,-22.778 12.223,-54.445c5.555,-32.222 6.111,-85.555 -17.223,-116.666c-11.111,-14.445 -17.222,-24.445 -18.888,-30.556c-73.334,53.333 -157.223,88.889 -246.667,103.889c-1.111,1.667 -1.667,3.889 -3.333,5c-12.778,16.667 -37.778,41.111 -57.223,50.555c-18.889,10 -40.555,17.223 -52.222,21.112c-2.222,20 -6.111,63.888 -0.555,78.888c1.666,5.556 25,19.445 32.777,33.889c1.111,1.667 1.667,3.334 1.667,4.445c126.111,-3.889 245.556,-37.778 349.444,-94.445c1.667,-1.111 1.112,-1.666 0,-1.666" style="fill:#008348;fill-rule:nonzero;"/><path d="M1663.89,564.444c-121.667,-121.666 -277.222,-198.888 -445,-221.111c13.889,26.667 15.555,57.778 16.667,77.223c24.444,-10.556 42.222,-16.112 52.777,-32.223c10,-16.111 23.334,-12.777 32.223,-1.111c8.888,11.667 8.888,26.111 -13.889,41.111c-22.778,14.445 -40,21.111 -44.445,23.334c-5,2.222 -0.555,6.666 5,16.111c5.556,9.444 20,32.222 21.667,80.555l-0,1.667c90.555,27.778 174.444,77.778 243.333,147.222c111.667,111.667 173.334,260.556 173.334,418.334c-0,90.555 -20.556,178.333 -58.334,257.777c5.556,2.223 11.667,20.556 14.445,43.889c1.111,12.222 0.555,26.111 -3.334,33.889c-3.889,8.889 -32.777,52.778 -47.777,65.556c-5.556,5 -18.889,4.444 -24.445,-3.889c-5.555,-8.334 -6.111,-3.889 -10.555,0.555c-4.445,4.445 -19.445,26.111 -22.778,31.667c-3.889,5.556 -16.111,11.111 -8.334,33.333c8.334,22.223 17.223,38.889 14.445,51.667c-3.333,12.222 -4.445,16.111 12.222,30c16.667,13.889 16.111,31.667 8.889,42.222c-5,6.667 -11.667,26.111 -15,44.445c197.222,-141.667 326.667,-372.778 326.667,-633.334c1.111,-206.111 -80.556,-401.666 -227.778,-548.889" style="fill:#008348;fill-rule:nonzero;"/><path d="M770.556,1689.44c-1.667,-21.111 -5.556,-58.888 9.444,-85.555c-30,-20.556 -57.778,-43.889 -84.444,-70c-112.223,-112.222 -173.334,-261.111 -173.334,-418.889c0,-169.444 71.667,-321.667 185.556,-430c1.111,-1.667 2.222,-4.444 4.444,-6.111c-19.444,6.111 -40,9.444 -61.111,9.444c-53.889,0 -105.555,-21.111 -144.444,-59.444c-110.556,137.222 -171.667,307.778 -171.667,486.667c0,207.777 81.111,403.888 227.778,550c70,70 152.222,125.555 241.111,164.444c3.333,-16.667 8.889,-35 16.111,-53.889c6.667,-17.778 -3.889,-59.444 -21.111,-81.111c-8.333,-3.333 -20.556,-5 -28.333,-5.556" style="fill:#008348;fill-rule:nonzero;"/><path d="M976.667,349.444c-48.889,8.889 -97.223,21.667 -142.778,40c15,28.334 22.222,61.112 22.222,93.889c0,43.889 -13.889,85.556 -38.889,121.111c42.778,-25 89.445,-44.444 137.222,-58.333c3.334,-3.333 6.112,-6.111 10,-8.889c-17.777,-30 -41.666,-77.778 -21.111,-141.666c5.556,-18.889 18.889,-33.889 33.334,-46.112" style="fill:#008348;fill-rule:nonzero;"/><path d="M708.889,859.444c-8.333,-2.222 -14.445,6.667 -17.778,14.445c-3.889,7.222 -8.333,15.555 3.889,32.222c11.667,16.667 18.889,26.667 40,25.556c10,-0.556 18.889,-8.334 21.667,-12.223c2.777,-3.888 3.889,3.334 -1.111,10.556c-5,7.222 -8.889,25 0.555,36.667c9.445,11.666 28.333,21.666 53.889,6.666c25.556,-15 36.111,-32.777 40.556,-41.111c4.444,-8.333 4.444,-11.666 -0,-16.666c-4.445,-5 -18.889,-28.334 -21.667,-74.445c-1.667,-27.778 3.333,-46.111 -13.889,-56.111c-17.222,-10 -57.222,-33.333 -61.667,-78.889c-1.666,-17.222 -0.555,-43.889 -17.777,-30c-17.223,14.445 -17.223,24.445 -19.445,33.889c-1.667,10.556 6.667,25 13.889,33.889c7.222,10 16.111,31.667 22.778,37.222c6.666,5.556 11.111,10 16.666,10.556c5.556,0.555 27.778,0.555 33.334,2.222c5.555,1.667 8.889,8.889 -5,8.889c-13.889,-0 -33.889,3.889 -43.889,5c-9.445,1.111 -17.778,1.666 -21.667,20.555c-4.444,18.889 -10.555,40.556 -11.111,47.223c-0.555,6.666 -4.444,10.555 -4.444,14.444c-0,3.889 7.222,21.667 24.444,3.889c17.222,-17.778 23.333,-36.111 26.667,-44.445c3.333,-8.888 6.666,-7.222 3.889,6.112c-3.334,13.888 -3.889,47.777 2.222,59.444c6.667,12.778 21.111,26.111 38.889,16.667c3.889,-1.667 10,-5 15,-4.445c5,0.556 -1.111,9.445 -5.556,12.778c-4.444,3.889 -18.889,19.444 -43.333,-3.333c-6.111,-5.556 -15,-17.778 -16.667,-33.334c-0.555,-5 -7.222,-6.666 -10.555,-2.222c-3.334,4.445 -20,20 -31.667,8.889c-11.667,-11.111 -16.667,-17.222 -10,-41.111c-0.556,-3.889 1.667,-8.333 -1.111,-9.445" style="fill:#f9a980;fill-rule:nonzero;"/><path d="M721.667,825c-2.223,8.333 -5,18.889 -6.111,21.667c-1.112,3.889 -6.667,11.666 -11.667,1.111c-5,-10.556 -5,-18.889 3.333,-26.667c2.222,-2.222 6.111,-7.222 8.889,-5c1.111,3.889 5.556,6.667 5.556,8.889" style="fill:#f9a980;fill-rule:nonzero;"/><path d="M749.444,796.111c-5,2.222 -16.111,2.222 -20,11.111c-2.222,5.556 -12.222,-0.555 -7.222,-7.222c5,-6.667 8.889,-6.111 11.667,-8.333c3.333,-1.667 4.444,-7.223 10.555,-4.445c5.556,3.889 6.667,8.334 5,8.889" style="fill:#f9a980;fill-rule:nonzero;"/><path d="M1083.89,683.889c-3.333,7.222 -12.778,15 -33.889,12.778c-10.556,-1.111 -21.667,-1.667 -22.778,6.666c-1.111,6.111 -6.111,5.556 -12.778,5.556c-6.666,-0.556 -15,-1.667 -15,0.555c-0.555,2.223 30,21.112 40.556,25.556c10,5 25.556,15.556 37.222,14.444c16.111,-1.666 30,-10 53.889,-35c10,-10 17.778,-15.555 8.889,-20c-6.111,-2.222 -12.778,-3.888 -21.111,-3.888c-10,-0 -27.222,-1.112 -35,-6.667" style="fill:#f9a980;fill-rule:nonzero;"/><path d="M968.333,684.444c-8.889,-0.555 -9.444,-6.111 -3.889,-15.555c5.556,-9.445 10.556,-17.778 17.778,-23.333c1.111,3.888 3.889,9.444 7.222,11.111c-5,5.555 -11.111,11.666 -10,25l-11.111,2.777Z" style="fill:#f9a980;fill-rule:nonzero;"/><path d="M1303.89,613.889c-12.778,-23.333 -35,-11.667 -45.556,5.555c-10.555,17.223 -22.222,36.667 -22.777,65.556c-7.223,-2.222 -15,0 -18.889,6.111c-1.667,3.333 -29.445,-0.555 -37.778,1.667c-9.445,2.222 -12.222,-3.334 -2.222,-16.111c10,-12.778 44.444,-60 42.222,-95c-0.556,-10.556 0.555,-12.223 2.222,-20.556c1.667,-10 3.333,-10 -10,-17.222c-8.333,-4.445 -8.889,-17.222 -10,-27.222c-1.667,-10.556 -3.889,-10.556 -15.555,-8.334c-7.223,1.111 -22.223,-8.333 -29.445,-18.889c-17.222,1.667 -33.333,12.223 -49.444,23.334c-16.111,11.111 -73.334,61.111 -87.778,70.555c13.889,7.223 17.778,21.667 12.778,47.223c-1.111,5.555 -0,7.222 3.889,3.888c3.888,-3.888 21.111,-21.666 20.555,-37.222c-0.555,-15 -7.222,-23.333 -8.889,-25.555c-1.111,-1.667 5,-9.445 11.667,6.111c6.667,15.555 5,37.222 -15.556,61.666c-20.555,24.445 -36.666,23.334 -45.555,27.778c-8.889,4.445 -17.222,11.111 -9.445,24.445c7.778,13.333 23.334,8.333 30,3.889c6.111,-4.445 15,-9.445 33.889,-7.223c20,1.667 26.111,-10.555 12.778,-24.444c-4.444,-4.445 -15.556,-13.889 -1.667,-13.889c8.334,-0 17.778,17.778 23.334,22.778c5.555,5 17.777,6.666 33.889,8.333c16.666,1.111 42.222,7.222 42.222,23.333c-0,10 -5.556,12.778 -12.222,5c-2.223,-3.333 -6.667,1.667 -10,5c-10.556,10.556 -37.778,38.889 -56.667,43.889c-19.445,5 -26.111,-0.555 -51.667,-13.889c-25.555,-13.888 -48.889,-27.222 -56.111,-31.666c-6.667,-4.445 -21.111,-14.445 -14.444,5.555c6.666,20 23.333,40.556 57.222,51.667c33.333,11.111 37.778,15 46.111,18.889c7.222,3.889 3.333,7.222 -6.667,6.111c-8.889,-1.111 -17.777,-8.889 -10.555,8.333c7.222,16.667 18.889,35 52.778,30c33.888,-4.444 35,-11.111 56.666,-47.222c3.889,-6.111 7.222,-1.667 5,14.445c16.667,-8.334 26.111,-10.556 36.111,-12.778c10,-2.222 35.556,-11.111 52.778,-42.778c8.889,-16.111 13.889,-21.667 11.667,-37.778c-0.556,-6.111 8.889,-18.889 17.778,-27.222c11.111,-10 35.555,-42.778 23.333,-66.111Zm-148.889,31.111c3.333,0.556 3.333,0.556 2.222,0.556c-10.555,-0 -26.111,-3.334 -37.778,-11.112c-11.666,-8.333 -15,-11.666 -13.888,-22.777c1.111,-6.667 1.666,-10.556 1.666,-13.889c0.556,-1.667 0.556,-3.334 0.556,-5c1.111,-5.556 0.555,-9.445 -1.111,-10.556c-1.111,-1.111 -1.667,-1.666 -3.889,-1.666c-1.667,-0 -5.556,1.666 -10,5c-6.111,-5 -12.778,-10 -17.222,-14.445c-3.889,-3.333 -6.112,-5.555 -7.223,-6.111c-1.111,-1.111 -2.222,-1.667 -3.333,-3.889c0,-1.111 0.556,-2.222 1.667,-4.444c1.111,-1.111 1.666,-1.111 3.889,-1.111l1.111,-0c1.111,-0 3.333,-0 4.444,-1.667c1.111,-1.667 1.667,-4.445 1.111,-8.333c0,-0 0.556,-0.556 3.334,-0.556l3.333,-0c1.667,-0 2.222,-0 3.333,-0.556c1.667,-0.555 1.667,-1.666 1.667,-3.333c0.555,-1.667 0.555,-1.667 2.222,-1.667c1.111,0 2.222,0 5,0.556l1.111,0c1.667,0 3.334,-1.667 3.889,-2.222l0.556,-0.556c0.555,-1.111 1.666,-1.666 3.333,-1.666l1.667,-0c1.666,0.555 3.333,0.555 4.444,1.111c1.667,0.555 3.333,1.111 5,1.111c3.889,-0 5,-2.222 5.556,-5c1.111,-4.445 1.666,-5.556 3.889,-5.556c1.666,0 3.888,1.111 6.111,2.222c2.222,1.667 5,1.667 6.111,1.667c2.222,0 5,-1.667 5.555,-5c0,0 0,-0.555 1.111,-0.555c1.667,-0 5,1.111 8.889,3.333l1.667,1.111c6.111,3.333 17.778,10 31.667,26.111c3.333,3.889 4.444,6.111 3.889,6.667l-1.112,-0c-1.666,0.555 -5.555,1.111 -6.111,6.111c-0.555,2.222 -1.111,5 -1.666,5c-0,-0 -0.556,-0.556 -1.111,-1.667c-1.112,-1.666 -1.667,-3.333 -3.889,-3.333l-1.111,-0c-0,-0 -0.556,-0.556 -0.556,-1.667c-0.556,-1.111 -1.111,-3.333 -3.889,-3.333c-1.111,-0 -1.667,0.555 -2.222,1.111l-0.556,0c-0.555,-1.111 -1.111,-3.333 -3.889,-3.333l-2.222,-0c0,-0 0,-0.556 -0.555,-1.111c-0.556,-1.112 -1.111,-1.667 -2.223,-1.667c-1.111,-0 -1.666,0.555 -2.222,0.555c-1.111,0.556 -1.666,0.556 -2.222,0.556c-0.556,0 -0.556,0 -0.556,-0.556c-1.111,-1.666 -1.666,-1.666 -2.222,-1.666c-1.111,-0 -1.666,0.555 -3.333,1.111c-0.556,0.555 -1.667,1.111 -1.667,1.111c0,0 -0.555,0 -1.111,-0.556c-0.555,-0.555 -1.667,-1.666 -2.222,-1.666c-1.667,-0 -1.667,1.111 -3.333,1.666l-0.556,0.556c-0.556,1.111 -1.111,1.111 -1.667,1.111l-1.111,0c-0.555,-0.555 -1.666,-0.555 -1.666,-0.555c-1.667,-0 -3.334,1.666 -3.889,1.666l-0.556,1.111c0,0 -0.555,0 -1.111,-0.555c-0.556,-0.556 -1.667,-0.556 -1.667,-0.556c-2.222,0 -3.889,1.667 -4.444,3.889c-0.556,1.667 -1.111,1.667 -1.667,1.667l-0.555,-0c-1.111,-0 -1.667,-0.556 -2.223,-0.556c-3.333,0 -3.888,3.334 -4.444,6.111c0,0.556 0,1.111 -0.556,1.667c-1.111,5 -3.333,26.111 -2.222,31.111c0.556,5 6.667,5 9.445,5c5,0 10.555,-1.111 18.889,-1.667c15,-1.666 43.333,-10.555 57.777,-22.222c3.889,-3.333 6.111,-3.333 7.223,-3.333c1.111,-0 1.111,-0 1.666,0.555c0,0.556 -1.666,5 -5.555,7.223c-0.556,0.555 -0.556,0.555 -1.111,1.111c-4.445,3.889 -15,13.889 -36.667,17.222c-20.556,3.889 -38.889,7.222 -46.111,7.222l-2.778,0c-1.111,0 -1.667,0.556 -1.667,1.667c-0.555,1.111 0,2.222 1.667,3.889c1.667,1.666 5,2.222 7.222,2.222l2.222,0c0.556,0 3.334,1.667 5,3.889c4.445,4.444 11.112,10 20,10c11.112,-0 26.667,-11.667 31.667,-15.556c1.667,-1.666 6.667,-4.444 10,-5c-0.555,0.556 -1.111,1.667 -1.667,2.223l-0.555,1.111c-12.778,12.222 -23.333,23.333 -33.889,23.333Zm132.778,-13.333c-6.667,5 -11.111,6.666 -11.667,15.555c-0.555,8.889 -1.667,23.334 -5.555,25c-4.445,1.667 -3.889,-8.333 -5,-5c-1.667,4.445 -6.667,2.222 -8.889,-1.666c-0.556,-1.667 -16.111,-1.667 -3.889,-19.445c11.111,-16.111 20,-25 27.778,-28.333c8.333,-3.889 22.777,3.333 7.222,13.889Z" style="fill:#f9a980;fill-rule:nonzero;"/><path d="M1591.11,1367.78c-2.222,-7.222 1.667,-19.445 17.778,-10.556c15.555,8.889 27.222,16.111 16.111,49.445c-11.111,33.889 -19.444,53.889 -23.333,68.333c-3.889,14.444 -21.111,32.222 -15.556,8.333c5.556,-24.444 8.889,-53.333 6.111,-68.333c-4.444,-27.222 4.445,-26.111 1.667,-37.778c-1.111,-3.889 -1.667,-7.222 -2.778,-9.444" style="fill:#f9a980;fill-rule:nonzero;"/><path d="M1650,1396.67c4.444,13.889 9.444,43.889 1.667,56.666c-7.223,12.223 -30.556,46.111 -38.889,55c-8.889,8.889 -15.556,5 -10,-4.444c5.555,-9.445 12.778,-21.667 12.778,-26.111c-0,-4.445 -0.556,-9.445 6.666,-23.334c7.222,-13.888 20.556,-61.666 21.667,-65.555c1.667,-3.889 5,4.444 6.111,7.778" style="fill:#f9a980;fill-rule:nonzero;"/><path d="M1490,1511.11c-3.889,-11.111 -5.556,-27.222 -11.667,-36.667c5,-13.888 21.667,-49.444 48.889,-61.666c3.334,-1.111 5,-4.445 3.889,-6.667c-1.111,-2.222 3.889,-4.444 6.111,4.445c2.222,8.888 6.667,33.333 6.667,33.333c1.111,5.555 -1.111,10 -2.222,17.222c-1.111,7.222 -4.445,24.445 -2.223,32.778c1.667,8.889 5,15 21.667,11.111c8.889,-1.667 8.333,-4.444 10.556,-11.667c2.222,-7.222 9.444,-28.333 11.666,-40.555c2.223,-11.667 0.556,-40.556 -1.666,-47.778c-2.223,-7.222 1.111,-32.778 -1.111,-37.778c-1.667,-5 -3.334,-12.222 -18.889,-17.222c-15.556,-5 -20,-6.111 -30,4.444c-10.556,10.556 -13.889,15 -19.445,20c-5,5 -17.222,0.556 -6.666,-9.444c10.555,-10 20.555,-20 23.333,-22.778l-3.333,-8.333l-5.556,-0c-16.667,16.667 -38.889,26.667 -53.889,30c-5.555,1.111 -16.111,1.667 -8.889,11.667c1.667,2.222 2.222,9.444 6.667,6.666c4.444,-2.222 11.111,-13.889 17.222,-8.889c6.111,5 -1.111,16.667 -8.889,22.223c-7.222,5.555 -15.555,11.111 -21.111,13.888c-5.555,3.334 -8.889,6.112 -8.333,16.112c0.555,10 1.111,27.777 -4.445,41.666c-5.555,13.889 -2.222,17.222 2.223,26.111c5,9.445 12.777,17.223 15.555,32.223c2.222,15 3.889,18.888 13.889,17.222c10,-1.111 13.889,-5.556 17.222,-11.667l2.778,-20Z" style="fill:#f9a980;fill-rule:nonzero;"/><path d="M1130.56,436.111c8.888,1.111 17.777,0.556 20,-5.555c1.666,-6.112 0.555,-10 -2.223,-10.556c-2.222,-1.111 -4.444,-1.111 -2.222,-6.111c1.111,-5.556 5.556,-5 5,-13.889c-0.555,-8.889 -6.667,-9.444 -12.778,-6.667c-6.111,1.667 -8.333,5 -13.889,11.667c-5.555,7.222 -3.333,-5 -1.666,-6.667c1.666,-1.666 3.333,-16.111 -4.445,-18.889c-4.444,1.667 -8.889,4.445 -12.777,6.112c-1.112,2.222 -1.667,6.111 -3.889,9.444c-3.334,8.333 -6.667,1.667 -10,-1.667c-8.334,4.445 -15.556,8.889 -21.111,12.223c-0.556,0.555 -1.112,1.111 -1.667,1.111c0.555,5 6.111,11.111 10,13.889c4.444,2.222 1.667,8.333 -3.333,8.333c-5,-0 -11.112,-3.333 -17.223,4.444c-6.111,7.223 -1.666,14.445 3.889,14.445c6.111,-0 10.556,1.666 12.778,9.444c1.667,6.667 3.889,10 11.667,10.556c8.333,0.555 12.777,-5.556 15,-9.445c1.666,-3.889 5,-9.444 8.889,-7.222c5,1.667 4.444,6.667 2.222,12.778c6.111,-3.333 11.666,-6.111 17.778,-10c-1.112,-5.556 -4.445,-10 -6.112,-12.222c-3.333,-5 -2.222,-6.111 6.112,-5.556" style="fill:#008348;fill-rule:nonzero;"/><path d="M1199.44,346.111c-2.222,0.556 -6.111,1.667 -9.444,1.667c1.667,6.666 4.444,16.111 2.222,17.778c-1.666,1.666 -9.444,2.222 -14.444,4.444c-5.556,1.667 -18.889,13.889 -11.667,22.778c6.667,9.444 9.445,14.444 10,18.889c1.111,5 12.222,10 20,1.111c7.222,-9.445 13.889,-19.445 15.556,-12.778c1.666,5.556 1.111,18.889 -0,26.111c1.666,-0.555 3.333,-0.555 5,-1.111c3.889,-35 -5,-59.444 -17.223,-78.889" style="fill:#008348;fill-rule:nonzero;"/><path d="M1029.44,513.333c-4.444,-3.333 -5.555,-8.889 -0.555,-10c5.555,-1.666 12.222,-2.222 25.555,-8.889c12.778,-5.555 6.112,-15 0.556,-17.777c-6.111,-2.223 -6.111,-8.334 -6.111,-13.889c0.555,-6.111 -1.111,-14.445 -12.222,-10c-11.111,4.444 -7.223,15.555 -10.556,19.444c-3.333,3.889 -5.555,2.222 -5,-3.333c0.556,-5.556 -4.444,-9.445 -6.667,-10.556c-1.666,-1.111 -6.666,-1.666 -10.555,-1.666c-11.667,10.555 -22.222,21.666 -30.556,32.777c1.667,3.889 6.111,8.334 8.889,8.889c3.334,1.111 7.222,3.334 7.222,9.445c0,5.555 -11.666,5.555 -20,6.111c5.556,15 11.112,25.555 18.889,33.889c1.667,-0.556 4.445,-1.111 6.667,-2.222c10,-4.445 12.778,-18.889 13.889,-22.778c1.667,-4.445 5.555,-3.334 8.889,1.666c1.666,3.889 2.222,7.223 2.222,11.112c5.556,-5.556 10.556,-10.556 16.111,-15.556c-1.667,-3.333 -3.889,-5 -6.667,-6.667" style="fill:#008348;fill-rule:nonzero;"/><path d="M1193.89,882.778c1.667,-0.556 -3.333,-21.667 1.111,-22.778c3.889,-1.111 6.111,11.667 14.444,10.556c8.889,-1.667 10.556,-10 10,-20c-1.111,-10 4.445,-4.445 8.889,-11.112c4.445,-6.666 -5,-16.111 -15.555,-10c-10.556,6.112 -8.889,-1.666 -3.334,-5.555c5.556,-3.889 1.667,-15.556 -10,-11.667c-8.888,2.222 -12.777,-2.222 -16.666,-5c-3.334,1.111 -6.111,2.222 -9.445,3.889c-0.555,1.667 0,5.556 0.556,8.889c1.111,3.889 2.222,13.889 -3.889,10c-6.111,-3.889 -13.889,-6.111 -15.556,1.111c-1.666,6.667 1.667,7.222 1.667,11.667c0,4.444 -11.667,5.555 -6.111,13.889c5.556,9.444 12.778,4.444 17.778,0.555c5.555,-3.333 10,0.556 8.889,5.556c-1.667,3.889 -4.445,15.555 -5,23.333c2.222,1.667 5,3.333 7.222,5.556c3.333,-2.778 8.889,-7.778 15,-8.889" style="fill:#008348;fill-rule:nonzero;"/><path d="M1025,861.111c5,-1.111 13.889,8.889 21.667,2.222c8.333,-5.555 -3.334,-11.111 -1.667,-15.555c1.111,-4.445 5.556,-13.889 -0.556,-17.778c-5.555,-4.444 -11.111,-0.556 -17.222,6.111c-6.111,6.111 -3.889,-6.111 -0.555,-11.111c4.444,-6.667 -0,-11.111 -6.667,-12.778c-6.667,-1.111 -9.444,8.889 -13.889,4.445c-7.222,-6.667 -18.889,-4.445 -16.111,5.555c2.222,10 6.111,12.778 0,13.889c-6.111,1.111 -11.111,-13.889 -17.778,-1.667c-6.666,12.223 4.445,16.112 3.334,25.556c-1.112,9.444 2.222,19.444 8.888,20c5.556,1.111 11.112,-5.556 14.445,-9.444c3.333,-3.889 10.555,-6.112 10,0.555c-0.556,5 -1.111,15 -1.111,21.111c11.111,-5.555 23.333,-11.111 30,-13.889c0.555,0 0.555,0 1.111,-0.555c-3.333,-1.111 -7.222,-3.334 -11.667,-6.111c-7.222,-3.889 -7.222,-8.889 -2.222,-10.556" style="fill:#008348;fill-rule:nonzero;"/><path d="M888.333,1142.78c13.889,-4.445 15,6.666 12.778,16.111c-2.222,9.444 -1.667,29.444 -1.111,38.889l23.333,1.111c-1.111,-6.111 0,-24.445 0.556,-35c0.555,-10.556 11.111,-26.667 15,-10.556c3.889,16.111 20,16.667 31.111,10c11.111,-6.666 19.444,-21.666 31.111,-42.777c11.667,-21.112 -3.889,-26.667 -12.778,-25.556c-8.889,1.111 -18.889,2.222 2.223,-15c19.444,-16.111 -13.889,-24.444 -28.334,-27.222c-25,26.111 -55,56.111 -82.778,78.889c-3.333,3.333 -6.666,6.111 -10,8.889c2.778,2.777 8.889,5.555 18.889,2.222" style="fill:#008348;fill-rule:nonzero;"/><path d="M863.889,1298.89c11.667,-3.889 19.444,21.667 36.667,6.667c17.222,-15 5,-27.223 4.444,-40c-0.556,-12.778 13.889,-17.223 9.444,-32.778c-6.111,-23.334 -28.333,-1.111 -41.666,11.666c-13.889,12.778 -13.889,2.223 -0.556,-18.888c13.889,-21.112 -8.889,-27.778 -22.222,-22.223c-12.222,5 -22.778,0 -30,-6.111c-5.556,8.889 -9.444,16.111 -12.778,24.445c-11.666,24.444 -3.889,25 5,25c8.889,-0 27.222,36.666 30,43.333c1.111,1.667 6.667,11.667 15.556,23.333c-2.778,-5.555 -1.667,-11.666 6.111,-14.444" style="fill:#008348;fill-rule:nonzero;"/><path d="M1202.22,1055.56c-11.111,-2.223 -26.111,-4.445 -27.222,18.888c-0.556,8.889 8.333,15.556 16.111,18.889c8.333,3.334 6.667,8.889 -1.667,5.556c-8.888,-3.333 -15.555,-5 -21.666,12.778c-6.111,17.777 5,20.555 10.555,21.666c5.556,1.111 10,2.223 8.889,10c-1.111,7.223 -5,29.445 9.445,31.111c13.889,1.667 26.666,-15.555 31.111,-24.444c4.444,-8.889 9.444,-17.222 10.555,-7.222c1.111,10 -0.555,15 -5.555,26.111c-5,11.111 -5,16.111 2.222,15.555c7.222,-0.555 20,0 23.333,-8.888c3.334,-8.889 9.445,-25.556 10,-37.223c0.556,-7.222 6.667,-8.333 11.667,-7.222c1.667,-12.222 3.333,-25 5,-35.555c-24.444,3.888 -45.556,-26.112 -52.222,-51.667c-8.889,7.222 -21.111,13.889 -30.556,11.667" style="fill:#008348;fill-rule:nonzero;"/><path d="M1086.67,1051.11c-4.445,7.222 -16.667,28.333 -11.111,35.556c5.555,7.222 11.666,-6.667 16.666,-1.667c5,5 16.111,10.556 16.111,6.667c0,-3.889 1.111,-11.111 3.334,-21.111c1.666,-10 6.111,-15.556 10.555,-7.223c4.445,8.334 10.556,15 26.111,11.111c15.556,-3.888 13.889,-20 10.556,-31.666c-3.333,-11.667 8.333,-17.222 13.889,-20.556c5.555,-3.333 20,-14.444 9.444,-24.444c-10.555,-10 -20,4.444 -29.444,6.111c-9.445,1.667 -5.556,-6.111 13.889,-21.111c16.666,-12.778 2.222,-26.111 -7.223,-30c-26.666,26.666 -73.888,70 -84.444,80c-3.889,3.889 -6.667,7.222 -10,12.778c23.333,-11.112 25.556,-2.223 21.667,5.555" style="fill:#008348;fill-rule:nonzero;"/><path d="M1239.44,1300c8.334,7.222 27.223,17.778 41.112,5.556c13.888,-12.223 -3.334,-26.112 -5,-36.112c-1.667,-10 10,-16.111 3.888,-32.222c-10.555,-27.778 -26.666,5.556 -36.111,15c-9.444,9.445 -7.222,-6.111 0.556,-15c4.444,-4.444 23.333,-16.111 12.222,-29.444c-11.111,-12.778 -27.222,-5.556 -35.555,-0c-8.334,5.555 -13.889,12.222 -26.667,8.889c-12.222,-3.889 -22.778,-5 -30,12.777c-7.222,17.778 6.667,12.778 17.778,26.112c11.666,12.777 4.444,13.888 -5,10.555c-9.445,-3.333 -13.889,-15 -27.223,-12.778c-13.888,1.667 -13.888,23.334 -9.444,29.445c4.444,5.555 12.778,8.889 6.667,19.444c-6.111,10.556 3.333,22.778 13.889,27.778c11.111,5 27.777,-15 33.888,-22.778c6.112,-8.333 12.223,-6.111 11.112,0c-1.112,5.556 -3.889,19.445 -4.445,31.111c10,-3.333 18.889,-6.111 27.778,-8.333c-0,-6.111 -1.667,-17.222 -4.445,-26.667c-1.111,-14.444 6.667,-10.555 15,-3.333" style="fill:#008348;fill-rule:nonzero;"/><path d="M1078.89,1365.56c-15,4.444 -17.222,-2.223 -27.222,-6.112c-10,-3.888 -10.556,5 -3.889,15.556c6.666,10.556 14.444,20.556 6.111,20.556c-8.333,-0 -14.445,1.111 -15.556,7.222c-1.111,6.111 -14.444,-1.111 -17.222,-13.889c-3.333,-12.778 -6.111,-37.778 -12.778,-25.556c-6.666,12.223 -12.777,32.778 -30,23.334c-17.222,-9.445 -5.555,-21.667 -14.444,-30c-8.889,-8.889 -16.667,-20 -8.333,-35.556c8.333,-15.555 16.111,-2.222 24.444,-2.222c8.333,-0 9.444,-7.222 1.667,-12.778c-7.223,-5.555 -16.667,-32.222 17.222,-30c12.778,0.556 27.222,-3.889 37.778,-11.667c11.111,-8.333 40.555,-3.888 28.333,16.667c-11.667,20.556 -8.333,25 -1.111,17.222c6.667,-7.222 15.555,-21.111 28.333,-17.222c12.778,3.889 7.222,13.889 -0.555,25c-8.334,11.111 -3.334,18.889 3.333,22.778c6.667,3.889 18.333,27.222 -16.111,36.667" style="fill:#008348;fill-rule:nonzero;"/><path d="M1141.67,1220c-11.111,0.556 -25,-2.222 -25,-2.222c-1.111,11.666 -12.778,28.333 -24.445,46.111c-1.111,1.667 -8.333,1.667 -11.111,-0.556c-3.333,-2.222 -11.667,-6.666 -5,-13.889c6.667,-7.222 17.778,-22.777 16.111,-30c-1.666,-6.666 -6.666,-12.777 -14.444,-3.888c-7.222,9.444 -19.445,28.333 -32.222,29.444c-12.778,1.111 -26.112,-11.111 -20,-22.778c6.111,-11.666 8.333,-17.778 -0.556,-28.333c-8.889,-10.556 -5.556,-24.445 12.778,-32.222c5.555,-2.223 15.555,-0 21.666,5.555c6.667,5.556 10.556,0 1.112,-5.555c-9.445,-5.556 -16.667,-12.223 -17.778,-25c-1.111,-11.667 6.111,-24.445 21.666,-17.223c16.112,6.667 26.112,1.112 32.778,-4.444c6.667,-5.556 36.111,-12.222 31.667,12.778c-3.333,18.889 -11.667,19.444 -13.889,29.444c-2.222,10 5,3.889 9.444,-3.889c4.445,-7.222 13.889,-37.777 33.889,-15c5,5.556 3.334,15 -3.333,25.556c-6.111,10.555 -1.111,16.667 2.222,21.667c7.222,5 15.556,32.777 -15.555,34.444" style="fill:#008348;fill-rule:nonzero;"/><path d="M1101.11,393.889c1.111,-3.333 1.667,-6.111 3.333,-9.445c-4.444,1.667 -9.444,5 -12.777,6.667c2.222,5.556 6.111,11.111 9.444,2.778" style="fill:#bb9753;fill-rule:nonzero;"/></g></g><g id="Layer_6"><g><path d="M598.333,446.667c4.445,6.111 8.889,5 10.556,0.555c3.889,-9.444 11.111,-38.889 11.111,-61.666c0,-52.223 6.667,-72.778 20,-96.667c-60,3.333 -114.444,33.889 -147.222,80.555c50.555,13.334 88.889,54.445 105.555,77.223Z" style="fill:#a73832;fill-rule:nonzero;"/><path d="M593.333,476.111c6.111,-8.333 -1.111,-12.778 -4.444,-17.222c-16.111,-22.778 -53.333,-63.889 -103.889,-77.222c-17.778,30 -28.333,63.333 -28.333,100.555c-0,16.667 1.666,32.222 5.555,46.667c95,8.333 125.556,-45 131.111,-52.778Z" style="fill:#a73832;fill-rule:nonzero;"/><path d="M660.556,287.222c-13.889,21.667 -21.667,38.334 -27.223,95.556c-5.555,56.666 -10.555,96.111 -51.666,130.555c-31.667,25.556 -93.889,32.778 -113.889,31.667c9.444,27.222 24.444,51.667 43.889,72.222c58.889,-20 101.666,-45.555 158.333,-98.333c56.667,-52.778 85,-106.667 93.889,-126.667c5.555,-12.778 16.111,-30 8.889,-1.111c-7.222,28.333 -33.889,89.445 -89.445,141.667c-54.444,52.222 -104.444,78.889 -162.222,93.889c33.889,31.111 80,50.555 130.556,50.555l4.444,0c11.111,-70 28.333,-93.333 62.778,-122.778c33.333,-30 81.111,-45.555 121.667,-28.333c3.333,-12.778 4.444,-27.778 5,-43.889c-0,-105.555 -81.667,-190 -185,-195Z" style="fill:#a73832;fill-rule:nonzero;"/><path d="M740,558.333c-5,3.334 -8.889,5.556 -2.222,11.111c11.111,11.112 27.778,32.223 40,61.112c26.666,-22.223 46.666,-52.223 57.778,-85.556c-10,-13.333 -42.778,-19.444 -95.556,13.333Z" style="fill:#a73832;fill-rule:nonzero;"/><path d="M713.333,580c-29.444,26.111 -40.555,65 -46.666,95.556c35,-2.223 67.777,-15 95,-33.334c-11.111,-27.222 -20.556,-47.222 -31.111,-61.111c-6.112,-7.222 -6.667,-10 -17.223,-1.111Z" style="fill:#a73832;fill-rule:nonzero;"/><path d="M1550.56,1734.44c11.111,-36.111 29.444,-35.555 23.333,-49.444c-6.111,-13.889 -15.556,-24.444 -22.778,-32.222c-7.222,-8.334 -1.667,-27.222 -1.667,-35.556c-0.555,-15 -12.222,-17.222 -13.888,-33.889c-1.667,-16.666 -2.223,-30 10,-47.222c12.222,-16.667 -4.445,-16.111 -10,-26.667c-5.556,-10.555 -8.889,-25 -3.889,-46.111c2.222,-11.111 1.111,-13.889 -1.667,-15.555c-3.333,-1.111 -16.111,-3.889 -16.111,-3.889l-19.445,37.778c3.334,7.222 4.445,18.889 4.445,26.111l-5,31.666c-4.445,7.223 -11.667,19.445 -11.667,30c0,10.556 -10.555,21.667 -9.444,26.667c1.111,5 15,17.778 22.778,31.667c8.333,13.889 17.777,33.889 17.777,68.333c0,34.445 -11.111,80.556 -12.222,86.111c-1.111,6.111 -4.444,11.111 5,20c9.445,8.889 24.445,25 30,61.667c5.556,36.667 9.445,56.111 11.667,57.778c2.222,1.666 1.666,5 1.666,11.666c0,6.667 6.112,46.111 10.556,53.334c4.444,7.222 3.889,-41.667 3.333,-56.667c-0.555,-13.889 0.556,-82.222 3.334,-92.778c2.222,-10 5,-21.111 -3.889,-33.333c-8.334,-12.222 -23.334,-33.889 -12.222,-69.445Z" style="fill:#a73832;fill-rule:nonzero;"/></g></g><g id="Layer_4"><g><path d="M875,707.778c-16.111,3.333 -15.556,6.111 1.667,4.444c5.555,0 83.333,-11.666 93.333,-13.889c10,-1.666 12.222,5 15,3.334c3.333,-1.111 -1.111,-1.111 -3.333,-13.889l-14.445,1.666c-17.222,4.445 -76.111,15 -92.222,18.334Z" style="fill:#fff;fill-rule:nonzero;"/><path d="M1522.78,706.111c-66.667,-66.667 -146.667,-115 -233.334,-142.222c-0.555,8.889 -1.111,16.667 -1.111,20c17.223,8.889 36.667,27.222 29.445,62.222c-3.334,14.445 -15,27.778 -16.111,33.333c-1.667,9.445 -21.667,25.556 -27.223,37.778c-5.555,12.222 -6.666,22.222 -5.555,27.778c10,9.444 32.222,21.667 44.444,26.111c9.445,3.333 9.445,5.556 5.556,11.111c-1.111,1.111 -3.333,2.222 -3.333,3.889c-15,20.556 -38.889,72.222 -49.445,104.445c-11.111,32.222 -36.667,109.444 -17.778,159.444c17.778,50.556 53.334,18.889 61.667,-0.556c8.333,-19.444 20.556,-52.222 24.444,-61.111c3.889,-8.889 5.556,-13.889 12.223,6.667c6.666,20.556 16.666,69.444 16.666,73.889c0,4.444 -6.666,16.667 -13.889,36.111c-7.222,19.444 -11.666,32.778 -4.444,44.444c7.222,11.667 36.667,61.667 46.111,83.334c5.556,12.778 10.556,15.555 25.556,11.666c15,-3.888 51.111,-16.111 61.666,-21.111c10.556,-5 5.556,-13.889 2.223,-24.444c-5,-16.111 -23.334,-105.556 -23.334,-117.222c0,-11.667 3.334,-27.223 -12.222,-10c-5.556,6.111 -12.778,-0 -11.111,-8.889c1.667,-8.889 20.555,-130 21.667,-143.889c-10.556,-22.778 -41.667,-95 -49.445,-108.889c-8.889,-12.778 -11.667,-13.889 -25,-6.667c-13.333,7.223 -41.667,17.223 -52.778,-7.222c-1.111,-2.222 -2.222,-6.667 -1.666,-10c3.333,1.667 5.555,5 9.444,9.445c6.667,8.333 25,3.333 36.111,-2.223c11.111,-5.555 25.556,-7.222 36.667,6.111c11.111,13.889 27.778,38.889 36.111,62.223c8.333,23.333 16.667,42.222 19.444,46.111c2.223,3.889 -8.888,72.222 -11.666,98.889c-3.334,27.222 -5.556,38.889 -6.111,43.333c-0.556,4.444 17.222,-15.556 17.777,8.333c0.556,18.889 9.445,78.889 19.445,123.334c2.222,11.111 5.555,21.666 8.333,30c7.222,1.111 13.889,16.111 17.778,38.889c4.444,22.777 13.889,37.222 13.889,48.333c0.555,11.111 3.889,12.778 7.222,15c3.889,1.667 2.222,7.222 -8.889,20.555c2.222,1.667 6.111,5.556 8.889,8.334c3.333,-3.334 11.667,-12.778 11.667,-12.778c-0,-0 33.889,13.889 41.666,16.111c7.223,2.222 16.112,-15.555 37.778,-6.111c6.111,2.222 12.778,11.111 17.778,19.444c33.889,-73.888 53.889,-157.222 53.889,-243.888c-1.667,-154.445 -62.222,-300.556 -171.111,-409.445Z" style="fill:#fff;fill-rule:nonzero;"/><path d="M1466.67,1557.22c-8.889,-4.444 -14.445,1.667 -18.889,-32.222c-1.111,-10 -9.445,-22.778 -15.556,-29.444c-6.111,-6.112 -6.666,-17.778 -3.889,-27.778c5,-15.556 6.111,-30 5.556,-41.667c-0.556,-12.222 1.667,-27.778 19.444,-35.555c-6.111,-6.667 -9.444,-15.556 -11.111,-21.667c-25.555,-8.889 -30.555,-9.445 -35.555,-21.667c-8.889,-20.555 -13.889,-50.555 -16.667,-67.222c-1.111,-8.333 -1.667,-15.556 -1.667,-22.222c-8.333,-15.556 -26.111,-49.445 -40.555,-75c-5.556,-10 -10,-17.778 -12.778,-23.334c-12.222,-21.666 0,-49.444 6.111,-66.666c6.111,-16.667 11.111,-31.667 5.556,-48.334c-5.556,-16.666 -5.556,-20.555 -6.667,-27.222c-1.111,-6.666 -6.667,-15.555 -13.889,8.334c-7.222,23.333 -21.667,57.777 -30,93.888c-5,20.556 -7.222,42.223 -6.111,63.889c1.111,16.111 4.444,32.223 11.111,46.667c16.111,33.333 35.556,64.444 32.778,82.778c-2.222,18.889 -6.111,19.444 -6.667,22.222c-3.333,36.111 -18.889,105 -26.666,125c-8.334,20 -40,91.111 -46.112,121.667c-5.555,22.777 -19.444,73.333 -31.666,102.222c92.778,-17.778 177.778,-57.222 248.889,-113.889c1.111,-5 0.555,-10 -5,-12.778Z" style="fill:#fff;fill-rule:nonzero;"/><path d="M779.444,745c6.667,9.444 15.556,17.222 27.223,22.778c30,15.555 36.666,26.111 36.666,53.333c0,26.667 5,81.111 13.889,90c5.556,-5.555 11.667,-13.889 12.778,-16.111c8.889,16.111 26.111,46.111 53.889,64.444c0.555,0 0.555,0.556 0.555,1.112c0,0.555 -0.555,0.555 -0.555,1.111c-2.222,5 -7.222,3.333 -10.556,2.222c-6.666,-1.667 -30,-26.667 -37.777,-40.556c-7.778,-13.889 -9.445,-12.222 -12.223,-2.222c-3.333,10 -15,31.667 -22.777,41.667c-8.334,10.555 -29.445,37.778 -35,43.889c-5.556,6.111 -0,8.889 5,13.889c5,5 30,36.111 36.111,42.222c5.555,6.666 11.666,19.444 26.666,5.555c15,-13.889 32.778,-37.777 41.111,-63.889c7.223,-22.777 8.889,-36.111 13.889,-37.222c0.556,0.556 1.111,0.556 1.667,1.111c9.444,2.223 69.444,11.667 70.556,24.445c12.222,-12.222 32.222,-43.334 36.111,-53.889c3.889,-10.556 25.555,-43.889 41.666,-62.222c0,-7.223 0,-11.667 0.556,-13.889c-4.445,3.889 -11.111,12.778 -21.111,17.222c-10,4.444 -44.445,19.444 -69.445,31.667c-8.889,4.444 -24.444,9.444 -30,-36.111c-6.111,-45.556 0,-68.889 4.445,-78.889c4.444,-10.556 12.222,-20 27.778,-15.556c15.555,4.445 40.555,13.889 47.222,13.889c1.111,-5 5.555,-13.889 -11.111,-16.111c-11.667,-1.111 -42.778,-10 -61.111,-33.889c-6.667,-10 -11.667,-21.667 -12.223,-37.222c-35.555,5.555 -116.666,16.111 -133.889,20.555c-17.777,4.445 -33.333,8.334 -38.888,-32.777c-2.223,-17.223 -6.667,-41.667 5.555,-32.778c10,-7.222 23.333,-16.111 47.778,-12.222c4.444,0.555 10,4.444 11.667,8.333c1.111,6.111 -1.112,15.555 -4.445,25.555c-5.555,16.667 -15.555,28.334 17.778,21.112c35.555,-8.334 80,-15 91.667,-17.223c1.666,-11.666 11.111,-30.555 22.777,-43.889c11.667,-13.888 13.889,-25 14.445,-29.444c0.555,-4.444 -3.334,-5.556 -9.445,-0c-6.666,6.111 -27.222,18.889 -46.111,13.889c-7.222,-1.667 -16.666,-16.111 -21.666,-24.445c4.444,-8.888 14.444,-22.777 26.666,-37.777c-65.555,21.111 -127.222,53.889 -182.778,97.222c-0.555,6.667 0.556,22.222 5,40.555c2.778,10.556 8.334,26.667 20,40.556Z" style="fill:#fff;fill-rule:nonzero;"/><path d="M822.222,1590.56c25.556,-10 45.556,-10 65,16.666c5.556,7.222 10,29.445 57.778,10c-25.556,-30 -41.111,-65.555 -53.889,-114.444c-21.667,-76.111 -71.667,-162.778 -53.333,-202.222c-10.556,-10 -22.778,-48.334 -36.111,-43.889c-8.889,2.222 -21.111,3.333 -11.111,-26.111c4.444,-12.778 11.666,-29.445 26.111,-47.778c17.222,-22.778 43.333,-51.111 86.666,-84.445c3.889,-3.333 4.445,-5.555 1.667,-8.333c-4.444,-4.444 -8.889,-9.444 -12.778,-11.667c-4.444,-2.222 -8.889,-1.111 -12.222,2.223c-3.889,3.888 -10,8.333 -13.889,10.555c-3.889,2.222 -33.333,-26.667 -48.889,-47.778c-15.555,-21.111 -31.666,-27.777 -36.666,-30c6.111,-6.666 20.555,-21.666 15,-20c-9.445,3.334 -26.112,5.556 -41.667,-12.222c-20.556,-21.667 -12.222,-32.778 -16.667,-36.111c-4.444,-3.333 -26.666,1.667 -43.333,-24.444c-16.667,-26.112 -23.333,-37.223 -10,-56.112c6.667,-9.444 9.444,-13.888 7.222,-25.555c-1.667,-11.667 0,-19.445 15.556,-33.889c15.555,-15 25,-28.333 31.666,-27.222c5.556,1.111 -10,-18.889 -20,-33.334c-2.222,-3.888 -4.444,-7.222 -6.111,-10c-2.222,-6.111 -6.111,-16.111 -6.666,-27.222c-108.889,109.445 -168.889,253.889 -168.889,407.778c-0,153.889 60,300 169.444,408.889c26.111,26.111 53.333,48.333 82.222,68.889c12.223,-13.889 26.667,-8.334 33.889,-2.222Z" style="fill:#fff;fill-rule:nonzero;"/><path d="M1443.33,1351.67c20,-0.556 53.334,-9.445 77.778,-31.667c-6.667,-8.333 -18.889,-46.667 -21.667,-62.778c-4.444,-17.222 -4.444,-35.555 -22.222,-25.555c-11.111,6.111 -50.555,23.333 -66.666,26.111c-16.667,2.222 -12.223,6.666 -9.445,19.444c2.778,12.778 12.222,49.445 17.222,62.222c5,12.778 11.667,12.778 25,12.223Z" style="fill:#fff;fill-rule:nonzero;"/><path d="M1172.78,902.778c-8.334,-5.556 -37.778,-24.445 -42.222,-27.222c-5,-3.889 -6.667,-3.889 -8.889,-0.556c-1.111,2.222 -5.556,10 -15.556,10c-10,0 -17.778,-3.333 -24.444,5.556c-6.111,8.888 -40.556,49.444 -47.778,75.555c7.222,15.556 17.222,43.333 25,62.778c24.444,-20.556 101.111,-95.556 115.555,-110c6.112,-5.556 6.667,-10.556 -1.666,-16.111Z" style="fill:#fff;fill-rule:nonzero;"/><path d="M986.667,993.889c-5.556,1.111 -28.334,-8.333 -50.556,-12.222c-6.667,-0.556 -8.333,-0.556 -9.444,1.666c-5,19.445 -13.889,52.778 -30,78.334c6.111,10 11.111,18.889 18.889,21.666c17.222,-12.222 49.444,-42.777 59.444,-53.889c9.444,-11.111 21.111,-27.777 21.111,-31.666c0.556,-3.889 -3.889,-5 -9.444,-3.889Z" style="fill:#fff;fill-rule:nonzero;"/><path d="M1310.56,393.333c-7.223,-8.333 -11.667,-6.111 -18.889,1.667c-16.667,20 -49.445,37.222 -106.111,51.667c-56.667,14.444 -110,53.889 -133.334,73.333c-22.778,19.444 -80.555,66.667 -108.889,77.778c-7.222,3.333 -22.777,13.889 -3.333,16.111c15,1.667 25.556,-6.667 57.778,-30c32.222,-23.333 57.222,-40.556 82.222,-64.445c22.778,-22.222 64.444,-43.333 109.444,-56.111c45,-12.777 103.334,-31.666 120,-49.444c8.334,-8.889 8.889,-13.333 1.112,-20.556Z" style="fill:#fff;fill-rule:nonzero;"/><path d="M1025,606.667c3.333,-1.667 -0.556,-15 -11.111,-12.778c-3.333,1.111 0.555,-7.222 -5.556,-3.889c-5,2.222 -6.666,5.556 -12.222,23.333c-5.555,17.778 -5,28.334 -0.555,32.778c3.333,3.333 8.333,3.333 10.555,3.333c1.667,0 3.889,0.556 3.333,-5c-1.111,-5 -1.111,-27.777 15.556,-37.777Z" style="fill:#fff;fill-rule:nonzero;"/><path d="M830.556,671.111c-0,-10 -5,-10 -13.889,-10c-10.556,0 -21.667,3.889 -30,7.222c1.111,3.889 0.555,19.445 2.222,29.445c6.111,31.666 17.222,27.222 25,26.111c7.222,-1.111 21.111,-6.667 15.555,-6.667c-5.555,0 -5.555,-3.889 -5,-12.778c1.112,-10 5.556,-23.888 6.112,-33.333Z" style="fill:#fff;fill-rule:nonzero;"/><path d="M1018.33,1716.67c10.556,-12.223 10,-42.778 4.445,-66.667c-5,-23.333 -41.667,-32.778 -74.445,-19.444c-32.777,13.888 -52.222,8.333 -60,3.333c0,-0 -4.444,-3.333 -7.222,-5c-3.333,-1.667 -3.333,5.555 -6.667,12.778c-3.333,7.222 -4.444,27.777 1.112,40c14.444,-0 33.888,6.111 46.111,11.666c11.666,5 53.333,24.445 71.666,30c8.334,3.334 16.111,4.445 25,-6.666Z" style="fill:#fff;fill-rule:nonzero;"/><path d="M1091.67,1856.11c-1.111,-4.444 -3.334,-30.555 -3.334,-37.778c0,-7.222 1.667,-26.111 2.223,-32.222c0.555,-6.111 2.222,-11.667 -8.334,-11.111c-10,1.111 -33.889,-1.667 -37.778,-13.889c-5,-15 -19.444,-17.778 -27.222,-17.778c-14.444,0 0,15.556 4.445,27.223c5,12.222 22.777,82.222 15,82.777c-8.334,0.556 -0,7.223 6.666,12.223c12.778,9.444 33.334,3.333 38.889,0.555c6.111,-2.222 10.556,-5 9.445,-10Z" style="fill:#fff;fill-rule:nonzero;"/><path d="M811.667,1618.33c3.889,-4.444 3.333,-8.333 0.555,-12.222c-2.222,-4.444 -4.444,-7.222 -7.222,-8.889c-7.222,-2.222 -13.889,1.111 -20,15.556c-6.111,12.778 -7.222,56.111 -5.556,69.444c5,-1.111 14.445,0.556 18.889,1.667c-1.666,-23.889 6.111,-57.778 13.334,-65.556Z" style="fill:#fff;fill-rule:nonzero;"/><path d="M927.222,2038.89c-19.444,1.667 -33.333,-1.111 -55,-10.556c-21.111,-9.444 -50.555,-36.111 -65.555,-53.333c-5,-5.556 -9.445,1.111 -5,7.222c18.889,26.667 47.777,45.556 66.666,55c18.889,10 47.223,10 59.445,8.334c11.666,-1.667 15,-8.334 -0.556,-6.667Z" style="fill:#fff;fill-rule:nonzero;"/><path d="M1128.33,1931.67c-12.222,6.111 -36.111,17.222 -57.777,22.777c2.222,11.112 3.333,16.112 3.333,19.445c13.889,-0 40,-10 61.667,-22.778c5,-3.333 6.666,-6.667 5,-11.111c-2.778,-3.889 -5,-11.667 -12.223,-8.333Z" style="fill:#fff;fill-rule:nonzero;"/><path d="M999.444,1873.89c-3.888,-0 -21.111,3.889 -17.777,6.667c1.666,1.666 9.444,10 13.889,15c5,-0 16.111,-3.334 17.777,-4.445c2.223,-1.111 3.334,-2.222 1.111,-4.444c-2.222,-2.778 -10.555,-10.556 -15,-12.778Z" style="fill:#fff;fill-rule:nonzero;"/><path d="M1132.78,1511.67c-5.556,0.555 -46.111,0.555 -74.445,-3.334c-50.555,-6.111 -100.555,-35 -116.666,-53.889c-2.223,-3.333 -17.223,-1.666 -5,8.334c12.222,10 43.889,38.889 90,47.778c10.555,1.666 27.222,5 30,43.333c2.222,37.778 -1.111,62.778 -1.111,66.667c-0,3.888 -2.223,5 -5.556,0.555c-3.333,-4.444 -13.889,-18.889 -19.444,-21.667c-5.556,-2.777 -9.445,-2.222 -13.889,1.112c-5,3.888 -12.223,11.111 -15.556,15l13.889,8.333c-5,-3.889 -4.444,-5.556 -1.667,-9.445c2.223,-3.888 5,-6.111 7.223,-7.222c2.222,-1.111 6.111,-1.666 10.555,4.445c4.445,6.111 27.778,45.555 32.778,56.111c5,10.555 11.111,3.889 8.889,-2.222c-2.222,-6.112 -7.222,-16.667 -9.445,-20c6.667,-21.112 13.889,-53.334 13.889,-73.889c0,-20.556 -5,-41.667 -8.889,-49.445c16.667,0.556 53.334,0 67.778,-4.444c13.889,-5.556 2.222,-6.667 -3.333,-6.111Z" style="fill:#fff;fill-rule:nonzero;"/><path d="M833.889,1783.33c-1.667,4.445 -8.333,21.667 -10,33.889c-1.667,12.778 -5,32.222 -0,60c5,27.778 7.222,36.667 8.889,41.667l15,-5c-8.334,-5 -17.222,-27.778 -19.445,-73.889c-0.555,-15.556 5.556,-41.667 10.556,-53.889c5,-12.222 -3.333,-7.222 -5,-2.778Z" style="fill:#fff;fill-rule:nonzero;"/><path d="M1666.11,801.111l23.333,-17.222l-36.666,-56.111l18.889,-13.334l41.111,60.556l23.889,-17.222l-42.778,-59.445l18.889,-13.333l44.444,62.778l24.445,-16.667l-66.667,-93.889l-109.444,78.334l60.555,85.555Z" style="fill:#fff;fill-rule:nonzero;"/><path d="M1731.67,938.889l36.111,-16.667l-25,-53.889l83.889,-35l-15,-33.333l-118.334,51.667l38.334,87.222Z" style="fill:#fff;fill-rule:nonzero;"/><path d="M1753.33,995.556l3.889,32.777l79.445,-8.889l3.333,34.445l35.556,-2.778l-10,-115.555l-36.112,2.777l3.334,47.778l-79.445,9.445Z" style="fill:#fff;fill-rule:nonzero;"/><path d="M1757.22,1108.89l0,38.889l117.222,-0.556l-0.555,-38.889l-116.667,0.556Z" style="fill:#fff;fill-rule:nonzero;"/><path d="M1812.78,1203.89c-20,-3.889 -42.778,-0.556 -58.889,11.667c-14.445,11.111 -21.667,21.666 -25.556,42.222c-2.222,12.778 -0.555,30 3.889,44.444l31.111,-10c-3.333,-6.666 -4.444,-17.778 -1.111,-29.444c6.111,-21.111 23.334,-30.556 44.445,-27.222c21.666,3.333 35,23.333 31.111,47.777c-1.667,10 -6.111,17.778 -17.222,25l19.444,22.778c15.556,-10 27.222,-28.333 30,-41.667c4.444,-21.666 -1.111,-37.777 -11.111,-56.111c-11.667,-17.222 -28.889,-26.666 -46.111,-29.444Z" style="fill:#fff;fill-rule:nonzero;"/><path d="M1790.56,1367.22c-16.112,-4.444 -38.334,13.889 -49.445,24.445c-6.111,6.111 -27.778,27.777 -37.778,24.444c-9.444,-3.333 -6.111,-16.667 -3.333,-26.111c4.444,-12.778 11.111,-24.444 21.667,-31.111l-19.445,-8.889c-9.444,8.333 -20,20.556 -24.444,33.333c-5,14.445 -6.667,32.223 -5,42.778c2.222,13.889 7.222,22.778 23.333,21.667c12.222,-1.111 43.333,-21.667 61.667,-37.778c9.444,-8.889 16.666,-10 21.111,-6.667c6.111,3.889 6.111,14.445 3.889,21.667c-3.334,9.444 -7.222,23.333 -15,29.444l26.111,17.778c10.555,-10.555 16.667,-27.222 19.444,-42.222c7.778,-37.778 -12.222,-60.556 -22.777,-62.778Z" style="fill:#fff;fill-rule:nonzero;"/><path d="M1532.22,657.222c10.556,7.222 26.667,12.222 41.667,15l3.333,-32.222c-7.222,0 -17.778,-3.889 -26.666,-10.556c-16.667,-14.444 -17.778,-37.222 -6.667,-52.222c13.889,-17.778 36.667,-21.666 57.222,-8.889c8.333,5.556 11.111,13.889 12.778,26.667l30,-5c-1.667,-17.778 -12.222,-38.889 -22.222,-47.778c-15.556,-13.889 -33.889,-17.222 -53.889,-14.444c-20,2.222 -38.334,15.555 -49.445,30.555c-11.111,16.111 -17.777,38.334 -13.889,58.334c3.889,18.333 10.556,28.889 27.778,40.555Z" style="fill:#fff;fill-rule:nonzero;"/><path d="M446.111,1264.44c1.111,-8.888 0.556,-25.555 10,-26.666c9.445,-1.667 15.556,6.666 17.222,16.111c2.223,13.889 6.111,23.333 1.111,35.555l25,-2.222c4.445,-11.666 2.223,-26.666 0,-40.555c-3.333,-15 -8.333,-26.111 -19.444,-36.111c-10.556,-10 -18.889,-12.223 -35,-8.889c-10,1.666 -26.667,19.444 -27.222,53.889c-0,6.111 -1.667,19.444 -7.222,19.444c-7.223,0.556 -12.778,-8.889 -14.445,-15.556c-1.667,-10 0.556,-30.555 4.445,-38.888l-26.112,-0c-3.888,15 -5.555,35.555 -1.666,51.111c6.666,33.889 27.222,44.444 43.889,42.777c17.777,-2.777 26.666,-21.111 29.444,-50Z" style="fill:#fff;fill-rule:nonzero;"/><path d="M394.444,1122.78l91.667,-1.111l0,-28.889l-91.667,1.111l-1.111,-39.445l-29.444,1.112l1.111,109.444l30,-0.556l-0.556,-41.666Z" style="fill:#fff;fill-rule:nonzero;"/><path d="M561.111,832.222l-71.111,-40l0.556,-1.111l93.888,-1.667l22.223,-33.888l-116.111,-67.223l-17.778,26.667l80,49.444l-108.889,3.334l-15,28.889l114.444,66.666l17.778,-31.111Z" style="fill:#fff;fill-rule:nonzero;"/><path d="M445.556,1009.44c40,0 71.666,-32.222 71.666,-71.666c0,-40 -32.222,-71.667 -71.666,-71.667c-40,0 -71.667,32.222 -71.667,71.667c0.555,39.444 32.222,71.666 71.667,71.666Zm-0,-109.444c20.555,0 37.222,16.667 37.222,37.222c-0,20.556 -16.667,37.222 -37.222,37.222c-20.556,0 -37.223,-16.666 -37.223,-37.222c0,-20.555 16.667,-37.222 37.223,-37.222Z" style="fill:#fff;fill-rule:nonzero;"/><path d="M563.333,1408.89c0,-40 -32.222,-71.667 -71.666,-71.667c-40,0 -71.667,32.222 -71.667,71.667c0,40 32.222,71.667 71.667,71.667c39.444,-0 71.666,-32.778 71.666,-71.667Zm-71.666,36.667c-20.556,-0 -37.223,-16.667 -37.223,-37.223c0,-20.555 16.667,-37.222 37.223,-37.222c20.555,0 37.222,16.667 37.222,37.222c-0,20.556 -16.667,37.223 -37.222,37.223Z" style="fill:#fff;fill-rule:nonzero;"/><path d="M577.778,1490c-10.556,10 -16.111,32.778 -6.111,48.333c-11.111,-5.555 -33.889,-7.222 -44.445,1.667c-26.111,22.222 5.556,54.444 31.111,80l36.111,35.556l94.445,-77.778l-38.333,-44.445c-12.778,-17.777 -50.556,-63.333 -72.778,-43.333Zm3.889,125c-10,-11.111 -37.778,-33.333 -26.111,-44.444c11.111,-10.556 40,23.333 42.777,27.777l-16.666,16.667Zm43.889,-40l-2.223,-3.333c-8.333,-10 -33.889,-37.778 -23.333,-47.778c10,-10 35.556,22.222 42.222,31.111l3.334,3.889l-20,16.111Z" style="fill:#fff;fill-rule:nonzero;"/><path d="M895.556,1733.89c-10,-0 -19.445,-4.445 -24.445,-1.111c-4.444,2.222 -0.555,10 5.556,11.666c5,1.667 32.777,0 37.777,0l8.889,1.112c0,-11.667 -3.889,-11.112 -6.111,-12.778c-2.222,-1.111 -12.222,1.111 -21.666,1.111Z" style="fill:#fff;fill-rule:nonzero;"/></g></g></g></g><path d="M2083.33,625l0,972.222c0,268.292 -217.819,486.111 -486.111,486.111l-972.222,0c-268.292,0 -486.111,-217.819 -486.111,-486.111l-0,-972.222c-0,-268.292 217.819,-486.111 486.111,-486.111l972.222,-0c268.292,-0 486.111,217.819 486.111,486.111Z" style="fill:none;stroke:#000;stroke-width:11.11px;"/></svg>