<?xml version="1.0" encoding="UTF-8" standalone="no"?><!DOCTYPE svg PUBLIC "-//W3C//DTD SVG 1.1//EN" "http://www.w3.org/Graphics/SVG/1.1/DTD/svg11.dtd"><svg width="100%" height="100%" viewBox="0 0 1667 1667" version="1.1" xmlns="http://www.w3.org/2000/svg" xmlns:xlink="http://www.w3.org/1999/xlink" xml:space="preserve" xmlns:serif="http://www.serif.com/" style="fill-rule:evenodd;clip-rule:evenodd;stroke-linecap:round;stroke-linejoin:round;stroke-miterlimit:1.5;"><path d="M1562.5,468.75l0,729.167c0,201.219 -163.364,364.583 -364.583,364.583l-729.167,0c-201.219,0 -364.583,-163.364 -364.583,-364.583l-0,-729.167c-0,-201.219 163.364,-364.583 364.583,-364.583l729.167,-0c201.219,-0 364.583,163.364 364.583,364.583Z" style="fill:#fff;"/><clipPath id="_clip1"><path d="M1562.5,468.75l0,729.167c0,201.219 -163.364,364.583 -364.583,364.583l-729.167,0c-201.219,0 -364.583,-163.364 -364.583,-364.583l-0,-729.167c-0,-201.219 163.364,-364.583 364.583,-364.583l729.167,-0c201.219,-0 364.583,163.364 364.583,364.583Z"/></clipPath><g clip-path="url(#_clip1)"><g><path d="M863.75,1262.5c18.333,-0 74.167,-0 120.417,-40c41.25,-37.5 45.416,-81.25 46.666,-130.833l-0.416,-139.584c-0,-43.75 -0,-97.083 -45.417,-135c-9.583,-7.916 -20.833,-14.583 -34.167,-20.416c21.25,-14.167 35.417,-33.75 43.75,-58.334c7.084,-21.666 6.667,-49.166 6.667,-59.583l-0.417,-124.167c-1.25,-34.583 -5,-73.75 -32.916,-105.416c-24.584,-27.084 -61.667,-41.25 -108.334,-41.25l-0.833,-0l-168.75,0.416c-5,0 -9.583,2.084 -13.75,5.834c-3.75,3.75 -5.417,8.333 -5.417,13.333l1.25,815.833c0,6.667 3.334,12.917 9.167,16.25c2.917,2.084 6.667,2.917 10.833,2.917l171.667,-0Zm65,-361.25c5,15.833 5.833,32.917 5.833,49.167l0.417,115.833c0,52.917 -3.333,77.5 -23.333,92.917c-12.084,8.75 -26.667,13.75 -64.167,15l-69.583,-0c-5.834,-0 -7.917,-3.334 -7.917,-9.167c0,-47.5 -0.833,-310 -0.833,-312.083c-0,-2.5 0.833,-5.834 5.416,-5.834c22.917,0 45.417,0 67.917,2.084c19.583,2.083 40.833,5.833 57.917,16.666c13.333,8.75 22.5,20.417 28.333,35.417Zm-155.833,-405.833l46.25,-0c60.416,-0 86.666,8.75 86.666,70.833l0,104.583c-0.833,25 -1.25,67.917 -50.833,82.5c-13.75,3.75 -20.417,5 -50.833,6.25l-30.417,0c-4.583,0 -5.833,-2.5 -5.833,-6.25c-0,-2.5 -0.417,-251.25 -0.417,-251.25c-0.417,-4.166 1.25,-6.25 5.417,-6.666Zm62.5,-300.417c-353.334,-0 -640.417,287.5 -640.417,640.417c-0,352.916 287.5,640.416 640.417,640.416c352.916,0 640.416,-287.5 640.416,-640.416c0,-352.917 -287.083,-640.417 -640.416,-640.417Zm580,484.167c10.833,40.833 17.916,82.916 20,126.666c-17.5,35 -52.5,63.75 -77.917,77.917c-2.083,-16.667 -5,-35.417 -8.75,-52.5c-3.75,-17.5 -8.333,-35 -12.917,-52.083c20.417,-12.917 37.917,-28.334 51.667,-47.084c12.917,-17.5 22.083,-35.416 27.917,-52.916Zm-580,-444.167c230,-0 430,130 530.833,320c25,47.083 22.917,104.583 -7.5,148.333c-1.25,1.667 -2.5,3.334 -3.333,5c-8.75,11.667 -19.167,22.084 -31.667,30.834c-32.5,-102.917 -78.75,-192.5 -137.5,-267.084c-61.25,-77.5 -136.25,-139.166 -223.333,-183.75c-49.584,-25.833 -97.084,-42.5 -138.334,-53.333l10.834,-0Zm-390.417,1056.67c-125,-107.084 -205.833,-265 -210,-441.25c25.833,27.5 66.25,63.75 122.5,98.75c62.5,39.166 153.75,80.833 274.583,100.833l0,-40.417c-110.416,-19.166 -193.75,-57.083 -251.666,-92.916c-82.917,-51.25 -129.167,-106.667 -143.75,-125.834c7.083,-97.083 37.5,-187.5 85.416,-266.25c25.417,-9.583 143.334,-45.833 292.084,35.417c5.833,2.917 11.666,6.25 17.5,9.583l-0,-45.833c-116.667,-63.333 -216.25,-60.833 -275,-50c58.75,-77.917 136.25,-140.833 225.416,-182.5c66.667,-31.25 142.084,-39.167 213.75,-22.083c43.334,10 95,27.083 149.167,54.583c81.667,41.667 152.5,100 210.417,172.917c57.5,72.916 102.083,160.833 133.333,262.083c-19.167,7.917 -41.25,13.75 -66.25,17.5c-57.083,7.917 -121.25,-6.25 -187.917,-31.667c-4.166,15.417 -6.666,22.084 -15.416,36.667c58.75,22.5 116.666,37.083 170.833,37.083c12.917,0 25.417,-0.833 37.917,-2.5c26.25,-3.75 50.416,-9.583 71.666,-18.333c3.75,13.75 7.084,27.917 10.417,42.5c4.583,21.25 8.333,42.5 10.417,63.333c-58.75,30 -142.084,60.834 -249.167,83.75l-0,40.417c97.083,-20.417 184.167,-48.333 252.083,-80.833c0.834,35 -1.666,70 -7.5,104.583c-28.75,17.083 -62.083,42.917 -101.25,77.083c-95,84.167 -187.5,157.917 -353.75,211.25c-83.75,26.667 -167.916,30 -230.833,26.25c-68.333,-3.75 -132.917,-30 -185,-74.166Zm827.917,-103.334c-6.667,15 -13.75,28.75 -20.834,41.25c-35,63.334 -88.75,113.75 -153.75,145.417c-79.583,39.167 -169.166,60.833 -263.333,60.833c-64.167,0 -126.25,-10 -184.167,-28.75c6.667,0 13.334,0.417 20.417,0.417c59.167,-0 130,-6.667 201.25,-29.583c173.75,-55.417 273.333,-135.417 368.333,-219.584c24.167,-21.25 44.584,-37.916 61.667,-50.416c-7.5,27.083 -17.5,53.75 -29.583,80.416Zm37.916,13.75c15.417,-34.166 30.417,-76.25 40,-124.583c24.167,-12.083 35,-11.25 38.75,-10c-20.416,48.333 -47.083,93.75 -78.75,134.583Zm94.584,-177.5c-1.25,-0.833 -5,-1.25 -14.167,-1.25c-15,0.417 -32.5,7.084 -32.5,7.084c4.167,-32.5 5.417,-67.5 3.333,-104.167c12.917,-7.5 25,-15.417 36.25,-23.333c15,-10.834 27.084,-21.25 37.084,-31.25c-3.75,52.916 -13.75,104.166 -30,152.916Z" style="fill-rule:nonzero;"/><g><path d="M774.167,759.583l30,0c30.416,-0.833 37.083,-2.083 50.833,-6.25c50,-15 50.417,-57.5 50.833,-82.5l0,-104.583c0,-62.083 -26.25,-70.833 -86.666,-70.833l-46.25,-0c-4.167,0.416 -5.834,2.916 -5.834,7.083c0,-0 0.417,248.75 0.417,251.25c-0,3.75 1.25,6.25 5.833,6.25c0.417,-0.417 0.417,-0.417 0.834,-0.417Z" style="fill:#fff;fill-rule:nonzero;"/><path d="M928.75,901.25c-5.833,-15.417 -15,-26.667 -28.333,-35c-17.084,-10.833 -37.917,-14.583 -57.917,-16.667c-22.5,-2.5 -45.417,-2.083 -67.917,-2.083c-5,-0 -5.416,3.333 -5.416,5.833c-0,2.084 0.833,264.584 0.833,312.084c0,5.416 2.083,9.166 7.917,9.166l69.583,0c37.5,-1.25 52.5,-6.25 64.167,-15c20,-15.416 23.333,-40.416 23.333,-92.916l-0.417,-115.834c0,-16.25 -0.416,-33.75 -5.833,-49.583Z" style="fill:#fff;fill-rule:nonzero;"/><path d="M1322.92,946.667c-67.917,32.916 -155,60.416 -252.084,80.833l0,-40.417c107.084,-22.916 190.834,-53.75 249.167,-83.75c-2.083,-21.25 -5.833,-42.083 -10.417,-63.333c-3.333,-14.583 -6.666,-28.333 -10.416,-42.5c-21.25,8.333 -45.417,14.583 -71.667,18.333c-12.5,1.667 -25,2.5 -37.917,2.5c-54.166,0 -112.083,-14.583 -170.833,-37.083c8.75,-14.583 10.833,-21.25 15.417,-36.667c66.25,25.417 130.833,39.584 187.916,31.667c24.584,-3.333 46.667,-9.167 66.25,-17.5c-31.25,-101.25 -75.833,-189.167 -133.333,-262.083c-57.5,-72.917 -128.333,-131.25 -210.417,-172.917c-54.166,-27.5 -105.833,-44.583 -149.166,-54.583c-71.667,-16.667 -147.084,-9.167 -213.75,22.083c-89.167,41.667 -166.667,105 -225.417,182.5c58.75,-10.833 158.333,-13.333 275,50l0,45.833c-5.833,-3.333 -11.667,-6.666 -17.5,-9.583c-148.75,-81.25 -266.667,-45 -292.083,-35.417c-47.917,78.75 -78.334,169.167 -85.417,266.25c14.583,19.167 60.833,74.167 143.75,125.834c57.917,35.833 141.25,74.166 251.667,92.916l-0,40.417c-120.834,-20 -212.084,-61.667 -274.584,-100.833c-56.25,-35 -96.25,-71.25 -122.5,-98.75c4.167,176.25 85,334.166 210,441.25c51.667,44.166 116.667,70.416 184.584,74.583c62.5,3.333 147.083,0.417 230.833,-26.25c166.25,-53.333 258.75,-127.083 353.75,-211.25c38.75,-34.583 72.5,-60 101.25,-77.083c6.25,-35 8.75,-70 7.917,-105Zm-338.75,275.833c-46.667,39.583 -102.5,40 -120.417,40l-171.667,0.417c-3.75,-0 -7.5,-1.25 -10.833,-2.917c-5.833,-3.333 -9.167,-9.583 -9.167,-16.25l-1.25,-816.25c0,-5 1.667,-9.583 5.417,-13.333c3.75,-3.75 8.75,-5.834 13.75,-5.834l168.75,-0.416l0.833,-0c46.667,-0 83.75,14.166 108.334,41.25c27.916,31.666 31.666,70.833 32.916,105.416l0.417,124.167c0.417,10.417 0.417,37.917 -6.667,59.583c-7.916,24.584 -22.5,44.167 -43.75,58.334c13.75,5.416 25,12.5 34.167,20.416c45.417,37.917 45.417,91.25 45.417,135l0.416,139.584c-0.833,49.583 -5.416,93.333 -46.666,130.833Z" style="fill:#fff;fill-rule:nonzero;"/><path d="M1240.83,1158.33c-95,83.75 -194.583,163.75 -368.333,219.584c-71.25,22.916 -142.083,29.583 -201.25,29.583c-7.083,-0 -13.75,-0 -20.417,-0.417c57.917,18.75 120,28.75 184.167,28.75c94.583,0 183.75,-22.083 263.333,-60.833c65,-31.667 118.75,-82.083 153.75,-145.417c7.084,-12.5 14.167,-26.25 20.834,-41.25c12.083,-26.666 21.666,-53.333 29.583,-80.416c-17.083,12.5 -37.5,29.166 -61.667,50.416Z" style="fill:#fff;fill-rule:nonzero;"/><path d="M1415.42,679.167c-5.834,17.5 -14.584,35.833 -27.917,52.916c-14.167,18.75 -31.25,34.167 -51.667,47.084c4.584,17.083 8.75,34.166 12.917,52.083c3.75,17.083 6.667,35.833 8.75,52.5c25.417,-14.167 60,-42.917 77.917,-77.917c-2.5,-43.75 -9.167,-86.25 -20,-126.666Z" style="fill:#fff;fill-rule:nonzero;"/><path d="M1350.83,1077.5c-10,48.75 -25,90.833 -40,124.583c31.667,-41.25 58.334,-86.25 78.75,-135c-3.75,-0.833 -14.583,-1.666 -38.75,10.417Z" style="fill:#fff;fill-rule:nonzero;"/><path d="M1186.25,471.667c59.167,75 105.417,164.583 137.5,267.083c12.5,-8.75 22.917,-19.167 31.667,-30.833c1.25,-1.667 2.5,-3.334 3.333,-5c30,-43.75 32.083,-101.25 7.5,-148.334c-100.833,-190.416 -300.833,-320 -530.833,-320l-10.834,0c41.25,11.25 88.75,27.917 138.334,52.917c86.666,45 162.083,106.667 223.333,184.167Z" style="fill:#fff;fill-rule:nonzero;"/><path d="M1405.42,1024.58c16.25,-48.75 26.25,-100 29.583,-152.916c-10,10 -22.083,20.416 -37.083,31.25c-10.834,7.916 -22.917,15.833 -36.25,23.333c2.083,36.667 0.833,71.667 -3.334,104.167c0,-0 17.917,-6.25 32.5,-7.084c10,-0.416 13.334,0.417 14.584,1.25Z" style="fill:#fff;fill-rule:nonzero;"/></g></g></g><path d="M1562.5,468.75l0,729.167c0,201.219 -163.364,364.583 -364.583,364.583l-729.167,0c-201.219,0 -364.583,-163.364 -364.583,-364.583l-0,-729.167c-0,-201.219 163.364,-364.583 364.583,-364.583l729.167,-0c201.219,-0 364.583,163.364 364.583,364.583Z" style="fill:none;stroke:#000;stroke-width:8.33px;"/></svg>