<?xml version="1.0" encoding="UTF-8" standalone="no"?><!DOCTYPE svg PUBLIC "-//W3C//DTD SVG 1.1//EN" "http://www.w3.org/Graphics/SVG/1.1/DTD/svg11.dtd"><svg width="100%" height="100%" viewBox="0 0 1667 1667" version="1.1" xmlns="http://www.w3.org/2000/svg" xmlns:xlink="http://www.w3.org/1999/xlink" xml:space="preserve" xmlns:serif="http://www.serif.com/" style="fill-rule:evenodd;clip-rule:evenodd;stroke-linecap:round;stroke-linejoin:round;stroke-miterlimit:1.5;"><path d="M1562.5,468.75l0,729.167c0,201.219 -163.364,364.583 -364.583,364.583l-729.167,0c-201.219,0 -364.583,-163.364 -364.583,-364.583l-0,-729.167c-0,-201.219 163.364,-364.583 364.583,-364.583l729.167,-0c201.219,-0 364.583,163.364 364.583,364.583Z" style="fill:#00788c;"/><clipPath id="_clip1"><path d="M1562.5,468.75l0,729.167c0,201.219 -163.364,364.583 -364.583,364.583l-729.167,0c-201.219,0 -364.583,-163.364 -364.583,-364.583l-0,-729.167c-0,-201.219 163.364,-364.583 364.583,-364.583l729.167,-0c201.219,-0 364.583,163.364 364.583,364.583Z"/></clipPath><g clip-path="url(#_clip1)"><g id="Layer_2_1_"><path d="M465.833,802.083l-102.916,0l-0,111.25l-61.667,30.417l61.667,32.083l-0,99.167l68.333,42.083c25,-3.333 57.083,-7.5 94.583,-11.25l263.75,152.084l47.917,221.25c0.417,-0.417 48.333,-221.25 48.333,-221.25l263.334,-152.084c37.083,3.75 69.166,7.5 94.583,11.25l67.917,-42.083l-0,-99.167l61.666,-31.666l-61.666,-31.25l-0,-111.25l-102.5,-0c-0,-0 15.833,-15.417 36.25,-50c8.333,-14.584 16.666,-32.5 26.25,-53.75c75,-22.5 130.416,-70.834 153.75,-117.084c64.166,-117.5 112.5,-260.833 112.5,-260.833c-0,0 -27.5,13.333 -61.25,30c27.083,-82.5 43.333,-152.917 43.333,-152.917c0,0 -295.833,195.417 -525.833,379.584l-20,-12.084c-0,-2.083 0.833,-18.75 0.833,-20c-0,0 2.5,-19.583 -32.083,-31.25c-2.5,-0.833 -4.167,-1.666 -6.25,-2.083c16.666,-12.5 42.5,-31.667 61.666,-44.583c30,-20.834 26.667,-43.334 26.667,-43.334l-109.167,81.25c-84.583,-27.083 -155,0 -155,0l-109.166,-81.25c-0,0 -3.334,22.5 26.666,43.334c18.75,12.916 45,32.083 61.667,44.583c-2.083,0.833 -3.75,1.667 -6.25,2.083c-34.583,11.667 -32.083,31.25 -32.083,31.25c-0,1.667 0.416,17.917 0.833,20l-20,12.084c-231.667,-183.334 -527.083,-379.167 -527.083,-379.167c-0,0 16.25,69.583 43.333,152.5c-35.833,-17.5 -61.25,-30 -61.25,-30c-0,0 48.333,143.75 112.5,260.833c23.75,46.667 78.75,94.584 153.75,117.084c0,-0 12.5,28.75 23.333,50c13.334,25.833 38.75,54.166 38.75,54.166" style="fill:#1d1160;fill-rule:nonzero;"/><path d="M961.667,635c-1.25,2.917 -2.5,6.667 -2.917,9.583c103.333,-67.5 284.167,-185.416 487.083,-317.5c0,0 0.417,4.167 17.917,-47.5c-214.583,129.167 -403.75,275.834 -502.083,355.417" style="fill:#00788c;fill-rule:nonzero;"/><path d="M713.333,635c-98.333,-79.583 -287.916,-226.25 -502.083,-355.417c17.917,52.5 17.917,47.917 17.917,47.917c202.916,131.667 383.333,249.583 487.083,317.5c-0.417,-3.333 -1.667,-6.667 -2.917,-10" style="fill:#00788c;fill-rule:nonzero;"/><path d="M837.5,739.583c-17.5,-7.083 -62.083,-29.166 -89.167,-87.083c22.084,18.75 50,25 72.5,2.917c-27.083,-12.084 -30.833,-60.834 -36.25,-73.334c-10.833,-26.25 -27.5,-39.166 -41.25,-44.583c6.667,-2.5 12.5,-4.167 18.75,-6.25c12.5,7.083 34.167,22.917 41.25,55c0,-0 2.5,-36.667 -15.416,-61.667c35,-8.333 70.416,-7.5 99.166,0c-17.916,25.417 -15.416,61.667 -15.416,61.667c7.083,-32.083 27.916,-47.917 41.25,-55c5.833,2.083 12.083,3.75 18.75,6.25c-13.334,5.417 -30.417,18.75 -41.25,44.583c-5.417,12.5 -8.75,61.667 -36.25,73.334c6.25,37.5 -1.25,72.083 -16.667,84.166m-312.083,68.334c-0,-0 -50.834,-36.667 -79.584,-102.917l20.417,6.25c66.25,17.5 192.917,35 192.917,35c-61.25,1.667 -112.5,6.25 -142.084,9.167c-6.25,-7.5 -12.916,-17.084 -15.833,-24.584c0,0 2.5,22.917 7.5,37.5c6.667,22.084 16.667,39.584 16.667,39.584" style="fill:#00788c;fill-rule:nonzero;"/><path d="M1165.83,768.75c5.417,-14.583 7.5,-37.5 7.5,-37.5c-2.5,7.5 -9.583,17.083 -15.833,24.583c-29.583,-3.333 -81.25,-7.916 -142.083,-9.583c-0,0 126.666,-17.083 192.916,-35l20.417,-6.25c-28.75,66.667 -79.583,102.5 -79.583,102.917c0.416,-0 10.416,-17.5 16.666,-39.167" style="fill:#00788c;fill-rule:nonzero;"/><path d="M679.583,1122.5l-129.166,-74.583c-9.167,0.833 -18.334,2.083 -27.084,2.5l179.167,103.333c-8.75,-9.167 -16.25,-20 -22.917,-31.25" style="fill:#00788c;fill-rule:nonzero;"/><path d="M995.417,1122.5l129.166,-74.583c9.167,0.833 18.334,2.083 27.084,2.5l-179.167,103.333c8.75,-9.167 16.25,-20 22.917,-31.25" style="fill:#00788c;fill-rule:nonzero;"/><path d="M780.417,1140c-56.667,-12.5 -80.834,-40.417 -80.834,-40.417c11.667,23.75 29.167,44.167 51.25,59.167c-0.416,-0.417 23.75,-7.083 29.584,-18.75" style="fill:#00788c;fill-rule:nonzero;"/><path d="M745.417,1078.75c-3.75,-3.75 -7.917,-7.917 -12.5,-12.5c-17.917,6.25 -28.334,13.333 -33.75,17.917c12.5,12.083 36.666,27.916 80,37.083c-5.417,-13.75 -18.75,-27.5 -33.75,-42.5" style="fill:#00788c;fill-rule:nonzero;"/><path d="M836.25,1213.33c-18.75,0.417 -32.083,7.5 -37.083,9.167c-4.584,-8.75 -10.417,-17.917 -15.417,-26.25c16.25,2.083 30.417,-1.25 30.417,-1.25c-7.084,-2.5 -24.167,-7.917 -47.084,-23.333c2.084,-0.834 3.75,-2.084 6.25,-2.5c6.25,-2.917 12.5,-7.084 17.084,-12.084c5.833,-5.833 9.583,-13.333 9.583,-22.083c0,-28.333 -19.167,-37.917 -40.417,-59.167c-4.166,-4.166 -8.75,-8.333 -13.333,-12.916c19.583,-5.417 46.667,-9.167 82.083,-10l8.334,120.416l1.25,0l8.75,-120.416c36.25,0.833 62.5,4.583 82.083,10c-4.583,4.583 -9.167,8.75 -13.333,12.916c-21.667,21.25 -40.417,30.834 -40.417,59.167c0,9.167 3.75,16.667 9.583,22.083c5,5 10.834,8.75 17.084,12.084c2.083,1.25 4.166,2.083 6.25,2.5c-22.917,15.416 -40.834,21.25 -47.084,23.333c0,0 14.167,2.917 30.417,1.25c-5.417,7.917 -10.833,17.083 -15.417,26.25c-4.583,-1.667 -17.916,-8.75 -37.083,-9.167l-2.5,0Z" style="fill:#00788c;fill-rule:nonzero;"/><path d="M924.167,1158.33c21.666,-15 39.166,-35.416 51.25,-59.166c-0,-0 -23.334,27.916 -80.834,40.416c5.834,12.084 29.584,18.75 29.584,18.75" style="fill:#00788c;fill-rule:nonzero;"/><path d="M895.833,1122.08c42.917,-8.75 67.084,-25 80,-37.083c-5.416,-5 -15.833,-12.083 -33.75,-17.917c-3.75,4.167 -7.916,8.334 -12.5,12.5c-15,14.167 -28.333,27.917 -33.75,42.5" style="fill:#00788c;fill-rule:nonzero;"/><path d="M798.75,658.75c0,0 -20.833,-13.75 -24.167,-42.917c0,0 -27.083,45.417 24.167,42.917" style="fill:#fff;fill-rule:nonzero;"/><path d="M877.5,658.75c0,0 20.833,-13.75 24.167,-42.917c0.416,0 27.083,45.417 -24.167,42.917" style="fill:#fff;fill-rule:nonzero;"/><path d="M862.083,1257.5c-3.75,-3.75 -9.166,-8.333 -25.833,-8.333c-15.833,-0 -21.25,3.75 -25.833,7.5l27.083,105.833l24.583,-105Z" style="fill:#fff;fill-rule:nonzero;"/><path d="M1040,790.833l0,38.75l-12.917,0l0,-38.75l-10.833,0l0,-11.25l34.583,0l0,11.25l-10.833,0Z" style="fill:#fff;fill-rule:nonzero;"/><path d="M978.75,790.833l0,38.75l-12.917,0l0,-38.75l-10.833,0l0,-11.25l35,0l0,11.25l-11.25,0Z" style="fill:#fff;fill-rule:nonzero;"/><path d="M795.417,811.667l4.583,-0l0,-27.084l-5.417,-5.416l-32.916,-0l-0,50l12.5,-0l-0,-17.5l9.166,-0l7.5,17.5l12.5,-0l-7.916,-17.5Zm-7.917,-10.834l-13.75,0l0,-10l13.75,0l0,10Z" style="fill:#fff;fill-rule:nonzero;"/><path d="M1115.42,790.833l-0,-11.25l-37.084,0l0,50l37.084,0l-0,-11.25l-24.167,0l0,-7.916l24.167,-0l-0,-11.25l-24.167,-0l0,-8.334l24.167,0Z" style="fill:#fff;fill-rule:nonzero;"/><path d="M844.583,818.333l0,-38.75l-13.333,0l0,50l31.667,0l-0,-11.25l-18.334,0Z" style="fill:#fff;fill-rule:nonzero;"/><path d="M920,779.583l-32.917,0l0,44.584l5.834,5.833l32.916,0l0,-44.583l-5.833,-5.834Zm-6.25,38.75l-14.167,0l0,-27.5l14.167,0l0,27.5Z" style="fill:#fff;fill-rule:nonzero;"/><path d="M731.667,829.583l-0,-44.583l-5.417,-5.833l-33.75,-0l0,50l12.5,-0l0,-16.25l14.167,-0l-0,16.25l12.5,0.416Zm-26.667,-38.75l14.167,0l-0,11.667l-14.167,0l0,-11.667Z" style="fill:#fff;fill-rule:nonzero;"/><path d="M652.5,779.583l0,22.5l-14.167,0l0,-22.5l-12.5,0l0,50l12.5,0l0,-16.25l14.167,0l0,16.25l12.5,0l0,-50l-12.5,0Z" style="fill:#fff;fill-rule:nonzero;"/><path d="M1402.5,425c24.167,-57.083 42.5,-97.5 42.5,-97.5c-202.917,131.667 -383.333,249.583 -487.083,317.5c-3.75,11.25 -8.334,21.25 -13.334,30.417l408.334,-222.5l-318.75,230l14.583,-2.5l168.333,-16.25c0,-0 113.75,-11.25 177.084,-96.25c30,-45.834 80.833,-179.584 80.833,-179.584l-72.5,36.667Z" style="fill:#fff;fill-rule:nonzero;"/><path d="M427.083,957.5l39.167,-17.083l0,89.166c11.25,-1.666 22.5,-2.916 34.583,-4.166l0,-195.417l-34.583,0c0,-0.417 0,70.417 0,70.417l-39.167,16.666l0,-86.666l-34.583,-0l0,101.25l-28.333,13.75l28.333,14.166l0,82.084c11.25,-2.084 22.917,-3.75 34.583,-5.834l0,-78.333Z" style="fill:#fff;fill-rule:nonzero;"/><path d="M696.667,957.083c8.333,-0.416 17.083,-0.416 25.833,-0.833c6.667,16.667 12.917,35.417 19.167,51.667c11.666,-0.417 22.916,-0.834 34.583,-0.834c-6.667,-16.666 -12.5,-35.416 -19.167,-51.666c4.167,-0 8.75,-0 12.917,-0.417l0,-80l-15.417,-15l-105.833,0l12.917,15.833l-0,135.834c11.666,-0.834 22.916,-1.25 34.583,-2.084l0.417,-52.5Zm-0,-65.416l39.166,-0l0,30.833c-12.916,0 -26.25,0.417 -39.166,0.833l-0,-31.666Z" style="fill:#fff;fill-rule:nonzero;"/><path d="M831.25,891.667l39.583,-0l0,115c12.084,-0 24.167,0.416 36.25,0.416l0,-131.25l-15.833,-15.833l-108.333,-0l12.916,15.833l0,131.25c12.084,0 23.334,-0.416 35.417,-0.416l-0,-115Z" style="fill:#fff;fill-rule:nonzero;"/><path d="M1036.67,979.167c-22.084,-1.25 -44.584,-2.5 -66.667,-2.917l0,-24.583c22.083,0.833 44.583,1.666 66.667,2.5l-0,-34.584c-22.084,-0.833 -44.584,-1.25 -66.667,-1.666l0,-26.25l66.667,-0l-0,-32.084l-116.25,0l12.916,15.417l0,132.5c35.417,1.25 70,2.5 103.334,4.583l-0,-32.916Z" style="fill:#fff;fill-rule:nonzero;"/><path d="M1123.75,891.667l30,-0l0,-32.084l-97.5,0l0,32.084l30.417,-0l-0,124.583c12.5,1.25 25.416,2.083 37.5,2.917l-0.417,-127.5Z" style="fill:#fff;fill-rule:nonzero;"/><path d="M636.25,875.833l-15.833,-15.833l-106.25,0l12.5,15l-0,129.167l13.75,16.666c30.416,-2.916 62.5,-5.833 95.833,-7.5l0,-137.5Zm-34.583,105c-13.334,0.834 -26.667,1.667 -39.584,2.5l0,-91.666l39.584,-0l-0,89.166Z" style="fill:#fff;fill-rule:nonzero;"/><path d="M1278.75,958.75c10.833,-4.583 21.667,-9.583 32.083,-14.583c-34.583,-16.25 -69.166,-30.417 -103.333,-43.75l0,-39.167l36.667,0l-0,14.167l35,-0l-0,-45.417l-119.167,0l12.917,15.417l-0,80.833l71.25,30.833l-0,45.417c-0,0 -16.667,-2.083 -36.667,-4.583l0,-14.584l-34.583,-4.166l-0,46.25c37.5,4.166 73.333,9.583 105.833,15.416l0,-82.083" style="fill:#fff;fill-rule:nonzero;"/><path d="M585,814.167l0,4.166l-11.25,0l0,-27.5l11.25,0l0,4.167l12.917,0l-0,-15.417l-36.25,0l-0,44.584l5.833,5.416l30.417,0l-0,-15.416l-12.917,-0Z" style="fill:#fff;fill-rule:nonzero;"/><path d="M272.5,425c-24.167,-57.083 -42.5,-97.5 -42.5,-97.5c202.917,131.667 383.333,249.583 487.083,317.5c3.75,11.25 8.334,21.25 13.334,30.417l-408.334,-222.917l318.75,230l-14.583,-2.5l-168.333,-16.25c-0,0 -113.75,-11.25 -177.084,-96.25c-30,-45.833 -80.833,-179.583 -80.833,-179.583l72.5,37.083Z" style="fill:#fff;fill-rule:nonzero;"/><path d="M1529.58,385.417c-32.083,86.25 -75.416,175.416 -96.666,212.5c-36.25,61.666 -108.334,98.75 -150.417,112.5c0,-0 -20.417,49.583 -42.083,76.666l86.25,0l-0,117.5l82.083,39.167l-82.083,41.667l-0,98.333l-79.584,48.75c0,0 -63.333,-7.5 -94.583,-11.25l-252.5,145.833c-50.833,228.75 -62.5,295 -62.5,295c-0,0 -12.083,-62.5 -62.5,-295l-252.5,-145.416c-30.833,2.916 -94.583,11.25 -94.583,11.25l-79.584,-48.75l0,-98.334l-82.083,-41.666l81.667,-39.167l-0,-117.5l86.25,-0c-20.834,-26.25 -42.084,-76.667 -42.084,-76.667c-25.416,-8.333 -49.583,-20 -71.25,-33.75c-34.166,-22.083 -61.666,-49.166 -79.583,-78.75c-34.167,-60.833 -75,-151.666 -96.667,-212.5c-14.166,-37.5 -32.083,-93.75 -32.083,-93.75c-0,0 46.667,22.084 61.667,29.584c-22.5,-67.084 -41.667,-157.084 -41.667,-157.084c-0,0 322.917,212.5 550,394.167l3.333,-2.5l0,-11.667c0,-2.5 0,-7.083 2.084,-12.5c2.5,-7.5 8.333,-17.083 21.666,-25c-16.666,-12.5 -46.666,-32.916 -49.166,-35.833c-22.084,-19.167 -25.834,-40.417 -23.75,-51.25l3.75,-24.167l122.916,91.25c66.667,-19.166 114.167,-9.583 149.167,0l122.917,-91.25l3.75,24.167c1.666,10.417 -2.084,32.083 -23.75,51.25c-2.5,2.5 -32.5,23.333 -49.167,35.833c12.917,7.917 18.75,17.084 21.667,25c2.083,5.417 2.083,10 2.083,12.5l0,11.667l3.333,2.5c231.667,-185.833 549.584,-394.167 549.584,-394.167c-0,0 -15.834,73.75 -41.667,157.084c12.5,-6.25 61.667,-29.584 61.667,-29.584c-14.584,44.584 -33.334,93.334 -33.334,93.334m-1063.75,416.666l-102.916,0l-0,111.25l-61.667,30.417l61.667,32.083l-0,99.167l68.333,42.083c25,-3.333 57.083,-7.5 94.583,-11.25l263.75,152.084l47.917,221.25c0.417,-0.417 48.333,-221.25 48.333,-221.25l263.334,-152.084c37.083,3.75 69.166,7.5 94.583,11.25l67.917,-42.083l-0,-99.167l61.666,-31.666l-61.666,-31.25l-0,-111.25l-102.5,-0c-0,-0 15.833,-15.417 36.25,-50c8.333,-14.584 16.666,-32.5 26.25,-53.75c75,-22.5 130.416,-70.834 153.75,-117.084c64.166,-117.5 112.5,-260.833 112.5,-260.833c-0,-0 -27.5,13.333 -61.25,30c27.083,-82.5 43.333,-152.917 43.333,-152.917c0,0 -295.833,195.417 -525.833,379.584l-20,-12.084c-0,-2.083 0.833,-18.75 0.833,-20c-0,0 2.5,-19.583 -32.083,-31.25c-2.5,-0.833 -4.167,-1.666 -6.25,-2.083c16.666,-12.5 42.5,-31.667 61.666,-44.583c30,-20.834 26.667,-43.334 26.667,-43.334l-109.167,81.25c-84.583,-27.083 -155,0 -155,0l-109.166,-81.25c-0,0 -3.334,22.5 26.666,43.334c18.75,12.916 45,32.083 61.667,44.583c-2.083,0.833 -3.75,1.667 -6.25,2.083c-34.583,11.667 -32.083,31.25 -32.083,31.25c-0,1.667 0.416,17.917 0.833,20l-20,12.084c-231.667,-183.334 -527.083,-379.167 -527.083,-379.167c-0,-0 16.25,69.583 43.333,152.5c-35.833,-17.5 -61.25,-30 -61.25,-30c-0,0 48.333,143.75 112.5,260.833c23.75,46.667 78.75,94.584 153.75,117.084c0,-0 12.5,28.75 23.333,50c13.334,25.833 38.75,54.166 38.75,54.166" style="fill:#a1a1a4;fill-rule:nonzero;"/></g></g><path d="M1562.5,468.75l0,729.167c0,201.219 -163.364,364.583 -364.583,364.583l-729.167,0c-201.219,0 -364.583,-163.364 -364.583,-364.583l-0,-729.167c-0,-201.219 163.364,-364.583 364.583,-364.583l729.167,-0c201.219,-0 364.583,163.364 364.583,364.583Z" style="fill:none;stroke:#000;stroke-width:8.33px;"/></svg>