<?xml version="1.0" encoding="UTF-8" standalone="no"?><!DOCTYPE svg PUBLIC "-//W3C//DTD SVG 1.1//EN" "http://www.w3.org/Graphics/SVG/1.1/DTD/svg11.dtd"><svg width="100%" height="100%" viewBox="0 0 1667 1667" version="1.1" xmlns="http://www.w3.org/2000/svg" xmlns:xlink="http://www.w3.org/1999/xlink" xml:space="preserve" xmlns:serif="http://www.serif.com/" style="fill-rule:evenodd;clip-rule:evenodd;stroke-linecap:round;stroke-linejoin:round;stroke-miterlimit:1.5;"><path d="M1562.5,468.75l-0,729.167c-0,201.219 -163.364,364.583 -364.583,364.583l-729.167,0c-201.219,0 -364.583,-163.364 -364.583,-364.583l-0,-729.167c-0,-201.219 163.364,-364.583 364.583,-364.583l729.167,-0c201.219,-0 364.583,163.364 364.583,364.583Z" style="fill:#fff;"/><clipPath id="_clip1"><path d="M1562.5,468.75l-0,729.167c-0,201.219 -163.364,364.583 -364.583,364.583l-729.167,0c-201.219,0 -364.583,-163.364 -364.583,-364.583l-0,-729.167c-0,-201.219 163.364,-364.583 364.583,-364.583l729.167,-0c201.219,-0 364.583,163.364 364.583,364.583Z"/></clipPath><g clip-path="url(#_clip1)"><g id="Layer_2_1_"><path d="M1471.25,490.417c-5,-89.584 -45.417,-170 -69.167,-217.917l-13.333,-26.667l2.083,23.334c2.917,32.083 10,142.083 -22.916,204.583c-40.834,84.167 -160,76.25 -199.167,73.333l-2.917,-0.416c-64.583,-4.167 -274.166,-12.084 -338.333,-11.667c-85,0.417 -178.75,7.083 -254.167,12.917c-36.666,2.916 -68.75,5 -90,5.833c-1.666,0 -4.166,0.417 -7.916,0.833c-105.417,9.584 -172.5,-21.25 -198.334,-92.5c-15.833,-43.75 -15.416,-130 -15.416,-171.666l-0,-29.584l-8.334,15.417c-20,36.667 -56.666,105 -69.166,218.333c-6.667,133.75 62.5,181.25 115.416,205.834c55,25.416 111.25,29.166 130,30.416l1.25,0l-0.416,0c4.166,0.834 8.333,0.834 12.5,1.25c5.833,0.417 12.083,0.834 17.916,1.667c-10,1.667 -22.916,4.167 -34.583,6.25c-12.083,2.083 -23.75,4.167 -30,5.417c-12.5,2.5 -65.417,15 -94.583,25c-24.584,8.333 -50.417,20.416 -50.834,20.833l-4.583,2.083l3.333,4.167c0.417,0.417 9.167,12.5 18.334,21.667c18.75,18.333 70.833,51.25 133.75,43.75c50,-6.25 77.083,-17.917 87.5,-23.334c3.333,10.834 11.25,35.834 18.75,55.417c22.916,56.25 74.166,163.75 93.75,200.833c15.833,30.417 31.25,57.084 41.25,74.584l3.75,6.666c-3.334,11.667 -11.667,18.75 -17.5,24.167c-1.667,1.25 -2.917,2.5 -4.167,4.167l-1.25,1.25l-0,1.666c-0.417,10.417 -2.917,103.75 60.417,172.084l0.833,0.833l1.25,0.417c31.667,12.083 72.917,24.583 139.167,24.583c67.916,0 124.583,-16.25 145,-26.25l0.833,-0.417l0.833,-0.833c44.167,-52.083 64.584,-131.25 65,-159.583l0,-2.5l-1.25,-1.25c-1.25,-1.25 -2.083,-2.084 -3.75,-3.334c-6.666,-6.666 -15.416,-14.583 -20,-34.166c5.417,-9.167 15.834,-31.25 24.584,-49.584c4.583,-10 9.166,-18.75 11.25,-22.916c18.75,-36.25 73.333,-153.75 95,-209.167c13.75,-35 21.25,-52.5 25,-60c9.583,5 35.416,16.667 84.166,21.667c63.334,6.666 123.75,-36.25 140.417,-59.167c2.917,-4.167 7.5,-9.167 7.5,-9.167l4.167,-4.166l-5.417,-2.5c-0.417,-0 -2.5,-1.25 -12.083,-4.167l-70,-24.167c-9.167,-3.333 -52.084,-12.5 -83.75,-19.583l-23.75,-5l7.5,-1.25c73.333,-13.75 265.416,-47.5 254.583,-238.333" style="fill-rule:nonzero;"/><path d="M201.25,452.083c10.417,-54.583 27.917,-105.416 52.083,-154.583l0.417,-0.833l0.833,-0l0,1.25l0,-1.25l1.25,-0l0,1.25c-0.833,14.583 -1.25,29.583 -1.25,45c0,36.25 2.5,72.916 10.417,105.833l0.833,3.333l-2.5,-2.083c-10.416,-9.167 -20.833,-20 -31.666,-29.583c-9.584,10.833 -18.75,22.5 -28.334,32.916l-2.5,2.5l0.417,-3.75Z" style="fill:#cd1f43;fill-rule:nonzero;"/><path d="M1452.5,429.583l-1.25,0.417l1.25,-0.417c-14.167,-46.25 -26.25,-92.5 -49.583,-135l-1.667,0.417c0.833,14.583 1.25,29.167 1.25,43.75c0,35.417 -2.917,70 -8.75,103.75l-0.417,1.667l1.667,-0.834c11.25,-5.416 22.083,-12.5 33.333,-17.5l27.917,20l-3.75,-16.25Z" style="fill:#cd1f43;fill-rule:nonzero;"/><path d="M1001.67,922.917l-2.084,1.25c-15.833,6.666 -31.666,13.75 -48.75,17.5c-11.25,2.916 -22.5,4.166 -33.333,4.166c-34.583,0 -67.5,-14.583 -87.917,-45.416l-0.833,-1.25l-0.833,0.833c-4.167,3.75 -6.667,7.917 -10.834,12.083c-21.666,25 -53.333,34.584 -85.416,34.584c-25,-0 -50.417,-5.834 -71.667,-14.584l-2.083,-1.25l0.833,2.084c16.25,43.333 26.25,91.25 26.25,139.166c-0,21.667 -2.083,43.334 -6.667,64.584c-2.916,14.583 -7.916,30.416 -12.083,45l-0.833,2.083l2.083,-1.25c45.833,-24.583 102.083,-36.667 158.333,-36.667c52.917,0 105.834,11.25 150,33.334c7.084,2.916 14.167,7.916 20.417,10l1.667,0.833l-0.834,-1.667c-12.916,-37.916 -20.416,-78.333 -20.416,-120.833l-0,-9.583c-0,-46.25 9.583,-91.667 23.333,-132.5l1.667,-2.5Z" style="fill:#cd1f43;fill-rule:nonzero;"/><path d="M551.667,967.5c-5,-6.25 -9.167,-12.5 -10.417,-20.417l-0.417,-2.5l2.084,1.25c8.333,5.417 17.5,7.5 26.666,7.5c19.167,0 39.167,-9.166 54.584,-20l0.833,-0.416l1.25,1.25l-0.833,0.833l0.833,-0.833l0.417,0.416l-0,0.417c-2.084,19.583 -9.167,42.083 -30,49.583c-3.334,0.834 -6.25,1.25 -9.167,1.25c-14.167,-0.416 -25.833,-8.333 -35.833,-18.333" style="fill:#cd1f43;fill-rule:nonzero;"/><path d="M1040.42,960c-4.167,-6.667 -6.667,-13.75 -8.334,-22.083l-0.416,-2.5l2.083,1.666c10.417,8.334 23.333,11.667 36.667,11.667c15.416,0 31.666,-5 44.166,-12.917l2.5,-1.25l-1.25,2.917c-6.25,17.5 -21.666,36.25 -40.416,40c-1.667,0.417 -3.334,0.417 -4.584,0.417c-12.083,-0.834 -23.333,-7.084 -30.416,-17.917" style="fill:#cd1f43;fill-rule:nonzero;"/><path d="M1064.17,985.833c2.5,0.417 5,0.834 7.083,0.834c7.083,-0 14.167,-1.667 20.833,-4.167l2.084,-0.833l-0.834,2.083c-25.833,64.583 -57.083,127.083 -89.166,188.75l-1.25,2.083l-0.834,-2.083c-6.666,-17.5 -8.333,-36.667 -8.333,-55.833c-0,-14.167 1.25,-28.334 1.667,-42.917c4.583,-41.25 14.583,-81.667 27.083,-120l0.833,-2.083l1.25,2.083c8.75,14.583 23.334,29.583 39.584,32.083" style="fill:#cd1f43;fill-rule:nonzero;"/><path d="M657.083,1172.92c-38.75,-59.584 -68.333,-122.084 -97.083,-185.834l-1.25,-2.916l2.5,1.25c7.5,4.166 17.917,7.5 27.917,7.5c6.666,-0 12.916,-1.25 18.333,-5c12.5,-8.75 20,-22.5 25,-36.25l0.833,-2.084l1.25,2.084c21.25,43.333 31.667,95.833 31.667,147.916c-0,24.584 -2.083,49.167 -6.667,72.5l0,0.417l-1.666,1.667l-0.834,-1.25Z" style="fill:#cd1f43;fill-rule:nonzero;"/><path d="M691.25,1371.67c-40,-43.75 -54.583,-99.584 -57.083,-159.167l-0,-0.417l0.416,-0.416c52.084,-37.917 121.667,-57.917 190.834,-57.917c45,-0 89.583,8.75 128.75,26.667c25,11.25 49.166,23.333 70.833,41.25l-0.833,0.833l0.833,-0.833l0.417,0.416l-0,0.834c-6.667,55.416 -26.667,105.416 -61.667,148.333l-0,0.417l-0.417,-0c-41.666,16.25 -91.25,25.416 -140.416,25.416c-46.25,-0.833 -92.5,-8.75 -131.667,-25.416" style="fill:#cd1f43;fill-rule:nonzero;"/><path d="M1388.33,787.083c0,0 -24.583,-9.166 -30.833,-12.083c-67.083,-25.417 -153.75,-40.833 -227.083,-42.5c-7.084,-81.667 -16.667,-132.917 -32.5,-179.167l-0.417,-0.833l-0.833,0c-37.917,-2.083 -205.834,-9.167 -270.834,-9.167c-65,0 -229.583,10 -267.5,12.084l-0.416,0.833c-15,44.167 -32.5,98.75 -40.834,180c-74.166,4.583 -174.166,25.833 -241.25,51.25c-4.583,1.667 -8.333,3.75 -10.833,4.583c-1.25,0.834 -2.083,1.25 -2.917,1.25c0,0 -0.416,0 -0.416,0.417l-2.084,-2.083l0.834,3.75c-0,0.416 -0,0.416 0.416,0.416c10.417,11.667 48.334,57.084 118.75,58.75l3.75,0c22.917,0 62.084,-4.166 87.917,-15.833c6.667,-2.917 18.75,-7.917 22.083,-9.167c1.25,2.5 5,9.167 6.667,14.584c7.5,20.833 16.667,51.25 22.917,64.166c9.583,19.584 25.416,35.417 51.666,35.834l1.25,-0c23.334,-0 39.167,-18.75 42.084,-22.917l1.25,-1.25l-1.667,0c-65,-3.333 -91.667,-37.917 -95.833,-89.583l-0,-0.834l-0.834,0c-7.5,-1.25 -12.5,-2.5 -15.416,-4.166c-2.917,-1.667 -4.167,-3.75 -5.417,-7.5c-0.417,-1.667 -0.833,-3.75 -0.833,-5.417c-0,-6.667 2.5,-13.333 7.083,-21.25c5,-6.667 12.5,-13.333 27.083,-13.333c6.25,-0 13.334,1.25 22.5,4.166c20,6.667 36.25,19.584 47.5,29.167c13.334,12.083 52.5,52.5 76.25,67.083c14.167,8.334 35.417,16.25 57.084,16.25c17.5,0 35,-5 49.166,-18.75c30.417,-29.583 33.75,-55 37.917,-70.833l0.417,-1.25l-1.25,0c-52.084,-1.25 -101.667,-6.667 -147.084,-12.917c-5.416,-0.833 -6.666,-2.916 -6.666,-4.583c-0,-2.083 2.5,-5 6.666,-5c0.834,0 1.667,0 2.5,0.417c0,-0 86.25,11.666 145.834,12.083l1.25,0l-0,-1.25c0.416,-7.083 0.833,-19.583 1.25,-33.333l-0,-1.25l-1.25,-0c-35.834,-0.834 -95.417,-4.584 -152.084,-15.834c-5,-1.25 -6.666,-4.166 -6.666,-6.666c-0,-2.5 1.666,-4.167 5,-4.584c0.833,0 1.666,0 2.5,0.417c8.333,2.083 100.833,15 150.833,15l1.667,0l-0,-1.25c0.416,-10.833 0.416,-25.833 0.416,-40.417l0,-1.25l-5.416,0c-32.5,0 -79.584,-3.333 -146.25,-13.333c-5.417,-0.833 -7.5,-3.75 -7.5,-5.417c-0,-2.083 1.666,-4.166 6.25,-4.166l1.25,-0c-0,-0 81.666,12.083 145.416,12.083l5.417,0l-0,-34.167c-0,-6.25 2.917,-8.75 4.583,-8.75c1.667,0 4.167,2.084 4.167,7.917c-0,4.167 0.417,17.083 0.417,32.5l-0,2.083l1.25,0c61.666,-1.666 115.833,-9.166 141.25,-13.75c1.25,-0.416 2.916,-0.416 4.166,-0.416c5,-0 6.667,2.083 6.667,4.166c-0,2.084 -1.667,4.167 -4.167,4.584c-8.333,1.25 -79.583,15 -147.5,17.083l-1.25,0l0,1.25c0,12.083 0.417,27.5 0.834,40.417l-0,1.25l1.25,-0c45.833,-1.667 98.333,-3.334 143.75,-13.334c2.083,-0.416 4.166,-0.833 5.416,-0.833c5.417,0 7.084,2.083 7.084,4.167c-0,2.083 -2.5,5 -9.167,6.25c-44.167,7.5 -108.333,15 -147.5,15.416l-1.25,0l-0,1.25c0.417,11.25 0.417,24.584 1.25,33.334l-0,1.25l1.25,-0c72.917,-1.667 141.667,-12.084 153.75,-14.167c0.833,0 1.667,-0.417 2.5,-0.417c4.583,0 6.667,2.5 6.667,4.584c-0,2.083 -2.084,5 -7.5,5.833c-12.917,1.667 -98.334,12.5 -152.917,14.167l-1.25,-0l0.417,1.25c5.416,18.333 6.666,45.416 33.333,68.333c12.917,11.25 30.833,16.25 49.167,16.25c17.916,0 36.25,-5 52.083,-13.75c24.167,-14.167 62.083,-55.417 75.417,-67.5c11.25,-9.583 36.666,-33.333 70.833,-33.333l1.25,-0c17.5,0.416 25.833,5 30.833,10c4.167,5 5,10.416 6.25,13.75c0.834,2.083 1.25,5 1.25,7.916c0,4.167 -1.25,8.75 -5.416,11.25c-6.25,3.75 -11.667,2.917 -17.917,5.834l-0.417,0.416l0,0.834c-4.166,28.333 -13.333,60.833 -35.833,77.916c-12.083,9.167 -27.917,14.584 -40,17.5c-12.5,2.917 -22.083,3.334 -22.083,3.334l-2.084,-0l1.25,1.25c0,-0 5.417,5.833 7.084,7.5c4.166,3.75 15,9.166 30,9.166c1.25,0 3.333,0 4.583,-0.416c16.25,-1.25 34.583,-13.75 42.5,-21.667c12.083,-15.417 22.917,-47.917 30.833,-68.333c2.917,-7.5 9.167,-20 12.084,-26.667c6.666,3.333 10.416,5 22.916,10.417c26.25,10.416 59.584,15 81.667,15l3.75,-0c36.25,-1.25 77.917,-22.917 102.917,-46.25c4.166,-4.167 12.5,-14.167 12.5,-14.167l0.833,-1.25l-1.667,-1.667Z" style="fill:#cd1f43;fill-rule:nonzero;"/><path d="M865.417,1235.83c-4.167,6.667 -5.417,14.167 -5.417,21.667c-0,12.083 4.583,25 11.667,33.75c0.416,0.833 1.25,0.833 1.666,0.833c0.834,0 1.667,-0.416 2.084,-1.25l-0,-0.833c-0,-7.083 -4.584,-13.75 -4.584,-21.667c0,-1.666 0.417,-4.166 1.25,-5.833l0.834,-2.083l1.25,1.666c7.083,12.084 18.75,19.167 30.833,22.917c4.583,1.25 9.167,1.667 14.167,1.667c15.833,-0 30.833,-7.084 41.25,-20c5,-6.667 8.75,-15.834 8.75,-24.584c-0,-4.166 -0.834,-7.916 -2.917,-12.083c-7.5,-14.583 -22.917,-22.917 -38.333,-25.417c-2.5,-0.416 -5.417,-0.416 -7.917,-0.416c-22.917,1.25 -43.333,11.25 -54.583,31.666" style="fill-rule:nonzero;"/><path d="M778.333,1297.08c1.25,0 2.917,-1.25 4.167,-3.333c5.833,-9.167 9.583,-21.25 9.583,-32.917c0,-7.5 -1.666,-15 -5.833,-21.666l0.833,-0.417l-0.833,0.417c-6.25,-12.084 -18.75,-21.25 -30.833,-25.417c-6.667,-2.083 -14.167,-3.333 -21.25,-3.333c-17.084,-0 -33.75,6.666 -44.167,20.416c-4.167,5.417 -6.25,12.084 -6.25,19.167c-0,3.75 0.833,7.083 1.667,10.417c5.833,15.416 20.416,27.916 36.25,30.833c3.75,0.833 7.083,1.25 10.416,1.25c18.334,0 34.584,-9.167 46.25,-25l1.25,-1.25l0.834,1.667c0.416,1.25 0.833,2.916 0.833,4.166c-0,3.334 -0.833,6.667 -1.25,9.167c-0.417,4.583 -4.167,8.333 -4.167,11.667c0,1.25 0.417,2.083 1.25,3.333c0.417,0.833 0.834,0.833 1.25,0.833" style="fill-rule:nonzero;"/><path d="M695.417,1357.92c40,-17.084 87.916,-26.667 135.416,-26.667c36.25,0 71.667,5.417 103.334,17.5c7.916,3.75 16.666,6.25 24.583,8.75c2.083,-2.5 2.917,-3.333 4.167,-5.417c-38.75,-19.166 -85,-27.916 -131.25,-27.916c-49.584,-0 -98.75,10 -140.417,28.75c1.667,2.083 2.5,3.333 4.167,5" style="fill-rule:nonzero;"/><path d="M730,1061.67c23.75,30 60,42.916 96.25,43.333c13.333,0 27.083,-1.667 40,-5c60.833,-17.083 97.5,-83.333 110.417,-141.667c-1.667,-1.666 -3.334,-2.083 -5.834,-2.916c-7.5,34.166 -22.5,67.916 -43.75,96.25c-25.833,31.25 -63.75,47.083 -101.666,47.083c-13.334,0 -26.667,-2.083 -39.167,-6.25c-55.833,-17.5 -84.583,-78.75 -90,-134.167c-2.083,0 -4.167,0 -5.833,1.25c4.583,38.75 15.833,72.917 39.583,102.084" style="fill-rule:nonzero;"/><path d="M276.667,487.5c32.083,61.667 96.666,81.667 162.083,78.75c36.667,-0.417 72.083,-4.167 108.333,-6.667l0,2.5c-18.333,52.084 -30.416,105 -37.916,159.167c-95,3.75 -192.5,-4.167 -262.5,-67.5c-47.5,-48.333 -60,-114.583 -49.584,-180.417c11.25,-13.333 22.917,-25 35,-38.333c15.417,16.667 40.417,29.583 44.584,52.5" style="fill:#fff;fill-rule:nonzero;"/><path d="M1457.92,459.583c2.5,9.167 2.916,18.334 3.75,28.334c4.583,73.333 -27.084,140.416 -89.584,177.5c-67.916,41.25 -147.083,55.416 -230.416,57.5c-1.25,-7.5 -2.5,-17.084 -3.334,-25.417c-6.666,-47.917 -15.416,-96.667 -29.166,-142.917c89.583,-1.25 198.75,22.917 257.916,-60c7.917,-11.666 15.834,-22.083 22.917,-34.166c13.333,-5.834 25.833,-14.584 38.75,-21.25c10,5.833 18.333,14.166 29.167,20.416" style="fill:#fff;fill-rule:nonzero;"/><path d="M1117.5,829.583c0.417,27.917 -8.75,57.084 -33.333,70.417c-12.084,6.667 -25.417,9.167 -38.75,8.333c-0.417,-2.5 -1.25,-5.416 -0.417,-8.75c20.417,0.834 40,-6.666 51.25,-23.75c7.5,-12.5 10.417,-26.25 10.417,-41.666c2.916,-2.084 6.666,-3.75 10.833,-4.584" style="fill:#fff;fill-rule:nonzero;"/><path d="M611.667,905.833c-3.75,0.834 -5.417,1.25 -12.084,0c-32.916,0 -67.5,-26.25 -65.416,-70.833c4.166,-1.25 8.333,-1.25 12.083,0.417c-0,25.416 10,60 64.167,60c3.75,5.416 -0,6.25 1.25,10.416" style="fill:#fff;fill-rule:nonzero;"/></g></g><path d="M1562.5,468.75l-0,729.167c-0,201.219 -163.364,364.583 -364.583,364.583l-729.167,0c-201.219,0 -364.583,-163.364 -364.583,-364.583l-0,-729.167c-0,-201.219 163.364,-364.583 364.583,-364.583l729.167,-0c201.219,-0 364.583,163.364 364.583,364.583Z" style="fill:none;stroke:#000;stroke-width:8.33px;"/></svg>