<?xml version="1.0" encoding="UTF-8" standalone="no"?><!DOCTYPE svg PUBLIC "-//W3C//DTD SVG 1.1//EN" "http://www.w3.org/Graphics/SVG/1.1/DTD/svg11.dtd"><svg width="100%" height="100%" viewBox="0 0 1667 1667" version="1.1" xmlns="http://www.w3.org/2000/svg" xmlns:xlink="http://www.w3.org/1999/xlink" xml:space="preserve" xmlns:serif="http://www.serif.com/" style="fill-rule:evenodd;clip-rule:evenodd;stroke-linecap:round;stroke-linejoin:round;stroke-miterlimit:1.5;"><path d="M1562.5,468.75l-0,729.167c-0,201.219 -163.364,364.583 -364.583,364.583l-729.167,0c-201.219,0 -364.583,-163.364 -364.583,-364.583l-0,-729.167c-0,-201.219 163.364,-364.583 364.583,-364.583l729.167,-0c201.219,-0 364.583,163.364 364.583,364.583Z" style="fill:#041e42;"/><clipPath id="_clip1"><path d="M1562.5,468.75l-0,729.167c-0,201.219 -163.364,364.583 -364.583,364.583l-729.167,0c-201.219,0 -364.583,-163.364 -364.583,-364.583l-0,-729.167c-0,-201.219 163.364,-364.583 364.583,-364.583l729.167,-0c201.219,-0 364.583,163.364 364.583,364.583Z"/></clipPath><g clip-path="url(#_clip1)"><g><path d="M1484.17,505.417l-0,-95.417l-23.334,-23.75c-300,-285.417 -942.5,89.167 -1160.83,270l-107.917,167.083l134.167,-33.333c-205.833,258.333 -132.5,427.917 -123.75,445.417c21.667,60.833 71.25,109.583 151.25,141.666c60.833,24.167 130,27.5 189.167,24.584c255.833,-12.084 558.333,-171.667 753.75,-341.25l4.583,-3.75l38.75,-196.25l-75.833,42.083c-263.75,115.833 -475.834,180 -475.834,180c-138.75,43.333 -202.5,50.417 -247.916,39.583l-5.417,-1.666c-12.5,-5 -14.583,-16.25 -14.583,-19.167c-2.084,-86.667 147.5,-273.333 222.5,-354.167c70,-75.416 180.416,-157.916 273.75,-197.083c62.5,-26.25 102.916,-36.667 121.666,-35c-5,16.25 -13.75,36.25 -25.833,60.417c0,-0 -100,197.083 -104.167,205l475.834,-275Z" style="fill:#bc945c;fill-rule:nonzero;"/><path d="M891.25,491.667c-85.833,45.416 -184.583,136.666 -215.417,169.583c-251.666,267.917 -427.916,626.25 122.917,454.583c0,0 214.167,-65 480,-181.666c-752.5,635.833 -1462.92,370 -763.75,-298.75c-63.75,14.583 -127.917,28.333 -190.833,45.833c223.75,-185.417 837.916,-530.833 1112.08,-270l-292.917,179.583c125.834,-246.25 -100.833,-188.333 -252.083,-99.166" style="fill:#860038;fill-rule:nonzero;"/></g></g><path d="M1562.5,468.75l-0,729.167c-0,201.219 -163.364,364.583 -364.583,364.583l-729.167,0c-201.219,0 -364.583,-163.364 -364.583,-364.583l-0,-729.167c-0,-201.219 163.364,-364.583 364.583,-364.583l729.167,-0c201.219,-0 364.583,163.364 364.583,364.583Z" style="fill:none;stroke:#000;stroke-width:8.33px;"/></svg>