<?xml version="1.0" encoding="UTF-8" standalone="no"?><!DOCTYPE svg PUBLIC "-//W3C//DTD SVG 1.1//EN" "http://www.w3.org/Graphics/SVG/1.1/DTD/svg11.dtd"><svg width="100%" height="100%" viewBox="0 0 1667 1667" version="1.1" xmlns="http://www.w3.org/2000/svg" xmlns:xlink="http://www.w3.org/1999/xlink" xml:space="preserve" xmlns:serif="http://www.serif.com/" style="fill-rule:evenodd;clip-rule:evenodd;stroke-linecap:round;stroke-linejoin:round;stroke-miterlimit:1.5;"><path d="M1562.5,468.75l-0,729.167c-0,201.219 -163.364,364.583 -364.583,364.583l-729.167,0c-201.219,0 -364.583,-163.364 -364.583,-364.583l-0,-729.167c-0,-201.219 163.364,-364.583 364.583,-364.583l729.167,-0c201.219,-0 364.583,163.364 364.583,364.583Z" style="fill:#002b5e;"/><clipPath id="_clip1"><path d="M1562.5,468.75l-0,729.167c-0,201.219 -163.364,364.583 -364.583,364.583l-729.167,0c-201.219,0 -364.583,-163.364 -364.583,-364.583l-0,-729.167c-0,-201.219 163.364,-364.583 364.583,-364.583l729.167,-0c201.219,-0 364.583,163.364 364.583,364.583Z"/></clipPath><g clip-path="url(#_clip1)"><g><g><path d="M265.833,1041.25c-10,-15 -43.333,-71.25 -43.333,-162.083c-0,-34.167 4.583,-72.917 17.083,-116.25l0,-0.834l5.417,-20.833l1.25,1.25c0.833,-2.5 1.667,-5 2.5,-7.5c4.167,-12.917 8.75,-26.667 10,-29.583c0.833,-2.917 4.583,-18.334 7.917,-29.167c0.833,-3.333 1.666,-5.833 2.5,-8.333l-0,-1.667c0.833,-7.917 2.083,-15.833 3.75,-23.333c0.416,-4.167 1.25,-7.917 1.666,-11.25l0.834,-2.5c0.416,-0.834 0.833,-1.667 0.833,-2.084c15.417,-63.333 44.583,-100.833 60.833,-117.916l0,-0.834c3.334,-2.916 12.084,-11.25 22.5,-17.916c4.584,-6.25 20,-26.25 34.167,-42.084c5,-5.416 9.583,-10 13.75,-14.166c2.5,-5.417 7.917,-16.667 18.333,-30c14.167,-17.5 36.667,-38.334 71.667,-50.834c26.667,-18.333 55,-34.166 84.583,-48.333c5.834,-5.833 27.084,-27.083 60.417,-48.333c38.75,-24.584 93.333,-49.584 158.333,-49.584l7.5,0l23.75,0.834l-29.166,39.166c15.416,-1.25 31.25,-1.666 47.083,-1.666c83.75,-0 164.167,16.25 237.083,45.833l0.834,-0c2.916,1.25 7.916,3.75 12.916,7.083c4.584,2.917 8.75,5.834 12.917,10c5,0.417 15.833,2.5 27.5,7.5l0.833,0c78.75,41.25 147.5,99.167 201.25,168.334l0.417,0.416l0.417,0.834c0.833,1.25 2.916,5.833 4.583,14.583c0.833,0.417 2.083,1.25 3.75,2.5c2.917,2.083 6.25,4.167 9.167,7.5l0.833,0.833l0.417,0.834c65.833,95.833 104.583,211.25 104.583,335.416c0,117.5 -34.583,227.5 -94.583,320.417l-0.834,0.833c-0.833,1.25 -1.25,1.667 -2.083,2.5c-0.833,0.834 -1.667,1.667 -2.917,2.5c-1.666,1.25 -4.166,2.917 -7.083,5c-0.417,1.25 -0.417,2.5 -0.833,4.584c-0.834,3.75 -2.084,8.333 -5,12.916l-0,0.417l-0.417,0.417c-112.083,153.333 -295.833,253.333 -503.75,253.333c-270.417,0.417 -501.25,-170.417 -584.167,-408.75Z" style="fill:#fff;fill-rule:nonzero;"/></g><path d="M1354.17,520c-3.75,-3.75 -12.084,-8.75 -12.084,-8.75c-2.916,-1.25 -3.75,-4.167 -3.75,-4.167c-1.666,-10.416 -3.75,-14.166 -3.75,-14.166c-52.5,-67.917 -120,-124.167 -197.5,-165c-13.75,-6.25 -26.25,-6.667 -26.25,-6.667c-2.916,-0 -4.166,-2.083 -4.166,-2.083c-4.584,-6.25 -18.334,-13.334 -23.334,-15.834c-71.666,-29.166 -150,-45 -232.5,-45c-25,0 -49.583,1.667 -73.75,4.584l31.667,-42.5c-127.083,-3.75 -217.917,95.416 -217.917,95.416c-30.416,14.167 -59.583,30.834 -87.083,49.584c-66.25,23.75 -85.417,77.083 -85.417,77.083c-16.666,14.167 -50,58.333 -50,58.333c-9.583,5.417 -19.583,14.584 -22.5,17.5c-15.416,15.834 -43.333,51.667 -57.916,113.334c-0.417,0.833 -0.834,2.083 -1.25,2.916c-0.417,3.334 -1.25,7.5 -1.667,11.25c-1.25,7.5 -2.917,15 -3.75,22.917l0.833,-0.833c-0.416,1.666 -0.416,2.5 -0.416,2.5c-1.667,1.25 -11.25,39.166 -11.25,39.166c-1.667,5 -18.75,56.667 -18.75,56.667l-0,0.417c-45.417,159.166 15,255.416 25.416,270c80.417,233.75 307.084,402.5 574.167,402.5c203.75,-0 384.167,-97.917 493.75,-248.334c2.917,-5 4.583,-15 4.583,-15c0,-3.333 2.5,-4.583 2.5,-4.583c8.334,-4.583 11.25,-7.5 11.667,-8.333c58.75,-90.834 92.5,-198.334 92.5,-313.75c0.417,-122.5 -37.5,-235.417 -102.083,-329.167Z" style="fill:#061922;fill-rule:nonzero;"/><path d="M597.083,405.833c1.667,-1.666 2.917,-3.333 4.167,-4.583c2.083,-2.083 2.917,-2.5 2.917,-2.5l0.416,-0.417c0.417,-30.416 7.5,-54.583 7.5,-54.583c55,-77.083 145.834,-97.083 145.834,-97.083c11.25,-3.334 4.166,1.666 4.166,1.666c-57.083,64.167 -51.25,117.084 -51.25,117.084l54.584,199.166c-0,0 -44.167,-15.416 -78.334,-85.416c-15.833,139.583 115.834,252.916 115.834,252.916c5.833,5 -3.334,-0.416 -3.334,-0.416c-32.916,-16.25 -70.833,-51.25 -81.25,-60.834c2.917,10.834 66.667,332.917 67.084,333.75c0.416,1.667 1.25,4.584 1.666,6.667l22.084,-55l18.333,162.5c-83.333,77.5 -172.083,47.083 -177.917,45c2.084,3.333 3.75,5.833 3.75,5.833c0,0 72.084,141.667 366.25,126.667c0,0 7.084,0 5.834,0.833c-0,0.417 -0.417,0.417 -1.667,0.834c-5.417,2.083 -14.167,3.333 -14.167,3.333c-355,95 -538.75,-207.5 -546.666,-221.25c-2.084,-2.917 -19.584,-27.5 -29.167,-51.667c-0.417,-0.833 -0.833,-2.916 0.833,-1.25c0,0 37.5,39.167 144.167,49.167l1.25,-0c-82.5,-91.667 -117.5,-158.333 -122.5,-168.75c0,-0 -10,-15 -21.667,-57.083c0,-0 0.417,-2.084 1.25,-0c4.167,8.333 31.25,48.75 64.584,57.5c-28.334,-45.417 -45.834,-117.084 -47.917,-127.917c38.333,53.75 106.25,57.5 106.25,57.5c0,-0 0,-0.417 -0.417,-0.417c0,0.417 0.417,0.417 0.417,0.417c-111.667,-111.667 -87.5,-232.917 -42.5,-320.417c27.5,-52.083 61.667,-92.083 79.583,-111.25Z" style="fill:#fff;fill-rule:nonzero;"/><g><g><path d="M931.667,1143.75l-73.334,77.083l90.417,-69.583l-46.667,-161.667l20.417,-194.166l-35.833,185.416l45,162.917Z" style="fill:#bbc4ca;fill-rule:nonzero;"/></g><g><path d="M947.917,668.333c-6.25,33.334 -16.667,67.084 -35,82.5c1.25,-0.833 2.916,-1.666 5,-2.5c5.416,-3.333 12.5,-8.333 20,-15.833c14.583,-15 29.166,-39.583 29.166,-78.333c0,-17.5 -2.916,-37.5 -10,-60.834c-1.25,12.917 -3.333,43.75 -9.166,75Z" style="fill:#bbc4ca;fill-rule:nonzero;"/></g><g><path d="M946.667,423.333l1.25,-0.416l-1.25,0.416Zm0.416,-2.916c25.417,-38.75 67.5,-42.084 85.417,-42.084c-15.417,-4.583 -29.583,-6.25 -42.5,-6.25c-27.083,0 -47.083,7.5 -55.417,11.25c-1.25,0.417 -2.083,0.834 -2.916,1.25c6.666,9.167 13.333,28.75 15.416,35.834Z" style="fill:#bbc4ca;fill-rule:nonzero;"/></g><g><path d="M915,501.25c0.833,0 1.25,0.417 1.25,1.25l0,10.833c0,82.917 -22.083,174.167 -30.417,205.834c31.667,-72.917 40.417,-140.834 40.417,-192.917c0,-30.417 -2.917,-55.833 -5.833,-73.333c-1.667,-9.167 -2.917,-16.25 -4.167,-20.834c-7.917,62.5 -31.667,90.834 -32.083,91.25c-0.417,0.417 -0.834,0.417 -1.25,0.417c-0.417,0 -0.834,-0.417 -0.834,-0.833c-39.166,-72.084 -97.083,-116.25 -123.333,-133.75c-4.583,-2.917 -8.333,-5.417 -10.417,-6.667c74.584,161.667 96.25,286.667 101.667,327.917c0,-4.584 0.417,-9.584 0.417,-14.584c-0,-73.75 -18.75,-162.916 -28.334,-202.916c-3.333,-13.334 -5.416,-21.25 -5.416,-21.25c-0,-0.417 -0,-1.25 0.416,-1.25c0.417,-0.417 0.834,-0.417 1.667,-0c33.333,25.833 57.083,100 61.25,113.75c6.25,-7.917 14.583,-27.084 21.25,-45c7.083,-19.167 12.917,-36.667 12.917,-36.667c-0.417,-0.833 -0,-1.25 0.833,-1.25c-0.417,0 -0.417,0 -0,0Zm-32.083,21.25l1.25,-0.417l-1.25,0.417Z" style="fill:#bbc4ca;fill-rule:nonzero;"/></g><g><path d="M288.333,837.083c0,77.084 13.334,157.5 79.584,260.417c62.5,131.667 177.916,202.5 231.666,230c17.917,9.167 28.75,13.333 29.167,13.333c85.417,40.417 165.833,55 237.917,55c150.833,0 265,-65 312.916,-97.5c15.834,-10.833 24.584,-17.916 24.584,-17.916l0.833,0.833l-0.833,-0.833c3.333,-2.5 5.416,-4.584 7.5,-6.25c-0.834,0.416 -2.084,1.25 -2.917,1.666c-3.333,2.084 -6.667,4.167 -6.667,4.167c-117.083,68.75 -225,89.583 -313.333,89.583c-137.917,0 -227.5,-51.666 -227.5,-51.666c-292.917,-153.334 -297.083,-419.584 -297.083,-419.584c-0,-0.416 0.416,-1.25 0.833,-1.25c0.417,0 1.25,0 1.25,0.834c37.917,73.333 83.75,98.333 103.75,106.25c2.917,1.25 5.417,2.083 7.083,2.5c-85.416,-107.917 -109.583,-198.334 -109.583,-266.25c-0,-90 42.5,-141.25 42.917,-141.25c0.416,-0.417 0.833,-0.417 1.666,-0.417c0.417,0.417 0.834,0.833 0.834,1.25c-6.25,31.667 -8.334,60 -8.334,84.167c0,59.583 13.75,96.25 20.834,111.25c-0,0.416 0.416,0.833 0.416,1.25c-2.5,-21.667 -3.75,-42.5 -3.75,-62.5c0,-200.834 117.5,-324.167 142.5,-348.334c-18.75,7.917 -41.25,27.917 -59.583,46.667c-20.417,20.833 -35.833,40 -35.833,40c-0.417,0.417 -0.834,0.417 -1.25,0.417c-0.417,-0 -0.834,-0.834 -0.834,-1.25c0,-15.834 9.167,-35.834 14.167,-45.834c-15,13.75 -27.5,35.417 -36.667,54.167c-10,20.833 -15.416,38.333 -15.416,38.333l-0.417,0.417c-46.667,52.5 -69.167,109.167 -77.5,133.75c-2.917,8.333 -4.167,12.917 -4.167,12.917c-1.25,4.166 -1.666,6.25 -2.083,7.5c-0.417,0.416 -0.417,0.833 -1.667,1.25c-0.833,-0 -1.25,-0.834 -1.25,-0.834l0,-2.5c0,-2.5 0.417,-5.833 0.417,-5.833c0.833,-37.917 16.667,-80.417 22.917,-96.25c-44.584,47.917 -55.417,112.917 -55.417,165c-0,24.583 2.5,46.25 5,61.667c2.5,15.416 5,24.583 5,24.583l-0,0.417c-0,30.416 6.25,68.333 12.083,98.75c5.834,30 12.084,52.5 12.084,52.5c2.083,5.833 2.916,8.333 2.916,10l0,0.833c0,0.417 -0.833,0.833 -1.25,0.833c-0.833,0 -1.25,-0.416 -1.25,-0.833c-0.416,-0.417 -0.416,-0.833 -0.833,-1.25c-0.417,-0.833 -1.25,-2.083 -1.667,-2.917c-1.25,-2.083 -2.083,-4.166 -2.083,-4.166c-31.25,-47.917 -46.25,-126.667 -50,-146.25c-1.667,2.916 -1.667,5.833 -1.667,9.166Z" style="fill:#bbc4ca;fill-rule:nonzero;"/></g></g><g><g><path d="M975,461.25l-0.833,-0.417l0.416,-0.833c14.167,-38.333 81.667,-72.083 94.584,-78.75c-31.25,-17.5 -61.25,-22.917 -86.25,-22.917c-18.75,0 -34.584,2.917 -45.834,6.25c-11.25,2.917 -17.5,5.834 -17.5,5.834l-0.833,0.416l-0.417,-0.833c-11.666,-14.583 -26.666,-28.75 -38.75,-39.583c-11.666,-10.417 -20.416,-17.084 -21.25,-17.917c-1.666,-1.25 -2.916,-1.667 -2.916,-3.333c-0,-0.834 0.833,-1.667 1.25,-1.667c0.416,-0.417 1.25,-0.417 1.666,-0.417c1.25,-0.416 2.917,-0.416 4.167,-0.416l3.333,-0c268.334,-0 410.834,191.666 410.834,191.666c1.666,2.084 2.916,4.167 2.916,6.25c-0.416,5.834 -6.666,8.334 -12.5,10.417c-5.833,1.667 -12.083,2.5 -12.083,2.5c-25.833,3.75 -50,5 -72.083,5c-140.417,0 -207.917,-61.25 -207.917,-61.25Z" style="fill:#0064b1;fill-rule:nonzero;"/></g><g><path d="M883.75,1235.83c-0.417,0 -0.833,-0.416 -0.833,-0.833c-0,-0.417 -0,-0.833 0.416,-1.25l90,-72.5l-45.833,-169.167l-0,-0.416l12.5,-113.334c-0,-0.416 0.417,-0.833 0.417,-0.833c0.416,-0.417 0.833,-0.417 1.25,0c20.416,6.25 30,34.167 35,60c3.333,18.75 4.583,36.25 4.583,45c23.75,-51.667 31.667,-93.333 31.667,-125.417c-0,-45.416 -15.834,-72.5 -23.334,-82.916c-2.5,-3.334 -4.166,-5 -4.166,-5c-0.417,-0.417 -0.417,-1.25 -0,-1.667c0.416,-0.417 1.25,-0.417 1.666,0c107.084,101.667 128.75,243.75 128.75,341.667c0,66.25 -10,112.083 -10,112.5c-3.333,10.416 -14.166,12.916 -14.583,13.333c-43.75,9.583 -82.083,12.917 -113.75,12.917c-58.75,-0.834 -93.75,-12.084 -93.75,-12.084Z" style="fill:#0064b1;fill-rule:nonzero;"/></g><g><path d="M1135.42,1223.75c-1.667,-1.25 -2.917,-3.75 -2.5,-6.667c-0,-1.25 -0,-2.916 0.833,-5c0,0 3.333,-13.333 7.083,-36.666c3.334,-22.917 7.084,-55.834 7.084,-94.167c-0,-102.083 -24.584,-244.583 -138.334,-355c-0.416,-0.417 -2.083,-1.25 -2.916,-2.5c-0.417,-0.417 -0.834,-0.833 -0.834,-1.667c0,-0.416 0.417,-1.25 0.834,-1.666c0.416,-0.417 0.833,-0.417 1.666,-0.417c1.25,-0 2.5,0.417 5,0.833c0,0 30.417,9.167 51.667,32.917c0,-1.667 -0.417,-3.333 -0.833,-5.417c-0.834,-6.25 -2.5,-14.583 -5.417,-24.583c-5.833,-20 -16.25,-45.417 -35.417,-67.5c0,-0 -2.5,-2.917 -4.166,-4.583c-0.417,-0.834 -0.834,-0.834 -0.834,-2.084c0,-0.416 0,-0.833 0.417,-0.833c0.417,-0.417 0.833,-0.417 0.833,-0.417c0.834,0 1.25,0.417 2.084,0.834c0.833,0.416 2.083,1.25 3.75,2.5c6.666,3.333 292.5,141.666 302.5,420.416l-0,4.167c-0,6.667 -1.25,20.417 -10,28.333c-2.917,3.334 -70.417,87.5 -170,120c-0,0 -2.917,1.25 -6.25,1.25c-2.5,-0.416 -4.584,-0.833 -6.25,-2.083Z" style="fill:#0064b1;fill-rule:nonzero;"/></g><g><path d="M1350.42,1027.08c-0.834,-2.083 -1.25,-4.583 -1.25,-8.333c-6.667,-268.333 -300.834,-437.5 -374.584,-475.417c-10.416,-5.416 -16.25,-8.333 -16.25,-8.333l-5,-2.5l6.667,0c38.75,0 62.083,23.333 69.167,31.25c-0,-7.083 -1.25,-14.583 -2.917,-20c-1.25,-5.833 -2.917,-9.583 -2.917,-9.583l-0.833,-2.5l2.5,0.833c30.833,11.667 70.417,15.833 109.583,15.417c37.5,-0 74.584,-3.75 102.084,-7.084c27.5,-3.75 45.416,-7.083 45.416,-7.083l4.167,-0c15.833,-0 20.833,8.75 21.25,10.417c36.667,40.833 82.5,136.25 90,250.416c0.833,14.167 1.25,28.334 1.25,41.667c0,100.417 -24.167,173.333 -38.333,190.417c-2.084,2.5 -3.75,4.166 -6.25,4.166c-1.667,-0.416 -2.917,-1.666 -3.75,-3.75Z" style="fill:#0064b1;fill-rule:nonzero;"/></g></g><path d="M723.75,274.583c0,-0.416 0.417,-0.416 0.417,-0.833c-3.334,0.833 -62.084,18.333 -79.167,107.5c0,0 0,1.667 0.833,0c5.417,-8.75 23.75,-36.25 40.417,-28.333c-0,-0 -0,-0.834 0.417,-1.667c0.416,-7.083 6.25,-38.333 37.083,-76.667Z" style="fill:#061922;fill-rule:nonzero;"/><g><path d="M678.75,1082.92c-12.5,-25.417 -94.167,-203.334 -94.167,-203.334c-25.416,7.917 -56.666,-12.5 -56.666,-12.5c40,106.25 134.166,199.584 149.583,216.25l0.417,0.417c2.5,2.917 2.5,1.667 2.5,1.667c-0.834,-0.417 -1.25,-1.25 -1.667,-2.5Z" style="fill:#061922;fill-rule:nonzero;"/></g><g><path d="M597.917,503.75c-73.334,167.917 92.083,237.083 94.166,237.917l-8.75,-38.75l-5,-22.084c-4.166,-1.25 -7.916,-2.916 -11.666,-4.583c-1.25,-0.417 -2.5,-1.25 -3.75,-1.667c-1.667,-0.833 -2.917,-1.666 -4.584,-2.083c-72.083,-38.333 -65.416,-130.417 -60.833,-160.417l0,-0.833c0,-0.833 0.417,-1.667 0.417,-2.5c0.416,-2.917 0.833,-4.583 0.833,-5.833l-0,-0.834c0.417,-1.666 -0.417,0.834 -0.833,1.667Z" style="fill:#061922;fill-rule:nonzero;"/></g><path d="M706.667,976.667l-12.084,-211.25l70.834,235.416c0.416,0 -22.917,-55.416 -58.75,-24.166Z" style="fill:#bbc4ca;fill-rule:nonzero;"/><g><path d="M711.25,369.583l15.833,126.25c0,0 7.5,34.584 -39.583,-17.083c34.167,70 78.333,85.417 78.333,85.417l-54.166,-197.5c-0.417,0.416 -0.834,0.833 -0.417,2.916Z" style="fill:#bbc4ca;fill-rule:nonzero;"/></g><path d="M635.833,600c-4.583,-10.417 -6.25,-20 -6.25,-28.333c0,-30.834 22.5,-47.917 22.5,-47.917l0.834,-0.417c-0,0.417 -1.25,-19.583 0.833,-51.25c-18.333,26.667 -56.667,90 -10.417,139.584c-0.833,-0.834 -1.25,-2.084 -2.083,-2.917c-2.5,-3.75 -4.167,-6.25 -5.417,-8.75Z" style="fill:#bbc4ca;fill-rule:nonzero;"/><path d="M683.75,625.833c-7.917,-13.75 -27.917,-57.5 -30.833,-101.666l-0,-0.834l-0.834,0.417c0,-0 -22.5,17.5 -22.5,47.917c0,8.333 1.667,17.916 6.25,28.333c1.25,2.5 2.917,5.417 5.417,8.75c0.417,0.833 1.25,1.667 2.083,2.917c0.834,1.25 1.667,2.083 2.917,3.333c7.917,8.333 20.833,17.083 42.5,17.917c-0.417,-0 -2.5,-2.5 -5,-7.084Z" style="fill:#061922;fill-rule:nonzero;"/><g><g><path d="M783.333,1126.25l0,0Z" style="fill:#bbc4ca;fill-rule:nonzero;"/><path d="M747.917,1026.67c7.5,-0 12.916,6.666 17.5,16.25c4.583,9.583 8.333,21.666 11.25,34.166c3.75,15.417 5.833,30.834 7.083,40l-0,9.167c1.667,-10 16.667,-108.75 -33.75,-122.917c-0,0 -35,-8.75 -32.5,63.75c0.417,-1.666 0.417,-2.916 0.417,-4.583c11.25,-25.417 20.833,-35.833 30,-35.833Z" style="fill:#bbc4ca;fill-rule:nonzero;"/><path d="M783.333,1126.25l0,0Z" style="fill:#061922;fill-rule:nonzero;"/><path d="M783.75,1116.67c0,-2.917 -3.333,-24.584 -7.083,-40c-2.917,-12.5 -6.667,-24.584 -11.25,-34.167c-4.584,-9.167 -10,-15.833 -17.5,-16.25c-9.167,0 -18.75,10.417 -30.417,36.25c-0.833,1.667 -0.417,2.083 -0.417,4.583l17.084,37.917c-0,0 10,-101.667 48.75,20.417l-0,0.416l-0,-0.416c0.833,-1.25 1.25,-3.334 0.833,-8.75Z" style="fill:#061922;fill-rule:nonzero;"/></g></g></g></g><path d="M1562.5,468.75l-0,729.167c-0,201.219 -163.364,364.583 -364.583,364.583l-729.167,0c-201.219,0 -364.583,-163.364 -364.583,-364.583l-0,-729.167c-0,-201.219 163.364,-364.583 364.583,-364.583l729.167,-0c201.219,-0 364.583,163.364 364.583,364.583Z" style="fill:none;stroke:#000;stroke-width:8.33px;"/></svg>