<?xml version="1.0" encoding="UTF-8" standalone="no"?><!DOCTYPE svg PUBLIC "-//W3C//DTD SVG 1.1//EN" "http://www.w3.org/Graphics/SVG/1.1/DTD/svg11.dtd"><svg width="100%" height="100%" viewBox="0 0 1667 1667" version="1.1" xmlns="http://www.w3.org/2000/svg" xmlns:xlink="http://www.w3.org/1999/xlink" xml:space="preserve" xmlns:serif="http://www.serif.com/" style="fill-rule:evenodd;clip-rule:evenodd;stroke-linecap:round;stroke-linejoin:round;stroke-miterlimit:1.5;"><path d="M1562.5,468.75l-0,729.167c-0,201.219 -163.364,364.583 -364.583,364.583l-729.167,0c-201.219,0 -364.583,-163.364 -364.583,-364.583l-0,-729.167c-0,-201.219 163.364,-364.583 364.583,-364.583l729.167,-0c201.219,-0 364.583,163.364 364.583,364.583Z" style="fill:#1d428a;"/><clipPath id="_clip1"><path d="M1562.5,468.75l-0,729.167c-0,201.219 -163.364,364.583 -364.583,364.583l-729.167,0c-201.219,0 -364.583,-163.364 -364.583,-364.583l-0,-729.167c-0,-201.219 163.364,-364.583 364.583,-364.583l729.167,-0c201.219,-0 364.583,163.364 364.583,364.583Z"/></clipPath><g clip-path="url(#_clip1)"><g><path d="M832.5,208.333c166.667,0 323.75,65 442.083,183.334c118.334,118.333 183.334,275.416 183.334,442.083c-0,345 -280.417,625.417 -625.417,625.417c-167.083,-0 -324.583,-65 -442.5,-183.334c-117.917,-118.333 -182.917,-275.416 -182.917,-442.5c0,-166.25 65.417,-324.166 182.917,-442.083c118.75,-117.917 275.833,-182.917 442.5,-182.917" style="fill:#ffc627;fill-rule:nonzero;"/><path d="M832.5,1409.58c317.083,0 575.417,-258.333 575.417,-576.25c-0,-317.083 -258.334,-575.833 -575.417,-575.833c-317.5,-0 -575.833,258.75 -575.833,575.833c0.416,317.917 258.75,576.25 575.833,576.25" style="fill:#8b2332;fill-rule:nonzero;"/><path d="M299.583,833.75c0,-293.333 239.167,-532.5 532.917,-532.5c293.75,-0.417 532.917,238.75 532.917,532.5c-0,293.75 -238.75,532.917 -532.5,532.917c-294.167,0.416 -533.334,-238.75 -533.334,-532.917" style="fill:#0d2240;fill-rule:nonzero;"/><path d="M1252.5,610.833l11.667,-6.666l-38.334,-59.167l-10.416,7.917c-65,-82.084 -180.834,-173.75 -290.834,-187.5c82.917,37.916 176.25,134.583 232.917,209.166l-60,42.917l7.5,10.833l-270,175.417l-270,-175.417l7.5,-10.833l-60,-43.75c57.083,-74.167 150.417,-170.833 232.917,-209.167c-110,13.75 -225.834,105 -290.417,187.084l-11.25,-7.917l-38.333,59.167l11.666,7.083l-0.416,0.417c-47.5,93.333 -82.5,237.916 -48.334,343.333c-0.833,-91.25 48.334,-216.667 92.084,-300.417l64.583,36.667l6.667,-10l250.833,157.5l-330.833,215l-0.417,-0.833l-44.167,11.666l0.417,1.25c-2.083,7.917 2.083,23.75 11.25,38.334c9.167,15 21.25,24.583 30,26.25l0.833,1.25l29.584,-35.834l-0.417,-0.833l659.167,-414.583l6.666,10l64.584,-36.667c43.75,83.75 92.916,209.167 92.5,300.417c33.75,-104.167 -1.667,-248.75 -49.167,-342.084" style="fill:#ffc627;fill-rule:nonzero;"/><path d="M1218.33,1052.08l-0.416,0.834l-304.584,-197.917l-53.333,31.667l330.417,208.333l-0.417,0.833l29.167,35.834l0.833,-1.25c8.75,-1.667 20.833,-11.25 30,-26.25c9.167,-14.584 13.333,-30 11.25,-38.334l0.417,-1.25l-43.334,-12.5Z" style="fill:#ffc627;fill-rule:nonzero;"/><path d="M887.083,418.333l-22.916,29.584l-31.667,-75.417l0,349.167l106.25,-136.25l107.083,27.5l-158.75,-194.584Z" style="fill:#ffc627;fill-rule:nonzero;"/><path d="M887.083,500l0,-81.667l-22.916,29.584l22.916,52.083Z" style="fill:#fff;fill-rule:nonzero;"/><path d="M832.5,372.5l-192.917,235.417l84.584,-22.084l108.333,135.834l0,-349.167Z" style="fill:#fff;fill-rule:nonzero;"/><path d="M719.167,1253.33c27.083,-26.25 62.083,-42.083 100,-45.833l-0,-52.5l-144.167,0c2.917,38.333 18.75,72.5 44.167,98.333" style="fill:#ffc627;fill-rule:nonzero;"/><path d="M818.333,1301.67l0,-61.667c-27.916,3.333 -54.166,15 -75,34.583c22.5,14.584 47.917,24.167 75,27.084" style="fill:#ffc627;fill-rule:nonzero;"/><path d="M850.417,980.833l-0,61.667c27.916,-3.333 54.166,-15 75,-34.167c-21.667,-15 -47.084,-24.583 -75,-27.5" style="fill:#fff;fill-rule:nonzero;"/><path d="M950.417,1029.58c-27.084,25.834 -62.084,42.084 -99.584,45.417l0,47.5l144.167,0c-4.583,-35.417 -20.833,-68.333 -44.583,-92.917" style="fill:#fff;fill-rule:nonzero;"/><path d="M818.333,1042.5l0,-61.667c-27.5,2.917 -53.333,12.5 -74.583,27.5c21.25,19.167 47.083,31.25 74.583,34.167" style="fill:#fff;fill-rule:nonzero;"/><path d="M850.417,1155l-0,52.5c37.5,3.75 72.083,19.583 99.583,45.833c25,-25.833 41.667,-60 44.583,-98.333l-144.166,0Z" style="fill:#ffc627;fill-rule:nonzero;"/><path d="M674.583,1122.5l143.75,0l0,-47.5c-37.5,-3.333 -72.083,-20 -100,-45.417c-23.333,24.584 -39.583,57.5 -43.75,92.917" style="fill:#fff;fill-rule:nonzero;"/><path d="M850.417,1301.67c27.5,-2.917 53.333,-12.5 75,-27.5c-20.834,-19.584 -47.084,-31.25 -75,-34.584l-0,62.084Z" style="fill:#ffc627;fill-rule:nonzero;"/></g></g><path d="M1562.5,468.75l-0,729.167c-0,201.219 -163.364,364.583 -364.583,364.583l-729.167,0c-201.219,0 -364.583,-163.364 -364.583,-364.583l-0,-729.167c-0,-201.219 163.364,-364.583 364.583,-364.583l729.167,-0c201.219,-0 364.583,163.364 364.583,364.583Z" style="fill:none;stroke:#000;stroke-width:8.33px;"/></svg>