<?xml version="1.0" encoding="UTF-8" standalone="no"?><!DOCTYPE svg PUBLIC "-//W3C//DTD SVG 1.1//EN" "http://www.w3.org/Graphics/SVG/1.1/DTD/svg11.dtd"><svg width="100%" height="100%" viewBox="0 0 1667 1667" version="1.1" xmlns="http://www.w3.org/2000/svg" xmlns:xlink="http://www.w3.org/1999/xlink" xml:space="preserve" xmlns:serif="http://www.serif.com/" style="fill-rule:evenodd;clip-rule:evenodd;stroke-linecap:round;stroke-linejoin:round;stroke-miterlimit:1.5;"><path d="M1562.5,468.75l-0,729.167c-0,201.219 -163.364,364.583 -364.583,364.583l-729.167,0c-201.219,0 -364.583,-163.364 -364.583,-364.583l-0,-729.167c-0,-201.219 163.364,-364.583 364.583,-364.583l729.167,-0c201.219,-0 364.583,163.364 364.583,364.583Z" style="fill:#c8102e;"/><clipPath id="_clip1"><path d="M1562.5,468.75l-0,729.167c-0,201.219 -163.364,364.583 -364.583,364.583l-729.167,0c-201.219,0 -364.583,-163.364 -364.583,-364.583l-0,-729.167c-0,-201.219 163.364,-364.583 364.583,-364.583l729.167,-0c201.219,-0 364.583,163.364 364.583,364.583Z"/></clipPath><g clip-path="url(#_clip1)"><g><path d="M1458.33,833.75c0,345.417 -280,625.417 -625.416,625.417c-345.417,-0 -625.417,-280 -625.417,-625.417c-0.417,-345.417 279.583,-625.417 625.417,-625.417c345.416,0 625.416,280 625.416,625.417" style="fill:#b3b2b1;fill-rule:nonzero;"/><g><path d="M1440.42,833.75c-0,335.417 -272.084,607.5 -607.5,607.5c-335.417,0 -607.5,-272.083 -607.5,-607.5c-0,-335.417 272.083,-607.5 607.5,-607.5c335.416,0 607.5,272.083 607.5,607.5" style="fill:#1d428a;fill-rule:nonzero;"/><g><path d="M1350.83,833.75c0,285.833 -231.666,518.333 -518.333,518.333c-285.833,0 -518.333,-231.666 -518.333,-518.333c-0,-285.833 231.666,-518.333 518.333,-518.333c286.667,-0 518.333,232.5 518.333,518.333" style="fill:#c8102e;fill-rule:nonzero;"/><path d="M832.917,315.417c-285.417,-0 -518.334,232.5 -518.334,518.333c0,285.833 232.5,518.333 518.334,518.333c285.833,0 518.333,-232.5 518.333,-518.333c-0.417,-285.417 -232.917,-518.333 -518.333,-518.333m-488.334,533.75l95.417,-0l0,-30.417l-95.417,0c0.417,-11.25 0.834,-22.917 2.084,-34.167c33.75,-170.416 238.75,-301.25 485.833,-301.25c247.083,0 452.083,131.25 485.833,301.25c1.25,11.25 1.667,22.917 2.084,34.167l-95.834,0l0,30.417l95.417,-0c-0.417,11.25 -0.833,22.916 -2.083,34.166c-33.75,170 -239.167,301.25 -485.834,301.25c-246.666,0 -451.666,-131.25 -485.416,-301.25c-0.834,-11.25 -1.25,-22.916 -2.084,-34.166m488.334,-503.75c206.666,-0 384.166,129.166 455,311.25c-86.667,-118.75 -257.917,-200 -455,-200c-197.084,-0 -368.334,80.833 -455,200c70.833,-181.667 247.916,-311.25 455,-311.25m-0,977.083c-206.667,0 -384.167,-129.167 -455,-311.25c86.666,118.75 257.916,200 455,200c197.083,0 368.333,-80.833 455,-200c-71.25,181.25 -248.334,311.25 -455,311.25" style="fill:#fff;fill-rule:nonzero;"/><g><g><rect x="613.75" y="847.5" width="36.25" height="164.583" style="fill:#fff;"/><path d="M754.167,847.5l-1.25,0c-10,0 -47.917,-0.417 -55,0l-1.667,0c-10.833,0 -18.333,5 -20,15c-0.417,1.667 -0.417,2.5 -0.417,2.5c0,0.417 -2.5,31.25 0.417,40c5,14.167 16.667,19.583 26.667,22.5c0.416,0 0.833,0.417 1.25,0.417c0.833,-0 1.25,0.416 2.083,0.833c1.25,0.417 2.083,1.25 2.5,1.667l0,59.166l-30,0l0,22.084l40,-0c14.167,-0.417 23.333,-6.667 26.667,-17.084c0.833,-7.916 1.25,-63.333 0.416,-74.583c-0.416,-4.167 -2.083,-7.917 -6.25,-10.833c-1.666,-1.25 -3.333,-2.5 -5.833,-3.75c-2.083,-1.25 -4.583,-2.084 -6.667,-3.334c-8.333,-4.166 -18.333,-8.75 -18.333,-20l-0,-9.166l28.75,-0c5.833,-0 10.417,-2.917 13.75,-8.334c2.083,-4.166 2.917,-8.333 2.917,-8.333c0.416,-2.5 -0,-5 -0,-6.667l-0,-2.083Z" style="fill:#fff;fill-rule:nonzero;"/><path d="M922.083,847.5c-7.916,0 -17.083,0.417 -23.75,2.083c-17.916,4.167 -26.666,16.25 -26.666,36.667l-0,97.917c-0,25 17.916,30 45,30c32.5,-0 51.25,-11.25 51.25,-31.667l-0,-102.083c-0.417,-32.917 -21.25,-32.917 -45.834,-32.917m-12.5,37.083c0,-4.166 0.417,-7.5 1.25,-10l0.834,-0.416c1.666,-0.417 3.333,-0.417 5,-0.417l0.833,0c12.083,0 12.917,3.75 12.917,26.25l-0,74.583c-0,2.084 -0.417,3.75 -0.834,5.417l-0.833,0.833c-2.083,0.417 -4.167,0.417 -6.25,0.417c-4.583,0 -7.5,-0.833 -9.583,-2.917c-2.917,-2.916 -2.917,-7.916 -2.917,-14.166l0,-69.584c-0.417,0 -0.417,-7.5 -0.417,-10" style="fill:#fff;fill-rule:nonzero;"/><path d="M1052.5,917.083c-17.5,-63.75 -45.833,-70.416 -57.083,-70.416c-2.917,-0 -4.584,0.416 -5,0.416l-0.834,0.417l0,164.583l37.084,0l-0,-66.25l25.833,66.25l37.917,0l-0,-164.583l-37.917,0l-0,69.583Z" style="fill:#fff;fill-rule:nonzero;"/><path d="M569.167,847.5l-93.75,0l-0,1.25c-0,0 -0.834,19.583 20.833,24.167l-0,139.583l38.333,0l0,-70l31.667,0c17.083,0 26.667,-10.833 26.667,-30.417l-0,-5.833c-0.417,-47.083 -2.084,-56.25 -23.75,-58.75m-14.584,72.917l-20.833,-0l-0,-47.917c-0,0 10.833,-0.417 12.917,0c4.166,0.417 7.5,2.083 7.5,7.083c0.416,1.667 0.416,40.834 0.416,40.834" style="fill:#fff;fill-rule:nonzero;"/><path d="M860,847.917l-85.417,-0l0,25.833l24.584,0l-0,138.75l37.916,0l0,-139.167l1.25,0c6.667,0 12.084,-2.083 16.25,-5.833c6.667,-7.083 6.25,-18.333 6.25,-18.75l-0.833,-0.833Z" style="fill:#fff;fill-rule:nonzero;"/><path d="M1190,847.5l-1.25,0c-10,0 -47.917,-0.417 -55,0l-1.667,0c-10.833,0 -18.333,5 -20,15c-0.416,1.667 -0.416,2.5 -0.416,2.5c-0,0.417 -2.5,31.25 0.416,40c5,14.167 16.667,19.583 26.667,22.5c0.417,0 0.833,0.417 1.25,0.417c0.833,-0 1.25,0.416 2.083,0.833c1.25,0.417 2.084,1.25 2.5,1.667l0,59.166l-30,0l0,22.084l40,-0c14.167,-0.417 23.334,-6.667 26.667,-17.084c0.833,-7.916 1.25,-63.333 0.417,-74.583c-0.417,-4.167 -2.084,-7.917 -6.25,-10.833c-1.667,-1.25 -3.334,-2.5 -5.834,-3.75c-2.083,-1.25 -4.583,-2.084 -6.666,-3.334c-8.334,-4.166 -18.334,-8.75 -18.334,-20l0,-9.166l28.75,-0c5.834,-0 10.417,-2.917 13.75,-8.334c2.084,-4.166 2.917,-8.333 2.917,-8.333c0.417,-2.5 0,-5 0,-6.667l0,-2.083Z" style="fill:#fff;fill-rule:nonzero;"/></g><g><path d="M852.917,745.417l7.083,-0c5.833,-0 16.667,2.083 16.667,13.333c-0,5 0.416,21.667 0.833,27.917l0,2.5c0,0.833 0.417,8.75 0.833,10.416c2.5,9.584 10,15.417 21.667,16.667l10.417,-0l-0,-58.333c-0,-5 -2.5,-11.667 -6.667,-17.084l-0.833,-0.833c5.833,-6.667 7.916,-13.333 7.916,-23.333l0,-5.834c0,-45.416 -1.666,-54.583 -22.916,-56.666l-71.25,-0l-0,160.416l36.25,0l-0,-69.166Zm0.416,-66.667l7.5,-0c9.584,-0 13.334,-0 12.917,17.083c-0,13.75 -0,14.584 -0.417,20.834l0,1.25c0,2.083 -0.833,4.166 -2.083,5.416c-0.833,0.834 -1.667,1.25 -2.917,1.25l-15,0l0,-45.833Z" style="fill:#fff;fill-rule:nonzero;"/><path d="M1080.83,653.333l-35.833,0l0,160.417l35.833,0l0,-160.417Z" style="fill:#fff;fill-rule:nonzero;"/><path d="M737.917,814.167l36.666,-0l0,-135.417l1.25,0c6.667,0 11.667,-2.083 15.834,-5.833c6.666,-7.084 6.25,-17.5 6.25,-18.334l-0,-1.25l-83.75,0l-0,25.417l23.75,-0l-0,135.417Z" style="fill:#fff;fill-rule:nonzero;"/><path d="M1123.75,814.167l36.667,-0l-0,-135.417l1.25,0c6.666,0 11.666,-2.083 15.833,-5.833c6.667,-7.084 6.25,-17.5 6.25,-18.334l0,-1.25l-83.75,0l0,25.417l23.75,-0l0,135.417Z" style="fill:#fff;fill-rule:nonzero;"/><path d="M694.583,788.333l-38.333,0l0,-39.166l26.25,-0l0,-35l-26.25,-0l0,-35.834l38.333,0l0,-25l-73.75,0l-0.833,160.417l74.583,0l0,-25.417Z" style="fill:#fff;fill-rule:nonzero;"/><path d="M574.167,653.333l-91.667,0l0,0.834c0,0.416 -1.25,9.583 4.583,16.666c3.75,4.584 9.167,6.667 17.084,7.5l-0,135l68.333,0c15.833,0 25.833,-13.333 25.833,-32.916l0,-74.584c0,-40.833 0,-51.666 -24.166,-52.5m-12.917,135l-20.417,0l0,-109.583c12.917,-0.417 15.417,0.417 15.834,0.833c4.583,1.667 4.583,10.417 4.583,10.834c0.833,12.5 0,87.916 0,97.916" style="fill:#fff;fill-rule:nonzero;"/><path d="M980,653.333c-7.917,0 -16.667,0.417 -23.75,2.084c-17.917,4.166 -26.25,16.25 -26.25,35.833l0,95.833c0,24.584 17.917,29.584 44.583,29.584c32.084,-0 50.834,-11.25 50.834,-30.834l-0,-100c0.416,-32.5 -20.834,-32.5 -45.417,-32.5m-12.083,36.25c-0,-4.166 0.416,-7.5 1.25,-10l0.833,-0.416c1.667,-0.417 3.333,-0.417 5,-0.417l0.833,0c12.084,0 12.917,3.75 12.917,25.833l0,73.334c0,2.083 -0.417,3.75 -0.833,5.416l-0.834,0.417c-2.083,0.417 -4.166,0.417 -6.25,0.417c-4.583,-0 -7.5,-0.834 -9.583,-2.917c-2.917,-2.917 -2.917,-7.917 -2.917,-13.75l0,-67.5c-0.416,0 -0.416,-7.917 -0.416,-10.417" style="fill:#fff;fill-rule:nonzero;"/></g></g></g></g></g></g><path d="M1562.5,468.75l-0,729.167c-0,201.219 -163.364,364.583 -364.583,364.583l-729.167,0c-201.219,0 -364.583,-163.364 -364.583,-364.583l-0,-729.167c-0,-201.219 163.364,-364.583 364.583,-364.583l729.167,-0c201.219,-0 364.583,163.364 364.583,364.583Z" style="fill:none;stroke:#000;stroke-width:8.33px;"/></svg>