<?xml version="1.0" encoding="UTF-8" standalone="no"?><!DOCTYPE svg PUBLIC "-//W3C//DTD SVG 1.1//EN" "http://www.w3.org/Graphics/SVG/1.1/DTD/svg11.dtd"><svg width="100%" height="100%" viewBox="0 0 1667 1667" version="1.1" xmlns="http://www.w3.org/2000/svg" xmlns:xlink="http://www.w3.org/1999/xlink" xml:space="preserve" xmlns:serif="http://www.serif.com/" style="fill-rule:evenodd;clip-rule:evenodd;stroke-linecap:round;stroke-linejoin:round;stroke-miterlimit:1.5;"><path d="M1562.5,468.75l-0,729.167c-0,201.219 -163.364,364.583 -364.583,364.583l-729.167,0c-201.219,0 -364.583,-163.364 -364.583,-364.583l-0,-729.167c-0,-201.219 163.364,-364.583 364.583,-364.583l729.167,-0c201.219,-0 364.583,163.364 364.583,364.583Z" style="fill:#ffc72c;"/><clipPath id="_clip1"><path d="M1562.5,468.75l-0,729.167c-0,201.219 -163.364,364.583 -364.583,364.583l-729.167,0c-201.219,0 -364.583,-163.364 -364.583,-364.583l-0,-729.167c-0,-201.219 163.364,-364.583 364.583,-364.583l729.167,-0c201.219,-0 364.583,163.364 364.583,364.583Z"/></clipPath><g clip-path="url(#_clip1)"><g><path d="M1458.33,832.917c0,345 -279.583,624.583 -624.583,624.583c-345,0 -625,-279.583 -625,-624.583c-0,-345 279.583,-624.584 625,-624.584c345.417,0 624.583,279.584 624.583,624.584" style="fill:#1d428a;fill-rule:nonzero;"/><path d="M1242.5,424.167c-109.167,-109.167 -254.583,-169.167 -408.75,-169.167c-154.167,-0 -299.167,60 -408.75,169.167c-109.167,109.166 -169.167,254.583 -169.167,408.75c0,154.166 60,299.166 169.167,408.75c109.167,109.166 254.583,169.166 408.75,169.166c154.167,0 299.167,-60 408.75,-169.166c109.167,-109.167 169.167,-254.584 169.167,-408.75c-0,-154.167 -60.417,-299.167 -169.167,-408.75m-795.833,22.083c103.333,-103.333 240.416,-160.417 386.666,-160.417c145.834,0 283.334,57.084 386.667,160.417c103.333,103.333 160.417,240.417 160.417,386.667c-0,78.75 -16.25,154.583 -47.5,224.166c-66.25,-22.5 -131.25,-47.5 -195.417,-76.25c-8.333,-3.75 -16.667,-7.5 -25.417,-11.25l-50,-23.333l-25,-12.5c-7.916,-4.167 -16.25,-8.333 -24.583,-12.917l-12.083,-6.25c-4.167,-2.083 -7.917,-4.583 -12.084,-6.666l-24.166,-13.334l-23.75,-14.166c-63.334,-37.084 -124.584,-78.75 -182.084,-124.167c-28.75,-22.917 -56.666,-47.083 -83.333,-72.083c-13.333,-12.917 -26.25,-25.834 -38.75,-38.75c-3.333,-3.334 -6.25,-6.667 -9.167,-10c-3.333,-3.334 -5.833,-6.667 -9.166,-10.417c-3.334,-3.75 -5.834,-6.667 -8.75,-10.417l-0.417,-0.416c-1.25,-40 -1.667,-64.167 -1.667,-64.167l-27.083,-6.25l0,36.667l-23.333,-0l-0,-38.75l-29.167,6.666l0.417,14.167l-13.75,7.5c0.416,11.667 0.833,26.25 0.833,44.583c-11.25,19.167 -132.083,228.75 -222.917,292.917c-2.5,-24.167 -4.583,-49.167 -4.583,-74.583c-0.417,-145.834 56.25,-283.334 159.167,-386.667m718.333,655l-56.667,2.083l-45.833,-119.166l8.75,4.583l25.417,12.5c8.333,4.167 16.666,7.917 25.416,12.083c2.5,1.25 5,2.5 7.084,3.334l35.833,84.583Zm-13.75,-74.583c22.917,10.416 45.833,20.416 68.333,29.583l18.75,42.083l-56.666,2.084l-30.417,-73.75Zm-59.583,77.083l-57.5,2.083l-60,-170c3.75,2.084 7.5,4.584 11.25,6.25l12.5,6.667c7.916,4.583 16.25,9.167 24.583,13.75l18.75,10l50.417,131.25Zm-74.584,2.5l-51.25,1.667l-75,-223.334c11.667,7.5 22.917,15 34.584,22.084l24.166,15l3.334,2.083l64.166,182.5Zm-68.333,2.083l-53.75,2.084l-89.167,-285c20.417,15.416 41.25,30 62.5,44.583l80.417,238.333Zm-71.25,2.5l-51.667,1.667l-105.416,-355.833c7.5,6.25 15,12.916 22.5,19.166c13.333,11.25 26.666,22.084 40.416,32.5l94.167,302.5Zm-68.333,2.5l-57.5,2.084l-125.834,-450.417c11.25,12.083 22.5,24.167 34.167,35.833c12.083,12.084 25,24.167 37.083,35.834l112.084,376.666Zm-74.167,2.5l-49.583,1.667l-69.167,-264.583c-2.083,-68.334 -4.167,-131.25 -5.417,-182.084l124.167,445Zm-66.25,1.667l-42.917,1.667c-2.916,-62.917 -5.416,-129.167 -7.083,-193.334l50,191.667Zm606.25,38.333c-3.75,5.417 -7.5,10 -11.25,15l-635.417,-12.5l-0.416,-5.833l647.083,3.333Zm-18.75,-57.916l-14.583,-32.5c24.166,9.583 48.333,18.75 72.916,27.916c-0.416,0.834 -1.25,2.084 -1.666,2.917l-56.667,1.667Zm-675.833,-399.584l-0,33.75l-25.834,0l0,31.25l25.834,0l-0,33.75l-25.834,0l0,31.25l25.834,0l-0,62.917l-25.834,0l0,31.25l25.834,0l-0,65l-25.834,0l0,31.25l25.834,0l-0,102.083l-23.75,0.834l-0,-475.834l23.333,0l0,21.25l-25.833,0l-0,31.25l26.25,0Zm-245.834,359.167l71.25,-240c28.75,-38.333 60.417,-86.667 93.75,-146.667l-127.5,456.25c-14.166,-22.5 -26.666,-45.833 -37.5,-69.583m-10,-23.75c-12.5,-32.083 -22.083,-65 -28.333,-99.167c20,-15.833 48.333,-42.083 82.5,-82.916l-54.167,182.083Zm190.417,-357.083c0,47.916 -0.833,106.666 -2.083,168.75l-73.334,280l-50.833,1.666l126.25,-450.416Zm-3.75,239.166c-2.083,69.167 -4.583,141.25 -7.917,207.5l-47.083,1.667l55,-209.167Zm-97.5,267.917l85.833,3.333c-1.666,26.25 -3.75,51.667 -5.416,75c-16.25,-13.333 -32.5,-27.083 -47.084,-42.083c-11.666,-11.667 -22.916,-23.75 -33.333,-36.25m420,195.833c-68.333,0 -134.167,-12.5 -195.833,-36.25c-2.5,-37.083 -5,-82.083 -7.084,-131.25l-49.583,-16.666l-0,122.083c-7.917,-4.167 -15.833,-8.333 -23.75,-13.333l0,-115.834l23.75,0.834l-0,0.833l25.833,0l46.25,1.667l575.417,20.416c-2.5,2.5 -4.583,5 -6.667,7.084c-105,103.75 -242.5,160.416 -388.333,160.416" style="fill:#fdb927;fill-rule:nonzero;"/></g></g><path d="M1562.5,468.75l-0,729.167c-0,201.219 -163.364,364.583 -364.583,364.583l-729.167,0c-201.219,0 -364.583,-163.364 -364.583,-364.583l-0,-729.167c-0,-201.219 163.364,-364.583 364.583,-364.583l729.167,-0c201.219,-0 364.583,163.364 364.583,364.583Z" style="fill:none;stroke:#000;stroke-width:8.33px;"/></svg>