<?xml version="1.0" encoding="UTF-8" standalone="no"?><!DOCTYPE svg PUBLIC "-//W3C//DTD SVG 1.1//EN" "http://www.w3.org/Graphics/SVG/1.1/DTD/svg11.dtd"><svg width="100%" height="100%" viewBox="0 0 1667 1667" version="1.1" xmlns="http://www.w3.org/2000/svg" xmlns:xlink="http://www.w3.org/1999/xlink" xml:space="preserve" xmlns:serif="http://www.serif.com/" style="fill-rule:evenodd;clip-rule:evenodd;stroke-linecap:round;stroke-linejoin:round;stroke-miterlimit:1.5;"><path d="M1562.5,468.75l-0,729.167c-0,201.219 -163.364,364.583 -364.583,364.583l-729.167,0c-201.219,0 -364.583,-163.364 -364.583,-364.583l-0,-729.167c-0,-201.219 163.364,-364.583 364.583,-364.583l729.167,-0c201.219,-0 364.583,163.364 364.583,364.583Z" style="fill:#fff;"/><clipPath id="_clip1"><path d="M1562.5,468.75l-0,729.167c-0,201.219 -163.364,364.583 -364.583,364.583l-729.167,0c-201.219,0 -364.583,-163.364 -364.583,-364.583l-0,-729.167c-0,-201.219 163.364,-364.583 364.583,-364.583l729.167,-0c201.219,-0 364.583,163.364 364.583,364.583Z"/></clipPath><g clip-path="url(#_clip1)"><g><path d="M1040.83,789.167l1.667,-138.75c0,-65 -67.917,-75.834 -117.917,-75.417c33.334,-11.25 73.75,-30 102.917,-61.667c30.833,-28.333 52.5,-68.333 48.75,-124.166c-6.25,-94.167 -124.167,-140.834 -319.167,-122.084c-3.333,0.417 -6.25,0.834 -9.583,0.834c-9.167,-69.584 -23.333,-137.084 -45,-199.167l-9.583,9.583c-25.834,80.417 -41.25,144.584 -50.417,204.167c-116.25,20 -197.917,46.667 -197.917,46.667l-9.583,9.583c0,0 94.167,-8.333 201.25,-7.083c-12.083,122.083 0.417,237.916 0,456.666c-173.333,-5 -325.417,23.75 -362.5,70.417c-12.083,10 -18.75,21.25 -18.333,32.917c2.083,52.916 159.583,101.666 380.833,120.416l9.583,300.834l9.584,-9.584l15.416,-204.166c0,-3.334 0.417,-6.25 1.25,-8.75c4.584,0.833 9.167,6.666 9.167,17.083l6.667,268.75l9.583,-9.583l16.667,-218.75c-0,-5 0.416,-8.75 1.25,-12.084c4.583,0.834 9.166,7.5 8.75,20l7.5,280l9.583,-9.583l13.333,-407.5c25.417,0.833 51.25,1.25 77.917,1.25c27.917,0 55.417,-0.417 82.5,-1.25l13.333,425l9.584,-9.583l11.25,-222.5c-0,-4.584 0.416,-8.334 1.25,-11.25c4.166,0.833 8.333,7.5 8.333,19.166l11.667,312.084l9.583,-9.584l11.667,-269.583c-0,-3.75 0.833,-7.083 1.666,-9.583c5.417,-0 11.25,6.666 11.25,19.583l9.584,357.083l9.583,-9.583l14.167,-598.333c189.166,-16.667 332.916,-54.584 368.75,-98.75c11.666,-10 18.333,-20.417 18.333,-30.834c-2.5,-57.5 -177.917,-102.5 -384.167,-92.916m-406.25,160.416c-151.666,-14.583 -254.166,-45.416 -254.166,-84.166c-0,-2.917 0.833,-5.417 2.5,-8.334c35.416,-25 144.583,-40.833 253.75,-57.083c-0,42.917 -0.834,89.583 -2.084,140.833l0,8.75Zm309.167,-522.5c5.833,42.917 -6.667,75.417 -28.75,100c-39.583,35.834 -101.667,52.084 -152.083,59.584c0.833,-80.834 -0.417,-165 -7.5,-247.5c97.5,10.416 181.25,35 188.333,87.916m-28.75,530.834c-23.75,0.833 -47.917,1.25 -72.917,1.25c-29.166,-0 -57.916,-0.417 -85.416,-1.667l1.25,-34.583c-2.5,-87.5 2.916,-197.5 4.583,-315c71.25,8.333 156.667,28.333 155.417,78.333l-2.917,271.667Zm377.5,-67.5c-35.417,27.916 -129.167,49.583 -253.333,60.416l1.666,-149.166c142.084,18.333 257.5,39.166 257.5,73.333c0,5 -2.083,10.417 -5.833,15.417" style="fill:#061922;fill-rule:nonzero;"/><path d="M1425,882.917c-2.5,-58.334 -177.917,-103.334 -384.167,-93.334l1.667,-138.75c-0.417,-85.833 -117.917,-77.5 -157.5,-72.083c46.25,-8.333 200.833,-47.083 191.25,-188.75c-6.25,-94.167 -124.167,-140.833 -319.167,-122.083c-3.333,0.416 -6.25,0.833 -9.583,0.833c-9.167,-69.583 -23.333,-137.083 -45,-199.167c-27.083,84.167 -42.917,150.417 -51.667,212.084c-120.833,20 -206.25,48.333 -206.25,48.333c0,-0 94.167,-8.333 201.25,-7.083c-12.083,123.75 0.417,241.25 0,466.666c-205,-7.083 -382.916,32.5 -380.833,93.334c1.667,52.916 159.583,101.666 380.833,120.416l9.584,300.834l15.416,-204.167c0.417,-25.417 19.584,-22.917 19.584,-1.25l7.083,268.75l16.667,-218.75c-0.417,-29.583 20.416,-27.917 19.583,-1.667l7.5,280l13.333,-417.5c28.334,0.834 57.5,1.667 87.084,1.667c27.916,-0 55.416,-0.417 82.5,-1.25l13.333,425l11.25,-222.5c0,-28.333 19.167,-27.083 19.167,-1.667l11.666,312.084l11.667,-269.584c0.833,-26.666 22.083,-25.416 22.5,0l9.583,357.084l14.167,-606.667l0,-0.417c225,-18.75 387.5,-67.5 387.5,-120.416m-471.667,-465.417c15.834,117.5 -104.166,156.25 -190.416,169.167c0.833,-84.584 -0.417,-172.5 -8.334,-258.334c101.667,10 191.25,34.167 198.75,89.167m-572.916,447.917c-0,-35.834 132.916,-55 265.833,-75c0,42.916 -0.833,89.583 -2.083,140.833l0.416,19.583c-157.5,-14.583 -264.166,-45.833 -264.166,-85.416m376.25,92.083l1.25,-34.583c-2.5,-90.417 3.333,-204.167 4.583,-325.417c72.5,7.5 166.25,27.083 164.583,79.583l-2.5,280.834c-26.666,0.833 -54.166,1.25 -82.5,1.25c-29.166,-0.417 -57.5,-0.834 -85.416,-1.667m282.5,-6.667l2.083,-160c146.25,18.75 266.667,40 266.667,74.584c-0,39.583 -110,71.25 -268.75,85.416" style="fill:#ce1141;fill-rule:nonzero;"/></g></g><path d="M1562.5,468.75l-0,729.167c-0,201.219 -163.364,364.583 -364.583,364.583l-729.167,0c-201.219,0 -364.583,-163.364 -364.583,-364.583l-0,-729.167c-0,-201.219 163.364,-364.583 364.583,-364.583l729.167,-0c201.219,-0 364.583,163.364 364.583,364.583Z" style="fill:none;stroke:#000;stroke-width:8.33px;"/></svg>