<?xml version="1.0" encoding="UTF-8" standalone="no"?><!DOCTYPE svg PUBLIC "-//W3C//DTD SVG 1.1//EN" "http://www.w3.org/Graphics/SVG/1.1/DTD/svg11.dtd"><svg width="100%" height="100%" viewBox="0 0 1667 1667" version="1.1" xmlns="http://www.w3.org/2000/svg" xmlns:xlink="http://www.w3.org/1999/xlink" xml:space="preserve" xmlns:serif="http://www.serif.com/" style="fill-rule:evenodd;clip-rule:evenodd;stroke-linecap:round;stroke-linejoin:round;stroke-miterlimit:1.5;"><path d="M1562.5,468.75l-0,729.167c-0,201.219 -163.364,364.583 -364.583,364.583l-729.167,0c-201.219,0 -364.583,-163.364 -364.583,-364.583l-0,-729.167c-0,-201.219 163.364,-364.583 364.583,-364.583l729.167,-0c201.219,-0 364.583,163.364 364.583,364.583Z" style="fill:#fdbb30;"/><clipPath id="_clip1"><path d="M1562.5,468.75l-0,729.167c-0,201.219 -163.364,364.583 -364.583,364.583l-729.167,0c-201.219,0 -364.583,-163.364 -364.583,-364.583l-0,-729.167c-0,-201.219 163.364,-364.583 364.583,-364.583l729.167,-0c201.219,-0 364.583,163.364 364.583,364.583Z"/></clipPath><g clip-path="url(#_clip1)"><g><path d="M1327.5,419.583c-83.75,-100.833 -203.75,-157.083 -338.75,-157.083l-539.583,0l-250.417,1137.92l460.833,0.416l66.25,-275.416c61.667,-0 224.584,-0 224.167,-0c154.167,1.25 280.833,-51.25 366.25,-151.25c154.583,-168.334 127.083,-414.584 11.25,-554.584Z" style="fill:#bec0c2;fill-rule:nonzero;"/><path d="M701.667,1095.42l-65.834,275.416l-400,0l237.084,-1078.33l515.416,0.417c128.334,0.416 238.334,52.083 315.834,145.833c114.166,137.917 125.416,367.083 -11.25,516.25c-83.75,98.333 -206.667,141.667 -342.917,140.417l-248.333,-0Z" style="fill:#002d62;fill-rule:nonzero;"/><path d="M420,532.083l225.833,0c25.834,0 53.75,21.667 41.667,54.584c-7.5,20.416 -12.917,44.166 -15.833,66.25c-2.084,17.5 17.5,28.333 28.333,28.333l460.417,0.417c8.75,-0 13.333,-2.5 13.333,-6.667c0,-4.167 -0.417,-19.583 -2.083,-30c-1.667,-10 -3.334,-12.083 -11.667,-12.083c-57.5,-0 -80.833,-25.417 -140.833,-64.584c-60,-38.75 -148.334,-61.25 -224.167,-61.25l-369.583,-0.416l-5.417,25.416Z" style="fill:#fdbb30;fill-rule:nonzero;"/><path d="M698.75,830.417c-7.917,-17.084 -15.417,-37.5 -20,-55.834c-5.833,-23.75 -25.833,-43.333 -60.417,-43.333l-242.5,-0l5.834,-27.083l785.416,0.416c7.917,0 6.25,3.334 5.834,12.084c-0.417,8.75 -2.5,24.583 -3.75,34.166c-1.25,9.584 -9.167,7.084 -16.667,7.5c-17.5,0.417 -50.417,4.584 -69.583,18.75c-32.5,24.584 -102.084,67.5 -140.834,80c-41.666,13.334 -198.333,61.25 -244.166,-27.083" style="fill:#fdbb30;fill-rule:nonzero;"/><path d="M332.917,928.333l410,0.417c17.916,0 33.75,4.167 45.833,14.167c34.583,28.75 79.583,49.166 127.083,62.916c21.25,6.25 58.334,-1.666 91.25,-20.416c82.084,-46.25 135,-134.584 152.084,-191.667c4.583,-15 -4.167,-13.75 -15.834,-12.917c-34.583,2.5 -70.833,33.75 -118.75,64.167c-47.916,30.417 -145,59.167 -237.5,59.167l-449.166,-0.417l-5,24.583Z" style="fill:#fdbb30;fill-rule:nonzero;"/><path d="M934.167,379.167c5.833,-0.834 26.666,-2.084 37.916,2.083c77.917,30.833 151.667,111.667 182.5,197.917c5.834,16.666 7.5,27.083 0,27.916c-35.833,3.75 -52.5,-13.75 -94.166,-42.083c-42.084,-28.333 -80.834,-47.917 -133.75,-64.583c-52.5,-16.667 -147.917,-19.167 -160.417,-19.584c-12.5,-0.416 -10.833,-5.416 -5.417,-10.833c45.834,-45.417 107.084,-78.75 173.334,-90.833Z" style="fill:#fdbb30;fill-rule:nonzero;"/><path d="M1307.92,675c0.416,3.333 -3.334,7.083 -7.5,7.083l-90,0c-11.667,0 -11.667,-5.416 -12.084,-12.083c-0.416,-6.667 -2.5,-19.583 -2.5,-27.5c-0.416,-7.5 -3.333,-16.25 7.084,-20.417c25,-10.416 48.75,-35 59.583,-55.833c3.75,-7.083 9.167,-18.75 15,-8.75c21.25,33.333 27.917,75.417 30.417,117.5Z" style="fill:#fdbb30;fill-rule:nonzero;"/><path d="M1275.83,836.25c-1.666,2.917 -7.083,5.417 -9.166,0.417c-12.917,-35 -44.167,-59.167 -65.834,-71.25c-6.666,-3.75 -7.083,-7.917 -6.25,-14.167c0.834,-6.25 3.75,-26.667 4.167,-35.417c0.417,-6.666 2.917,-11.666 8.333,-11.666l93.75,-0c3.334,-0 7.5,2.916 7.5,5.416c-0.416,44.584 -13.75,88.75 -32.5,126.667Z" style="fill:#fdbb30;fill-rule:nonzero;"/><path d="M1032.5,1012.08c-6.667,0.834 -20.833,-1.25 1.667,-14.583c67.916,-39.583 128.75,-132.5 144.583,-185.417c6.25,-20.416 6.667,-21.25 14.583,-19.166c10.417,2.916 26.667,17.083 39.167,34.583c12.5,17.083 17.917,50.833 10.833,60.833c-48.333,65 -126.25,111.25 -210.833,123.75Z" style="fill:#fdbb30;fill-rule:nonzero;"/><path d="M1205.42,592.083c-15.834,8.334 -18.75,7.084 -22.084,-5c-29.583,-103.75 -116.666,-180.416 -152.5,-202.916c-6.666,-4.167 -5,-7.084 0,-6.667c85.417,11.25 168.75,57.917 210.834,121.667c24.166,36.25 -20.834,84.583 -36.25,92.916Z" style="fill:#fdbb30;fill-rule:nonzero;"/></g></g><path d="M1562.5,468.75l-0,729.167c-0,201.219 -163.364,364.583 -364.583,364.583l-729.167,0c-201.219,0 -364.583,-163.364 -364.583,-364.583l-0,-729.167c-0,-201.219 163.364,-364.583 364.583,-364.583l729.167,-0c201.219,-0 364.583,163.364 364.583,364.583Z" style="fill:none;stroke:#000;stroke-width:8.33px;"/></svg>