<?xml version="1.0" encoding="UTF-8" standalone="no"?><!DOCTYPE svg PUBLIC "-//W3C//DTD SVG 1.1//EN" "http://www.w3.org/Graphics/SVG/1.1/DTD/svg11.dtd"><svg width="100%" height="100%" viewBox="0 0 1667 1667" version="1.1" xmlns="http://www.w3.org/2000/svg" xmlns:xlink="http://www.w3.org/1999/xlink" xml:space="preserve" xmlns:serif="http://www.serif.com/" style="fill-rule:evenodd;clip-rule:evenodd;stroke-linecap:round;stroke-linejoin:round;stroke-miterlimit:1.5;"><path d="M1562.5,468.75l-0,729.167c-0,201.219 -163.364,364.583 -364.583,364.583l-729.167,0c-201.219,0 -364.583,-163.364 -364.583,-364.583l-0,-729.167c-0,-201.219 163.364,-364.583 364.583,-364.583l729.167,-0c201.219,-0 364.583,163.364 364.583,364.583Z" style="fill:#bec0c2;"/><clipPath id="_clip1"><path d="M1562.5,468.75l-0,729.167c-0,201.219 -163.364,364.583 -364.583,364.583l-729.167,0c-201.219,0 -364.583,-163.364 -364.583,-364.583l-0,-729.167c-0,-201.219 163.364,-364.583 364.583,-364.583l729.167,-0c201.219,-0 364.583,163.364 364.583,364.583Z"/></clipPath><g clip-path="url(#_clip1)"><g><path d="M1500,835.417c0,368.333 -298.75,666.666 -666.667,666.666c-367.916,0 -666.666,-298.75 -666.666,-666.666c-0,-367.917 298.75,-666.667 666.666,-666.667c367.917,0 666.667,298.333 666.667,666.667" style="fill:#fff;fill-rule:nonzero;"/><path d="M351.667,791.25l-127.917,20c12.5,-326.25 280.833,-586.25 610,-586.25l0,326.25l2.917,0.833l9.166,-34.583l159.584,0l1.25,4.167c-1.667,11.666 -0.834,46.666 57.916,71.666l1.667,4.584l-232.5,-5.834l-232.5,5.834l1.667,-4.584c58.333,-25 59.166,-60 57.916,-71.666l1.25,-4.167l159.584,-0l-8.334,-31.667l-116.25,3.75l0.834,-2.916c34.583,-19.584 35.833,-47.084 35,-57.084l1.25,-3.75l63.333,0l-18.333,-71.25c-227.084,25.417 -406.667,207.917 -427.5,436.667m894.166,-209.583l-18.75,56.666l4.167,8.334l168.75,-0l7.083,-21.25c-82.5,-226.25 -295.833,-390 -548.75,-400l20,128.333c155.834,14.167 290,101.667 367.5,227.917m-14.583,442.5l-4.167,8.333l18.75,56.667c-77.916,126.25 -211.666,213.75 -367.083,228.333l-20,128.333c252.5,-10.416 465.417,-173.75 548.333,-400.416l-7.083,-21.25l-168.75,-0Zm-154.167,-393.75l-1.666,-5l-483.334,-0l-1.666,5c-0.417,14.583 -7.084,60.416 -70.417,123.333l-1.667,5.417c35.417,-15.417 67.084,-27.917 97.084,-39.167c36.666,-13.75 70.833,-24.583 104.583,-33.75c18.333,-5 36.667,-9.167 54.167,-12.917c18.75,-3.75 37.5,-7.083 55.416,-9.583l3.75,-0.417l3.75,0.417c15.417,2.083 31.25,4.583 47.5,7.917c15,2.916 30.834,6.666 46.667,10.833c28.75,7.5 58.333,16.667 90.833,27.917c43.334,15.416 86.25,32.916 127.5,50.833l-2.5,-7.5c-62.916,-62.917 -70,-108.75 -70,-123.333m-107.916,-143.334c-34.584,-19.583 -35.834,-47.083 -35,-57.083l-1.25,-3.75l-63.334,-0l-15.416,60l116.25,3.75l-1.25,-2.917Zm-27.5,634.167c0.416,0.833 0.833,1.25 1.666,2.083c1.25,1.667 3.334,3.334 5.417,4.584c2.083,1.25 5,2.916 8.333,4.583c5.834,2.5 12.917,5 22.084,7.083c16.666,4.167 35.416,6.25 52.083,7.917c4.583,0.417 9.167,0.833 13.75,1.25c7.5,-21.667 16.667,-42.917 27.5,-64.583c-19.583,8.75 -40.417,16.25 -62.5,22.5c-27.917,8.333 -52.083,12.5 -68.333,14.583m-253.334,18.333c9.167,-2.083 16.25,-4.583 22.084,-7.083c3.333,-1.25 5.833,-2.917 8.333,-4.583c2.083,-1.667 4.167,-3.334 5.417,-4.584c0.416,-0.833 1.25,-1.25 1.666,-2.083c-16.25,-2.083 -40.416,-6.25 -68.333,-14.167c-22.083,-6.25 -42.917,-13.75 -62.5,-22.5c10.417,21.25 20,42.917 27.5,64.584c4.583,-0.417 9.167,-0.834 13.75,-1.25c16.25,-2.084 35.417,-4.167 52.083,-8.334m755.417,-304.166l0,24.166l-127.917,20l-133.75,21.25c-28.75,46.667 -59.583,92.917 -85.833,139.584c-3.333,2.083 -6.25,3.75 -9.583,5.833c-42.5,24.167 -90,38.75 -142.084,43.333c4.584,-11.25 11.667,-22.083 18.75,-32.916c3.75,-5.834 8.334,-12.084 13.75,-19.167c4.584,-6.25 9.167,-12.5 14.584,-19.167c13.333,-17.083 27.5,-35 41.25,-51.666c6.666,-8.334 13.75,-17.084 20.416,-25.417l15.417,-19.583c0.833,-0.834 1.25,-1.667 2.083,-2.5c4.584,-5.834 8.75,-11.667 12.917,-17.5c4.583,-6.25 9.583,-13.334 14.167,-20.417c1.25,-2.083 2.916,-4.583 4.166,-6.667c0.834,-1.25 1.667,-2.5 2.5,-3.75l-25.833,-7.5c0,0 0,0.417 -0.417,0.417c-1.25,2.083 -2.5,4.167 -4.166,6.25c-3.75,5.833 -8.334,12.083 -13.75,19.583c-7.5,10 -17.917,22.917 -28.75,35.834c-0.417,0.833 -1.25,1.25 -1.667,2.083c-13.75,15.833 -28.333,31.667 -42.917,46.667c-8.333,8.75 -16.666,17.916 -25,26.666c-10.416,11.25 -22.083,24.584 -32.916,38.75c-5.417,6.667 -10.417,14.167 -15,21.25c-3.75,6.25 -8.75,14.584 -12.084,23.75c-2.5,6.667 -5.833,16.667 -5.416,28.75c-0,11.25 5,23.334 12.916,31.667c4.167,5 9.584,8.75 13.75,11.667c5.417,3.333 10.417,5.833 15.417,7.916c9.167,3.75 19.167,6.667 31.25,8.75c10.417,2.084 20.833,2.917 30.417,3.75c10.416,0.834 20.833,0.834 29.583,1.25l7.083,0c-1.666,5.834 -2.916,11.667 -4.166,17.5l-0.417,0l-89.583,32.084l-55.417,20.833l-38.333,-398.333l-3.334,-36.25l-7.083,-72.917l-4.167,1.25l0,704.167c-337.083,-0 -610.416,-273.334 -610.416,-610l-0,-0.417l395,-0l1.25,-3.75l-58.334,-16.25l-55,-15l2.084,-5.833c100.416,-44.584 210,-87.5 325.833,-103.334c113.333,15 222.917,60.417 326.25,105l1.25,4.167l-55,15l-58.333,16.25l1.25,3.75l393.333,-0l0,-0.833Zm-654.583,482.083l-10.834,-70l-52.916,-19.583l-89.167,-32.084l-0.417,0c-1.25,-5.833 -2.5,-11.666 -4.166,-17.5l7.083,0c8.75,0 19.167,0 29.583,-1.25c9.584,-0.833 20,-1.666 30.417,-3.75c12.083,-2.083 21.667,-5 31.25,-8.75c5,-2.083 10,-4.583 15.417,-7.916c4.583,-2.917 9.583,-6.667 13.75,-11.667c7.916,-8.75 12.5,-20.417 12.916,-31.667c0,-5.833 0,-14.583 -5.416,-28.75c-3.75,-9.166 -8.334,-17.5 -12.084,-23.75c-4.583,-7.083 -9.583,-14.583 -15,-21.25c-10.833,-14.166 -22.916,-27.5 -32.916,-38.75c-8.334,-9.166 -16.667,-17.916 -25,-26.666c-14.167,-15.417 -29.167,-30.834 -42.917,-46.667c-0.417,-0.833 -1.25,-1.25 -1.667,-2.083c-11.25,-12.917 -21.25,-25.834 -29.166,-35.834c-5.417,-7.5 -10,-13.75 -13.75,-19.583c-1.25,-2.083 -2.5,-4.167 -3.75,-6.25c-0,-0 -0,-0.417 -0.417,-0.417l-25.833,7.5c0.833,1.25 1.666,2.5 2.5,3.75c1.25,2.084 2.916,4.584 4.166,6.667c4.584,7.083 9.584,14.167 14.167,20.417c4.167,5.833 8.75,11.666 12.917,17.5c0.416,0.833 1.25,1.666 1.666,2.5l15.417,19.583c6.667,8.333 13.75,17.083 20.417,25.417c13.75,17.083 27.916,34.583 41.25,51.666c5.416,6.667 10,13.334 14.583,19.167c5.417,7.5 9.583,13.333 13.75,19.167c7.083,10.416 13.75,21.666 18.75,32.916c-51.667,-4.583 -99.583,-19.166 -141.667,-43.333c-3.333,-1.667 -6.666,-3.75 -9.583,-5.833c-26.667,-46.667 -57.083,-92.917 -85.833,-139.584l-134.167,-21.25c20.417,232.084 205,416.667 436.667,437.917" style="fill:#12173f;fill-rule:nonzero;"/></g></g><path d="M1562.5,468.75l-0,729.167c-0,201.219 -163.364,364.583 -364.583,364.583l-729.167,0c-201.219,0 -364.583,-163.364 -364.583,-364.583l-0,-729.167c-0,-201.219 163.364,-364.583 364.583,-364.583l729.167,-0c201.219,-0 364.583,163.364 364.583,364.583Z" style="fill:none;stroke:#000;stroke-width:8.33px;"/></svg>