<?xml version="1.0" encoding="UTF-8" standalone="no"?><!DOCTYPE svg PUBLIC "-//W3C//DTD SVG 1.1//EN" "http://www.w3.org/Graphics/SVG/1.1/DTD/svg11.dtd"><svg width="100%" height="100%" viewBox="0 0 1667 1667" version="1.1" xmlns="http://www.w3.org/2000/svg" xmlns:xlink="http://www.w3.org/1999/xlink" xml:space="preserve" xmlns:serif="http://www.serif.com/" style="fill-rule:evenodd;clip-rule:evenodd;stroke-linecap:round;stroke-linejoin:round;stroke-miterlimit:1.5;"><path d="M1562.5,468.75l-0,729.167c-0,201.219 -163.364,364.583 -364.583,364.583l-729.167,0c-201.219,0 -364.583,-163.364 -364.583,-364.583l-0,-729.167c-0,-201.219 163.364,-364.583 364.583,-364.583l729.167,-0c201.219,-0 364.583,163.364 364.583,364.583Z" style="fill:#552583;"/><clipPath id="_clip1"><path d="M1562.5,468.75l-0,729.167c-0,201.219 -163.364,364.583 -364.583,364.583l-729.167,0c-201.219,0 -364.583,-163.364 -364.583,-364.583l-0,-729.167c-0,-201.219 163.364,-364.583 364.583,-364.583l729.167,-0c201.219,-0 364.583,163.364 364.583,364.583Z"/></clipPath><g clip-path="url(#_clip1)"><g><path d="M387.5,561.667c0,-0 137.917,-225.417 420,-225.417c282.083,0 413.75,218.75 413.75,218.75l382.917,0l-15,94.167c-0,-0 -11.25,37.5 -28.334,41.25l26.25,-0c0,-0 8.75,32.916 -43.75,146.666l111.667,0c0,0 4.583,199.167 -236.25,293.334c0,-0 -124.583,39.583 -188.333,-28.334c-0,0 -126.667,236.25 -422.084,236.25c-295.416,0 -429.583,-242.916 -429.583,-242.916l-343.75,-0l54.583,-98.334l-37.083,0l43.75,-80.833l74.583,-0l13.334,-30.833l-35,-0l85.416,-157.5l47.917,-0l19.583,-47.917l-41.666,-0l63.75,-118.333l63.333,-0Z" style="fill:#fff;fill-rule:nonzero;"/><path d="M811.667,1285.83c241.666,0 437.5,-198.75 437.5,-444.166c-0,-245.417 -195.834,-444.167 -437.5,-444.167c-241.667,0 -437.5,198.75 -437.5,444.167c-0,245.416 195.833,444.166 437.5,444.166" style="fill:#fab624;fill-rule:nonzero;"/><g><path d="M1155.42,554.583c-5.417,-6.25 -13.334,-19.583 -67.084,-66.666c-79.166,-68.75 -183.75,-100.417 -282.5,-100.417c-72.5,0 -136.25,16.25 -206.25,55c-90,49.167 -126.666,106.25 -135.833,117.917c-6.667,8.75 -7.917,13.333 -3.333,15.833c3.333,1.667 9.166,-5 14.583,-12.5c26.667,-35.417 61.667,-70 98.333,-90.833c11.667,1.666 27.5,17.5 33.75,26.25c-23.75,12.916 -62.916,42.5 -77.5,54.166c-12.916,10 -17.083,15.417 -13.75,19.584c2.917,3.333 12.917,-3.334 20.834,-10c14.166,-11.667 56.25,-41.25 77.083,-52.5c14.167,16.25 9.583,47.083 4.583,54.166c-2.916,3.75 -2.916,7.5 0,9.167c2.917,1.667 6.25,-2.5 10.417,-8.75c10,-13.75 5.833,-47.917 -2.5,-60c25.417,-15.417 62.083,-26.25 84.167,-31.25c2.083,3.75 28.75,82.083 33.75,95.833c2.916,7.917 5.833,17.084 11.25,15c3.75,-1.25 1.25,-10 -2.084,-18.333c-4.166,-10.833 -24.166,-76.25 -30.416,-95.833c7.5,-4.167 51.25,-12.917 62.5,-12.5c-5.417,28.75 14.583,40.416 37.916,55.416c12.5,7.917 89.584,52.5 105.834,62.5c9.166,5.834 16.25,9.584 18.333,6.667c2.083,-3.333 -4.167,-9.583 -12.917,-14.167c-7.083,-4.166 -78.75,-45.833 -108.75,-65c-21.666,-13.333 -33.333,-28.333 -27.916,-47.083c7.083,-2.083 28.75,-2.083 51.25,-2.083c153.333,1.25 276.666,89.583 290.416,103.333c7.084,7.083 16.667,13.333 20.417,10.417c2.917,-1.25 -1.25,-9.584 -4.583,-13.334m-535.417,-60.833c-4.167,-7.083 -23.75,-24.583 -34.167,-28.333c24.584,-17.917 81.667,-44.167 103.334,-48.75c3.75,6.25 13.75,32.916 17.083,43.75c-18.75,4.166 -69.583,22.916 -86.25,33.333m167.917,-49.167c-20,1.25 -56.25,9.167 -69.167,12.917c-3.333,-8.75 -12.5,-35.833 -15.417,-44.167c37.084,-10.416 79.584,-13.75 112.917,-11.25c-9.583,6.667 -25,34.167 -28.333,42.5m99.583,-1.25c-33.333,-2.5 -60.417,-3.333 -84.167,-0.833c7.084,-17.083 20.417,-33.75 31.25,-40.417c22.5,0.834 45.834,4.167 65,7.917c59.584,12.083 151.667,47.917 191.667,101.25c-53.333,-35.833 -141.667,-63.75 -203.75,-67.917" style="fill:#0b1a23;fill-rule:nonzero;"/><path d="M1188.75,1080.42c5.833,-10.417 10.417,-16.25 5.417,-19.167c-4.584,-2.5 -8.75,7.5 -14.167,16.25c-17.917,31.25 -37.5,57.083 -81.667,97.083c-48.75,44.584 -105.416,70.417 -125,77.084c-16.666,-46.667 -80.416,-246.667 -82.083,-252.5c-2.5,-8.75 -4.583,-11.25 -7.5,-10c-3.333,1.25 -1.25,5.833 0.417,13.333c1.666,7.5 77.5,243.75 80,252.5c-15,7.5 -75.834,24.583 -118.75,25.833c-38.334,1.25 -82.5,0 -105,-5.416c-26.25,-21.25 -86.667,-106.25 -109.167,-151.25c-27.083,-53.334 -44.583,-102.084 -49.167,-122.917c-2.083,-10 -5,-17.083 -10,-15.833c-5.416,1.25 -2.5,9.166 0.834,19.583c8.333,27.5 21.25,66.25 49.166,121.667c29.584,58.75 82.5,127.083 97.917,146.25c-48.333,-10.417 -107.083,-32.917 -162.917,-74.167c-47.916,-35.833 -89.583,-81.667 -110.416,-115c-3.75,-5.833 -7.917,-13.75 -12.917,-10.417c-2.5,1.667 0.417,8.334 4.167,14.167c30.416,54.167 103.75,130.833 198.333,173.333c110,49.167 229.583,46.25 337.5,5c93.333,-37.083 174.583,-111.666 215,-185.416" style="fill:#0b1a23;fill-rule:nonzero;"/></g><g><path d="M1011.25,887.5c-40.833,49.583 -64.167,66.667 -105.417,66.667c-13.75,-0 -21.25,-3.334 -17.5,-10l49.167,-98.75l18.75,-0c20.833,-0 17.917,17.5 12.5,41.25c-1.25,3.333 1.667,3.75 4.167,0.833l46.666,-82.083c2.5,-5.417 -3.75,-6.25 -6.666,-2.5c-23.334,32.083 -47.917,29.583 -58.75,29.583l-8.75,0l52.5,-100.417l21.25,0c26.666,1.667 39.166,24.167 31.666,78.75l11.25,0l38.75,-76.25c3.334,-6.666 -3.75,-12.5 -10.833,-12.5l-262.083,0c-15,0 -15.834,11.667 -1.25,11.667c12.083,0 11.25,16.667 0.416,25l-111.25,88.333l22.5,104.167c1.667,7.917 6.667,11.667 15.417,11.667l217.083,-0c9.167,-0 12.917,-3.75 15.417,-7.5l39.583,-67.5c4.584,-9.584 -7.916,-8.75 -14.583,-0.417m-151.667,-47.917l-19.166,0c-1.25,0 -2.5,1.25 -2.5,2.5c-0,1.25 1.25,2.5 2.5,2.5l19.166,0c6.667,0 12.917,0.834 11.25,3.75l-50,95c-6.25,11.667 -19.166,8.75 -21.25,-0.416l-25,-128.334l87.5,-67.5c8.75,-7.5 25.417,-19.583 34.167,-19.166l18.75,-0c11.667,-0 15.417,5.416 13.333,12.5l-3.333,6.666c-2.083,3.75 -9.167,4.167 -14.583,4.167l-11.25,0c-1.25,0 -2.5,1.25 -2.5,2.5c-0,1.25 1.25,2.5 2.5,2.5l10.833,0c4.583,0 10.833,0 8.333,3.75l-40.416,77.083c-2.5,2.084 -10.834,2.5 -18.334,2.5" style="fill:#542c81;fill-rule:nonzero;"/><path d="M680,951.667c-5.833,-0 -10,-4.167 -11.25,-8.334c-2.083,-5.833 -1.667,-15.416 0.417,-19.583l101.25,-179.167c1.666,-3.333 5.833,-10.416 10.833,-10.416c9.167,-0 12.917,-12.084 -2.5,-12.084l-80.833,0c-15,0 -15,11.667 -0.834,11.667c5.834,0 8.334,5.833 6.667,9.583l-22.5,40.417c-2.917,4.583 -9.167,5 -15.417,5l-19.166,0c-1.25,0 -2.5,1.25 -2.5,2.5c-0,1.25 1.25,2.5 2.5,2.5l19.166,-0c5.417,-0 9.584,1.667 6.25,7.917l-74.583,136.25c-5.417,7.5 -15.833,9.166 -15.417,-5.417l26.667,-199.583c1.25,-6.25 -0.417,-10.417 -7.5,-10.417l-40.417,0c-5,0 -7.916,2.5 -10,5.417l-14.166,17.916c-2.084,2.084 -5.834,2.084 -10.417,2.084l-33.75,-0c-1.25,-0 -2.5,1.25 -2.5,2.5c0,1.25 1.25,2.5 2.5,2.5l27.5,-0c5,-0 10.833,1.25 8.75,3.333l-38.75,48.333c-1.25,1.25 -5,1.667 -7.5,1.667l-11.25,0c-1.25,0 -2.5,1.25 -2.5,2.5c0,1.25 1.25,2.5 2.5,2.5l9.167,0c2.916,0 2.916,1.25 1.666,2.5l-36.25,45.417c-2.083,1.666 -5.416,2.083 -9.166,2.083l-32.084,0c-1.25,0 -2.5,1.25 -2.5,2.5c0,1.25 1.25,2.5 2.5,2.5l27.5,0c4.167,0 7.5,0.833 5.417,3.75l-51.25,64.583c-10,12.5 -56.25,18.334 -65.417,18.334l174.167,-325.834c1.667,-3.75 8.333,-9.583 14.583,-9.583l37.084,-0c17.083,-0 16.666,-11.667 1.666,-11.667l-185,0c-15,0 -15.416,11.667 1.667,11.667l34.583,-0c10,-0 12.917,5.833 10.417,10.833l-5,9.167c-1.667,2.917 -4.167,4.167 -13.333,4.167l-61.25,-0c-1.25,-0 -2.5,1.25 -2.5,2.5c-0,1.25 1.25,2.5 2.5,2.5l60.833,-0c3.333,-0 8.333,0.833 5.417,7.083l-8.75,15.833c-1.667,2.5 -5.417,3.75 -9.584,3.75l-27.5,0c-1.25,0 -2.5,1.25 -2.5,2.5c0,1.25 1.25,2.5 2.5,2.5l27.5,0c4.167,0 4.167,2.5 1.667,6.25l-19.583,36.667c-1.667,3.333 -5,3.75 -11.25,3.75l-11.25,-0c-1.25,-0 -2.5,1.25 -2.5,2.5c-0,1.25 1.25,2.5 2.5,2.5l11.25,-0c4.166,-0 5.416,2.5 3.333,6.25l-15.833,30c-2.5,4.167 -5.834,6.25 -16.25,6.25l-60.834,-0c-1.25,-0 -2.5,1.25 -2.5,2.5c0,1.25 1.25,2.5 2.5,2.5l60.834,-0c7.083,-0 9.583,3.333 6.666,8.333l-31.25,59.167c-2.083,2.5 -7.083,2.917 -15.416,2.917l-61.25,-0c-1.25,-0 -2.5,1.25 -2.5,2.5c-0,1.25 1.25,2.5 2.5,2.5l60.416,-0c7.5,-0 12.084,0.416 9.584,4.166l-17.917,34.167c-3.333,5.417 -12.917,5.417 -16.25,5.417l-19.167,-0c-1.25,-0 -2.5,1.25 -2.5,2.5c0,1.25 1.25,2.5 2.5,2.5l19.167,-0c6.667,-0 10.417,1.25 8.75,5l-24.167,45.416c-2.083,4.167 -11.666,4.167 -18.75,4.167l-94.583,-0c-1.25,-0 -2.5,1.25 -2.5,2.5c0,1.25 1.25,2.5 2.5,2.5l94.167,-0c6.25,-0 13.75,0.833 11.25,5.833l-15.417,29.167c-1.667,2.5 -6.667,2.5 -14.167,2.5l-19.166,-0c-1.25,-0 -2.5,1.25 -2.5,2.5c-0,1.25 1.25,2.5 2.5,2.5l19.166,-0c4.584,-0 10.417,0.417 8.334,4.167l-9.584,18.333c-3.333,4.583 -6.25,8.75 -13.333,8.75l-48.75,-0c-17.083,-0 -16.667,11.667 -1.667,11.667l277.084,-0c8.333,-0 8.333,-1.25 12.5,-7.084l40.833,-71.666l210,-0c15.417,-4.167 11.25,-15.834 2.5,-16.25m-165,-21.25c-2.083,12.083 -13.75,19.583 -28.75,23.333l-15.417,3.75l12.917,-22.917c3.333,-6.25 -4.167,-10 -12.083,-0.833c-53.75,62.5 -70.417,92.5 -153.334,92.917l-22.5,-0c-6.666,-0 -13.75,-2.5 -9.583,-9.167l29.167,-54.583l111.25,-0c15,-0 11.25,-11.667 2.5,-12.084c-5.834,0 -12.5,-3.75 -16.667,-10.833c-1.25,-2.083 -4.167,-10 0.417,-15.833l42.5,-56.667l70,-0l-10.417,62.917Zm16.25,-71.25l-68.75,-0l87.5,-115.417l-18.75,115.417Z" style="fill:#542c81;fill-rule:nonzero;"/><path d="M1581.67,894.583c-1.25,-5.833 -3.334,-2.083 -7.084,5c-1.25,2.084 -5,2.084 -8.333,2.084l-11.25,-0c-1.25,-0 -2.5,1.25 -2.5,2.5c0,1.25 1.25,2.5 2.5,2.5l11.25,-0c4.167,-0 4.167,2.916 2.5,7.083c-7.917,16.25 -15.417,27.083 -25.833,40.417c-1.667,2.083 -5.834,3.75 -9.167,3.75l-11.25,-0c-1.25,-0 -2.5,1.25 -2.5,2.5c0,1.25 1.25,2.5 2.5,2.5l11.25,-0c5.417,-0 0,3.333 -0.833,4.583c-19.167,25.833 -32.917,37.5 -46.667,48.75c-1.667,1.25 -10,0.833 -15,0.833l-11.25,0c-1.25,0 -2.5,1.25 -2.5,2.5c0,1.25 1.25,2.5 2.5,2.5l10.833,0c8.334,0 2.084,5 0.834,5.834c-30.417,25 -75,33.333 -95.417,30.833c-67.083,-8.333 -80.417,-59.167 -85.417,-79.167c-1.25,-4.166 -4.166,-12.916 -5.416,-18.333c-2.084,-10.833 27.916,-13.333 36.666,-8.333c12.917,8.75 41.667,17.083 65.417,17.083c21.25,-0 65.417,-15.417 77.917,-52.083c13.333,-37.917 -19.584,-79.167 -34.167,-94.167c-18.333,-18.333 -35.833,-47.5 -28.333,-69.167c5.416,-15.833 14.583,-23.333 34.583,-23.333c25.417,-0 44.167,16.25 44.167,40c-0,2.083 -1.25,4.583 -2.917,4.583l-9.167,0c-1.25,0 -2.5,1.25 -2.5,2.5c0,1.25 1.25,2.5 2.5,2.5l8.75,0c2.5,0 3.75,1.667 3.334,5c-1.667,7.917 -2.084,13.334 -4.167,20.834c-0.833,4.583 5.833,7.916 7.917,4.583l40.416,-71.667c2.917,-5.416 -3.75,-7.083 -8.333,-5.416c-11.25,3.75 -28.75,6.666 -35.417,2.083c-15,-10.833 -28.75,-17.5 -49.583,-17.5c-35.833,-0 -60.833,8.75 -76.667,38.333c-1.25,2.5 -5,2.084 -7.916,2.084l-7.084,-0c-1.25,-0 -2.5,1.25 -2.5,2.5c0,1.25 1.25,2.5 2.5,2.5l5.834,-0c2.5,-0 4.166,0.833 2.916,3.75c-1.25,2.5 -2.083,5.416 -2.916,8.333c-4.167,12.917 -2.917,30.417 3.75,46.25c0.416,1.25 -0.834,1.667 -3.334,1.667l-11.25,-0c-1.25,-0 -2.5,1.25 -2.5,2.5c0,1.25 1.25,2.5 2.5,2.5l11.25,-0c5,-0 6.25,0.416 8.334,3.333c5.833,7.917 11.666,13.75 18.333,22.917c2.5,2.916 -7.5,3.75 -12.917,3.75l-42.916,-0c-1.25,-0 -2.5,1.25 -2.5,2.5c-0,1.25 1.25,2.5 2.5,2.5l43.75,-0c7.083,-0 19.166,-0 20.416,1.25c10.834,12.5 23.334,31.25 25.417,46.666c0.417,4.584 -1.25,6.667 -6.667,6.667l-5.833,-0c-1.25,-0 -2.5,1.25 -2.5,2.5c0,1.25 1.25,2.5 2.5,2.5l5.417,-0c4.583,-0 7.083,0.833 5.833,4.167c-5.833,17.916 -14.167,31.25 -48.75,31.25c-36.667,-0 -43.75,-35.834 -33.333,-72.917c2.083,-7.5 -0,-10.833 -3.334,-5l-25.416,40c-0.834,0.833 -2.917,3.333 -7.084,3.333l-3.75,0c-1.25,0 -2.5,1.25 -2.5,2.5c0,1.25 1.25,2.5 2.5,2.5c3.334,0 4.584,1.667 3.334,3.334l-9.584,14.166c-15,-35 -40.833,-77.916 -54.583,-93.75l0.417,-0.833c33.75,-2.083 83.333,-33.75 91.666,-62.083c13.75,-48.75 -33.75,-67.084 -59.583,-67.084l-114.167,0c-15,0 -16.25,11.667 -1.666,11.667c7.916,-0 14.583,7.083 11.25,13.75l-25.417,45.417c-2.083,3.75 -10,3.75 -20,3.75l-11.25,-0c-1.25,-0 -2.5,1.25 -2.5,2.5c0,1.25 1.25,2.5 2.5,2.5l10.833,-0c7.5,-0 15,0.416 12.917,5.833l-30,53.75c-1.667,2.5 -5.417,2.917 -15.417,2.917l-11.25,-0c-1.25,-0 -2.5,1.25 -2.5,2.5c0,1.25 1.25,2.5 2.5,2.5l10.834,-0c8.333,-0 11.25,1.25 8.75,5.416l-40,72.084c-5,5.416 -10.417,6.25 -20,6.25c-14.167,-0 -14.167,11.666 0.833,11.666l97.5,0c15,0 11.667,-12.083 2.5,-12.083c-5.417,-0 -10.833,-10 -7.5,-15.417l49.583,-94.583l5,-0c22.084,-0 27.5,36.667 31.667,75.833c0.417,2.917 -5,2.917 -15.833,2.917l-27.917,-0c-1.25,-0 -2.5,1.25 -2.5,2.5c0,1.25 1.25,2.5 2.5,2.5l27.5,-0c7.5,-0 17.083,-0 17.5,2.5c2.083,17.083 3.333,32.917 6.667,46.667c1.25,4.583 -6.667,3.75 -15,3.75l-35.834,-0c-1.25,-0 -2.5,1.25 -2.5,2.5c0,1.25 1.25,2.5 2.5,2.5l35.417,-0c11.25,-0 16.667,-0 17.083,2.083c15,55.833 80.417,99.583 143.75,97.083c54.167,-2.083 100,-31.666 123.334,-50.416c31.25,-25 77.083,-77.5 95.833,-115.834c3.333,-8.333 9.167,-17.5 7.917,-23.75m-365.834,-74.166c-7.916,6.25 -19.583,13.333 -21.666,11.25c-3.334,-3.334 -13.334,-10.417 -18.75,-12.917l45,-82.5c2.083,-2.917 4.166,-4.583 9.166,-4.583c17.5,-0 23.334,19.166 15,42.916c-5.833,16.667 -15,35 -28.75,45.834" style="fill:#542c81;fill-rule:nonzero;"/><path d="M666.667,648.75c-9.167,12.083 -21.25,14.583 -35,14.583l-3.75,0l24.166,-47.5c1.25,-2.083 3.75,-3.75 7.084,-3.75c2.916,0 2.5,-6.25 -1.25,-6.25l-37.917,0c-3.333,0 -4.583,6.25 -1.25,6.25c3.333,0 3.75,3.75 2.5,6.667l-21.25,42.083c-1.667,2.5 -3.75,2.917 -6.667,3.75c-3.333,0.834 -5.416,6.667 -1.666,6.667l60.416,-0c4.584,-0 5.834,-1.667 7.084,-3.333l12.5,-18.75c-0,-2.084 -3.334,-2.5 -5,-0.417" style="fill:#542c81;fill-rule:nonzero;"/><path d="M1267.5,624.583l5.417,-10c2.5,-4.166 -1.667,-9.166 -7.5,-9.166l-70.417,-0c-5,-0 -3.75,5.416 -1.667,5.416c4.584,0 5.834,5.417 3.334,10.417l-21.25,39.167c-3.334,3.75 -5.417,5.416 -10,5.416c-3.75,0 -5,5.417 -0,5.417l71.25,0c2.916,0 4.166,-1.25 5.416,-2.5l10,-12.917c2.5,-3.333 -2.916,-3.333 -4.166,-1.666c-12.5,12.5 -25.417,12.083 -35.417,12.083l-8.333,0l10,-21.667l2.083,0c6.25,0 13.333,0 15.417,5c0.416,1.25 3.75,2.084 5,0l8.333,-16.666c1.25,-2.5 -2.5,-2.917 -3.333,-1.25c-3.334,5.833 -17.5,4.166 -21.667,4.166l-2.083,0l12.5,-24.166l13.333,-0c8.75,-0 15.417,6.25 17.917,12.5c0.833,1.25 5,2.5 5.833,0.416" style="fill:#542c81;fill-rule:nonzero;"/><path d="M1531.67,607.917c-1.667,0.833 -6.25,1.666 -8.334,-0c-5,-4.167 -14.166,-7.084 -19.166,-7.084c-14.167,0 -24.584,2.917 -30.834,16.25c-5.416,11.667 0,20.834 12.917,27.084c5.417,2.5 12.917,5.833 10,12.5c-2.083,5 -7.917,5.416 -12.917,5.416c-6.666,0 -16.666,-5 -18.333,-14.583c-0.417,-3.333 -4.167,-2.5 -5.417,-0.833l-8.75,17.083c-1.25,2.5 2.084,5 3.75,3.333c2.917,-3.333 9.584,-3.75 12.5,-1.666c4.167,2.916 15,7.916 21.667,7.916c14.167,0 23.75,-3.75 32.083,-15.833c7.5,-11.667 2.917,-22.5 -10.416,-28.75c-7.084,-3.333 -12.917,-9.167 -10,-15.417c2.083,-4.166 8.333,-3.333 11.666,-2.916c5.834,0.833 13.334,6.666 14.167,11.666c0.417,2.084 2.917,2.5 4.167,0.417l4.583,-10.833c0.833,-2.917 -2.5,-4.584 -3.333,-3.75" style="fill:#542c81;fill-rule:nonzero;"/><path d="M1342.5,648.75c-9.167,12.083 -21.25,14.583 -35,14.583l-3.75,0l24.167,-47.5c1.25,-2.083 3.75,-3.75 7.083,-3.75c2.917,0 2.5,-6.25 -1.25,-6.25l-37.917,0c-3.333,0 -4.583,6.25 -1.25,6.25c3.334,0 3.75,3.75 2.5,6.667l-21.25,42.083c-1.666,2.5 -3.75,2.917 -6.666,3.75c-3.334,0.834 -5.417,6.667 -1.667,6.667l60.417,-0c4.583,-0 5.833,-1.667 7.083,-3.333l12.5,-18.75c-0,-2.084 -3.333,-2.5 -5,-0.417" style="fill:#542c81;fill-rule:nonzero;"/><path d="M1433.33,611.667c8.75,-0 15.417,6.25 17.917,12.5c0.417,1.666 5,2.916 6.25,0.833l5.417,-10c2.5,-4.167 -1.667,-9.167 -7.5,-9.167l-70.417,0c-5,0 -3.75,5.417 -1.667,5.417c4.584,0 5.834,5.417 3.334,10.417l-21.25,39.166c-3.334,3.75 -5.417,5.417 -10,5.417c-3.75,0 -5,5.417 -0,5.417l71.25,-0c2.916,-0 4.166,-1.25 5.416,-2.5l10,-12.917c2.5,-3.333 -2.916,-3.333 -4.166,-1.667c-12.5,12.5 -25.417,12.084 -35.417,12.084l-8.333,-0l10,-21.667l2.083,0c6.25,0 13.333,0 15.417,4.583c0.416,1.25 3.75,2.084 5,0l8.333,-16.666c1.25,-2.5 -2.5,-2.917 -3.333,-1.25c-3.334,5.833 -17.5,4.166 -21.667,4.166l-2.083,0l12.5,-24.166l13.333,-0l-0.417,-0Z" style="fill:#542c81;fill-rule:nonzero;"/><path d="M1087.08,605.833l-25,0c-5,0 -3.75,5.417 -1.666,5.417c5.416,0 10.416,6.25 7.5,12.083l-10.417,18.75l-22.917,-33.75c-1.666,-2.083 -5.416,-3.333 -8.333,-3.333l-24.583,0c-5,0 -4.167,5.417 -1.667,5.417c5.417,-0 3.75,4.166 2.5,6.666l-19.583,37.917c-1.25,2.917 -6.667,3.333 -8.334,-0.417l-15,-49.583c-0.833,-2.083 -9.583,-2.083 -12.083,0l-38.333,31.667l-19.584,-0c-4.166,-0 -5.416,1.666 -5.416,3.75c-0,2.083 1.666,4.166 5.833,4.166l10.417,0l-10.417,8.75c-5.833,4.167 -11.667,10.417 -15.417,10.417l-2.5,-0c-3.75,-0 -5.833,0.417 -5.833,3.75c-0,2.917 1.667,4.167 5,4.167l30.833,-0c5.834,-0 4.584,-7.5 1.667,-7.5c-3.333,-0 -8.75,-4.167 -3.75,-10l9.583,-9.167l18.334,-0c11.25,-0 18.333,12.917 12.5,16.667l-5,2.916c-2.5,1.25 -3.334,7.084 -0,7.084l60.416,-0c4.584,-0 3.75,-5.834 1.667,-5.834c-6.25,0 -3.333,-9.166 -2.083,-11.25l15.833,-30l22.083,42.917c1.667,2.917 2.917,4.167 5.417,4.167l8.75,-0c2.917,-0 3.75,-1.667 5,-3.75l25.417,-45.417c4.166,-8.333 7.5,-10.833 12.5,-10.833c0.416,-0 2.083,-5.834 -3.334,-5.834m-168.333,31.25l23.333,-19.166l0,19.166l-23.333,0Z" style="fill:#542c81;fill-rule:nonzero;"/><path d="M730.833,603.333c-21.25,0 -42.916,10.417 -47.083,32.917c-3.75,19.167 9.583,39.583 33.333,39.583c22.5,0 42.917,-14.583 47.5,-36.25c3.75,-21.666 -12.5,-36.25 -33.75,-36.25m5.834,40.834c-6.667,13.333 -17.917,21.25 -25,17.5c-7.084,-3.75 -7.5,-17.084 -0.834,-30.834c6.667,-13.333 17.917,-21.25 25,-17.5c7.5,3.75 7.917,17.084 0.834,30.834" style="fill:#542c81;fill-rule:nonzero;"/><path d="M848.333,607.917c-1.666,0.833 -6.25,1.666 -8.333,-0c-5,-4.167 -14.167,-7.084 -19.167,-7.084c-14.166,0 -24.583,2.917 -30.833,16.25c-5.417,11.667 0,20.834 12.917,27.084c5.416,2.5 12.916,5.833 10,12.5c-2.084,5 -7.917,5.416 -12.917,5.416c-6.667,0 -16.667,-5 -18.333,-14.583c-0.417,-3.333 -4.167,-2.5 -5.417,-0.833l-8.75,17.083c-1.25,2.5 2.083,5 3.75,3.333c2.917,-3.333 9.167,-3.75 12.5,-1.666c4.167,2.916 15,7.916 21.667,7.916c14.166,0 23.75,-3.75 32.083,-15.833c7.5,-11.667 2.917,-22.5 -10.417,-28.75c-7.083,-3.333 -12.916,-9.167 -10,-15.417c2.084,-4.166 8.334,-3.333 11.667,-2.916c5.833,0.833 13.333,6.666 14.167,11.666c0.416,2.084 2.916,2.5 4.166,0.417l4.584,-10.833c1.25,-2.917 -2.084,-4.584 -3.334,-3.75" style="fill:#542c81;fill-rule:nonzero;"/><path d="M1158.75,635.417l-27.083,-0c-5,-0 -3.75,5.416 -1.667,5.416c2.083,0 4.167,1.25 4.167,4.584c-0,11.25 -4.584,15 -13.75,15c-10.417,-0 -13.75,-12.917 -7.084,-27.917c4.584,-10 16.25,-18.75 30.417,-18.75c8.75,0 15.417,2.083 16.667,10c0.416,2.083 3.333,2.083 4.166,0l6.667,-11.667c0.833,-1.25 -0.417,-2.916 -2.5,-2.916c-1.667,-0 -5.417,2.083 -7.917,0.416c-5.416,-4.166 -17.083,-7.916 -26.25,-7.916c-14.583,-0 -35,3.333 -48.75,27.083c-12.5,21.667 5.834,44.167 22.5,44.167c9.584,-0 20,-7.084 26.25,-9.584l7.084,4.584c1.25,1.25 3.333,2.916 5.416,2.916l2.5,0c2.5,0 3.334,-3.333 4.167,-5.416l10.833,-25.834c0.834,-2.083 0,-4.166 -5.833,-4.166" style="fill:#542c81;fill-rule:nonzero;"/></g></g></g><path d="M1562.5,468.75l-0,729.167c-0,201.219 -163.364,364.583 -364.583,364.583l-729.167,0c-201.219,0 -364.583,-163.364 -364.583,-364.583l-0,-729.167c-0,-201.219 163.364,-364.583 364.583,-364.583l729.167,-0c201.219,-0 364.583,163.364 364.583,364.583Z" style="fill:none;stroke:#000;stroke-width:8.33px;"/></svg>