<?xml version="1.0" encoding="UTF-8" standalone="no"?><!DOCTYPE svg PUBLIC "-//W3C//DTD SVG 1.1//EN" "http://www.w3.org/Graphics/SVG/1.1/DTD/svg11.dtd"><svg width="100%" height="100%" viewBox="0 0 1667 1667" version="1.1" xmlns="http://www.w3.org/2000/svg" xmlns:xlink="http://www.w3.org/1999/xlink" xml:space="preserve" xmlns:serif="http://www.serif.com/" style="fill-rule:evenodd;clip-rule:evenodd;stroke-linecap:round;stroke-linejoin:round;stroke-miterlimit:1.5;"><path d="M1562.5,468.75l-0,729.167c-0,201.219 -163.364,364.583 -364.583,364.583l-729.167,0c-201.219,0 -364.583,-163.364 -364.583,-364.583l-0,-729.167c-0,-201.219 163.364,-364.583 364.583,-364.583l729.167,-0c201.219,-0 364.583,163.364 364.583,364.583Z" style="fill:#5d76a9;"/><clipPath id="_clip1"><path d="M1562.5,468.75l-0,729.167c-0,201.219 -163.364,364.583 -364.583,364.583l-729.167,0c-201.219,0 -364.583,-163.364 -364.583,-364.583l-0,-729.167c-0,-201.219 163.364,-364.583 364.583,-364.583l729.167,-0c201.219,-0 364.583,163.364 364.583,364.583Z"/></clipPath><g clip-path="url(#_clip1)"><g><path d="M1370.42,538.333c15.416,-29.166 22.5,-57.916 22.5,-85.833c-0,-62.917 -35.417,-120 -85,-153.75c-69.167,-46.667 -172.5,-53.75 -245.417,34.167c-106.667,-14.584 -196.25,14.583 -230.417,29.166c-34.166,-13.75 -123.75,-43.333 -230.416,-29.166c-73.334,-87.5 -177.084,-80.834 -245.834,-34.167c-49.583,33.75 -85,90.417 -85,153.75c0,27.917 7.084,56.667 22.5,85.833c-55,79.584 -93.75,174.167 -93.75,270.417c0,115.833 49.584,175.833 68.334,201.667c-0,-0 7.916,-7.917 15,-15c52.5,133.333 142.5,205.416 250.833,270.833c0,0 2.5,-12.917 4.167,-25c116.666,101.25 172.083,76.25 293.75,213.333c120.833,-137.083 178.333,-112.916 293.75,-213.333c2.083,12.083 4.166,25 4.166,25c48.334,-29.167 184.584,-102.5 250.834,-270.833c6.666,6.666 15,15 15,15c11.666,-15.834 68.333,-79.167 68.333,-201.667c0.417,-95.833 -37.5,-190.833 -93.333,-270.417" style="fill:#707271;fill-rule:nonzero;"/><path d="M1337.08,540c111.667,-170.833 -141.25,-348.75 -263.333,-176.667c-123.333,-21.666 -227.917,22.917 -241.667,29.584c-13.75,-6.25 -118.333,-51.667 -241.666,-29.584c-122.084,-172.083 -375,5.834 -263.334,176.667c-127.083,174.167 -114.583,346.25 -55.416,427.083l24.166,-24.166c0,-0 34.584,167.916 217.5,278.333l6.667,-36.25c112.5,120.417 215.417,117.5 312.083,227.5c96.667,-110 199.584,-107.083 312.084,-227.5l6.666,36.25c182.917,-110.417 217.5,-278.333 217.5,-278.333l24.167,24.166c59.167,-81.25 71.667,-252.916 -55.417,-427.083" style="fill:#12173f;fill-rule:nonzero;"/><path d="M833.333,1179.17c0,-0 -87.5,1.25 -100.833,9.583c0,0 -15,26.25 100.833,25.833c110.417,-0.416 94.167,-20.833 95,-23.333c-0.833,-0.833 -37.5,-12.083 -95,-12.083" style="fill:#5d76a9;fill-rule:nonzero;"/><path d="M757.083,1077.08c0,0 13.334,-39.583 28.334,-27.083c20.416,17.5 46.666,52.917 46.666,56.25l0,47.083l-32.083,1.667c-18.333,0.417 -77.917,14.583 -77.917,14.583c-81.666,-202.083 -36.666,-354.583 -14.583,-409.583c-80.833,17.5 -94.167,-79.167 -94.167,-79.167c8.334,-1.666 20.834,2.084 35,8.75c21.25,10.417 47.084,27.917 67.5,43.75c5.834,4.584 11.667,9.167 16.25,12.917c55,46.25 99.584,37.083 99.584,37.083l-0,197.5c0.416,0 -160,-12.083 -74.584,96.25" style="fill:#5d76a9;fill-rule:nonzero;"/><path d="M907.5,1077.08c102.083,-103.75 -64.583,-97.5 -75,-95.833c17.083,0.833 146.25,1.667 75,95.833" style="fill:#5d76a9;fill-rule:nonzero;"/><path d="M975.417,763.75c92.083,247.5 -24.584,406.667 -25.417,407.5c72.083,-189.167 25.833,-346.667 -5.833,-405.417c-16.25,1.667 -35.834,0.834 -35.834,0.834c0,-0 24.584,-15 40,-29.167c1.25,-1.25 2.5,-2.083 3.75,-3.333c12.917,-11.667 37.917,-32.084 68.75,-44.167c11.25,-4.167 22.917,-7.5 35.417,-8.75c0,-0.417 -8.75,81.667 -80.833,82.5" style="fill:#5d76a9;fill-rule:nonzero;"/><path d="M1120.83,443.333c0,0 37.5,-93.75 152.5,-70.833c0,0 -105.416,-69.583 -178.75,55.833c0,0 -105,-49.166 -262.083,18.75c0,0 -147.5,-52.083 -259.583,-22.5c-0,0 -65.417,-113.333 -157.5,-66.666c-92.084,46.666 -44.584,154.583 -28.75,182.5c-0,-0 -152.917,155.416 -95.417,347.5l30.417,-38.334c-0,0 43.75,209.584 157.083,275.417l6.667,-51.667c-0,0 118.333,142.5 257.083,203.334c12.917,6.25 87.083,42.916 88.75,60.833l0,-99.583c0,-0 -96.25,7.916 -121.667,-36.667c-17.5,-30 -128.333,-227.917 -73.333,-435c0,0 -53.333,-7.917 -63.333,-97.917c-0,0 -39.584,-19.583 -89.167,-15.416c0,-0 88.333,-27.917 170.833,4.166c82.917,32.084 104.584,113.334 161.25,77.5l15.417,-229.583l17.5,230.417c55.833,36.25 78.333,-45.834 161.25,-77.5c82.917,-32.084 170.833,-4.167 170.833,-4.167c0,0 -35.416,-25 -92.083,-36.25c-47.083,-9.583 -117.083,20.833 -117.083,20.833c-0,0 9.583,-65 41.25,-100c27.5,-30 89.166,-36.666 107.916,-95Zm-714.166,79.584c-3.334,-31.25 36.25,-62.5 36.25,-62.5c-16.25,-16.667 -45,-2.5 -45,-2.5c25.833,-50.417 83.75,-25.834 83.75,-25.834c-21.667,-27.083 -68.334,-25 -68.334,-25c57.5,-57.083 127.084,30.417 127.084,30.417c-62.084,13.75 -133.75,85.417 -133.75,85.417Z" style="fill:#5d76a9;fill-rule:nonzero;"/><path d="M716.25,733.333c-8.75,-2.916 -23.333,6.25 -31.667,22.084c-27.5,-7.917 -37.083,-37.5 -35.833,-65.834c21.25,10.417 46.667,27.917 67.5,43.75" style="fill:#fb2;fill-rule:nonzero;"/><path d="M985.833,755.833c-8.75,-16.666 -24.166,-26.25 -32.916,-21.666c12.916,-11.667 37.916,-32.084 68.75,-44.167c0.833,27.917 -9.167,57.5 -35.834,65.833" style="fill:#fb2;fill-rule:nonzero;"/></g></g><path d="M1562.5,468.75l-0,729.167c-0,201.219 -163.364,364.583 -364.583,364.583l-729.167,0c-201.219,0 -364.583,-163.364 -364.583,-364.583l-0,-729.167c-0,-201.219 163.364,-364.583 364.583,-364.583l729.167,-0c201.219,-0 364.583,163.364 364.583,364.583Z" style="fill:none;stroke:#000;stroke-width:8.33px;"/></svg>