<?xml version="1.0" encoding="UTF-8" standalone="no"?><!DOCTYPE svg PUBLIC "-//W3C//DTD SVG 1.1//EN" "http://www.w3.org/Graphics/SVG/1.1/DTD/svg11.dtd"><svg width="100%" height="100%" viewBox="0 0 1667 1667" version="1.1" xmlns="http://www.w3.org/2000/svg" xmlns:xlink="http://www.w3.org/1999/xlink" xml:space="preserve" xmlns:serif="http://www.serif.com/" style="fill-rule:evenodd;clip-rule:evenodd;stroke-linecap:round;stroke-linejoin:round;stroke-miterlimit:1.5;"><path d="M1562.5,468.75l-0,729.167c-0,201.219 -163.364,364.583 -364.583,364.583l-729.167,0c-201.219,0 -364.583,-163.364 -364.583,-364.583l-0,-729.167c-0,-201.219 163.364,-364.583 364.583,-364.583l729.167,-0c201.219,-0 364.583,163.364 364.583,364.583Z" style="fill:#f9a01b;"/><clipPath id="_clip1"><path d="M1562.5,468.75l-0,729.167c-0,201.219 -163.364,364.583 -364.583,364.583l-729.167,0c-201.219,0 -364.583,-163.364 -364.583,-364.583l-0,-729.167c-0,-201.219 163.364,-364.583 364.583,-364.583l729.167,-0c201.219,-0 364.583,163.364 364.583,364.583Z"/></clipPath><g clip-path="url(#_clip1)"><g id="Layer_2_1_"><path d="M1446.25,516.667c-49.167,-54.167 -157.917,-98.334 -297.917,-125c0.834,-16.25 10.417,-22.917 27.917,-35c8.75,-6.25 19.167,-13.75 30,-23.334c45.417,-42.916 -7.917,-108.333 -10,-111.666l-29.167,-35.834l7.084,45.417c4.583,30.833 -6.667,42.083 -40.834,65.833c-4.166,2.917 -8.333,6.25 -11.25,9.584c1.667,-20.834 2.5,-44.167 -4.583,-73.334c-7.083,-29.166 -21.25,-41.25 -21.25,-41.25l-3.75,42.084c0,0.416 -2.917,32.916 -46.667,72.5c3.75,-4.167 7.5,-8.334 10.417,-13.334c21.25,-30.833 15,-66.666 8.333,-107.5l-1.666,-8.333c-7.5,-42.5 4.166,-69.167 11.666,-74.167c7.5,-8.75 21.25,-23.333 21.25,-23.333c0,-0 -7.5,-3.333 -28.75,-0.833c-27.083,3.75 -73.333,20 -72.083,57.5c0.417,16.25 5.833,32.083 10.417,45.833c5,14.583 9.583,28.75 5.416,35.833c-3.333,5.834 -13.75,10 -29.583,13.334c-64.167,11.666 -113.333,41.666 -138.75,85c-8.333,14.166 -13.75,29.583 -16.667,45.416c-159.583,0.417 -310.833,20.417 -427.916,56.667c-131.25,40.833 -203.75,96.25 -209.167,160c-2.917,33.75 12.083,82.083 96.667,129.167l-0.417,0.833l24.167,11.667l12.916,6.25c38.75,17.5 84.584,32.5 135,44.583c-18.333,10 -35,22.083 -49.583,35.417c-81.667,67.083 -128.75,166.666 -128.75,272.5c-0,94.166 36.667,182.916 103.333,249.583c66.667,66.667 155.417,103.333 249.584,103.333c167.083,0 312.083,-118.333 345.416,-281.25c28.75,-85.416 25,-176.666 24.167,-211.25c-2.917,-78.333 35.833,-121.666 60,-141.25c111.667,-13.75 210,-38.333 283.75,-71.25l12.083,-5.833l25.417,-12.083l-0.833,-0.834c59.166,-32.916 92.083,-71.666 95.833,-112.916c1.667,-26.667 -8.75,-53.334 -31.25,-78.75m-115,68.75c10,11.25 9.167,18.333 9.167,20.416c-1.25,12.917 -17.084,27.917 -43.75,42.084c-56.25,29.583 -152.5,52.083 -267.5,63.333c5,-2.917 10.416,-6.25 16.666,-8.333l2.084,-0.834c32.916,-13.75 70.416,-28.75 72.083,-83.333c0.417,-8.333 0.833,-35.417 5.417,-45c6.25,-12.5 22.083,-30.833 35.833,-35.833c0.417,-0 -23.333,-4.584 -23.333,-4.584c-1.25,0 -2.5,0 -3.334,-0.416c7.917,-5.834 13.75,-12.5 17.5,-19.584c93.334,19.584 156.25,46.25 179.167,72.084m-1007.5,13.333c3.75,-45 166.25,-104.583 428.333,-113.75c-24.583,18.333 -52.916,50 -60.416,101.667l-2.917,19.166c-1.667,12.084 -3.75,24.167 -8.333,36.25c-10,26.25 -38.75,48.334 -68.75,65c-105.834,-13.333 -193.75,-35.833 -245.417,-63.333c-27.917,-15.417 -43.75,-31.667 -42.5,-45" style="fill-rule:nonzero;"/><path d="M291.25,1105c9.167,46.667 35.833,102.083 88.75,139.167c15.833,11.25 33.333,20 52.083,27.083c-11.25,-19.167 -25,-39.167 -38.333,-58.75c-25,-37.083 -51.667,-75.833 -67.917,-117.083c-17.083,-42.917 -21.666,-87.5 -14.166,-132.5c-13.75,36.25 -20.834,75.833 -20.834,117.5c-0.833,7.916 -0.416,15.833 0.417,24.583" style="fill:#961a31;fill-rule:nonzero;"/><path d="M348.333,1085.83c15.417,39.167 41.25,76.25 65.417,112.917c19.167,27.917 37.5,55.417 51.667,82.917c15.416,3.333 31.666,5.833 47.916,7.083c-17.083,-24.167 -31.666,-51.667 -44.166,-82.917c-48.75,-121.666 -41.667,-272.5 19.166,-359.583c31.25,-45 68.75,-75.417 117.5,-102.083c41.25,-22.917 67.5,-29.584 94.167,-45.417c28.75,-17.083 44.167,-45.833 25,-110c-5.417,-19.167 -6.667,-33.75 -5.417,-45.417c-6.666,12.917 -11.666,27.5 -13.75,44.584c-2.916,18.333 -4.166,38.333 -12.083,58.333c-25.417,66.667 -148.333,103.333 -164.583,108.333c-46.667,13.75 -84.167,35.834 -113.334,61.667c-85.416,75.417 -100.416,187.917 -67.5,269.583" style="fill:#961a31;fill-rule:nonzero;"/><path d="M861.667,484.167c1.25,4.166 2.5,8.333 2.916,12.083c2.917,23.333 -3.75,42.083 -32.5,46.667c-29.583,4.583 -39.583,-20.834 -41.666,-41.667c-0.417,-7.5 0.416,-13.333 0.833,-17.083c-5,-0 -9.583,-0 -14.583,0.416c-9.167,5.417 -21.667,13.75 -33.334,25.417c-5.833,12.917 -12.916,30 -2.083,70.833c19.167,72.084 10.833,115.417 -46.667,140.417c-73.75,31.667 -120.833,50.417 -184.166,129.583c-30.417,37.917 -46.667,100.417 -49.167,163.334c-2.917,61.25 10,126.666 31.25,180c14.167,35.833 31.25,67.083 51.25,93.333c19.583,-0.833 40,-3.333 59.583,-7.917c-22.083,-25.416 -34.583,-57.083 -36.666,-92.083c-7.5,-117.083 55.416,-165.833 152.083,-243.75l43.333,-36.25c172.917,-146.667 122.5,-295.833 141.25,-423.333c-13.333,0.833 -27.5,0.416 -41.666,-0" style="fill:#961a31;fill-rule:nonzero;"/><path d="M930.833,486.667c-5.416,25.416 -7.916,52.083 -9.166,79.583c-7.084,111.25 -3.334,236.667 -144.167,361.25l-42.5,34.583c-94.167,75.417 -147.917,122.5 -144.167,225c1.25,33.75 15.417,63.334 39.584,86.667c26.25,-7.917 52.5,-19.167 77.5,-33.333c122.5,-69.167 199.166,-173.334 228.75,-305.834c18.75,-84.166 18.333,-152.5 17.916,-207.5c0,-27.916 3.334,-82.5 3.334,-82.5c3.75,-34.583 9.166,-82.5 49.166,-146.25c1.25,-2.083 2.917,-4.166 3.75,-6.25c-25.416,-2.083 -52.083,-4.166 -80,-5.416" style="fill:#961a31;fill-rule:nonzero;"/><path d="M972.083,843.75c-3.75,20 -5,42.5 -7.5,64.583c-1.25,8.334 -2.5,16.667 -3.333,25c-0.417,2.5 -0.833,4.584 -1.667,6.667c-30.833,140.417 -110.833,249.167 -239.166,322.083c-22.084,12.5 -44.584,22.917 -67.084,30.834c37.5,25 81.667,32.5 112.084,28.333c115.416,-17.5 171.666,-92.5 198.75,-173.333c27.916,-82.5 25,-170.834 23.75,-207.084c-4.584,-122.083 89.583,-167.083 89.583,-167.083c-73.333,-4.167 -97.5,27.917 -105.417,70" style="fill:#961a31;fill-rule:nonzero;"/><path d="M895,1293.33c-47.083,39.584 -97.917,47.917 -121.25,51.667c-45.417,7.083 -99.167,-3.75 -146.667,-41.25c-0.833,-0.833 -1.666,-1.25 -2.5,-2.083c-20.416,5.416 -40.833,8.75 -61.25,10.833c46.667,50 107.5,78.333 190.417,84.167l1.25,-0c55.833,-22.084 104.583,-57.917 141.667,-104.584c-0.834,0.834 -0.834,0.834 -1.667,1.25" style="fill:#961a31;fill-rule:nonzero;"/><path d="M465.833,1377.08c0.834,-25.416 -6.25,-51.25 -18.333,-76.25c-28.333,-8.333 -55.833,-20 -82.5,-36.25c-15,-9.166 -28.75,-22.916 -40.417,-35.833c30.834,62.917 80.417,114.583 141.25,148.333Z" style="fill:#961a31;fill-rule:nonzero;"/><path d="M700.833,1412.5c-46.25,-10.417 -85.416,-27.083 -119.583,-52.917c-17.917,-13.75 -33.75,-28.75 -48.333,-45.833c-18.75,-0.417 -37.084,-2.083 -55.417,-5.417c10,26.25 15.417,52.917 12.083,80.834c42.917,19.583 90.834,30.416 141.25,30.416c24.584,0 47.917,-2.916 70.834,-7.5c-0.417,0.417 -0.417,0.417 -0.834,0.417" style="fill:#961a31;fill-rule:nonzero;"/><path d="M1096.25,576.25c-7.917,26.25 -34.167,23.333 -41.25,8.75c-12.083,-22.5 -7.5,-40 5,-52.083c12.5,-12.084 32.917,-18.334 52.5,-27.084l0.417,0c-22.917,-3.75 -47.084,-7.5 -73.334,-10.416c-0.416,0.416 -0.833,0.833 -1.25,1.25c-2.5,2.916 -4.583,5 -7.083,7.916c-41.25,61.667 -46.25,107.5 -50.417,142.5l-1.25,10.834c-2.5,18.75 -2.5,41.666 -2.083,68.75l0,11.25c-0.417,9.166 -0.833,18.75 -1.25,27.916l0.417,0c0.416,-3.75 0.416,-5 0.416,-2.916c11.667,-36.667 32.917,-59.584 63.334,-71.667c32.5,-13.333 64.583,-25 66.25,-72.5c0.833,-19.583 2.083,-39.583 6.666,-49.583c8.334,-18.334 22.917,-23.334 22.917,-23.334c-15,-1.25 -32.083,5.417 -40,30.417" style="fill:#961a31;fill-rule:nonzero;"/><path d="M1135.83,389.167c2.5,-31.667 32.084,-37.5 61.25,-65c37.084,-35.417 -11.25,-94.167 -11.25,-94.167c6.25,39.583 -12.5,54.583 -45.833,78.333c-10.417,7.5 -18.333,17.917 -19.167,30.834c-1.25,14.583 -2.5,30.416 -5.416,46.666c6.666,1.25 13.333,2.5 20.416,3.334" style="fill:#f9a11e;fill-rule:nonzero;"/><path d="M1033.33,334.167c-8.75,6.666 -17.5,13.75 -25,20.416c-5.416,5.417 -10.833,10.417 -15.833,15.834c32.5,2.916 64.167,6.666 95,10.833c19.167,-35.833 29.167,-75.833 17.5,-145c-0.417,0.417 -3.333,47.083 -71.667,97.917" style="fill:#f9a11e;fill-rule:nonzero;"/><path d="M850.833,363.75c37.084,0.417 74.167,2.083 109.584,4.167c1.25,-1.25 2.5,-2.5 3.333,-3.334c24.167,-25.416 61.25,-47.5 80.833,-76.25c19.584,-29.166 12.084,-64.166 4.584,-107.083c-12.917,-73.75 18.75,-87.5 18.75,-87.5c-0,0 -62.5,8.333 -61.25,44.583c1.666,48.334 51.666,93.75 -23.334,107.5c-82.5,15 -133.75,59.584 -145,117.917l12.5,0" style="fill:#f9a11e;fill-rule:nonzero;"/><path d="M850.417,383.333c-345,-3.333 -632.917,85.417 -642.917,199.167c-3.75,45.417 36.667,87.083 108.75,122.083c44.583,21.25 101.667,40 167.083,54.167c13.334,-5.833 26.667,-11.25 41.25,-15.417c11.25,-3.333 32.5,-10.416 55.834,-20.416c-96.667,-13.75 -174.584,-35.834 -223.334,-62.084c-35.833,-19.166 -54.583,-40.833 -52.5,-63.333c6.667,-75.833 248.334,-135.417 539.584,-132.5c291.25,2.917 522.083,67.083 515.416,142.917c-2.083,20.416 -20.833,40.416 -54.166,57.5c-60.834,32.083 -168.334,56.666 -299.167,68.333c-4.583,6.25 -8.333,13.333 -11.667,20.833c59.167,-22.5 127.917,10.834 127.917,10.834c0,-0 4.583,2.083 7.917,3.75c86.666,-15.417 161.25,-37.5 217.083,-63.75c65.833,-31.25 106.25,-69.167 109.583,-110.417c10.417,-113.75 -261.666,-208.333 -606.666,-211.667" style="fill:#fff;fill-rule:nonzero;"/></g></g><path d="M1562.5,468.75l-0,729.167c-0,201.219 -163.364,364.583 -364.583,364.583l-729.167,0c-201.219,0 -364.583,-163.364 -364.583,-364.583l-0,-729.167c-0,-201.219 163.364,-364.583 364.583,-364.583l729.167,-0c201.219,-0 364.583,163.364 364.583,364.583Z" style="fill:none;stroke:#000;stroke-width:8.33px;"/></svg>