<?xml version="1.0" encoding="UTF-8" standalone="no"?><!DOCTYPE svg PUBLIC "-//W3C//DTD SVG 1.1//EN" "http://www.w3.org/Graphics/SVG/1.1/DTD/svg11.dtd"><svg width="100%" height="100%" viewBox="0 0 1667 1667" version="1.1" xmlns="http://www.w3.org/2000/svg" xmlns:xlink="http://www.w3.org/1999/xlink" xml:space="preserve" xmlns:serif="http://www.serif.com/" style="fill-rule:evenodd;clip-rule:evenodd;stroke-linecap:round;stroke-linejoin:round;stroke-miterlimit:1.5;"><path d="M1562.5,468.75l-0,729.167c-0,201.219 -163.364,364.583 -364.583,364.583l-729.167,0c-201.219,0 -364.583,-163.364 -364.583,-364.583l-0,-729.167c-0,-201.219 163.364,-364.583 364.583,-364.583l729.167,-0c201.219,-0 364.583,163.364 364.583,364.583Z" style="fill:#eee1c6;"/><clipPath id="_clip1"><path d="M1562.5,468.75l-0,729.167c-0,201.219 -163.364,364.583 -364.583,364.583l-729.167,0c-201.219,0 -364.583,-163.364 -364.583,-364.583l-0,-729.167c-0,-201.219 163.364,-364.583 364.583,-364.583l729.167,-0c201.219,-0 364.583,163.364 364.583,364.583Z"/></clipPath><g clip-path="url(#_clip1)"><g id="Layer_2_2_"><path d="M579.167,1346.25c-6.25,-5.417 -9.167,-13.75 -6.667,-22.083l74.583,-269.167c0.417,-1.25 1.25,-3.333 1.667,-4.583l-34.583,-55c-3.334,-5 -4.167,-11.25 -2.084,-17.084l5,-16.25l-47.5,-3.333c-45,-3.333 -60.416,-9.167 -71.25,-15c-45,-24.583 -57.083,-95.417 -59.583,-116.667l-3.333,-23.75c-1.25,-10 1.25,-19.166 6.666,-25.833c4.584,-5.417 10.834,-8.333 17.5,-9.583c-103.75,-92.917 -197.5,-208.75 -165.416,-372.917c35.416,-181.25 181.666,-236.25 187.5,-238.75c2.083,-0.833 4.583,-1.25 7.083,-1.25c7.5,0 15,4.167 18.333,10.833c2.5,5 3.334,10.834 1.667,15.417c48.333,-41.25 94.167,-59.167 113.75,-65.417c2.083,-0.833 4.167,-1.25 6.25,-1.25c7.917,0 15.417,4.584 19.167,12.084c4.583,10 0.833,21.25 -7.917,26.25c-43.75,27.083 -82.083,63.75 -110.833,105.416c35,-7.916 58.75,-9.583 67.083,-9.583l4.167,0c10.416,0.833 18.75,8.333 19.583,18.75c1.25,10.417 -5.833,19.583 -15.833,22.5c-0.417,0 -57.917,15 -121.25,60.417c-12.084,36.25 -17.5,74.583 -17.5,113.333c0.416,73.333 24.166,148.75 65,206.667c10,13.75 19.583,25.833 29.583,36.666c-4.167,-75.416 17.083,-193.333 153.333,-248.333c2.5,-1.25 5.417,-1.25 7.917,-1.25c7.5,0 15.417,4.167 18.75,11.25c5,10 1.25,21.667 -7.917,27.083l-1.25,0.834c-21.25,13.333 -39.166,31.666 -52.083,52.083c15,-4.583 27.5,-5.833 36.25,-7.083l1.25,-0.417l2.5,0c8.333,0 16.667,5.417 19.583,13.75c3.75,9.167 -0.416,19.583 -7.916,24.583l-0.834,0.417c-0.416,0 -0.833,0.417 -0.833,0.417c-43.333,25 -67.5,54.583 -71.667,87.5c-4.583,35.833 15.417,69.583 29.584,88.333c36.25,-42.5 60,-114.583 66.666,-142.5c2.084,-9.583 10.834,-15.833 20,-15.833l2.5,-0c10.834,1.25 18.334,10.416 18.334,20.833c0.833,88.75 -22.917,149.583 -47.5,189.167c36.666,18.333 72.5,19.583 80.833,19.583l4.583,0c7.917,0 43.334,-1.25 80.834,-20c-24.584,-39.167 -48.334,-99.583 -48.334,-188.75c0,-10.833 7.917,-19.583 18.334,-20.833l2.5,-0c9.583,-0 17.916,6.25 20,15.833c6.666,27.5 30.833,100 67.5,142.083c13.75,-18.75 33.75,-52.916 29.166,-88.333c-4.583,-32.917 -28.75,-62.083 -72.083,-87.083c-0.417,-0 -1.25,-0.834 -1.25,-0.834c-7.917,-5.416 -12.083,-15.416 -8.333,-24.583c3.333,-7.917 10.833,-13.75 19.583,-13.75l3.75,0c8.333,1.25 21.667,2.5 36.25,7.083c-13.333,-20 -31.25,-37.916 -52.5,-51.666l-1.25,-0.834c-9.583,-5.833 -12.917,-17.5 -7.917,-27.083c3.75,-7.083 10.834,-11.667 18.75,-11.667c2.5,0 5.417,0.417 7.917,1.25c136.25,54.167 158.75,172.084 154.583,247.5c10.417,-10.833 19.584,-22.916 29.584,-36.666c40.833,-57.917 64.166,-133.75 64.166,-207.084c0,-39.166 -6.25,-76.666 -18.333,-113.333c-64.167,-45.833 -121.25,-59.583 -121.667,-60c-10.416,-2.083 -16.666,-11.667 -15.833,-22.5c0.833,-10.417 9.167,-18.333 19.583,-19.167l4.167,0c7.917,0 31.667,0.834 67.083,9.167c-29.166,-41.667 -67.083,-77.917 -111.666,-104.583c-9.167,-5.417 -12.917,-17.084 -7.917,-26.25c3.75,-7.5 10.833,-12.5 18.75,-12.5c2.083,-0 4.167,0.416 6.25,1.25c19.167,5.833 65.417,23.75 114.167,64.583c-1.25,-5 -0.834,-10.833 1.25,-15.417c3.75,-7.083 10.833,-10.833 18.333,-10.833c2.083,-0 5,0.417 7.083,1.25c5.834,2.083 152.5,56.25 189.167,236.667c33.333,163.75 -60,280.416 -163.333,374.166c6.666,0.834 12.916,4.167 17.5,9.584c5.833,6.666 7.916,16.25 7.083,25.833l-2.5,23.75c-2.5,21.25 -13.75,92.5 -58.75,117.083c-10.833,5.834 -26.25,11.667 -71.25,15.417l-47.917,3.75l5,16.25c1.667,5.833 0.834,12.083 -2.083,17.083l-34.583,55.417c0.833,1.25 1.25,3.333 1.666,4.583l76.667,268.75c2.083,7.917 -0.417,16.667 -6.667,22.084l-252.916,205.833l-252.5,-203.75Z" style="fill:#ede0c5;fill-rule:nonzero;"/><path d="M315,398.75c33.75,-171.25 174.583,-222.5 174.583,-222.5c-51.666,38.75 -104.166,110 -125.416,210.833c21.25,-26.25 40.833,-45.833 63.75,-62.083c57.083,-123.333 154.166,-172.917 201.666,-188.75c-62.083,37.5 -113.75,93.75 -145,158.333c71.667,-25.833 114.584,-23.75 114.584,-23.75c-0,0 -64.167,15.834 -134.167,67.5c-13.333,39.584 -21.25,82.084 -20.833,126.25c0.416,77.917 25.416,157.917 69.166,218.75c24.584,34.167 47.917,57.917 77.084,80c-10,-24.583 -47.084,-212.083 130.416,-283.75l-1.25,0.834c-41.666,27.5 -72.5,69.583 -85,119.583c32.084,-31.25 66.667,-34.583 84.584,-36.667c-0.417,0 -0.834,0.417 -0.834,0.417c-164.583,95.417 -33.333,224.167 -33.333,224.167c52.083,-43.334 82.083,-141.667 88.333,-168.334c1.25,103.334 -33.333,165 -56.666,195.417c53.333,36.25 112.916,34.167 112.916,34.167c0,-0 59.584,2.083 112.5,-34.167c-23.333,-30 -57.916,-92.083 -57.916,-195c6.666,27.083 37.083,124.167 89.166,167.5c0,-0 130.417,-129.167 -34.583,-224.167c-0.417,0 -0.833,-0.416 -0.833,-0.416c17.916,2.083 52.5,5.416 84.583,36.25c-12.917,-49.584 -43.333,-92.084 -86.25,-118.75l-1.25,-0.834c177.917,70.834 141.667,258.75 132.083,283.334c29.584,-22.084 52.917,-45.834 76.667,-80.417c42.917,-61.25 67.5,-141.25 67.5,-219.167c0,-44.583 -7.917,-86.666 -22.083,-125.833c-68.334,-50.833 -132.917,-66.667 -132.917,-66.667c0,0 43.333,-2.5 115.417,22.917c-31.667,-64.167 -83.334,-119.583 -145.834,-157.083c47.917,15.416 145.417,64.583 202.917,187.5c22.917,15.833 42.917,35.416 64.167,61.25c-21.667,-101.25 -74.167,-172.917 -126.25,-210.417c-0,-0 140.833,50.417 175.833,221.667c40.417,199.166 -118.75,324.166 -246.667,431.666l97.917,-40.416c6.667,-3.334 11.25,3.75 10.417,11.25l-2.5,24.166c-1.25,12.917 -10.834,81.25 -48.334,101.25c-7.916,4.584 -22.083,9.584 -62.5,12.917l-73.333,5l12.5,41.25l-72.083,116.25l36.666,-39.167l76.667,268.75l-206.667,171.25l63.75,-293.75l-96.666,117.917l-96.667,-118.75l65.417,293.333l-207.917,-170l74.583,-269.166l37.084,39.166l-72.084,-115.833l12.084,-41.25l-74.167,-4.583c-40.833,-3.334 -54.583,-7.917 -62.5,-12.5c-37.083,-20 -47.083,-87.917 -48.333,-101.25l-3.334,-24.167c-1.25,-7.5 3.75,-13.75 10.417,-11.25l98.333,39.583c-128.75,-105.416 -288.75,-230.416 -249.583,-429.583m930.417,211.667c-0,-0 81.25,-128.75 25,-200.417c-5.834,-7.083 -12.084,-13.75 -17.917,-20.833c23.333,82.083 -7.083,221.25 -7.083,221.25m-830.834,2.5c0,-0 -30.833,-138.75 -8.333,-220.417c-5.833,6.25 -12.083,12.917 -17.5,20.833c-55.417,71.25 25.833,199.584 25.833,199.584" style="fill:#00471a;fill-rule:nonzero;"/><path d="M1042.92,907.917c36.25,-3.334 77.916,-2.084 95,-11.667c25,-13.75 31.666,-74.167 31.666,-74.167c-27.5,27.084 -86.666,70 -126.666,85.834m-169.167,275l-84.167,-0l20,27.5l44.167,-0l20,-27.5Zm22.917,-235c10.416,10 28.75,19.166 50.833,2.083c11.667,-9.167 11.667,-22.5 10.833,-30.833c-0.833,-4.167 -5.416,-6.667 -9.166,-5c-19.584,9.166 -39.584,18.333 -50.417,22.916c-4.167,2.084 -5.417,7.084 -2.083,10.834m-141.25,119.166l-11.667,52.5l29.583,39.167l30.834,0l-28.75,-42.083l4.583,-25.834c12.917,13.75 31.667,22.5 52.083,22.5c20.417,0 39.167,-9.166 52.084,-22.916l4.583,25.833l-28.75,42.083l30.833,0l29.167,-39.583l-12.083,-52.5c-27.917,-17.5 -34.167,-42.917 -34.167,-42.917l-19.583,-63.75l-22.5,10.834l-22.5,-10.834l-19.167,63.75c-0.417,0.834 -6.667,26.25 -34.583,43.75m-40.417,-116.666c22.5,17.083 40.833,7.5 50.833,-2.084c3.75,-3.75 2.084,-8.333 -1.666,-10.833c-10.834,-5 -30.417,-13.75 -50.417,-22.917c-4.167,-1.666 -8.333,0.834 -9.167,5c-1.666,8.75 -1.25,22.084 10.417,30.834m-223.75,-126.25c0,-0 7.083,60 32.917,74.166c17.083,9.584 58.75,7.917 95.416,10.834c-40.833,-15.417 -100,-58.334 -128.333,-85" style="fill:#fff;fill-rule:nonzero;"/></g></g><path d="M1562.5,468.75l-0,729.167c-0,201.219 -163.364,364.583 -364.583,364.583l-729.167,0c-201.219,0 -364.583,-163.364 -364.583,-364.583l-0,-729.167c-0,-201.219 163.364,-364.583 364.583,-364.583l729.167,-0c201.219,-0 364.583,163.364 364.583,364.583Z" style="fill:none;stroke:#000;stroke-width:8.33px;"/></svg>