<?xml version="1.0" encoding="UTF-8" standalone="no"?><!DOCTYPE svg PUBLIC "-//W3C//DTD SVG 1.1//EN" "http://www.w3.org/Graphics/SVG/1.1/DTD/svg11.dtd"><svg width="100%" height="100%" viewBox="0 0 1667 1667" version="1.1" xmlns="http://www.w3.org/2000/svg" xmlns:xlink="http://www.w3.org/1999/xlink" xml:space="preserve" xmlns:serif="http://www.serif.com/" style="fill-rule:evenodd;clip-rule:evenodd;stroke-linecap:round;stroke-linejoin:round;stroke-miterlimit:1.5;"><path d="M1562.5,468.75l-0,729.167c-0,201.219 -163.364,364.583 -364.583,364.583l-729.167,0c-201.219,0 -364.583,-163.364 -364.583,-364.583l-0,-729.167c-0,-201.219 163.364,-364.583 364.583,-364.583l729.167,-0c201.219,-0 364.583,163.364 364.583,364.583Z" style="fill:#236192;"/><clipPath id="_clip1"><path d="M1562.5,468.75l-0,729.167c-0,201.219 -163.364,364.583 -364.583,364.583l-729.167,0c-201.219,0 -364.583,-163.364 -364.583,-364.583l-0,-729.167c-0,-201.219 163.364,-364.583 364.583,-364.583l729.167,-0c201.219,-0 364.583,163.364 364.583,364.583Z"/></clipPath><g clip-path="url(#_clip1)"><g><g><path d="M834.167,1457.08c-265.417,0 -502.5,-168.75 -589.584,-419.583c-112.916,-325 59.584,-681.667 384.584,-794.583c66.25,-22.917 135,-34.584 204.583,-34.584c265.417,0 502.5,168.75 589.583,419.584l2.917,8.333c107.083,322.917 -65.417,674.167 -387.917,785.833c-65.833,23.334 -134.583,35 -204.166,35" style="fill:#a0a2a3;fill-rule:nonzero;"/><path d="M1348.33,550.417c-75.416,-137.5 -199.583,-237.084 -350.416,-280.834c-25.834,-7.5 -52.5,-13.333 -79.167,-17.083c-287.917,-42.5 -566.667,136.667 -647.917,416.667c-43.75,150.416 -26.25,308.75 49.167,446.25c75.417,137.5 200,237.083 350.417,280.833c25.833,7.5 52.5,13.333 79.166,17.083c58.75,8.75 117.5,7.917 173.75,-0.833c0.834,0.417 1.25,0.833 2.084,1.25l0.833,-1.667c218.75,-35 407.083,-193.333 471.667,-415.416c43.333,-150.417 25.833,-308.75 -49.584,-446.25Z" style="fill:#0c233f;fill-rule:nonzero;"/><path d="M798.75,667.5c0,0 -7.917,21.667 -8.75,42.083c0,0 -49.583,7.5 -73.333,23.334c-0,0.416 49.166,-49.167 82.083,-65.417" style="fill:#79bc43;fill-rule:nonzero;"/><path d="M1132.08,665.417c5.417,-1.25 9.584,-1.667 12.5,-1.25c-0.833,-2.5 -2.5,-6.25 -5.833,-10c-4.167,-5.417 -10.833,-9.167 -10.833,-9.167c4.583,6.25 4.583,14.583 4.166,20.417" style="fill:#fff;fill-rule:nonzero;"/><path d="M1087.5,687.917c6.25,-4.584 12.083,-7.917 17.5,-10.834c-0.833,-2.5 -2.5,-5.416 -4.583,-9.583c-4.167,-7.5 -15.417,-14.167 -15.417,-14.167c4.583,13.334 3.75,27.084 2.5,34.584" style="fill:#fff;fill-rule:nonzero;"/><path d="M556.667,1021.67c-42.084,17.083 -141.667,-6.25 -141.667,-6.25c100.417,-5.834 198.75,-77.917 198.75,-77.917c0,0 0,0.417 -0.417,0.417c-29.583,45.416 -70,71.25 -70,71.25c5,6.25 9.167,10 13.334,12.5" style="fill:#a0a2a3;fill-rule:nonzero;"/><path d="M1057.92,422.083c-0,0 -24.584,-19.166 -52.917,10.834c30.417,-55 47.917,-23.75 52.917,-10.834" style="fill:#79bc43;fill-rule:nonzero;"/><path d="M1155.83,687.5c0,0 -2.5,-1.667 -3.333,-2.083c-15.833,-8.334 -43.75,15.833 -62.083,26.25c-18.334,10 -45,31.666 -58.334,2.083c-12.916,-29.583 17.084,-75.833 27.5,-105.417c22.917,-64.583 23.75,-102.5 18.75,-122.916c21.25,23.75 27.917,70 27.917,70c0,-0 7.917,-86.25 -34.167,-108.75c0.834,2.916 0,13.75 -0.833,22.083c-19.583,3.75 -62.917,-1.25 -77.083,-8.75c-53.334,57.083 -111.25,136.667 -155,209.583c-18.75,38.75 -37.5,83.75 -42.084,120.834c0,-0 -5.833,-16.667 -7.5,-38.75c-24.166,9.166 -106.25,49.583 -123.75,173.333c0,0 52.084,-53.75 110,-75c0,0 -36.666,95.833 33.334,265.417c-0,-0 28.333,-104.167 87.5,-130.417c35.833,177.917 140.833,180.833 171.25,301.667c-0,-0 32.083,-62.5 -6.667,-169.167c0,-0 13.333,3.75 24.583,17.083c0,0 -1.666,-31.25 -30.833,-98.333c-19.167,-35.833 -25,-84.583 -25,-84.583c-17.083,15.416 -21.25,67.5 -21.25,67.5c-52.083,-141.25 95.833,-281.25 122.917,-302.084c13.333,-10 21.25,-10.416 26.25,-7.916c4.583,-10.417 3.75,-17.084 -2.084,-21.667" style="fill:#a0a2a3;fill-rule:nonzero;"/></g><path d="M743.75,392.917c37.083,-15 77.917,-30.834 116.667,-43.75c49.166,-17.917 92.916,-27.917 127.083,-32.917c-0.833,-0.417 -1.667,-0.417 -2.5,-0.833c-24.167,-7.084 -48.333,-12.5 -72.917,-15.834c-66.666,-10 -132.916,-6.666 -196.25,7.5c-3.75,11.667 -8.75,34.584 -0.416,55.417c5,12.5 14.583,22.5 28.333,30.417" style="fill:#266092;fill-rule:nonzero;"/><path d="M449.583,763.75c19.167,-59.583 44.584,-110 71.667,-152.083c4.167,-8.334 10.833,-20.834 19.167,-35.834c-103.75,-11.25 -197.917,99.584 -234.167,149.167c-30,145.417 2.5,291.667 80.417,407.917c18.333,-29.167 46.666,-73.75 46.666,-73.75c-41.666,-14.584 -83.333,-51.667 -83.333,-51.667c23.333,-14.583 46.25,-31.667 68.333,-50c1.25,-66.667 11.25,-131.667 31.25,-193.75" style="fill:#266092;fill-rule:nonzero;"/><path d="M470.417,435l8.333,0c50.833,-2.917 123.75,-0.833 165.417,0.833c17.5,-7.916 38.75,-17.083 62.5,-27.083c-10.417,-9.583 -18.334,-20.833 -23.334,-33.75c-7.916,-20.417 -7.916,-41.25 -5,-57.917c-77.083,22.917 -148.333,63.334 -207.916,117.917" style="fill:#266092;fill-rule:nonzero;"/><path d="M1120,1289.58c56.667,-35.416 107.083,-81.666 147.917,-136.666c-20.417,-101.667 -84.584,-211.25 -170.417,-312.5c-14.167,33.75 -21.667,70.833 -22.5,124.583c-1.25,64.167 47.917,105.417 50.833,223.333c0,0 -14.166,-10 -20,-12.5c0,0 10.417,50.834 14.167,113.75" style="fill:#266092;fill-rule:nonzero;"/><path d="M666.25,544.583c-14.583,7.084 -30.833,15.417 -46.667,24.167c33.75,22.083 60.834,55.833 82.917,96.25c58.75,-45.417 113.333,-46.25 113.333,-46.25c5,-6.25 9.584,-12.083 14.167,-17.917c-18.333,-12.5 -36.667,-24.166 -55.417,-35.416c-25.833,-9.167 -87.5,-17.917 -108.333,-20.834" style="fill:#266092;fill-rule:nonzero;"/><path d="M945.833,470c-7.5,-0.833 -15,-1.667 -22.916,-2.5l-4.167,-0.417c-4.583,-0.416 -9.583,-0.833 -15.417,-1.25c-29.583,-2.083 -77.083,-5.833 -133.75,-25.416c-11.666,12.916 -21.25,26.25 -28.333,37.916c14.583,15 42.5,44.167 56.25,59.584c18.333,11.25 36.667,22.916 55,35.416c34.583,-41.25 64.583,-73.333 93.333,-103.333" style="fill:#266092;fill-rule:nonzero;"/><path d="M329.583,643.333c55,-56.666 137.084,-117.5 228.75,-99.583c7.084,-12.917 14.584,-25.833 21.25,-37.5c-28.75,-18.75 -46.25,-32.5 -95.833,-36.667c-20.417,-0.416 -37.083,0 -49.167,0.834c-44.583,49.166 -80.416,107.5 -105,172.916" style="fill:#266092;fill-rule:nonzero;"/><path d="M1351.67,983.333c19.166,-65.416 25,-131.25 19.583,-195.416c-15,-68.75 -66.25,-200 -240,-272.5c5.417,51.666 -5.833,101.25 -5.833,101.25c-0,-0 32.083,18.75 40,54.166c-0,0 4.166,1.667 7.5,6.667c9.166,10.833 20.833,36.25 2.083,86.667c0,-0 -10.833,-23.334 -34.167,1.666c-10,14.167 -18.75,27.084 -26.25,40c84.584,97.5 150.834,204.167 179.167,307.917c24.583,-39.583 44.167,-83.333 57.917,-130.417" style="fill:#266092;fill-rule:nonzero;"/><path d="M1038.75,382.5c15.833,5.833 24.167,15.417 30,28.75c30,12.5 46.667,37.917 55.417,66.667c72.5,27.5 148.75,71.25 205,141.25c-51.25,-118.75 -145,-218.334 -267.5,-275l-0,0.833c-1.667,-0 -115,-2.5 -255,65.417c-2.5,1.25 -5,2.916 -7.084,4.583c43.75,12.917 80.417,15.417 106.25,17.083c6.25,0.417 11.667,0.834 16.25,1.25l3.75,0.417c12.917,1.25 29.584,2.917 48.75,5.833c17.5,-32.5 46.667,-53.333 64.167,-57.083" style="fill:#266092;fill-rule:nonzero;"/><path d="M676.25,688.333c-22.917,-44.583 -52.083,-80 -89.167,-98.75c-8.333,5.834 -15.416,12.084 -21.666,18.334c-59.167,83.333 -102.5,190.833 -110.417,318.333c94.583,-86.667 173.333,-190 221.25,-237.917" style="fill:#266092;fill-rule:nonzero;"/><path d="M729.167,428.333l-37.084,54.167c0,0 28.334,19.583 51.25,46.25c-40.416,-8.333 -85,-15.833 -85,-15.833l-70.416,38.333l32.916,-55c0,-0 -22.083,-19.167 -47.916,-35.417c28.333,0.834 81.666,5.417 81.666,5.417l74.584,-37.917Z" style="fill:#79bc43;fill-rule:nonzero;"/></g></g><path d="M1562.5,468.75l-0,729.167c-0,201.219 -163.364,364.583 -364.583,364.583l-729.167,0c-201.219,0 -364.583,-163.364 -364.583,-364.583l-0,-729.167c-0,-201.219 163.364,-364.583 364.583,-364.583l729.167,-0c201.219,-0 364.583,163.364 364.583,364.583Z" style="fill:none;stroke:#000;stroke-width:8.33px;"/></svg>