<?xml version="1.0" encoding="UTF-8" standalone="no"?><!DOCTYPE svg PUBLIC "-//W3C//DTD SVG 1.1//EN" "http://www.w3.org/Graphics/SVG/1.1/DTD/svg11.dtd"><svg width="100%" height="100%" viewBox="0 0 1667 1667" version="1.1" xmlns="http://www.w3.org/2000/svg" xmlns:xlink="http://www.w3.org/1999/xlink" xml:space="preserve" xmlns:serif="http://www.serif.com/" style="fill-rule:evenodd;clip-rule:evenodd;stroke-linecap:round;stroke-linejoin:round;stroke-miterlimit:1.5;"><path d="M1562.5,468.75l-0,729.167c-0,201.219 -163.364,364.583 -364.583,364.583l-729.167,0c-201.219,0 -364.583,-163.364 -364.583,-364.583l-0,-729.167c-0,-201.219 163.364,-364.583 364.583,-364.583l729.167,-0c201.219,-0 364.583,163.364 364.583,364.583Z" style="fill:#c8102e;"/><clipPath id="_clip1"><path d="M1562.5,468.75l-0,729.167c-0,201.219 -163.364,364.583 -364.583,364.583l-729.167,0c-201.219,0 -364.583,-163.364 -364.583,-364.583l-0,-729.167c-0,-201.219 163.364,-364.583 364.583,-364.583l729.167,-0c201.219,-0 364.583,163.364 364.583,364.583Z"/></clipPath><g clip-path="url(#_clip1)"><g><path d="M1655.83,725.417l-14.166,-8.75c-217.5,-126.667 -533.334,-189.584 -678.334,-191.667l-2.083,0c-23.75,0 -40.417,8.333 -49.167,24.583c-7.5,13.75 -6.666,27.5 -2.916,39.584c-2.5,-2.917 -6.25,-5.834 -10,-8.75c-11.667,-8.75 -25.417,-15.834 -25.417,-15.834c0,0 1.667,11.25 -2.5,10c-2.083,-0.833 -4.583,-1.666 -7.083,-2.916c-11.667,-5.417 -28.75,-15.834 -28.75,-15.834c-0,0 -17.5,10.417 -29.167,15.834c-2.5,1.25 -5,2.083 -7.083,2.916c-4.167,1.25 -2.5,-10 -2.5,-10c-0,0 -13.75,7.084 -25.417,15.834c-3.75,2.916 -7.5,5.833 -10,8.75c3.75,-11.667 4.583,-25.417 -2.917,-39.584c-8.75,-16.25 -25,-24.583 -49.166,-24.583l-2.084,0c-144.583,2.5 -460.416,65 -677.916,191.667l-14.167,8.75c0,-0 21.25,54.583 74.167,70l-7.084,3.333c0,0 30,48.333 76.25,58.333l-8.75,3.75c0,0 32.5,52.917 95.834,63.75l-9.167,4.584c0,-0 45,48.75 114.583,53.333l-10,7.5c0,0 45.834,30.417 113.75,38.333l-10.833,9.584c0,-0 120,43.75 220.417,7.5c27.916,69.583 95.833,117.083 172.083,117.083c76.25,0 144.583,-47.083 172.083,-117.083c100.417,36.666 220.417,-7.5 220.417,-7.5l-10.833,-9.584c67.5,-7.5 113.75,-38.333 113.75,-38.333l-10,-7.5c69.166,-4.167 114.583,-53.333 114.583,-53.333l-9.167,-4.584c63.334,-11.25 95.834,-63.75 95.834,-63.75l-8.75,-3.75c46.25,-10 76.25,-58.333 76.25,-58.333l-7.084,-3.333c51.25,-15.417 72.5,-70 72.5,-70Z" style="fill:#b4975a;fill-rule:nonzero;"/><g><g><g><path d="M1632.92,732.083c-212.917,-124.166 -525.417,-187.083 -670,-189.583c-17.5,-0.417 -29.167,3.75 -35.417,15.417c-10,18.75 4.167,40 10,49.166c12.917,19.584 30.417,50 30.417,86.667c-0,71.25 -57.5,123.75 -128.334,123.75l-9.166,-0c-70.834,-0 -128.334,-52.5 -128.334,-123.75c0,-36.667 17.5,-67.083 30.417,-86.667c6.25,-9.166 20.417,-30 10,-49.166c-6.25,-11.25 -17.917,-15.417 -35.417,-15.417c-144.583,2.5 -457.083,65.417 -670,189.583c0,0.417 34.167,58.75 101.667,53.75c-10.417,5 -20.833,10.417 -31.25,15.834c-0,0.833 31.25,51.25 105.833,44.166c-12.5,5.834 -24.583,11.667 -37.083,17.917c-0,0.833 35.833,50.833 114.583,49.167c-17.916,9.166 -29.166,15 -29.166,15c-0,0.416 52.083,50.416 135.833,36.666c-9.167,6.667 -18.333,13.75 -29.167,21.25c0,0 61.667,33.75 134.167,23.334c-9.167,7.083 -18.75,14.166 -27.917,21.666c0,-0.833 110.834,30.417 190,-4.583c67.917,-30 105.834,-103.333 114.584,-121.667c13.333,2.917 25,4.584 34.166,5.834c0,0.833 14.584,2.083 21.667,2.083c7.083,0.417 21.667,-0.833 21.667,-2.083c8.75,-1.25 20.833,-2.917 34.166,-5.834c8.75,18.334 46.25,92.084 114.584,121.667c79.166,35 190,3.333 190,4.583c-9.167,-7.083 -18.75,-14.583 -27.917,-21.666c72.5,10.416 134.167,-23.334 134.167,-23.334c-10.834,-7.5 -20,-14.583 -29.167,-21.25c83.75,13.75 135.833,-36.25 135.833,-36.666c0,-0 -10.833,-5.834 -29.166,-15c78.75,1.25 114.166,-48.75 114.583,-49.167c-12.5,-6.25 -24.583,-12.083 -37.083,-17.917c74.583,7.5 105.416,-43.333 105.833,-44.166c-10.417,-5.417 -20.833,-10.417 -31.25,-15.834c67.917,4.584 101.667,-53.333 101.667,-53.75Z" style="fill:#0a2240;fill-rule:nonzero;"/><path d="M774.167,866.667c-0,-0 -190,-63.75 -107.5,-266.25c-0,-0 -201.25,8.333 -476.667,119.583c0,0 -19.167,7.917 -30.417,12.083c-11.25,4.167 -29.583,11.25 -55.416,-1.25c-0,0 252.083,-131.666 575.833,-162.5c42.5,-4.166 48.333,2.5 37.083,18.334c-9.166,13.75 -125,160.833 57.084,280Z" style="fill:#fff;fill-rule:nonzero;"/><path d="M605.417,657.917c-162.917,21.25 -322.5,77.916 -322.5,77.916c27.083,48.334 100.833,27.917 100.833,27.917c137.917,-39.167 199.583,-52.5 219.583,-56.25c-0.833,-15.417 -0.416,-31.667 2.084,-49.583Z" style="fill:#b4975a;fill-rule:nonzero;"/><path d="M606.25,737.083c-27.083,5.417 -141.25,28.75 -256.25,71.667c0,0 36.25,41.25 108.333,20.833c60.417,-17.083 138.334,-42.083 161.25,-49.166c-5.833,-12.917 -10.416,-27.5 -13.333,-43.334Z" style="fill:#b4975a;fill-rule:nonzero;"/><path d="M631.667,803.333c-24.584,7.917 -147.5,47.917 -199.584,67.917c0,0 29.584,40 115.834,6.25c60,-23.75 92.916,-37.5 107.5,-43.75c-8.75,-9.167 -16.667,-19.167 -23.75,-30.417Z" style="fill:#b4975a;fill-rule:nonzero;"/><path d="M674.583,850.833c-21.666,9.167 -101.25,44.167 -147.5,66.25c0,0 57.917,28.334 131.25,-16.666l45.417,-30c-10,-5.417 -20,-11.667 -29.167,-19.584Z" style="fill:#b4975a;fill-rule:nonzero;"/><path d="M725.833,882.5c-14.583,9.167 -75,47.083 -104.583,69.167c0,-0 50,20.833 101.667,-27.917c16.666,-15.833 25.833,-24.583 30.833,-30c-9.167,-2.917 -18.333,-6.667 -27.917,-11.25Z" style="fill:#b4975a;fill-rule:nonzero;"/><g><path d="M896.667,866.667c-0,-0 190,-63.75 107.5,-266.25c-0,-0 201.25,8.333 476.666,119.583c0,0 19.167,7.917 30.417,12.083c11.25,4.167 29.583,11.25 55.417,-1.25c-0,0 -252.084,-131.666 -575.834,-162.5c-42.916,-4.166 -48.333,2.5 -37.083,18.334c9.583,13.75 125,160.833 -57.083,280Z" style="fill:#fff;fill-rule:nonzero;"/><path d="M1065.42,657.917c162.916,21.25 322.5,77.916 322.5,77.916c-27.084,48.334 -100.834,27.917 -100.834,27.917c-137.916,-39.167 -199.583,-52.5 -219.583,-56.25c1.25,-15.417 0.417,-31.667 -2.083,-49.583Z" style="fill:#b4975a;fill-rule:nonzero;"/><path d="M1064.58,737.083c27.084,5.417 141.25,28.75 256.25,71.667c0,0 -36.25,41.25 -108.333,20.833c-60.417,-17.083 -138.333,-42.083 -161.25,-49.166c5.833,-12.917 10.417,-27.5 13.333,-43.334Z" style="fill:#b4975a;fill-rule:nonzero;"/><path d="M1039.17,803.333c24.583,7.917 147.5,47.917 199.583,67.917c0,0 -29.583,40 -115.833,6.25c-60,-23.75 -92.917,-37.5 -107.5,-43.75c8.75,-9.167 16.666,-19.167 23.75,-30.417Z" style="fill:#b4975a;fill-rule:nonzero;"/><path d="M996.25,850.833c21.667,9.167 101.25,44.167 147.5,66.25c0,0 -57.917,28.334 -131.25,-16.666l-45.417,-30c10,-5.417 20,-11.667 29.167,-19.584Z" style="fill:#b4975a;fill-rule:nonzero;"/><path d="M945,882.5c14.583,9.167 75,47.083 104.583,69.167c0,-0 -50,20.833 -101.666,-27.917c-16.667,-15.833 -25.834,-24.583 -30.834,-30c9.167,-2.917 18.334,-6.667 27.917,-11.25Z" style="fill:#b4975a;fill-rule:nonzero;"/></g></g><g><g><g><path d="M991.25,977.083c0,86.25 -69.583,155.834 -155.833,155.834c-86.25,-0 -155.834,-69.584 -155.834,-155.834c0,-85.833 69.584,-155.833 155.834,-155.833c85.833,0.417 155.833,70 155.833,155.833Z" style="fill:#fff;fill-rule:nonzero;"/></g><g><path d="M958.75,1009.58c0,68.334 -55.417,123.75 -123.333,123.75c-68.334,0 -123.334,-55.416 -123.334,-123.75c0,-68.333 55.417,-123.333 123.334,-123.333c68.333,-0.417 123.333,55 123.333,123.333Z" style="fill:#b4975a;fill-rule:nonzero;"/></g><path d="M835.417,809.167c-92.5,-0 -167.917,75.416 -167.917,167.916c0,92.5 75.417,167.917 167.917,167.917c92.5,0 167.916,-75.417 167.916,-167.917c0,-92.5 -75.416,-167.916 -167.916,-167.916Zm140.833,140.833c-10.417,41.667 -38.75,75.417 -75.833,94.167c2.916,-20.417 12.083,-40.834 21.25,-62.084c13.333,-30.416 28.333,-64.166 21.666,-99.583c16.667,19.167 28.334,42.083 32.917,67.5Zm-214.583,-95.833c18.75,-11.25 40.416,-18.334 63.333,-20l-0,225.833c-11.667,-0.833 -22.5,-2.917 -33.333,-6.25c-1.25,-27.917 -12.5,-54.167 -23.75,-79.583c-18.75,-42.084 -34.584,-79.167 -6.25,-120Zm28.75,220.833c11.25,2.917 22.5,5 34.583,5.833l-0,40c-18.75,-1.25 -36.667,-6.25 -52.917,-14.166c7.917,-7.917 16.25,-18.334 18.334,-31.667Zm55.416,5.417c12.084,-0.834 23.334,-2.5 34.584,-5.834c2.5,13.334 10.416,24.167 18.333,31.25c-16.25,7.917 -34.167,12.917 -52.917,14.167l0,-39.583Zm33.334,-27.084c-10.834,3.334 -21.667,5.834 -33.334,6.667l0,-225.833c22.917,1.666 44.584,8.75 63.334,20c28.333,41.25 12.5,77.916 -6.25,120c-11.25,25.416 -22.5,51.25 -23.75,79.166Zm-152.084,-170.416c-6.25,35.416 8.334,68.75 21.667,99.583c9.167,21.25 18.333,41.667 21.25,62.5c-37.083,-18.333 -65.417,-52.5 -75.833,-95c5,-25.417 16.666,-48.333 32.916,-67.083Zm-32.916,119.583c17.916,29.583 45,52.5 76.666,65.417c0,0.833 0,2.083 -0.416,2.916c-1.667,10.834 -10.417,19.584 -16.667,24.167c-30.833,-21.25 -52.917,-54.583 -59.583,-92.5Zm223.333,92.5c-6.25,-5 -15,-13.75 -16.667,-24.167c0,-0.833 -0.416,-2.083 -0.416,-2.916c31.666,-13.334 58.333,-36.25 76.666,-65.417c-7.083,38.333 -29.166,71.25 -59.583,92.5Z" style="fill:#0a2240;fill-rule:nonzero;"/></g><g><path d="M885.417,591.25c-0,0 -1.25,5.417 -4.584,5.417c-3.333,-0 -23.333,-9.584 -32.916,-15c-4.167,-2.084 -10,-5.417 -12.084,-6.667c0,0 -8.75,4.583 -12.916,6.667c-9.584,5.416 -30,15 -32.917,15c-3.333,-0 -4.583,-5.417 -4.583,-5.417c-0,0 -52.917,32.083 -52.917,120c0,65.833 34.167,95.417 34.167,95.417l4.583,18.75l128.333,-0l4.584,-18.75c-0,-0 34.166,-29.584 34.166,-95.417c0,-87.917 -52.916,-120 -52.916,-120Z" style="fill:#0a2240;fill-rule:nonzero;"/><path d="M910.417,689.167c-0,-27.084 -11.25,-49.584 -22.917,-62.5c0,-0 -0.417,7.916 -13.333,-0.834c-11.25,-7.5 -24.584,-12.083 -38.75,-12.083c-14.167,0 -27.5,4.583 -38.75,12.083c-12.5,8.75 -13.334,0.834 -13.334,0.834c-12.083,13.333 -22.916,35.416 -22.916,62.5c-0,22.5 5.416,33.75 7.5,37.083c11.25,28.75 37.083,49.167 67.5,49.167c30,-0 55.833,-20 67.083,-48.334c0.833,-0.833 7.917,-11.666 7.917,-37.916Z" style="fill:#fff;fill-rule:nonzero;"/><path d="M863.75,750.833c0,0 0,-0.416 -0.417,-0.416c0,-0 -7.5,-14.167 5,-23.75c0,-0 27.5,5.833 28.334,-30.834c-0,0 -0.834,-3.75 3.333,-11.666c0,-0 -7.083,-6.667 -22.5,5c-15.417,11.666 -23.75,44.583 -32.083,36.666c-8.334,-7.5 -5.417,-50.416 -9.584,-52.083c-4.166,1.667 -1.25,44.583 -9.583,52.083c-8.333,7.917 -16.667,-25 -32.083,-36.666c-15.417,-11.667 -22.5,-5 -22.5,-5c3.75,7.916 3.333,11.666 3.333,11.666c0.833,36.667 28.333,30.834 28.333,30.834c12.084,9.583 5,23.75 5,23.75c0,-0 0,0.416 -0.416,0.416c-32.917,-35.416 -52.084,-30.833 -42.917,9.167c9.167,39.167 45,206.667 50.833,245.417c-0.833,35 -5,47.5 -5.833,50l-3.75,7.083l4.167,7.917c6.25,9.166 10.833,19.583 12.083,23.333l13.75,34.583l13.333,-34.583c1.667,-4.167 5.834,-14.167 12.084,-23.333l4.166,-7.5l-3.75,-7.5c-1.25,-2.5 -5,-14.584 -5.833,-48.334c4.583,-35 41.25,-207.5 50.833,-247.5c8.75,-39.583 -10.416,-44.166 -43.333,-8.75Z" style="fill:#0a2240;fill-rule:nonzero;"/><g><path d="M812.917,925.417c-11.667,-62.5 -21.25,-108.75 -28.75,-142.084c-5.834,-25.416 9.583,-15.416 17.916,0.834l10.834,141.25Z" style="fill:#ce0e2d;fill-rule:nonzero;"/><path d="M857.917,925.417c12.083,-62.5 21.25,-108.75 28.75,-142.084c5.833,-25.416 -9.584,-15.416 -17.917,0.834l-10.833,141.25Z" style="fill:#ce0e2d;fill-rule:nonzero;"/></g><g><path d="M794.167,714.167c-2.5,-0.834 -3.75,-2.917 -2.917,-5.417c0.417,-0.833 0.833,-1.667 1.667,-2.083c-1.667,-1.667 -3.334,-3.334 -5.417,-5c0,-0 -3.75,17.916 12.083,16.25c0,-0 -0.416,-1.667 -1.666,-3.75c-1.25,0.416 -2.5,0.416 -3.75,-0Z" style="fill:#ce0e2d;fill-rule:nonzero;"/><path d="M883.75,701.667c-2.083,1.666 -4.167,3.333 -5.417,5c0.834,0.416 1.25,1.25 1.667,2.083c0.833,2.5 -0.833,4.583 -2.917,5.417c-1.25,0.416 -2.5,-0 -3.333,-0.417c-1.25,2.083 -1.667,3.75 -1.667,3.75c15.417,2.083 11.667,-15.833 11.667,-15.833Z" style="fill:#ce0e2d;fill-rule:nonzero;"/></g><path d="M842.917,948.75c5,-96.25 12.916,-164.583 12.916,-173.333c0,-2.917 -0.416,-7.084 -1.666,-11.25l-5.417,18.333l-1.667,-32.5c-2.916,-3.75 -6.666,-7.083 -11.666,-10.833l-0.417,-0c-5,3.333 -8.333,7.083 -11.25,10.833l-1.667,32.5l-5.833,-18.333c-1.25,4.166 -1.667,8.333 -1.667,11.25c0,8.333 7.5,76.666 12.917,173.333c5,96.25 -6.667,114.167 -6.667,114.167c7.084,10 14.584,27.916 14.584,27.916c-0,0 7.5,-17.916 14.583,-27.916c0,-0 -12.083,-17.917 -7.083,-114.167Z" style="fill:#ce0e2d;fill-rule:nonzero;"/></g></g></g></g><g><g><g><path d="M1632.92,732.083c-212.917,-124.166 -525.417,-187.083 -670,-189.583c-17.5,-0.417 -29.167,3.75 -35.417,15.417c-10,18.75 4.167,40 10,49.166c12.917,19.584 30.417,50 30.417,86.667c-0,71.25 -57.5,123.75 -128.334,123.75l-9.166,-0c-70.834,-0 -128.334,-52.5 -128.334,-123.75c0,-36.667 17.5,-67.083 30.417,-86.667c6.25,-9.166 20.417,-30 10,-49.166c-6.25,-11.25 -17.917,-15.417 -35.417,-15.417c-144.583,2.5 -457.083,65.417 -670,189.583c0,0.417 34.167,58.75 101.667,53.75c-10.417,5 -20.833,10.417 -31.25,15.834c-0,0.833 31.25,51.25 105.833,44.166c-12.5,5.834 -24.583,11.667 -37.083,17.917c-0,0.833 35.833,50.833 114.583,49.167c-17.916,9.166 -29.166,15 -29.166,15c-0,0.416 52.083,50.416 135.833,36.666c-9.167,6.667 -18.333,13.75 -29.167,21.25c0,0 61.667,33.75 134.167,23.334c-9.167,7.083 -18.75,14.166 -27.917,21.666c0,-0.833 110.834,30.417 190,-4.583c67.917,-30 105.834,-103.333 114.584,-121.667c13.333,2.917 25,4.584 34.166,5.834c0,0.833 14.584,2.083 21.667,2.083c7.083,0.417 21.667,-0.833 21.667,-2.083c8.75,-1.25 20.833,-2.917 34.166,-5.834c8.75,18.334 46.25,92.084 114.584,121.667c79.166,35 190,3.333 190,4.583c-9.167,-7.083 -18.75,-14.583 -27.917,-21.666c72.5,10.416 134.167,-23.334 134.167,-23.334c-10.834,-7.5 -20,-14.583 -29.167,-21.25c83.75,13.75 135.833,-36.25 135.833,-36.666c0,-0 -10.833,-5.834 -29.166,-15c78.75,1.25 114.166,-48.75 114.583,-49.167c-12.5,-6.25 -24.583,-12.083 -37.083,-17.917c74.583,7.5 105.416,-43.333 105.833,-44.166c-10.417,-5.417 -20.833,-10.417 -31.25,-15.834c67.917,4.584 101.667,-53.333 101.667,-53.75Z" style="fill:#0a2240;fill-rule:nonzero;"/><path d="M774.167,866.667c-0,-0 -190,-63.75 -107.5,-266.25c-0,-0 -201.25,8.333 -476.667,119.583c0,0 -19.167,7.917 -30.417,12.083c-11.25,4.167 -29.583,11.25 -55.416,-1.25c-0,0 252.083,-131.666 575.833,-162.5c42.5,-4.166 48.333,2.5 37.083,18.334c-9.166,13.75 -125,160.833 57.084,280Z" style="fill:#fff;fill-rule:nonzero;"/><path d="M605.417,657.917c-162.917,21.25 -322.5,77.916 -322.5,77.916c27.083,48.334 100.833,27.917 100.833,27.917c137.917,-39.167 199.583,-52.5 219.583,-56.25c-0.833,-15.417 -0.416,-31.667 2.084,-49.583Z" style="fill:#b4975a;fill-rule:nonzero;"/><path d="M606.25,737.083c-27.083,5.417 -141.25,28.75 -256.25,71.667c0,0 36.25,41.25 108.333,20.833c60.417,-17.083 138.334,-42.083 161.25,-49.166c-5.833,-12.917 -10.416,-27.5 -13.333,-43.334Z" style="fill:#b4975a;fill-rule:nonzero;"/><path d="M631.667,803.333c-24.584,7.917 -147.5,47.917 -199.584,67.917c0,0 29.584,40 115.834,6.25c60,-23.75 92.916,-37.5 107.5,-43.75c-8.75,-9.167 -16.667,-19.167 -23.75,-30.417Z" style="fill:#b4975a;fill-rule:nonzero;"/><path d="M674.583,850.833c-21.666,9.167 -101.25,44.167 -147.5,66.25c0,0 57.917,28.334 131.25,-16.666l45.417,-30c-10,-5.417 -20,-11.667 -29.167,-19.584Z" style="fill:#b4975a;fill-rule:nonzero;"/><path d="M725.833,882.5c-14.583,9.167 -75,47.083 -104.583,69.167c0,-0 50,20.833 101.667,-27.917c16.666,-15.833 25.833,-24.583 30.833,-30c-9.167,-2.917 -18.333,-6.667 -27.917,-11.25Z" style="fill:#b4975a;fill-rule:nonzero;"/><g><path d="M896.667,866.667c-0,-0 190,-63.75 107.5,-266.25c-0,-0 201.25,8.333 476.666,119.583c0,0 19.167,7.917 30.417,12.083c11.25,4.167 29.583,11.25 55.417,-1.25c-0,0 -252.084,-131.666 -575.834,-162.5c-42.916,-4.166 -48.333,2.5 -37.083,18.334c9.583,13.75 125,160.833 -57.083,280Z" style="fill:#fff;fill-rule:nonzero;"/><path d="M1065.42,657.917c162.916,21.25 322.5,77.916 322.5,77.916c-27.084,48.334 -100.834,27.917 -100.834,27.917c-137.916,-39.167 -199.583,-52.5 -219.583,-56.25c1.25,-15.417 0.417,-31.667 -2.083,-49.583Z" style="fill:#b4975a;fill-rule:nonzero;"/><path d="M1064.58,737.083c27.084,5.417 141.25,28.75 256.25,71.667c0,0 -36.25,41.25 -108.333,20.833c-60.417,-17.083 -138.333,-42.083 -161.25,-49.166c5.833,-12.917 10.417,-27.5 13.333,-43.334Z" style="fill:#b4975a;fill-rule:nonzero;"/><path d="M1039.17,803.333c24.583,7.917 147.5,47.917 199.583,67.917c0,0 -29.583,40 -115.833,6.25c-60,-23.75 -92.917,-37.5 -107.5,-43.75c8.75,-9.167 16.666,-19.167 23.75,-30.417Z" style="fill:#b4975a;fill-rule:nonzero;"/><path d="M996.25,850.833c21.667,9.167 101.25,44.167 147.5,66.25c0,0 -57.917,28.334 -131.25,-16.666l-45.417,-30c10,-5.417 20,-11.667 29.167,-19.584Z" style="fill:#b4975a;fill-rule:nonzero;"/><path d="M945,882.5c14.583,9.167 75,47.083 104.583,69.167c0,-0 -50,20.833 -101.666,-27.917c-16.667,-15.833 -25.834,-24.583 -30.834,-30c9.167,-2.917 18.334,-6.667 27.917,-11.25Z" style="fill:#b4975a;fill-rule:nonzero;"/></g></g><g><g><g><path d="M991.25,977.083c0,86.25 -69.583,155.834 -155.833,155.834c-86.25,-0 -155.834,-69.584 -155.834,-155.834c0,-85.833 69.584,-155.833 155.834,-155.833c85.833,0.417 155.833,70 155.833,155.833Z" style="fill:#fff;fill-rule:nonzero;"/></g><g><path d="M958.75,1009.58c0,68.334 -55.417,123.75 -123.333,123.75c-68.334,0 -123.334,-55.416 -123.334,-123.75c0,-68.333 55.417,-123.333 123.334,-123.333c68.333,-0.417 123.333,55 123.333,123.333Z" style="fill:#b4975a;fill-rule:nonzero;"/></g><path d="M835.417,809.167c-92.5,-0 -167.917,75.416 -167.917,167.916c0,92.5 75.417,167.917 167.917,167.917c92.5,0 167.916,-75.417 167.916,-167.917c0,-92.5 -75.416,-167.916 -167.916,-167.916Zm140.833,140.833c-10.417,41.667 -38.75,75.417 -75.833,94.167c2.916,-20.417 12.083,-40.834 21.25,-62.084c13.333,-30.416 28.333,-64.166 21.666,-99.583c16.667,19.167 28.334,42.083 32.917,67.5Zm-214.583,-95.833c18.75,-11.25 40.416,-18.334 63.333,-20l-0,225.833c-11.667,-0.833 -22.5,-2.917 -33.333,-6.25c-1.25,-27.917 -12.5,-54.167 -23.75,-79.583c-18.75,-42.084 -34.584,-79.167 -6.25,-120Zm28.75,220.833c11.25,2.917 22.5,5 34.583,5.833l-0,40c-18.75,-1.25 -36.667,-6.25 -52.917,-14.166c7.917,-7.917 16.25,-18.334 18.334,-31.667Zm55.416,5.417c12.084,-0.834 23.334,-2.5 34.584,-5.834c2.5,13.334 10.416,24.167 18.333,31.25c-16.25,7.917 -34.167,12.917 -52.917,14.167l0,-39.583Zm33.334,-27.084c-10.834,3.334 -21.667,5.834 -33.334,6.667l0,-225.833c22.917,1.666 44.584,8.75 63.334,20c28.333,41.25 12.5,77.916 -6.25,120c-11.25,25.416 -22.5,51.25 -23.75,79.166Zm-152.084,-170.416c-6.25,35.416 8.334,68.75 21.667,99.583c9.167,21.25 18.333,41.667 21.25,62.5c-37.083,-18.333 -65.417,-52.5 -75.833,-95c5,-25.417 16.666,-48.333 32.916,-67.083Zm-32.916,119.583c17.916,29.583 45,52.5 76.666,65.417c0,0.833 0,2.083 -0.416,2.916c-1.667,10.834 -10.417,19.584 -16.667,24.167c-30.833,-21.25 -52.917,-54.583 -59.583,-92.5Zm223.333,92.5c-6.25,-5 -15,-13.75 -16.667,-24.167c0,-0.833 -0.416,-2.083 -0.416,-2.916c31.666,-13.334 58.333,-36.25 76.666,-65.417c-7.083,38.333 -29.166,71.25 -59.583,92.5Z" style="fill:#0a2240;fill-rule:nonzero;"/></g><g><path d="M885.417,591.25c-0,0 -1.25,5.417 -4.584,5.417c-3.333,-0 -23.333,-9.584 -32.916,-15c-4.167,-2.084 -10,-5.417 -12.084,-6.667c0,0 -8.75,4.583 -12.916,6.667c-9.584,5.416 -30,15 -32.917,15c-3.333,-0 -4.583,-5.417 -4.583,-5.417c-0,0 -52.917,32.083 -52.917,120c0,65.833 34.167,95.417 34.167,95.417l4.583,18.75l128.333,-0l4.584,-18.75c-0,-0 34.166,-29.584 34.166,-95.417c0,-87.917 -52.916,-120 -52.916,-120Z" style="fill:#0a2240;fill-rule:nonzero;"/><path d="M910.417,689.167c-0,-27.084 -11.25,-49.584 -22.917,-62.5c0,-0 -0.417,7.916 -13.333,-0.834c-11.25,-7.5 -24.584,-12.083 -38.75,-12.083c-14.167,0 -27.5,4.583 -38.75,12.083c-12.5,8.75 -13.334,0.834 -13.334,0.834c-12.083,13.333 -22.916,35.416 -22.916,62.5c-0,22.5 5.416,33.75 7.5,37.083c11.25,28.75 37.083,49.167 67.5,49.167c30,-0 55.833,-20 67.083,-48.334c0.833,-0.833 7.917,-11.666 7.917,-37.916Z" style="fill:#fff;fill-rule:nonzero;"/><path d="M863.75,750.833c0,0 0,-0.416 -0.417,-0.416c0,-0 -7.5,-14.167 5,-23.75c0,-0 27.5,5.833 28.334,-30.834c-0,0 -0.834,-3.75 3.333,-11.666c0,-0 -7.083,-6.667 -22.5,5c-15.417,11.666 -23.75,44.583 -32.083,36.666c-8.334,-7.5 -5.417,-50.416 -9.584,-52.083c-4.166,1.667 -1.25,44.583 -9.583,52.083c-8.333,7.917 -16.667,-25 -32.083,-36.666c-15.417,-11.667 -22.5,-5 -22.5,-5c3.75,7.916 3.333,11.666 3.333,11.666c0.833,36.667 28.333,30.834 28.333,30.834c12.084,9.583 5,23.75 5,23.75c0,-0 0,0.416 -0.416,0.416c-32.917,-35.416 -52.084,-30.833 -42.917,9.167c9.167,39.167 45,206.667 50.833,245.417c-0.833,35 -5,47.5 -5.833,50l-3.75,7.083l4.167,7.917c6.25,9.166 10.833,19.583 12.083,23.333l13.75,34.583l13.333,-34.583c1.667,-4.167 5.834,-14.167 12.084,-23.333l4.166,-7.5l-3.75,-7.5c-1.25,-2.5 -5,-14.584 -5.833,-48.334c4.583,-35 41.25,-207.5 50.833,-247.5c8.75,-39.583 -10.416,-44.166 -43.333,-8.75Z" style="fill:#0a2240;fill-rule:nonzero;"/><g><path d="M812.917,925.417c-11.667,-62.5 -21.25,-108.75 -28.75,-142.084c-5.834,-25.416 9.583,-15.416 17.916,0.834l10.834,141.25Z" style="fill:#ce0e2d;fill-rule:nonzero;"/><path d="M857.917,925.417c12.083,-62.5 21.25,-108.75 28.75,-142.084c5.833,-25.416 -9.584,-15.416 -17.917,0.834l-10.833,141.25Z" style="fill:#ce0e2d;fill-rule:nonzero;"/></g><g><path d="M794.167,714.167c-2.5,-0.834 -3.75,-2.917 -2.917,-5.417c0.417,-0.833 0.833,-1.667 1.667,-2.083c-1.667,-1.667 -3.334,-3.334 -5.417,-5c0,-0 -3.75,17.916 12.083,16.25c0,-0 -0.416,-1.667 -1.666,-3.75c-1.25,0.416 -2.5,0.416 -3.75,-0Z" style="fill:#ce0e2d;fill-rule:nonzero;"/><path d="M883.75,701.667c-2.083,1.666 -4.167,3.333 -5.417,5c0.834,0.416 1.25,1.25 1.667,2.083c0.833,2.5 -0.833,4.583 -2.917,5.417c-1.25,0.416 -2.5,-0 -3.333,-0.417c-1.25,2.083 -1.667,3.75 -1.667,3.75c15.417,2.083 11.667,-15.833 11.667,-15.833Z" style="fill:#ce0e2d;fill-rule:nonzero;"/></g><path d="M842.917,948.75c5,-96.25 12.916,-164.583 12.916,-173.333c0,-2.917 -0.416,-7.084 -1.666,-11.25l-5.417,18.333l-1.667,-32.5c-2.916,-3.75 -6.666,-7.083 -11.666,-10.833l-0.417,-0c-5,3.333 -8.333,7.083 -11.25,10.833l-1.667,32.5l-5.833,-18.333c-1.25,4.166 -1.667,8.333 -1.667,11.25c0,8.333 7.5,76.666 12.917,173.333c5,96.25 -6.667,114.167 -6.667,114.167c7.084,10 14.584,27.916 14.584,27.916c-0,0 7.5,-17.916 14.583,-27.916c0,-0 -12.083,-17.917 -7.083,-114.167Z" style="fill:#ce0e2d;fill-rule:nonzero;"/></g></g></g></g></g></g><path d="M1562.5,468.75l-0,729.167c-0,201.219 -163.364,364.583 -364.583,364.583l-729.167,0c-201.219,0 -364.583,-163.364 -364.583,-364.583l-0,-729.167c-0,-201.219 163.364,-364.583 364.583,-364.583l729.167,-0c201.219,-0 364.583,163.364 364.583,364.583Z" style="fill:none;stroke:#000;stroke-width:8.33px;"/></svg>