<?xml version="1.0" encoding="UTF-8" standalone="no"?><!DOCTYPE svg PUBLIC "-//W3C//DTD SVG 1.1//EN" "http://www.w3.org/Graphics/SVG/1.1/DTD/svg11.dtd"><svg width="100%" height="100%" viewBox="0 0 1667 1667" version="1.1" xmlns="http://www.w3.org/2000/svg" xmlns:xlink="http://www.w3.org/1999/xlink" xml:space="preserve" xmlns:serif="http://www.serif.com/" style="fill-rule:evenodd;clip-rule:evenodd;stroke-linecap:round;stroke-linejoin:round;stroke-miterlimit:1.5;"><path d="M1562.5,468.75l-0,729.167c-0,201.219 -163.364,364.583 -364.583,364.583l-729.167,0c-201.219,0 -364.583,-163.364 -364.583,-364.583l-0,-729.167c-0,-201.219 163.364,-364.583 364.583,-364.583l729.167,-0c201.219,-0 364.583,163.364 364.583,364.583Z" style="fill:#006bb6;"/><clipPath id="_clip1"><path d="M1562.5,468.75l-0,729.167c-0,201.219 -163.364,364.583 -364.583,364.583l-729.167,0c-201.219,0 -364.583,-163.364 -364.583,-364.583l-0,-729.167c-0,-201.219 163.364,-364.583 364.583,-364.583l729.167,-0c201.219,-0 364.583,163.364 364.583,364.583Z"/></clipPath><g clip-path="url(#_clip1)"><g><g><path d="M829.427,1503.58l-109.7,-142.253c-139.323,-45.898 -236.329,-171.875 -245.443,-318.685l-68.034,-88.216c-64.779,27.995 -129.232,71.94 -129.232,71.94l-203.776,-204.752l85.938,-188.477l-153.972,-199.219l244.466,0l47.201,-103.19l121.094,-48.828l13.346,-36.458l97.982,44.922l23.437,-81.381l15.951,-5.208c77.474,-25.716 166.992,-39.714 258.463,-40.365c2.605,0 31.576,0.326 32.553,0.326c3.255,-0 17.578,0.651 17.578,0.651c77.474,3.581 150.065,16.602 216.145,38.411l16.277,5.209l21.484,77.799l35.482,-26.692l198.242,70.638l47.851,104.492l245.769,-0l-155.274,200.521l84.636,185.546l-207.032,213.217c0,-0 -75.846,-55.339 -127.929,-75.847l-62.5,80.404c-7.162,150.065 -109.375,281.901 -252.93,325.846l-108.073,139.649Z" style="fill:#fff;fill-rule:nonzero;"/><g><g><path d="M829.427,1404.95l706.706,-910.807l-1408.2,-0l701.497,910.807Z" style="fill:#9ea2a2;fill-rule:nonzero;"/><path d="M69.661,465.495l759.766,986.328l764.974,-986.328l-1524.74,-0Zm1466.47,28.646l-706.38,910.807l-701.823,-910.807l1408.2,-0Z" style="fill:#1d428a;fill-rule:nonzero;"/></g></g></g><g><path d="M1433.92,557.617l-0.325,-0.651l-0.651,-0.325l-45.248,-30.274l16.927,-32.226l0.651,-0.977l-0.325,-0.976l-62.175,-136.394l-0.325,-0.976l-0.977,-0.326l-167.643,-59.57l-1.302,-0.326l-0.977,0.651l-44.596,33.855l-0.325,0.325l-0.326,0.651l-7.487,18.555c0,-0 -69.661,-17.578 -171.549,-27.669c-10.417,-0.977 -38.086,-3.256 -82.683,-6.836l-4.231,-0.326l-4.558,-0.325l-0.976,-0l-0.651,0.651l-33.203,32.877l-0,-33.854c-0,0 -94.076,5.208 -155.599,13.672c-61.524,8.463 -122.071,23.763 -122.071,23.763l-11.067,-23.763l-0.326,-0.651l-0.651,-0.326l-79.102,-36.132l-2.278,-0.977l-0.977,2.279l-9.44,24.739l-1.953,-4.883l-0.977,-1.953l-1.953,0.977l-113.281,45.573l-0.976,0.325l-0.326,0.977l-208.984,458.984l171.549,171.875l8.138,-4.557c5.208,-2.93 12.37,-7.162 20.833,-12.044c20.834,-12.37 49.154,-28.972 62.826,-35.482l2.604,-1.302c17.578,-8.464 26.367,-12.696 109.701,-48.503l6.836,-2.604c-0,0 9.44,-3.581 26.692,-9.44c45.899,-15.3 164.714,-50.456 279.948,-50.456l1.302,0c4.558,0 9.115,0 13.672,0.326c78.125,2.278 169.922,18.88 232.748,32.226c60.546,13.021 106.119,25.716 119.14,29.297l8.789,2.604c57.292,22.136 127.604,58.594 192.383,100.261l8.138,5.208l173.503,-178.711l-115.886,-256.836Z" style="fill:#1d428a;fill-rule:nonzero;"/><g><path d="M1415.37,573.568l-166.993,-111.328l-28.971,-81.381l51.758,18.23l20.833,50.781l78.451,25.065l-45.573,-101.237l-148.112,-52.734l-27.344,21.158l49.154,160.157l158.528,111.979l40.69,101.237l-66.08,-29.623l-22.787,-63.151l-81.054,-23.763l43.294,142.578c13.346,4.883 26.693,10.092 39.713,15.3c36.133,14.648 71.289,30.599 105.795,48.503c23.763,12.369 47.526,25.065 70.638,38.737l34.505,-35.482l-106.445,-235.026Z" style="fill:#f58426;fill-rule:nonzero;"/><path d="M290.039,649.089l55.664,-49.805l13.346,15.625l-55.013,157.877c29.948,-13.346 60.547,-25.39 91.472,-36.458l39.713,-130.208l-34.179,-56.641l70.963,-67.708l41.667,-138.347l-51.107,-23.112l-45.898,130.534l-73.568,63.477l67.057,-169.271l-71.94,28.646l-198.568,435.547l30.925,31.25c18.555,-10.742 37.109,-21.159 55.989,-30.925l63.477,-160.481Z" style="fill:#f58426;fill-rule:nonzero;"/><path d="M793.294,338.216l-60.872,3.255l-28.646,326.823c25.716,-2.604 52.083,-4.231 78.125,-4.883l11.393,-325.195Z" style="fill:#f58426;fill-rule:nonzero;"/><path d="M973.958,600.586l-70.638,-4.232l-11.393,-200.195l59.896,2.93l-7.162,-55.013l-80.403,-5.86l-36.133,36.133l0,250.325l37.76,38.737c39.063,1.303 77.8,4.232 115.886,8.79l-7.813,-71.615Z" style="fill:#f58426;fill-rule:nonzero;"/><path d="M573.242,467.122l25.391,124.349l-16.602,94.076c24.74,-4.883 49.479,-8.789 74.87,-12.044l39.714,-327.8l-56.641,8.138l-18.555,107.422l-21.159,-100.911l-66.406,16.601l-92.448,344.076c26.693,-8.464 53.711,-15.951 81.055,-22.461l50.781,-231.446Z" style="fill:#f58426;fill-rule:nonzero;"/><path d="M1064.78,582.357l19.856,-27.018l28.972,24.088l26.692,121.745c27.995,7.161 55.665,14.974 83.334,23.763l-49.805,-178.711l-51.432,-41.992l29.297,-39.063l-24.414,-90.82l-62.175,-13.672l24.414,91.471l-38.737,51.758l-28.646,-150.39l-57.617,-7.162c0,0 28.972,220.378 42.318,328.776c26.042,3.581 51.758,8.138 77.474,13.347l-19.531,-106.12Z" style="fill:#f58426;fill-rule:nonzero;"/><g><path d="M712.565,730.469c0,-0 24.089,-13.998 71.94,-19.206l-1.627,-37.76c-26.368,0.976 -52.409,2.604 -78.451,4.882c2.604,14.649 5.859,36.459 8.138,52.084Z" style="fill:#9ea2a2;fill-rule:nonzero;"/><path d="M864.909,708.659c19.531,2.279 40.364,8.789 58.594,13.672c16.601,3.906 34.505,11.067 49.153,17.578l8.138,-58.268c-38.411,-4.883 -74.87,-7.487 -114.258,-8.789c-0.651,11.718 -0.651,27.343 -1.627,35.807Z" style="fill:#9ea2a2;fill-rule:nonzero;"/><path d="M612.956,800.781c22.461,-16.601 35.807,-33.528 59.245,-47.851c-4.558,-21.159 -10.417,-48.503 -14.649,-69.336c-25.716,3.255 -50.781,7.487 -75.846,12.37c9.114,31.25 21.484,73.242 31.25,104.817Z" style="fill:#9ea2a2;fill-rule:nonzero;"/><path d="M992.188,751.953c21.809,12.695 38.736,26.693 58.268,45.899l3.906,2.929l30.599,-101.562c-26.367,-5.534 -52.083,-10.091 -79.102,-13.998l-13.671,66.732Z" style="fill:#9ea2a2;fill-rule:nonzero;"/><path d="M1088.87,839.844l73.242,17.252l61.524,-121.744c-28.32,-9.115 -55.664,-16.928 -84.636,-24.089l-50.13,128.581Z" style="fill:#9ea2a2;fill-rule:nonzero;"/><path d="M500.977,857.096c19.205,-7.161 45.572,-16.601 70.638,-23.437l-47.526,-125.326c-28.646,6.836 -53.711,14.323 -81.706,23.112c17.578,41.993 37.435,85.287 58.594,125.651Z" style="fill:#9ea2a2;fill-rule:nonzero;"/><path d="M390.625,902.344c4.232,-3.581 45.573,-21.485 74.219,-33.529c-21.485,-39.062 -47.526,-82.031 -69.336,-121.745c-30.925,11.068 -59.245,22.461 -89.193,35.808l84.31,119.466Z" style="fill:#9ea2a2;fill-rule:nonzero;"/><path d="M287.109,957.357c13.347,-7.813 27.344,-15.951 42.644,-25.065l-97.006,-114.258c-18.554,9.44 -36.783,19.531 -54.687,29.948l109.049,109.375Z" style="fill:#9ea2a2;fill-rule:nonzero;"/><path d="M1200.85,872.396c58.269,22.461 139.649,68.359 171.875,89.844c14.974,-14.323 96.029,-99.284 107.097,-111.003c-67.383,-39.388 -138.021,-73.242 -211.589,-100.26l-67.383,121.419Z" style="fill:#9ea2a2;fill-rule:nonzero;"/><path d="M853.841,706.706l-27.669,-0.977l-0.651,-67.383l28.971,29.948l-0.651,38.412Z" style="fill:#9ea2a2;fill-rule:nonzero;"/></g></g></g><g><path d="M832.357,693.359c-180.664,0 -327.149,146.485 -327.149,327.149c0,180.664 146.485,327.148 327.149,327.148c180.664,0 327.148,-146.484 327.148,-327.148c0,-180.664 -146.484,-327.149 -327.148,-327.149Z" style="fill:#1d428a;fill-rule:nonzero;"/><g><path d="M852.539,717.773c-25.065,8.789 -49.154,21.485 -73.242,32.553c-16.276,-9.766 -25.716,-12.37 -36.784,-19.532c34.505,-12.044 71.615,-13.997 110.026,-13.021Z" style="fill:#f58426;fill-rule:nonzero;"/><path d="M1086.91,856.771c-77.148,-77.8 -192.708,-71.94 -290.69,-99.61c-0,0 57.617,-27.343 87.565,-35.156c80.078,13.998 157.552,61.849 203.125,134.766Z" style="fill:#f58426;fill-rule:nonzero;"/><path d="M653.646,868.49c-73.893,113.606 -83.985,253.58 -25.065,376.302c-76.172,-64.128 -121.745,-187.826 -87.565,-308.269c27.994,-39.388 64.127,-73.893 112.63,-68.033Z" style="fill:#f58426;fill-rule:nonzero;"/><path d="M732.747,949.219c40.039,118.815 48.829,250 152.019,369.466c-80.404,16.276 -160.482,-7.813 -223.959,-48.177c-78.776,-114.909 -71.289,-286.784 7.487,-398.112c38.412,11.393 59.245,61.523 64.453,76.823Z" style="fill:#f58426;fill-rule:nonzero;"/><path d="M677.409,860.026c12.044,-16.927 25.39,-32.878 40.69,-47.852c167.643,47.201 327.474,221.029 354.818,391.928c-8.138,13.02 -27.019,30.924 -40.039,43.619c-41.667,37.435 -87.565,56.966 -131.511,67.383c-78.125,-81.055 -104.166,-186.523 -131.51,-290.364c-21.159,-79.753 -35.808,-139.974 -92.123,-164.388l-0.325,-0.326Z" style="fill:#f58426;fill-rule:nonzero;"/><path d="M1069.01,859.375c-81.054,-71.289 -193.684,-62.174 -288.411,-95.703c-18.229,11.068 -36.133,24.414 -51.432,38.086c167.643,52.409 319.661,216.471 355.794,385.742c26.367,-38.086 41.992,-82.031 48.503,-128.906c4.231,-71.615 3.58,-137.045 -64.454,-199.219Z" style="fill:#f58426;fill-rule:nonzero;"/><path d="M704.427,806.966c-16.276,15.625 -28.32,30.925 -41.016,48.828l-0.325,0c-44.271,-10.091 -79.427,13.021 -107.422,41.667c13.346,-33.854 41.667,-73.893 71.289,-100.26c27.344,0.976 47.201,0.651 77.474,9.765" style="fill:#f58426;fill-rule:nonzero;"/><path d="M716.146,796.549c15.95,-13.997 31.25,-26.367 50.13,-37.76l-42.969,-21.159c-28.646,11.719 -59.244,27.018 -80.403,46.224c32.877,3.581 46.875,5.534 73.242,12.695Z" style="fill:#f58426;fill-rule:nonzero;"/></g></g><g><path d="M786.133,292.318l-13.347,13.021l-22.786,1.302l-8.464,-7.487l-10.742,9.114l-24.739,2.279l-10.742,-10.417l14.322,-96.679l18.555,-2.605l-10.091,85.287l13.346,-1.628l10.417,-85.612l18.555,-1.627l-7.813,84.961l13.021,-1.303l6.836,-84.635c7.812,-0.976 12.044,-0.651 18.88,-1.302l-5.208,97.331Z" style="fill:#1d428a;fill-rule:nonzero;"/><path d="M846.68,194.661l0.325,60.873l12.044,-0l-0.651,-60.547c0,-0 12.37,0.326 18.23,0.977l2.278,68.359l-11.393,11.393l-3.906,0.326l0.651,29.297l-20.182,-0.652l-0.326,-29.296l-3.906,-0.326l-12.37,-12.695l0.651,-67.709c6.185,-0.325 18.555,0 18.555,0Z" style="fill:#1d428a;fill-rule:nonzero;"/><path d="M696.289,206.055l-3.255,19.856l-22.461,4.232l-4.232,23.438c8.138,-1.628 13.347,-2.279 23.112,-3.581c-1.302,8.789 -1.627,11.719 -3.255,19.857l-22.787,3.255l-4.231,22.461l23.112,-3.255c-0,-0 -2.279,14.974 -3.581,21.81c-16.276,1.953 -32.552,4.231 -48.177,7.161c-0,0 17.578,-81.055 21.81,-106.12l43.945,-9.114Z" style="fill:#1d428a;fill-rule:nonzero;"/><path d="M611.003,324.544l-23.438,4.558l10.742,-44.271l-7.161,-15.951l-18.555,63.477l-23.112,5.208c9.44,-34.505 19.531,-69.01 28.972,-103.19c7.812,-2.604 13.671,-4.557 20.833,-6.51c2.604,5.859 8.789,17.578 8.789,17.578l5.534,-21.485c-0,0 14.648,-3.906 21.81,-5.534l-24.414,106.12Z" style="fill:#1d428a;fill-rule:nonzero;"/><path d="M942.383,213.542c2.278,27.669 6.836,54.362 9.765,80.078l-10.416,15.625l-33.203,-2.279l-12.045,-13.021c-2.278,-28.32 -3.58,-56.64 -5.208,-84.961c2.93,-3.906 7.813,-7.161 11.393,-11.067l27.67,2.604l12.044,13.021Zm-31.25,4.557l5.859,66.081l11.719,0.976l-6.185,-65.755l-11.393,-1.302Z" style="fill:#1d428a;fill-rule:nonzero;"/><path d="M1049.81,223.307c4.231,15.951 12.369,48.503 12.369,48.503l7.813,1.627l3.906,-5.208l-9.765,-40.69c-0,0 9.765,2.604 20.182,5.859l10.417,39.388l-4.883,7.162l9.114,10.091l13.672,47.852l-22.786,-5.209l-8.789,-33.528l-14.323,-3.256l7.812,33.529l-23.112,-4.557c-8.138,-36.133 -22.786,-107.097 -22.786,-107.097c-0,0 12.044,2.605 21.159,5.534Z" style="fill:#1d428a;fill-rule:nonzero;"/><path d="M1014,227.214l7.487,39.388l-4.557,6.184l7.813,9.115l6.836,39.388l-22.136,-3.906l-6.185,-32.552l-13.346,-1.628l4.557,31.901l-22.135,-2.93l-14.649,-108.398l42.318,7.487l13.997,15.951Zm-32.226,1.302l3.906,27.669l12.37,1.302l-5.208,-27.018l-11.068,-1.953Z" style="fill:#1d428a;fill-rule:nonzero;"/></g></g></g><path d="M1562.5,468.75l-0,729.167c-0,201.219 -163.364,364.583 -364.583,364.583l-729.167,0c-201.219,0 -364.583,-163.364 -364.583,-364.583l-0,-729.167c-0,-201.219 163.364,-364.583 364.583,-364.583l729.167,-0c201.219,-0 364.583,163.364 364.583,364.583Z" style="fill:none;stroke:#000;stroke-width:8.33px;"/></svg>