<?xml version="1.0" encoding="UTF-8" standalone="no"?><!DOCTYPE svg PUBLIC "-//W3C//DTD SVG 1.1//EN" "http://www.w3.org/Graphics/SVG/1.1/DTD/svg11.dtd"><svg width="100%" height="100%" viewBox="0 0 1667 1667" version="1.1" xmlns="http://www.w3.org/2000/svg" xmlns:xlink="http://www.w3.org/1999/xlink" xml:space="preserve" xmlns:serif="http://www.serif.com/" style="fill-rule:evenodd;clip-rule:evenodd;stroke-linecap:round;stroke-linejoin:round;stroke-miterlimit:1.5;"><path d="M1562.5,468.75l-0,729.167c-0,201.219 -163.364,364.583 -364.583,364.583l-729.167,0c-201.219,0 -364.583,-163.364 -364.583,-364.583l-0,-729.167c-0,-201.219 163.364,-364.583 364.583,-364.583l729.167,-0c201.219,-0 364.583,163.364 364.583,364.583Z" style="fill:#ef3b24;"/><clipPath id="_clip1"><path d="M1562.5,468.75l-0,729.167c-0,201.219 -163.364,364.583 -364.583,364.583l-729.167,0c-201.219,0 -364.583,-163.364 -364.583,-364.583l-0,-729.167c-0,-201.219 163.364,-364.583 364.583,-364.583l729.167,-0c201.219,-0 364.583,163.364 364.583,364.583Z"/></clipPath><g clip-path="url(#_clip1)"><g id="Layer_2_1_"><path d="M1315.83,745.833c115.834,-25.833 229.167,-42.916 338.334,-51.666c-121.25,37.083 -244.584,78.333 -370,123.75c11.25,-23.334 21.666,-47.5 31.666,-72.084m-1222.92,610.834c96.666,-85.417 205.833,-167.084 325.416,-241.667c22.5,-11.25 45,-22.5 67.5,-33.75c9.167,-4.583 27.5,-13.333 50.417,-24.583c15.417,17.083 31.25,34.166 47.917,50.416c-171.667,80 -335.834,163.75 -491.25,249.584" style="fill:#057dc1;fill-rule:nonzero;"/><path d="M1363.75,602.917c100,-4.167 197.083,-2.5 290.417,4.583c-100.417,14.167 -202.917,30.833 -306.667,49.583c5.417,-17.5 10.833,-35.416 16.25,-54.166m-1355.42,415c112.084,-71.25 236.667,-136.25 370.834,-192.917c4.583,9.167 9.166,17.917 13.75,26.667c-7.084,14.583 -14.584,29.583 -21.667,44.166c-124.583,39.167 -245.833,79.584 -362.917,122.084" style="fill:#ee3c33;fill-rule:nonzero;"/><path d="M729.167,965.417l16.25,-7.5l42.083,-33.75l9.167,-25.834c6.25,12.084 9.166,17.084 15.416,29.584l13.75,-6.25c0.417,13.333 0.834,26.25 0.834,38.75c-30.417,7.083 -62.917,10.833 -96.667,11.25l-0.833,-6.25Zm120.833,-54.584c17.5,-7.5 35,-15.416 52.083,-22.916l8.334,-8.334c3.333,0.417 7.5,0.834 11.666,0.417c6.667,-1.25 15,-3.333 24.167,-6.667c-5.833,21.25 -9.583,39.584 -10.833,55.834c-24.584,8.75 -52.5,17.083 -84.167,25c-0.417,-13.75 -0.833,-28.334 -1.25,-43.334m-18.75,-467.5c189.167,0 337.917,44.167 505.417,127.917c-82.084,309.167 -232.084,516.667 -505.417,685c-102.5,-63.333 -190,-134.167 -262.917,-215c32.5,-15.417 69.167,-32.917 101.25,-47.917c12.917,1.25 25.417,1.667 37.084,2.084c-0.834,17.916 -6.25,30.833 -15.417,40.416c5.417,5.834 10.417,12.084 15.833,17.917c14.167,-12.5 23.334,-31.25 24.167,-57.917c33.333,-0.416 65.417,-3.75 95,-10.416c-1.667,48.75 -8.333,84.583 -22.5,98.75c-0.417,0.416 -0.833,0.833 -0.833,1.25c-3.334,3.75 -6.667,6.666 -9.167,9.166c13.333,-2.5 26.667,-5.416 39.583,-9.166c16.667,-34.584 17.084,-95 17.084,-105.834c30.833,-7.916 58.75,-15.833 83.333,-24.166c0.833,28.333 12.5,55.416 34.167,65.416c9.583,-7.083 19.166,-14.166 28.333,-21.666c-5.417,0.833 -40,3.333 -39.167,-52.084c72.917,-27.5 120,-60.416 161.667,-110c10.833,-25 20,-50.833 26.25,-77.916c-50,78.75 -95.833,124.583 -185.417,160.416c2.5,-15.833 7.084,-35 14.584,-57.5c26.25,-10.833 53.333,-24.166 70,-30.833l39.166,-41.25c10,-37.917 19.584,-76.25 29.584,-114.167l-30.834,9.584l36.25,-37.917c7.5,-30 15,-59.583 22.5,-89.583c-17.916,2.5 -36.25,5.416 -54.166,8.333c2.916,-15 5,-29.583 6.25,-44.583c-8.75,-2.084 -17.5,-4.167 -26.25,-6.25c-1.667,16.666 -5,35 -10,55.416l-2.5,0.417c-17.084,2.917 -34.167,8.333 -49.167,21.25l5,-14.583c-29.167,5.416 -57.917,10.416 -87.083,16.25l-28.75,30.416l0.833,-2.5l9.167,-24.166c-28.75,5.833 -57.084,12.083 -85.834,18.333c-5.833,-38.75 -12.083,-73.333 -17.083,-101.667c-7.917,0.834 -16.25,2.084 -24.167,3.334c5.417,28.75 11.25,64.166 17.5,103.75l-20.416,4.583l-25.834,27.083c-17.916,-19.166 -54.583,-7.083 -77.916,-1.25c-25,6.25 -50,12.917 -75,19.584c-7.5,2.083 -15,4.166 -22.084,6.666c-18.75,-27.083 -36.25,-55 -50.833,-84.583l-2.5,-5.417c-7.5,2.917 -15,6.25 -22.5,9.584l3.333,6.666c14.167,29.167 31.25,56.667 49.584,83.334c-27.084,12.083 -51.667,28.75 -73.334,52.5c0,-0 -35,36.666 -39.166,41.25c-9.167,10.416 -17.084,21.666 -23.75,32.916c-36.667,-74.166 -65.834,-154.583 -87.917,-242.916c167.083,-84.167 315.833,-128.334 505,-128.334" style="fill:#fff;fill-rule:nonzero;"/><path d="M729.167,965.417l16.25,-7.5l42.083,-33.75l9.167,-25.834c6.25,12.5 9.166,17.084 15.416,29.584l13.75,-6.25c0.417,13.333 0.834,26.25 0.834,38.75c-30.417,7.083 -62.917,10.833 -96.667,11.25l-0.833,-6.25Zm120.833,-54.584c17.5,-7.5 35,-15.416 52.083,-22.916l8.334,-8.334c3.333,0.417 7.5,0.834 11.666,0.417c6.667,-1.25 15,-3.333 24.167,-6.667c-5.833,21.25 -9.583,39.584 -10.833,55.834c-24.584,8.75 -52.5,17.083 -84.167,25c-0.417,-13.75 -0.833,-28.334 -1.25,-43.334m-330,-322.916c83.333,-34.167 168.75,-57.917 257.083,-70.417c5.417,28.75 11.25,64.167 17.5,103.75l-20.416,4.583l-25.834,27.084c-17.916,-19.167 -54.583,-7.084 -77.916,-1.25c-25,6.25 -50,12.916 -75,19.583c-7.5,2.083 -15,4.167 -22.084,6.667c-18.75,-27.084 -36.25,-55 -50.833,-84.584l-2.5,-5.416Zm-20.833,130.416c-13.75,-34.166 -25.417,-69.583 -35.834,-105.416c11.25,-5.417 22.5,-10.417 34.167,-15.417l3.333,6.667c14.167,29.166 31.25,56.666 49.584,83.333c-18.334,7.917 -35.417,17.917 -51.25,30.833m192.083,317.084c-10.833,-12.5 -21.25,-25 -31.25,-37.917l9.583,-4.583c12.917,1.25 25.417,1.666 37.084,2.083c-0.834,18.333 -6.25,31.25 -15.417,40.417m102.5,58.75c-13.75,2.5 -27.5,4.583 -41.667,5.833c-15.416,-15 -30.416,-30.417 -45,-46.667c14.167,-12.5 23.334,-31.25 24.167,-57.916c33.333,-0.417 65.417,-3.75 95,-10.417c-1.667,48.75 -8.333,84.583 -22.5,98.75c-0.417,0.417 -0.833,0.833 -0.833,1.25c-3.334,3.75 -6.25,7.083 -9.167,9.167m174.167,-73.334c-40.417,28.334 -85.834,50.417 -134.584,64.167c16.667,-34.583 17.084,-95 17.084,-105.833c30.833,-7.917 58.75,-15.834 83.333,-24.167c1.25,28.75 12.5,55.833 34.167,65.833m150.833,-183.75c-27.917,62.917 -70,118.334 -122.5,162.084c-5.417,0.833 -40,3.333 -39.167,-52.084c72.917,-27.5 120,-60.416 161.667,-110m-185.417,-330.833c40,0 79.584,2.083 118.334,6.25c29.583,6.25 58.75,13.75 87.916,22.5c11.25,38.75 17.084,80 17.084,122.083c-0,35 -4.167,69.167 -11.667,101.667c-50,78.75 -95.833,124.583 -185.417,160.417c2.5,-15.834 7.084,-35 14.584,-57.5c26.25,-10.834 53.333,-24.167 70,-30.834l39.166,-41.25c10,-37.916 19.584,-76.25 29.584,-114.166l-30.834,9.583l36.25,-37.917c7.5,-30 15,-59.583 22.5,-89.583c-17.916,2.5 -36.25,5.417 -54.166,8.333c2.916,-15 5,-29.583 6.25,-44.583c-8.75,-2.083 -17.5,-4.167 -26.25,-6.25c-1.667,16.667 -5,35 -10,55.417l-2.5,0.416c-17.084,2.917 -34.167,8.334 -49.167,21.25l5,-14.583c-29.167,5.417 -57.917,10.417 -87.083,16.25l-28.75,30.417l0.833,-2.5l9.167,-24.167c-28.75,5.833 -57.084,12.083 -85.834,18.333c-5.833,-38.75 -12.083,-73.333 -17.083,-101.666c42.917,-5 87.083,-7.917 132.083,-7.917" style="fill:#ee3c33;fill-rule:nonzero;"/><path d="M460.417,756.667c-23.75,-51.25 -43.334,-105 -59.167,-160.417c140.417,-66.25 285.417,-102.083 439.583,-106.25c72.084,0.833 142.084,8.333 210.417,22.5c-38.75,-4.167 -78.333,-6.25 -118.333,-6.25c-45,0 -88.75,2.5 -132.5,7.917c-7.917,0.833 -16.25,2.083 -24.167,3.333c-88.333,12.5 -173.333,36.25 -257.083,70.417c-7.5,2.916 -15,6.25 -22.5,9.583c-11.25,5 -22.917,10 -34.167,15.417c10.417,35.833 22.083,71.25 35.833,105.416c-7.916,6.25 -15.416,13.334 -22.5,21.25l-15.416,17.084Zm379.166,448.333c-80.416,-54.583 -152.083,-118.75 -214.166,-190.417l34.583,-16.25c10,12.917 20.833,25.417 31.25,37.917c5,5.833 10.417,12.083 15.833,17.917c45.834,50.416 96.667,96.666 152.084,137.916c-6.25,3.75 -12.917,8.334 -19.584,12.917" style="fill:#f9b82f;fill-rule:nonzero;"/><path d="M729.167,965.417l0.833,5.833c33.75,-0.417 66.25,-4.167 96.667,-11.25c-0,-12.5 -0.417,-25.417 -0.834,-38.75l-13.75,6.25c-5.833,-12.5 -9.166,-17.083 -15.416,-29.583l-9.167,25.833l-42.083,33.75l-16.25,7.917Zm120.833,-54.584c0.417,15 0.833,29.167 0.833,42.917c31.667,-7.917 59.584,-16.25 84.167,-25c1.667,-16.25 5,-34.583 10.833,-55.833c-9.166,2.916 -17.5,5.416 -24.166,6.666c-4.584,0.417 -8.334,0.417 -11.667,-0.416l-8.333,8.333c-17.084,8.333 -34.584,15.833 -51.667,23.333m-18.75,-467.5c-189.583,0 -337.917,44.167 -505.417,127.917c21.667,88.333 50.834,168.75 87.917,242.917c7.083,-11.25 14.583,-22.5 23.75,-32.917c4.167,-4.583 39.167,-41.25 39.167,-41.25c21.666,-23.75 46.25,-40.417 73.333,-52.5c-18.333,-26.667 -35.417,-53.75 -49.583,-83.333l-3.334,-6.667c7.5,-3.333 15,-6.25 22.5,-9.583l2.5,5.416c14.584,30 32.084,57.917 50.834,84.584c7.083,-2.5 14.583,-4.584 22.083,-6.667c25,-6.667 50,-13.333 75,-19.583c22.917,-5.834 59.583,-17.917 77.917,1.25l25.833,-27.084l20.417,-4.583c-6.25,-39.583 -12.084,-75.417 -17.5,-103.75c7.916,-1.25 16.25,-2.083 24.166,-3.333c5.417,28.333 11.25,63.333 17.084,101.666c28.75,-6.25 57.083,-12.083 85.833,-18.333l-9.167,24.167l-0.833,2.5l28.75,-30.417c28.75,-5.417 57.917,-10.833 87.083,-16.25l-5,14.583c15,-12.5 32.5,-18.333 49.167,-21.25l2.5,-0.416c5,-20.417 8.333,-38.75 10,-55.417c8.75,2.083 17.5,4.167 26.25,6.25c-1.25,14.583 -3.333,29.583 -6.25,44.583c17.917,-2.916 36.25,-5.416 54.167,-8.333c-7.5,30 -15,59.583 -22.5,89.583l-36.25,37.917l30.833,-9.583c-9.583,37.916 -19.583,76.25 -29.583,114.166l-39.167,41.25c-16.25,6.667 -43.75,20 -70,30.834c-7.5,22.5 -12.083,41.666 -14.583,57.5c89.583,-35.834 135.416,-82.084 185.416,-160.417c-6.25,27.083 -15,52.917 -26.25,77.917c-41.666,49.166 -89.166,82.5 -161.666,110c-0.417,55.416 33.75,52.916 39.166,52.083c-9.166,7.5 -18.75,15 -28.333,21.667c-21.667,-10 -32.917,-37.084 -34.167,-65.417c-25,8.333 -52.5,16.25 -83.333,24.167c-0.417,10.416 -0.417,71.25 -17.083,105.833c-12.917,3.75 -26.25,6.667 -39.584,9.167c2.5,-2.5 5.834,-5.417 9.167,-9.167c0.417,-0.417 0.417,-0.833 0.833,-1.25c13.75,-14.167 20.834,-50 22.5,-98.75c-29.583,6.25 -61.666,9.583 -95,10.417c-0.833,26.666 -10,45.416 -24.166,57.916c-5.417,-5.833 -10.834,-11.666 -15.834,-17.916c9.167,-9.167 14.584,-22.5 15.417,-40.417c-11.667,-0.417 -24.167,-0.833 -37.083,-2.083c-32.084,15 -68.75,32.5 -101.25,47.916c72.916,80.834 160,151.25 262.916,215c273.75,-168.333 423.75,-375.833 505.834,-685c-167.5,-83.333 -316.25,-127.5 -505.417,-127.5m-545.833,109.167c181.25,-93.333 340.416,-144.167 545.833,-144.167c205.417,0 364.583,50.834 545.833,144.167c-84.166,339.167 -245,563.75 -545.833,744.167c-113.333,-67.917 -212.5,-147.5 -295,-240c-22.917,10.833 -41.25,20 -50.417,24.583c-28.333,14.167 -56.666,28.333 -85,42.917c-31.666,16.25 -67.083,40.833 -104.166,31.25c-40,-17.5 -13.75,-66.25 -1.25,-94.167c31.25,-70.417 63.75,-140 97.916,-209.167c-40.833,-76.666 -72.916,-160 -95.416,-250l-12.5,-49.583Z" style="fill:#1e3160;fill-rule:nonzero;"/><path d="M1055.42,586.25c-17.5,2.917 -32.917,8.333 -46.25,21.667c-10.834,11.666 -16.25,25 -20.834,39.583c-13.75,43.333 -27.916,87.083 -41.666,130.417c-5.417,17.083 -14.167,48.333 13.333,46.25c9.583,-1.667 18.333,-5.417 27.083,-9.167c27.917,-11.667 55.834,-23.75 83.75,-35c7.084,-27.5 14.167,-54.583 21.25,-82.083c-14.583,4.583 -29.583,9.166 -44.166,14.166c-3.334,12.5 -7.084,24.584 -10.417,37.084c-10.417,3.75 -20.417,7.5 -30.833,11.25c12.916,-44.167 25.833,-88.334 38.75,-132.5c9.166,-2.084 17.916,-3.75 27.083,-5.834c-2.083,7.917 -4.167,15.417 -6.25,23.334c13.333,-3.334 26.25,-6.25 39.583,-9.167c5,-20 10,-40 15,-59.583c-21.666,2.5 -43.333,5.833 -65.416,9.583m-125,21.25c-31.25,40.833 -62.084,82.083 -92.5,123.333c14.166,-37.916 28.75,-75.833 43.333,-113.333c-32.5,6.667 -64.583,13.75 -96.667,20.833c-8.333,19.584 -16.666,39.167 -25,58.334c7.084,-2.084 13.75,-3.75 20.834,-5.834c-25.417,61.25 -50,122.917 -74.167,184.584c-10,25 -20,50 -29.583,75.416c32.5,-15.416 64.583,-30.416 97.083,-45.416c14.583,-40.417 29.583,-81.25 44.583,-121.667c13.75,27.5 27.5,55.417 40.834,82.917c20.833,-9.167 42.083,-18.334 62.916,-27.5c-12.916,-29.167 -25.833,-58.334 -38.75,-87.084c23.334,-35.416 46.667,-70.416 70.417,-105.416c6.667,-1.667 13.333,-3.334 20,-4.584c5,-15 10,-30.416 15,-45.416c-20,3.75 -39.167,7.083 -58.333,10.833m-385.834,338.333c-22.5,10 -45,20 -67.5,30.417c32.5,-75.417 66.25,-150.417 101.667,-225c19.583,-6.25 39.583,-12.5 59.583,-18.333c-32.5,70.416 -63.333,141.666 -93.75,212.916m54.167,-260c-42.5,11.667 -80.833,30 -111.25,63.334c-17.5,20 -30,42.916 -41.667,66.666c-34.166,69.167 -66.666,139.167 -97.916,209.584c-8.334,18.333 -33.334,62.916 -6.667,74.583c29.583,7.5 66.25,-17.083 92.5,-30.417c28.333,-14.583 56.667,-28.75 85,-42.916c48.333,-24.167 92.083,-53.334 121.25,-100c11.667,-20 20.417,-40.834 29.167,-62.084c18.333,-45.416 37.5,-91.25 56.666,-136.25c7.084,-17.083 19.584,-38.333 15.834,-57.083c-7.917,-25 -50,-9.583 -68.334,-5c-25,6.25 -50,12.5 -74.583,19.583" style="fill:#fff;fill-rule:nonzero;"/><path d="M1175.42,548.75c12.5,4.167 25,8.75 37.5,13.333c-12.5,-5 -25,-9.166 -37.5,-13.333m-2.084,-2.917c13.334,4.167 25.834,8.75 37.917,13.334c31.25,11.666 58.75,23.333 81.25,34.166c-70,240.834 -213.75,442.917 -416.667,586.667l-16.666,11.25c-59.584,-44.583 -94.584,-79.583 -94.584,-79.583l27.917,-4.584c85,-14.166 166.667,-52.5 234.167,-115.416c115,-107.5 162.083,-260.834 138.333,-405.417c-0.417,-3.333 -1.25,-6.667 -1.667,-10l-0.416,-1.25l-3.334,-13.333l-0.416,-1.25l-0.834,-3.334l-1.25,-3.75c-1.25,-5 -2.5,-9.583 -3.75,-13.75c7.5,2.084 13.75,4.167 20,6.25" style="fill:#057dc1;fill-rule:nonzero;"/></g></g><path d="M1562.5,468.75l-0,729.167c-0,201.219 -163.364,364.583 -364.583,364.583l-729.167,0c-201.219,0 -364.583,-163.364 -364.583,-364.583l-0,-729.167c-0,-201.219 163.364,-364.583 364.583,-364.583l729.167,-0c201.219,-0 364.583,163.364 364.583,364.583Z" style="fill:none;stroke:#000;stroke-width:8.33px;"/></svg>