<?xml version="1.0" encoding="UTF-8" standalone="no"?><!DOCTYPE svg PUBLIC "-//W3C//DTD SVG 1.1//EN" "http://www.w3.org/Graphics/SVG/1.1/DTD/svg11.dtd"><svg width="100%" height="100%" viewBox="0 0 1667 1667" version="1.1" xmlns="http://www.w3.org/2000/svg" xmlns:xlink="http://www.w3.org/1999/xlink" xml:space="preserve" xmlns:serif="http://www.serif.com/" style="fill-rule:evenodd;clip-rule:evenodd;stroke-linecap:round;stroke-linejoin:round;stroke-miterlimit:1.5;"><path d="M1562.5,468.75l-0,729.167c-0,201.219 -163.364,364.583 -364.583,364.583l-729.167,0c-201.219,0 -364.583,-163.364 -364.583,-364.583l-0,-729.167c-0,-201.219 163.364,-364.583 364.583,-364.583l729.167,-0c201.219,-0 364.583,163.364 364.583,364.583Z" style="fill:#c4ced4;"/><clipPath id="_clip1"><path d="M1562.5,468.75l-0,729.167c-0,201.219 -163.364,364.583 -364.583,364.583l-729.167,0c-201.219,0 -364.583,-163.364 -364.583,-364.583l-0,-729.167c-0,-201.219 163.364,-364.583 364.583,-364.583l729.167,-0c201.219,-0 364.583,163.364 364.583,364.583Z"/></clipPath><g clip-path="url(#_clip1)"><g id="Layer_2_1_"><path d="M621.25,785c120,-18.333 240,-12.917 345,31.25l12.5,-28.333c-169.583,-54.584 -383.333,-51.667 -542.5,35.416l45.417,-105.416c-199.584,54.166 -334.167,166.666 -469.167,282.916c98.75,-232.916 312.917,-424.166 555,-493.75l-12.083,38.75c212.5,-69.166 445.416,-82.5 633.75,-51.25l-44.167,-57.083l108.333,27.5l69.584,-104.167l27.5,128.334l106.666,34.583c0,-0 -77.5,32.5 -73.75,34.167c402.917,165.833 273.75,717.5 -109.166,720.416c-193.75,1.667 -344.167,-173.75 -337.917,-356.666c-98.75,-65 -197.5,-96.25 -315,-136.667" style="fill:#c2ccd2;fill-rule:nonzero;"/><path d="M1343.33,557.917c22.5,-9.584 63.75,-27.917 63.75,-27.917l2.917,-1.25l-3.333,-0.833c-0,-0 -66.667,-22.084 -80.834,-26.667c-2.083,-15 -12.5,-87.5 -12.5,-87.5l-0.416,-3.333l-24.584,39.583c0,0 -13.75,22.5 -21.666,34.583c-15.834,-4.166 -84.584,-21.666 -84.584,-21.666l-3.333,-1.25l2.083,2.916c0,0 27.917,36.25 45,58.334c-69.166,-15 -149.166,-23.75 -240.833,-23.75c-30,-0 -61.667,0.833 -93.75,2.916c-124.583,7.084 -247.5,30.417 -365.417,72.917l13.334,-40l-2.5,0.833c-184.167,57.5 -385.834,230.834 -475.417,401.25l2.083,1.667c125.834,-118.333 296.667,-212.917 449.584,-247.083l-40,93.333l2.916,-1.667c71.25,-34.583 164.584,-49.583 259.167,-49.583c96.667,0 193.75,15.833 269.167,43.333l-28.75,62.917c-68.75,-31.667 -167.5,-52.5 -250,-52.5c-14.584,0 -28.75,0.833 -42.084,2.083l-0.416,2.5c97.5,27.5 197.916,58.75 277.5,122.5c-0.417,6.667 -0.834,13.334 -0.834,20.417c0,168.333 145.417,320.417 315.834,320.417l3.333,-0c187.917,-2.084 327.083,-174.584 327.083,-354.167c0,-131.667 -75.833,-268.333 -262.5,-343.333" style="fill-rule:nonzero;"/><path d="M1240.42,866.25c-69.584,0 -139.167,-25.417 -208.334,-50.833c-18.333,38.75 -27.916,79.583 -27.916,120.833c-0,22.083 2.5,44.167 7.916,66.667l17.084,-0c134.583,-0 277.5,-37.5 392.916,-105.834c-13.333,-25 -30,-47.916 -46.666,-70c-45,28.334 -90,39.167 -135,39.167" style="fill:#c2ccd2;fill-rule:nonzero;"/><path d="M1024.58,1029.58l-4.583,0c42.083,108.75 138.75,181.25 256.667,182.917c37.5,-92.5 79.583,-194.167 175.416,-241.667c-5,-16.666 -10.833,-32.916 -17.5,-48.75c-123.75,71.25 -267.5,107.5 -410,107.5" style="fill:#c2ccd2;fill-rule:nonzero;"/><path d="M1315.83,687.917c-41.666,-15.834 -68.75,-21.25 -71.25,-21.667c-11.666,1.667 -27.916,3.333 -40.416,5.833c71.25,28.334 123.75,62.917 176.666,121.667c27.084,-21.667 50.834,-45.833 67.5,-75.417c-48.333,-47.083 -139.583,-105 -367.083,-122.5c95.833,22.917 184.167,53.334 235.417,90l-0.834,2.084Z" style="fill:#c2ccd2;fill-rule:nonzero;"/><path d="M678.333,656.25c13.75,-0.417 29.584,-0.417 45.417,-0.417c161.25,0 410.833,18.75 507.5,133.75l-1.667,2.084c-33.333,-18.334 -100.416,-49.584 -142.083,-49.167l-3.75,0c-14.167,15.833 -27.083,33.333 -38.333,51.25c64.583,24.167 130,47.5 195,47.5c40.833,0 81.25,-9.167 121.25,-33.75c-112.084,-122.083 -301.667,-175.417 -480.417,-175.417c-71.25,-0.416 -140.833,7.917 -202.917,24.167" style="fill:#c2ccd2;fill-rule:nonzero;"/><path d="M1442.5,884.583c31.25,-21.25 58.333,-43.333 82.5,-72.083c-15.417,-29.583 -42.083,-62.5 -61.25,-79.167c-17.5,31.667 -40.417,57.084 -68.333,80c16.666,21.667 34.166,47.084 47.083,71.25" style="fill:#c2ccd2;fill-rule:nonzero;"/><path d="M1304.17,1210.83c56.666,-6.666 109.166,-26.25 152.916,-63.75c6.667,-25.416 9.584,-50.833 9.584,-77.083c-0,-25 -2.5,-49.583 -7.084,-74.167c-85.833,41.25 -121.666,131.667 -155.416,215" style="fill:#c2ccd2;fill-rule:nonzero;"/><path d="M1491.67,1087.08c-0,8.334 -0.417,17.084 -0.417,25.834c33.333,-45 50.833,-84.167 61.25,-141.667c-24.583,2.083 -48.333,6.25 -71.25,13.75c7.083,33.75 10.417,67.5 10.417,102.083" style="fill:#c2ccd2;fill-rule:nonzero;"/><path d="M1454.17,908.333c7.5,17.084 14.166,34.584 20,52.5c26.666,-8.75 52.5,-12.916 80.416,-14.583l0,-5.833c0,-36.667 -5.416,-65.417 -17.083,-100.417c-25.833,25.833 -52.917,47.917 -83.333,68.333" style="fill:#c2ccd2;fill-rule:nonzero;"/><path d="M1554.58,945.833c-27.916,1.667 -53.333,6.25 -80.416,14.584c-5.834,-17.5 -12.5,-35.417 -20,-52.5c30.416,-20.417 57.083,-42.5 82.916,-68.75c11.667,35.416 17.084,63.75 17.084,100.416c0.416,2.5 0.416,4.167 0.416,6.25" style="fill:#c2ccd2;fill-rule:nonzero;"/><path d="M1554.58,945.833c-27.916,1.667 -53.333,6.25 -80.416,14.584c-5.834,-17.5 -12.5,-35.417 -20,-52.5c30.416,-20.417 57.083,-42.5 82.916,-68.75c11.667,35.416 17.084,63.75 17.084,100.416c0.416,2.5 0.416,4.167 0.416,6.25" style="fill:#c2ccd2;fill-rule:nonzero;"/><path d="M1464.17,733.333c18.75,16.667 45.833,49.584 61.25,79.167c-24.584,28.75 -51.25,50.833 -82.5,72.083c-12.917,-24.166 -30.417,-49.166 -46.667,-71.25c27.5,-22.916 50,-48.333 67.917,-80" style="fill:#c2ccd2;fill-rule:nonzero;"/><path d="M1464.17,733.333c18.75,16.667 45.833,49.584 61.25,79.167c-24.584,28.75 -51.25,50.833 -82.5,72.083c-12.917,-24.166 -30.417,-49.166 -46.667,-71.25c27.5,-22.916 50,-48.333 67.917,-80" style="fill:#c2ccd2;fill-rule:nonzero;"/><path d="M1081.25,595c227.5,17.5 318.333,75.417 367.083,122.5c-16.25,30 -40.416,53.75 -67.5,75.417c-52.5,-59.167 -105.416,-92.917 -176.666,-121.667c12.5,-2.5 28.75,-4.167 40.416,-5.833c2.5,0.416 29.167,5.416 71.25,21.666l1.25,-2.083c-51.25,-35.833 -140,-66.667 -235.833,-90" style="fill:#c2ccd2;fill-rule:nonzero;"/><path d="M1081.25,595c227.5,17.5 318.333,75.417 367.083,122.5c-16.25,30 -40.416,53.75 -67.5,75.417c-52.5,-59.167 -105.416,-92.917 -176.666,-121.667c12.5,-2.5 28.75,-4.167 40.416,-5.833c2.5,0.416 29.167,5.416 71.25,21.666l1.25,-2.083c-51.25,-35.833 -140,-66.667 -235.833,-90" style="fill:#c2ccd2;fill-rule:nonzero;"/><path d="M1029.58,1003.33l-17.083,0c-5.417,-22.5 -7.917,-44.583 -7.917,-66.666c0,-41.25 9.167,-82.084 27.917,-120.834c70,25.834 139.167,50.834 208.333,50.834c45,-0 90,-10.834 135.417,-39.167c17.083,22.5 33.75,45.417 46.667,70c-115.834,68.333 -258.75,105.833 -393.334,105.833" style="fill:#c2ccd2;fill-rule:nonzero;"/><path d="M1029.58,1003.33l-17.083,0c-5.417,-22.5 -7.917,-44.583 -7.917,-66.666c0,-41.25 9.167,-82.084 27.917,-120.834c70,25.834 139.167,50.834 208.333,50.834c45,-0 90,-10.834 135.417,-39.167c17.083,22.5 33.75,45.417 46.667,70c-115.834,68.333 -258.75,105.833 -393.334,105.833" style="fill:#c2ccd2;fill-rule:nonzero;"/><path d="M1276.67,1211.67c-117.917,-1.667 -214.584,-73.75 -256.667,-182.917l4.583,0c142.5,0 285.834,-36.25 409.167,-108.333c6.667,15.833 12.917,32.5 17.5,48.75c-95,48.333 -136.667,150 -174.583,242.5" style="fill:#c2ccd2;fill-rule:nonzero;"/><path d="M1276.67,1211.67c-117.917,-1.667 -214.584,-73.75 -256.667,-182.917l4.583,0c142.5,0 285.834,-36.25 409.167,-108.333c6.667,15.833 12.917,32.5 17.5,48.75c-95,48.333 -136.667,150 -174.583,242.5" style="fill:#c2ccd2;fill-rule:nonzero;"/><path d="M1490.83,1112.92c0.417,-8.334 0.417,-17.084 0.417,-25.834c0,-34.166 -3.333,-68.333 -10.833,-102.083c22.916,-7.5 47.083,-11.667 71.25,-13.75c-9.167,57.5 -27.5,96.667 -60.834,141.667" style="fill:#c2ccd2;fill-rule:nonzero;"/><path d="M1490.83,1112.92c0.417,-8.334 0.417,-17.084 0.417,-25.834c0,-34.166 -3.333,-68.333 -10.833,-102.083c22.916,-7.5 47.083,-11.667 71.25,-13.75c-9.167,57.5 -27.5,96.667 -60.834,141.667" style="fill:#c2ccd2;fill-rule:nonzero;"/><path d="M1361.25,807.083c-40,24.584 -80.417,33.75 -121.25,33.75c-65,0 -130,-23.75 -195,-47.5c11.25,-17.916 24.167,-35.833 38.333,-51.25l3.75,0c41.667,0 108.75,30.834 142.084,49.167l1.666,-2.083c-96.666,-114.584 -345.833,-133.75 -507.5,-133.75c-15.833,-0 -31.25,-0 -45.416,0.416c62.083,-15.416 131.25,-24.166 202.5,-24.166c179.166,-0 368.75,53.75 480.833,175.416" style="fill:#c2ccd2;fill-rule:nonzero;"/><path d="M1361.25,807.083c-40,24.584 -80.417,33.75 -121.25,33.75c-65,0 -130,-23.75 -195,-47.5c11.25,-17.916 24.167,-35.833 38.333,-51.25l3.75,0c41.667,0 108.75,30.834 142.084,49.167l1.666,-2.083c-96.666,-114.584 -345.833,-133.75 -507.5,-133.75c-15.833,-0 -31.25,-0 -45.416,0.416c62.083,-15.416 131.25,-24.166 202.5,-24.166c179.166,-0 368.75,53.75 480.833,175.416" style="fill:#c2ccd2;fill-rule:nonzero;"/><path d="M1457.08,1147.5c-43.75,37.083 -95.833,56.25 -152.916,63.75c34.166,-83.333 70,-173.75 155.416,-215c4.584,24.583 7.084,49.167 7.084,74.167c-0,25.833 -2.917,51.666 -9.584,77.083" style="fill:#c2ccd2;fill-rule:nonzero;"/><path d="M1457.08,1147.5c-43.75,37.083 -95.833,56.25 -152.916,63.75c34.166,-83.333 70,-173.75 155.416,-215c4.584,24.583 7.084,49.167 7.084,74.167c-0,25.833 -2.917,51.666 -9.584,77.083" style="fill:#c2ccd2;fill-rule:nonzero;"/><path d="M1232.5,582.5l49.167,-17.5l37.5,42.917l-4.167,-55.834l47.5,-20.833l-51.667,-17.083l-7.916,-55.417l-28.334,45l-52.916,-13.333l35,45l-24.167,47.083Z" style="fill:#c2ccd2;fill-rule:nonzero;"/><path d="M968.75,622.5l34.583,-16.667l28.334,25l-5.417,-37.916l32.917,-18.75l-37.917,-6.667l-7.917,-37.083l-17.5,33.333l-37.916,-3.75l26.25,27.5l-15.417,35Z" style="fill:#fff;fill-rule:nonzero;"/><path d="M582.917,698.333l22.083,-10.833l19.167,16.25l-3.75,-25l21.666,-12.5l-24.583,-4.167l-5.417,-24.583l-11.666,22.5l-25,-2.5l17.5,17.917l-10,22.916Z" style="fill:#fff;fill-rule:nonzero;"/><path d="M1437.5,1040l0,-4.583l-32.083,53.333l9.166,-47.083l-2.083,-1.25c-46.667,56.25 -64.583,97.5 -79.167,147.5l-0.833,2.5l2.5,-0.834c52.083,-17.916 79.583,-39.166 90.417,-47.916l0.416,-0l0,-0.417c7.917,-16.667 11.25,-51.25 11.25,-92.917c0.417,-2.916 0.417,-5.833 0.417,-8.333" style="fill:#0b77bd;fill-rule:nonzero;"/><path d="M1330.83,916.25c-50.833,10.417 -110.416,16.25 -165,16.25c-7.916,0 -16.25,0 -24.166,-0.417l117.083,-34.583l-0.417,-2.5c-77.083,-3.75 -137.083,-5 -212.5,-40.417l-1.25,-0.416l-0.416,0.833c-11.25,20.417 -17.5,48.333 -17.5,77.083c-0,16.25 2.083,32.5 6.25,47.5l0.416,0.834l8.334,-0c33.75,-0 172.083,-3.75 290,-62.5l-0.834,-1.667Z" style="fill:#0b77bd;fill-rule:nonzero;"/><path d="M1356.67,1011.25c-59.167,43.75 -103.75,79.167 -190.417,95.417c80.417,-41.667 135,-70.834 185.417,-122.084l-1.667,-2.083c-90,52.083 -207.083,75 -290.417,77.917l-2.083,-0l1.25,2.083c68.333,107.917 154.167,117.5 182.5,117.5c5.833,-0 9.167,-0.417 9.167,-0.417l0.416,0l0.417,-0.416c36.667,-57.5 60,-113.334 107.083,-165.834l-1.666,-2.083Z" style="fill:#0b77bd;fill-rule:nonzero;"/><path d="M1509.17,805.417c-7.5,8.333 -15,15.416 -22.917,22.916c-8.333,-17.916 -17.917,-35.416 -30,-52.083c5.833,-7.083 11.667,-14.583 17.083,-22.5c14.584,15.833 27.5,34.583 35.834,51.667m31.25,114.583c-9.167,1.25 -17.5,2.5 -25.834,4.167c-1.666,-13.334 -4.583,-27.084 -7.916,-40c8.75,-7.5 17.5,-15 26.666,-23.75c4.584,19.583 6.667,37.5 7.084,59.583m-29.584,122.083l-0.416,-4.583c3.75,-18.75 5.833,-37.5 6.666,-55.833c5,-1.25 10,-2.5 15,-3.334c-5.416,22.917 -12.083,43.75 -21.25,63.75m-214.583,-390c-4.167,-2.083 -8.75,-4.166 -12.917,-6.25c69.584,20.834 116.667,47.5 142.917,67.917c-4.167,5.833 -8.333,11.667 -12.917,17.083c-32.5,-33.333 -71.666,-60.833 -117.083,-78.75" style="fill:#fff;fill-rule:nonzero;"/></g></g><path d="M1562.5,468.75l-0,729.167c-0,201.219 -163.364,364.583 -364.583,364.583l-729.167,0c-201.219,0 -364.583,-163.364 -364.583,-364.583l-0,-729.167c-0,-201.219 163.364,-364.583 364.583,-364.583l729.167,-0c201.219,-0 364.583,163.364 364.583,364.583Z" style="fill:none;stroke:#000;stroke-width:8.33px;"/></svg>