<?xml version="1.0" encoding="UTF-8" standalone="no"?><!DOCTYPE svg PUBLIC "-//W3C//DTD SVG 1.1//EN" "http://www.w3.org/Graphics/SVG/1.1/DTD/svg11.dtd"><svg width="100%" height="100%" viewBox="0 0 1667 1667" version="1.1" xmlns="http://www.w3.org/2000/svg" xmlns:xlink="http://www.w3.org/1999/xlink" xml:space="preserve" xmlns:serif="http://www.serif.com/" style="fill-rule:evenodd;clip-rule:evenodd;stroke-linecap:round;stroke-linejoin:round;stroke-miterlimit:1.5;"><path d="M1562.5,468.75l-0,729.167c-0,201.219 -163.364,364.583 -364.583,364.583l-729.167,0c-201.219,0 -364.583,-163.364 -364.583,-364.583l-0,-729.167c-0,-201.219 163.364,-364.583 364.583,-364.583l729.167,-0c201.219,-0 364.583,163.364 364.583,364.583Z" style="fill:#c4ced4;"/><clipPath id="_clip1"><path d="M1562.5,468.75l-0,729.167c-0,201.219 -163.364,364.583 -364.583,364.583l-729.167,0c-201.219,0 -364.583,-163.364 -364.583,-364.583l-0,-729.167c-0,-201.219 163.364,-364.583 364.583,-364.583l729.167,-0c201.219,-0 364.583,163.364 364.583,364.583Z"/></clipPath><g clip-path="url(#_clip1)"><g><g><g><path d="M1155.83,942.5c-54.583,0 -110.416,21.667 -140,67.5l-2.083,0l1.25,0l5.417,-79.167c3.333,-53.333 15.416,-198.75 89.583,-198.75c35.833,0 27.5,47.5 31.667,68.75c10,50.417 31.666,107.917 100.833,107.917c47.083,0 96.25,-31.25 96.25,-94.583c-0,-97.917 -82.083,-162.5 -181.667,-162.5c-255.416,-0 -358.333,195 -358.333,431.25c-0,205 79.583,382.083 299.167,382.083c142.5,0 257.916,-101.25 257.916,-271.667c0,-143.75 -76.25,-250.833 -200,-250.833Zm-75.833,442.5c-60.833,0 -58.333,-78.333 -58.333,-168.333c-0,-90.417 8.75,-168.334 58.333,-168.334c61.25,0 64.583,77.917 64.583,168.334c0,90 -12.916,168.333 -64.583,168.333Z" style="fill:#1d428a;fill-rule:nonzero;"/><path d="M311.667,647.5l-0,304.167c170.416,25 374.166,8.333 517.916,-202.084c5.834,-8.75 9.584,-2.5 5.834,5c-40,81.667 -135.417,157.5 -217.5,222.084c-79.167,62.083 -290.834,284.166 -287.917,479.583c-0,15 0.833,10.833 13.75,1.25c64.167,-47.917 190,-49.167 267.5,-12.083c10.833,5 11.667,3.333 10.417,-10.417c-15,-151.667 19.166,-317.083 84.166,-412.917c44.584,-66.666 165,-237.916 185.834,-372.5c2.083,-13.75 -5,-11.666 -22.5,6.667c-136.25,144.167 -382.917,140.417 -542.084,-12.083c-10,-9.584 -14.583,-5 -15.416,3.333" style="fill:#c8102e;fill-rule:nonzero;"/></g></g><g><g><path d="M607.083,183.333l10,31.25l32.917,0l-27.083,19.167l10,30.833l-25.834,-18.75l-25.833,18.75l9.583,-30.833l-26.666,-19.167l32.916,0l10,-31.25Z" style="fill:#1d428a;fill-rule:nonzero;"/><path d="M801.25,296.667l10,30.833l33.333,-0l-27.083,19.583l10,30.417l-25.833,-18.75l-26.25,18.75l10,-30.417l-27.084,-19.583l33.334,-0l9.583,-30.833Z" style="fill:#1d428a;fill-rule:nonzero;"/><path d="M717.917,209.167l10,31.25l33.333,-0l-27.083,19.583l10,30.417l-25.834,-19.167l-26.25,19.167l10,-30.834l-26.666,-19.166l32.916,-0l9.584,-31.25Z" style="fill:#1d428a;fill-rule:nonzero;"/><path d="M833.333,403.75l9.584,30.833l33.333,0l-26.667,19.584l9.584,30.416l-25.834,-18.75l-25.833,18.75l10,-30.416l-27.083,-19.584l32.916,0l10,-30.833Z" style="fill:#1d428a;fill-rule:nonzero;"/><path d="M819.167,517.083l10,30.834l32.916,-0l-26.666,19.583l10,30.417l-26.25,-18.75l-25.417,18.75l9.583,-30.834l-26.666,-19.166l32.916,-0l9.584,-30.834Z" style="fill:#1d428a;fill-rule:nonzero;"/><path d="M756.667,607.083l10,31.25l32.916,0l-26.666,19.584l9.583,30.416l-25.417,-18.75l-26.25,18.75l10,-30.416l-27.083,-19.584l33.333,0l9.584,-31.25Z" style="fill:#1d428a;fill-rule:nonzero;"/><path d="M658.75,657.917l10,30.833l32.5,0l-26.667,19.583l10,30.417l-25.833,-18.75l-25.833,18.75l9.583,-30.417l-26.667,-19.583l32.917,0l10,-30.833Z" style="fill:#1d428a;fill-rule:nonzero;"/><path d="M409.167,286.667l-10,30.833l-32.917,0l26.667,19.583l-9.584,30.417l25.834,-18.75l26.25,18.75l-10,-30.417l27.083,-19.583l-33.333,0l-10,-30.833Z" style="fill:#1d428a;fill-rule:nonzero;"/><path d="M490.417,209.167l-9.584,31.25l-33.333,-0l27.083,19.583l-10,30.417l25.834,-19.167l26.25,19.167l-10,-30.834l27.083,-19.166l-33.333,-0l-10,-31.25Z" style="fill:#1d428a;fill-rule:nonzero;"/><path d="M371.25,390l-9.583,30.833l-32.917,0l26.667,19.167l-9.584,30.833l25.417,-18.75l26.25,18.75l-10,-30.833l27.083,-19.167l-32.916,0l-10.417,-30.833Z" style="fill:#1d428a;fill-rule:nonzero;"/><path d="M381.667,502.917l-10,30.833l-32.917,0l26.667,19.583l-9.584,30.834l25.417,-19.167l26.25,19.167l-10,-30.834l26.667,-19.583l-32.917,0l-9.583,-30.833Z" style="fill:#1d428a;fill-rule:nonzero;"/><path d="M443.75,595.417l-9.583,30.833l-32.917,0l26.667,19.583l-10,30.417l25.833,-18.75l26.25,18.75l-10,-30.417l27.083,-19.583l-33.333,0l-10,-30.833Z" style="fill:#1d428a;fill-rule:nonzero;"/><path d="M542.083,653.75l-9.583,31.25l-33.333,0l27.083,19.583l-10,30.417l25.833,-18.75l26.25,18.75l-10,-30.833l26.667,-19.167l-32.917,0l-10,-31.25Z" style="fill:#1d428a;fill-rule:nonzero;"/></g></g></g></g><path d="M1562.5,468.75l-0,729.167c-0,201.219 -163.364,364.583 -364.583,364.583l-729.167,0c-201.219,0 -364.583,-163.364 -364.583,-364.583l-0,-729.167c-0,-201.219 163.364,-364.583 364.583,-364.583l729.167,-0c201.219,-0 364.583,163.364 364.583,364.583Z" style="fill:none;stroke:#000;stroke-width:8.33px;"/></svg>