<?xml version="1.0" encoding="UTF-8" standalone="no"?><!DOCTYPE svg PUBLIC "-//W3C//DTD SVG 1.1//EN" "http://www.w3.org/Graphics/SVG/1.1/DTD/svg11.dtd"><svg width="100%" height="100%" viewBox="0 0 1667 1667" version="1.1" xmlns="http://www.w3.org/2000/svg" xmlns:xlink="http://www.w3.org/1999/xlink" xml:space="preserve" xmlns:serif="http://www.serif.com/" style="fill-rule:evenodd;clip-rule:evenodd;stroke-linecap:round;stroke-linejoin:round;stroke-miterlimit:1.5;"><path d="M1562.5,468.75l-0,729.167c-0,201.219 -163.364,364.583 -364.583,364.583l-729.167,0c-201.219,0 -364.583,-163.364 -364.583,-364.583l-0,-729.167c-0,-201.219 163.364,-364.583 364.583,-364.583l729.167,-0c201.219,-0 364.583,163.364 364.583,364.583Z" style="fill:#1d1160;"/><clipPath id="_clip1"><path d="M1562.5,468.75l-0,729.167c-0,201.219 -163.364,364.583 -364.583,364.583l-729.167,0c-201.219,0 -364.583,-163.364 -364.583,-364.583l-0,-729.167c-0,-201.219 163.364,-364.583 364.583,-364.583l729.167,-0c201.219,-0 364.583,163.364 364.583,364.583Z"/></clipPath><g clip-path="url(#_clip1)"><g id="Layer_2_1_"><path d="M84.583,1415l707.084,-387.083l-479.584,387.083l581.667,-334.167l-9.167,67.084l97.084,-53.75l218.75,207.083l116.666,-350.417l147.917,-20.833l-65,-202.5l137.5,-119.583l-182.5,-77.084l50,-212.5l-167.917,77.084l-79.166,-190l-142.084,141.666l-233.75,-122.5l-42.083,230l-215.833,46.667l127.916,77.5l-128.75,64.583l109.167,9.167l-449.167,349.583l452.084,-240.416l-485.417,369.166l516.25,-268.75l-550.833,414.584l607.5,-324.167l-638.334,462.5Z" style="fill:#f79e1e;fill-rule:nonzero;"/><path d="M1378.33,730.833c-7.916,194.167 -172.083,345 -366.25,337.084c-194.166,-7.917 -345,-172.084 -337.083,-366.25c7.917,-194.167 172.083,-345 366.25,-337.084c194.167,7.917 345,171.667 337.083,366.25" style="fill:#e46025;fill-rule:nonzero;"/><path d="M1069.58,1019.58c-194.166,-7.916 -345,-172.083 -337.083,-366.25c3.75,-90 40.833,-170.416 99.167,-230c-90.417,60.417 -151.667,161.667 -156.667,278.334c-7.917,194.166 142.917,358.333 337.083,366.25c104.167,4.166 200,-37.084 267.5,-107.084c-60,40 -132.5,62.084 -210,58.75" style="fill:#b65b27;fill-rule:nonzero;"/><path d="M1378.75,720c0,-12.5 -0.417,-25 -1.667,-37.5c-20.416,-14.167 -44.166,-25 -73.333,-28.75c-5.417,-0.833 -10.417,-1.25 -15.833,-1.667c-3.334,-23.333 -8.75,-45.833 -15.417,-68.333c3.75,0.417 7.083,0.417 10.833,0.833c24.584,2.084 49.167,4.584 73.334,7.917c-3.334,-9.167 -7.084,-17.917 -10.834,-26.25c-27.083,-4.167 -54.583,-7.083 -82.5,-9.583l-0.416,-0c-9.167,-22.917 -19.584,-44.167 -32.5,-65.417c17.916,-3.75 34.166,-10.833 47.083,-23.333c-6.25,-6.667 -13.75,-13.334 -20.833,-19.167c-11.25,10.417 -25.834,15.833 -42.917,18.333c-2.5,-3.75 -5.417,-7.083 -7.917,-10.416c-23.75,-31.25 -51.666,-57.5 -82.083,-79.167c-26.667,-7.5 -54.167,-12.083 -82.917,-13.75l-5,-0c53.334,21.25 101.25,56.667 139.584,103.75c-36.667,-3.333 -78.75,-15.833 -120.417,-27.917c-12.5,-3.75 -24.583,-7.083 -35.833,-10.416c-71.25,-19.584 -125.834,-22.917 -166.667,-19.167c-30.417,17.5 -57.917,39.167 -82.083,64.583c44.166,-18.75 133.75,-50 242.5,-20c11.25,2.917 23.333,6.667 35.833,10.417c47.917,14.167 101.667,30 148.333,30.417c12.917,19.166 23.75,39.166 32.917,60.416c-9.167,-0.416 -18.333,-0.833 -27.5,-0.833c-225.833,-3.75 -420,63.75 -527.5,171.667c0.833,21.666 2.917,42.5 7.083,62.916c30.417,-43.75 75,-82.916 132.917,-115.833c109.583,-61.25 254.583,-94.167 408.75,-90.833c5.417,-0 10.417,0.416 15.833,0.416c7.917,22.5 13.75,45.417 17.5,69.167c-99.166,4.167 -163.75,66.25 -237.916,132.5c-66.25,59.583 -147.5,118.75 -265.834,154.167c10.834,13.75 23.334,26.666 36.25,38.333c112.084,-44.583 185.834,-115 248.334,-171.25c71.25,-63.75 132.5,-124.583 221.666,-127.917c2.084,24.584 2.084,50 0,75.417c-12.083,137.917 -91.666,255 -200.833,312.5c27.5,-2.5 55,-8.333 80.417,-17.5c8.75,-7.083 17.5,-14.583 25.416,-22.917c71.25,-70 115.834,-166.25 124.584,-269.583c2.083,-25.833 2.083,-51.667 -0,-77.083c4.583,0.416 9.166,0.833 13.75,1.666c32.5,5 56.666,20.834 75.833,39.167" style="fill-rule:nonzero;"/></g></g><path d="M1562.5,468.75l-0,729.167c-0,201.219 -163.364,364.583 -364.583,364.583l-729.167,0c-201.219,0 -364.583,-163.364 -364.583,-364.583l-0,-729.167c-0,-201.219 163.364,-364.583 364.583,-364.583l729.167,-0c201.219,-0 364.583,163.364 364.583,364.583Z" style="fill:none;stroke:#000;stroke-width:8.33px;"/></svg>