<?xml version="1.0" encoding="UTF-8" standalone="no"?><!DOCTYPE svg PUBLIC "-//W3C//DTD SVG 1.1//EN" "http://www.w3.org/Graphics/SVG/1.1/DTD/svg11.dtd"><svg width="100%" height="100%" viewBox="0 0 1667 1667" version="1.1" xmlns="http://www.w3.org/2000/svg" xmlns:xlink="http://www.w3.org/1999/xlink" xml:space="preserve" xmlns:serif="http://www.serif.com/" style="fill-rule:evenodd;clip-rule:evenodd;stroke-linecap:round;stroke-linejoin:round;stroke-miterlimit:1.5;"><path d="M1562.5,468.75l-0,729.167c-0,201.219 -163.364,364.583 -364.583,364.583l-729.167,0c-201.219,0 -364.583,-163.364 -364.583,-364.583l-0,-729.167c-0,-201.219 163.364,-364.583 364.583,-364.583l729.167,-0c201.219,-0 364.583,163.364 364.583,364.583Z" style="fill:#e03a3e;"/><clipPath id="_clip1"><path d="M1562.5,468.75l-0,729.167c-0,201.219 -163.364,364.583 -364.583,364.583l-729.167,0c-201.219,0 -364.583,-163.364 -364.583,-364.583l-0,-729.167c-0,-201.219 163.364,-364.583 364.583,-364.583l729.167,-0c201.219,-0 364.583,163.364 364.583,364.583Z"/></clipPath><g clip-path="url(#_clip1)"><g><path d="M1253.75,547.5c-18.333,-27.083 -39.167,-52.5 -62.5,-75.833c-10,-10 -20.417,-19.584 -31.25,-28.75l227.5,-227.5l-662.5,-0l-256.25,256.25c-22.917,23.333 -44.167,48.75 -62.5,75.833c-18.333,27.5 -34.167,56.667 -47.083,86.667c-26.667,62.916 -40,130 -40,198.75c-0,69.166 13.333,135.833 40,198.75c12.916,30.416 28.75,59.583 47.083,86.666c18.333,27.084 39.167,52.5 62.5,75.834c10,10 20.417,19.583 31.25,28.75l-227.5,227.5l662.5,-0l256.667,-256.667c22.916,-22.917 43.75,-48.333 62.083,-75c18.333,-27.5 34.167,-56.667 47.083,-86.667c26.667,-62.916 40,-130 40,-198.75c0,-69.166 -13.333,-135.833 -40,-198.75c-12.916,-30.416 -28.75,-60 -47.083,-87.083" style="fill-rule:nonzero;"/><path d="M1161.67,501.25c-10,-10 -20.417,-19.583 -30.834,-28.333l-277.916,277.916c13.75,3.75 26.666,11.25 37.5,22.084c33.75,33.75 33.75,87.916 -0,121.666l-515.834,515l60.417,0l485,-485c50,-50 50.417,-131.25 0.417,-181.666l30,-30c66.666,67.083 66.25,175 -0.417,241.666l-454.583,455l60.416,0l424.584,-424.583c83.333,-83.333 83.75,-218.75 0.416,-302.083l30,-30c100,100.416 99.584,262.5 -0.416,362.5l-394.584,394.583l60.417,0l364.167,-364.167c116.666,-116.666 117.083,-305.833 0.416,-422.916l30,-30c132.917,133.75 132.917,350 -0.416,483.333l-334.167,334.167l60.417,-0l303.75,-303.75c150,-150 150.416,-393.334 0.416,-543.75l30.417,-30.417c166.667,167.083 166.25,437.5 -0.417,604.167l-273.333,273.333l60.417,0l243.333,-243.333c183.75,-184.167 183.75,-481.667 0.417,-665.417" style="fill:#fff;fill-rule:nonzero;"/><path d="M498.75,1165.42c10,10 20.417,19.583 30.833,28.333l277.917,-277.917c-13.75,-3.75 -26.667,-11.25 -37.5,-22.083c-33.75,-33.75 -33.75,-87.917 0,-121.667l516.25,-515.416l-60.417,-0l-485.416,485.416c-50,50 -50.417,131.25 -0.417,181.667l-30,30c-66.25,-67.083 -66.25,-175 0.417,-241.667l455.416,-455.416l-60.416,-0l-425.417,425c-83.333,83.333 -83.75,218.75 -0.417,302.083l-30,30c-100,-100.417 -99.583,-262.5 0.417,-362.5l395,-395l-60.417,-0l-365,365c-116.666,116.667 -117.083,305.833 -0.416,422.917l-30,30c-132.917,-133.75 -132.917,-350 0.416,-483.334l334.584,-334.583l-60.417,0l-304.583,304.583c-150,150 -150.417,393.334 -0.417,543.75l-30.417,30.417c-166.666,-167.083 -166.25,-437.5 0.417,-604.167l274.167,-274.166l-60.417,-0l-244.167,244.166c-182.916,183.334 -182.916,481.25 0.417,664.584" style="fill:#cf0a2c;fill-rule:nonzero;"/></g></g><path d="M1562.5,468.75l-0,729.167c-0,201.219 -163.364,364.583 -364.583,364.583l-729.167,0c-201.219,0 -364.583,-163.364 -364.583,-364.583l-0,-729.167c-0,-201.219 163.364,-364.583 364.583,-364.583l729.167,-0c201.219,-0 364.583,163.364 364.583,364.583Z" style="fill:none;stroke:#000;stroke-width:8.33px;"/></svg>