<?xml version="1.0" encoding="UTF-8" standalone="no"?><!DOCTYPE svg PUBLIC "-//W3C//DTD SVG 1.1//EN" "http://www.w3.org/Graphics/SVG/1.1/DTD/svg11.dtd"><svg width="100%" height="100%" viewBox="0 0 1667 1667" version="1.1" xmlns="http://www.w3.org/2000/svg" xmlns:xlink="http://www.w3.org/1999/xlink" xml:space="preserve" xmlns:serif="http://www.serif.com/" style="fill-rule:evenodd;clip-rule:evenodd;stroke-linecap:round;stroke-linejoin:round;stroke-miterlimit:1.5;"><path d="M1562.5,468.75l-0,729.167c-0,201.219 -163.364,364.583 -364.583,364.583l-729.167,0c-201.219,0 -364.583,-163.364 -364.583,-364.583l-0,-729.167c-0,-201.219 163.364,-364.583 364.583,-364.583l729.167,-0c201.219,-0 364.583,163.364 364.583,364.583Z" style="fill:#63727a;"/><clipPath id="_clip1"><path d="M1562.5,468.75l-0,729.167c-0,201.219 -163.364,364.583 -364.583,364.583l-729.167,0c-201.219,0 -364.583,-163.364 -364.583,-364.583l-0,-729.167c-0,-201.219 163.364,-364.583 364.583,-364.583l729.167,-0c201.219,-0 364.583,163.364 364.583,364.583Z"/></clipPath><g clip-path="url(#_clip1)"><g id="Layer_2_1_"><path d="M1390.83,183.333l-158.75,159.584l-132.916,-132.5l-132.917,132.5l-132.917,-132.917l-132.5,132.5l-132.5,-132.5l-132.5,132.917l-154.166,-156.25l-0,705.416c-0,307.084 246.25,556.667 552.916,556.667c306.667,0 556.25,-249.583 556.25,-556.667l0,-708.75Z" style="fill:#fff;fill-rule:nonzero;"/><path d="M331.25,988.75c12.917,66.667 39.167,128.75 77.083,186.25c23.334,-40.833 69.167,-90.417 160,-112.083c-6.666,-23.334 -12.916,-47.917 -18.333,-73.75l-218.75,-0.417Z" style="fill:#63717a;fill-rule:nonzero;"/><path d="M444.583,1222.5c97.917,115 239.167,180.833 387.5,181.667c-14.166,-7.084 -27.5,-15 -41.25,-23.75c-62.916,-40.834 -149.583,-120 -205.416,-267.084c-87.917,19.584 -125.417,69.584 -140.834,109.167" style="fill:#63717a;fill-rule:nonzero;"/><path d="M640,1106.25c40,100 100,176.667 178.333,228.333c52.084,34.167 102.084,49.167 134.584,56.667c82.5,-18.75 159.166,-58.75 222.916,-115c-50,-5.417 -102.083,-34.167 -155.833,-64.583c-85,-47.5 -190.417,-106.667 -333.333,-106.667c-15,-0.833 -30.834,-0.417 -46.667,1.25" style="fill:#63717a;fill-rule:nonzero;"/><path d="M854.167,728.75l-182.917,0l0,218.333l76.25,0l0,-175.416l57.083,-0l0,175.416l72.5,0l0,-187.5c0,-16.25 -10.416,-30.833 -22.916,-30.833" style="fill:#592d81;fill-rule:nonzero;"/><path d="M908.75,728.75l0,187.5c0,16.667 10.417,30.833 22.5,30.833l183.333,0l0,-132.916l-72.916,-0l-0,89.166l-57.084,0l0,-132.916l130.417,-0l0,-42.084l-206.25,0.417Z" style="fill:#592d81;fill-rule:nonzero;"/><path d="M467.917,728.75l-41.25,88.75l-23.75,0l-0,-88.75l-76.25,0l-0,218.75l76.25,0l-0,-87.917l23.75,0l41.25,87.917l75.833,0l-52.917,-108.75l52.917,-110l-75.833,0Z" style="fill:#592d81;fill-rule:nonzero;"/><rect x="563.75" y="728.75" width="78.333" height="218.333" style="fill:#592d81;"/><path d="M1345.83,788.333l0,-59.166l-201.25,-0l0,100c0,16.666 10.417,30 22.5,30l102.5,-0l0,47.5l-125.416,-0l-0,41.25l201.25,-0l-0,-100.417c-0,-15.417 -8.75,-30 -20,-30l-105.834,0l0,-45.833l52.917,-0l0,16.666l73.333,0Z" style="fill:#592d81;fill-rule:nonzero;"/><path d="M1131.25,507.917l-63.75,-0l132.083,-132.917l-100.416,-100.417l-132.917,132.5l-132.917,-132.5l-232.5,233.334l-64.583,-0l132.917,-133.334l-100.417,-100l-132.083,132.5l-110,-108.75l-0,390.834l1019.17,-0l0,-395.834l-214.583,214.584Z" style="fill:#592d81;fill-rule:nonzero;"/><path d="M549.583,647.083c0,5.417 4.167,10.417 10.417,10.417l56.667,0l-0,-15l-46.667,0l0,-49.583l46.667,-0l-0,-15.417l-67.5,0l-0,69.583l0.416,0Z" style="fill:#fff;fill-rule:nonzero;"/><path d="M455.833,576.667l0,80.833l20.417,0l0,-20.833l26.25,-0l0,20.833l20.417,0l-0,-70.417c-0,-5.833 -4.584,-10.416 -11.667,-10.416l-55.417,-0Zm46.667,44.583l-26.25,0l-0,-28.75l26.25,0l-0,28.75Z" style="fill:#fff;fill-rule:nonzero;"/><path d="M1297.08,577.083l-47.083,0c-5.417,0 -10.417,4.167 -10.417,10.417l0,60c0,5.417 4.167,10.417 10.417,10.417l47.083,-0c5.417,-0 10.417,-4.584 10.417,-10.417l0,-60c0.417,-6.25 -4.167,-10.417 -10.417,-10.417m-10,64.584l-25.833,-0l0,-49.584l25.833,0l0,49.584Z" style="fill:#fff;fill-rule:nonzero;"/><path d="M362.5,614.583c0,5.417 4.167,10.417 10.417,10.417l36.25,0l-0,17.5l-46.667,0l0,15.417l67.5,-0l0,-37.917c0,-5 -3.75,-10 -9.583,-10.417l-37.5,0l-0,-17.5l46.666,0l0,-15.416l-67.083,-0l0,37.916Z" style="fill:#fff;fill-rule:nonzero;"/><path d="M791.667,577.083l-57.084,0l0,80.417l20.417,0l0,-20.833l26.25,-0l0,20.833l20.417,0l-0,-70.417c0.416,-5.833 -4.584,-10 -10,-10m-10.834,44.167l-26.25,0l0,-28.75l26.25,0l0,28.75Z" style="fill:#fff;fill-rule:nonzero;"/><path d="M1149.17,592.083l23.75,0l-0,65.417l20.416,0l0,-65.417l23.334,0l-0,-15l-67.5,0l-0,15Z" style="fill:#fff;fill-rule:nonzero;"/><path d="M933.333,577.083l-103.75,0l0,80.417l20.417,0l0,-65l25.833,0l0,65l20.834,0l-0,-65l25.833,0l0,65l20.417,0l-0,-70.417c0.416,-5.833 -4.167,-10 -9.584,-10" style="fill:#fff;fill-rule:nonzero;"/><path d="M1117.92,577.083l-57.5,0l-0,80.417l20.416,0l0,-65l26.25,0l0,65l20.417,0l0,-70.417c0.833,-5.833 -3.75,-10 -9.583,-10" style="fill:#fff;fill-rule:nonzero;"/><path d="M971.667,647.083c-0,5.417 4.166,10.417 10.416,10.417l57.084,0l-0,-15l-46.667,0l-0,-17.5l46.667,0l-0,-15.417l-46.667,0l-0,-17.916l46.667,-0l-0,-15l-67.5,-0l-0,70.416Z" style="fill:#fff;fill-rule:nonzero;"/><path d="M697.083,627.917l11.25,-0l0,-41.25c0,-5.834 -4.583,-10.417 -11.666,-10.417l-56.25,0l-0,80.417l20.416,-0l0,-29.167l15,0l12.5,29.167l20,-0l-11.25,-28.75Zm-9.166,-15.417l-26.25,0l-0,-20.417l26.25,0l-0,20.417Z" style="fill:#fff;fill-rule:nonzero;"/><path d="M675.417,1050.42c108.333,-2.084 216.25,25.416 352.916,102.916c101.25,57.5 145.834,75 176.25,67.917c27.917,-6.667 54.167,-23.75 100,-120c17.5,-37.083 30,-80.417 35.834,-112.5l-736.25,0c5,22.5 10.416,44.583 17.083,64.583c17.5,-1.666 36.25,-2.916 54.167,-2.916" style="fill:#63717a;fill-rule:nonzero;"/></g></g><path d="M1562.5,468.75l-0,729.167c-0,201.219 -163.364,364.583 -364.583,364.583l-729.167,0c-201.219,0 -364.583,-163.364 -364.583,-364.583l-0,-729.167c-0,-201.219 163.364,-364.583 364.583,-364.583l729.167,-0c201.219,-0 364.583,163.364 364.583,364.583Z" style="fill:none;stroke:#000;stroke-width:8.33px;"/></svg>