<?xml version="1.0" encoding="UTF-8" standalone="no"?><!DOCTYPE svg PUBLIC "-//W3C//DTD SVG 1.1//EN" "http://www.w3.org/Graphics/SVG/1.1/DTD/svg11.dtd"><svg width="100%" height="100%" viewBox="0 0 1667 1667" version="1.1" xmlns="http://www.w3.org/2000/svg" xmlns:xlink="http://www.w3.org/1999/xlink" xml:space="preserve" xmlns:serif="http://www.serif.com/" style="fill-rule:evenodd;clip-rule:evenodd;stroke-linecap:round;stroke-linejoin:round;stroke-miterlimit:1.5;"><path d="M1562.5,468.75l-0,729.167c-0,201.219 -163.364,364.583 -364.583,364.583l-729.167,0c-201.219,0 -364.583,-163.364 -364.583,-364.583l-0,-729.167c-0,-201.219 163.364,-364.583 364.583,-364.583l729.167,-0c201.219,-0 364.583,163.364 364.583,364.583Z" style="fill:#c4ced4;"/><clipPath id="_clip1"><path d="M1562.5,468.75l-0,729.167c-0,201.219 -163.364,364.583 -364.583,364.583l-729.167,0c-201.219,0 -364.583,-163.364 -364.583,-364.583l-0,-729.167c-0,-201.219 163.364,-364.583 364.583,-364.583l729.167,-0c201.219,-0 364.583,163.364 364.583,364.583Z"/></clipPath><g clip-path="url(#_clip1)"><g id="Layer_2_1_"><path d="M1205.83,220.833l-79.166,140.834l-13.75,112.5l-141.667,251.666l-185.417,0l138.334,-244.166l-0,-260.834l-143.334,0l-75.833,139.584l-13.333,113.75l-201.667,359.166l34.167,84.584l125.416,-0l-57.083,145l-107.5,-115.417l12.917,169.583l-185.417,7.5l147.5,104.167l-105,156.667l169.583,-55.417l69.584,167.917l53.333,-182.917l189.583,48.75l-122.5,-141.667l150.417,-124.166l-155.417,10l168.334,-190l220.833,-0l244.583,-433.334l0,-263.75l-137.5,0Z" style="fill:#fff;fill-rule:nonzero;"/><path d="M1205.83,220.833l-79.166,140.834l-13.75,112.5l-141.667,251.666l-185.417,0l138.334,-244.166l-0,-260.834l-143.334,0l-75.833,139.584l-13.333,113.75l-201.667,359.166l34.167,84.584l125.416,-0l-57.083,145l-107.5,-115.417l12.917,169.583l-185.417,7.5l147.5,104.167l-105,156.667l169.583,-55.417l69.584,167.917l53.333,-182.917l189.583,48.75l-122.5,-141.667l150.417,-124.166l-155.417,10l168.334,-190l220.833,-0l244.583,-433.334l0,-263.75l-137.5,0Z" style="fill-rule:nonzero;"/><path d="M1176.25,346.25l67.083,0l46.667,-87.5l-64.583,0l-49.167,87.5Z" style="fill:#c2ccd2;fill-rule:nonzero;"/><path d="M755,346.667l72.083,-0.417l46.25,-87.5l-70,-0l-48.333,87.917Z" style="fill:#c2ccd2;fill-rule:nonzero;"/><path d="M737.917,456.667l65,-0l5.833,-75l-62.5,-0l-8.333,75Z" style="fill:#c2ccd2;fill-rule:nonzero;"/><path d="M1157.5,456.667l65.417,-0l5.833,-75l-62.917,-0l-8.333,75Z" style="fill:#c2ccd2;fill-rule:nonzero;"/><path d="M1143.75,501.667l-146.667,258.333l-352.083,0l146.667,-258.333l-69.167,-0l-177.083,312.5l196.666,-0l-148.75,332.916l-61.666,-68.75l3.333,80.834l-99.583,5.833l80,56.25l-57.084,84.583l92.084,-30l37.916,91.25l28.75,-99.166l102.5,26.25l-65.833,-76.667l81.25,-67.083l-125.833,5.833l231.25,-341.667l197.083,0l174.167,-312.5l-67.917,-0.416Zm-575.833,739.166c-16.667,0 -30,-13.333 -30,-29.583c-0,-16.667 13.333,-29.583 30,-29.583c16.666,-0 29.583,13.333 29.583,29.583c-0,16.25 -13.333,29.583 -29.583,29.583" style="fill:#c2ccd2;fill-rule:nonzero;"/></g></g><path d="M1562.5,468.75l-0,729.167c-0,201.219 -163.364,364.583 -364.583,364.583l-729.167,0c-201.219,0 -364.583,-163.364 -364.583,-364.583l-0,-729.167c-0,-201.219 163.364,-364.583 364.583,-364.583l729.167,-0c201.219,-0 364.583,163.364 364.583,364.583Z" style="fill:none;stroke:#000;stroke-width:8.33px;"/></svg>