<?xml version="1.0" encoding="UTF-8" standalone="no"?><!DOCTYPE svg PUBLIC "-//W3C//DTD SVG 1.1//EN" "http://www.w3.org/Graphics/SVG/1.1/DTD/svg11.dtd"><svg width="100%" height="100%" viewBox="0 0 1667 1667" version="1.1" xmlns="http://www.w3.org/2000/svg" xmlns:xlink="http://www.w3.org/1999/xlink" xml:space="preserve" xmlns:serif="http://www.serif.com/" style="fill-rule:evenodd;clip-rule:evenodd;stroke-linecap:round;stroke-linejoin:round;stroke-miterlimit:1.5;"><path d="M1562.5,468.75l-0,729.167c-0,201.219 -163.364,364.583 -364.583,364.583l-729.167,0c-201.219,0 -364.583,-163.364 -364.583,-364.583l-0,-729.167c-0,-201.219 163.364,-364.583 364.583,-364.583l729.167,-0c201.219,-0 364.583,163.364 364.583,364.583Z" style="fill:#fff;"/><clipPath id="_clip1"><path d="M1562.5,468.75l-0,729.167c-0,201.219 -163.364,364.583 -364.583,364.583l-729.167,0c-201.219,0 -364.583,-163.364 -364.583,-364.583l-0,-729.167c-0,-201.219 163.364,-364.583 364.583,-364.583l729.167,-0c201.219,-0 364.583,163.364 364.583,364.583Z"/></clipPath><g clip-path="url(#_clip1)"><g><path d="M1043.75,1413.33c0.833,1.25 1.667,2.917 2.083,2.5c3.334,0 9.584,-1.25 9.584,-1.25l6.25,-2.916l18.333,-7.084c-0,0 45.417,-21.666 45.833,-21.666l7.917,-4.167l4.167,-1.667l5,-3.333l7.916,-5l9.584,-5.417l12.5,-7.916l21.666,-15l10.417,-8.334l15,-10.833l13.75,-10l6.667,-4.583l9.166,-8.334l9.584,-9.583l15,-16.25l17.5,-17.083l20.416,-23.334l11.25,-15l3.75,-5.416l12.084,-15l23.333,-33.75l6.667,-11.25l15.833,-31.25l9.167,-17.084l15,-30.833l8.333,-18.75l8.75,-28.75c0,0 10.417,-37.917 16.25,-57.917c0.833,-2.083 0.833,-4.166 -0.417,-6.25c-3.333,-4.583 -5.833,-10.416 -8.75,-15.416c-1.666,-2.5 -3.75,-5.417 -5.416,-7.5c-1.667,-2.084 -5.417,-7.5 -7.084,-9.167c-1.666,-2.083 -3.75,-3.75 -5.833,-5c-5,-4.583 -9.167,-9.167 -13.333,-12.083c-2.084,-1.25 -3.75,-2.5 -5.417,-3.75c-12.917,-10 -25.833,-17.5 -40.417,-24.167c-6.25,-2.5 -12.5,-5 -18.75,-7.083c-4.583,-1.667 -11.666,-3.334 -16.25,-4.167c-2.5,-0.417 -5,-0.417 -7.083,0.833c-2.083,1.25 -2.083,4.584 -2.5,7.5c-0.833,7.917 -1.25,16.667 -1.667,24.584c-0.833,8.333 -1.25,16.25 -2.083,24.583c-0.833,7.5 -1.25,15 -1.667,22.083c-1.25,10 -2.5,19.584 -4.583,29.167c-3.333,18.333 -7.5,36.25 -11.25,54.167c-0.833,5 -1.667,10 -3.75,15c-3.333,7.5 -5.833,15.416 -7.083,23.75c-3.334,17.083 -9.584,33.333 -15.417,49.583c-4.583,13.333 -9.583,26.667 -17.083,38.75c-0.417,0.833 -0.834,1.667 -1.25,2.5c-3.75,8.333 -7.084,16.667 -10.834,25c-2.5,5.417 -5.833,10.417 -8.333,15.417c-2.917,6.666 -6.667,12.916 -10.417,19.166c-6.25,10 -12.916,19.167 -18.333,29.584c-3.75,7.083 -8.333,13.75 -12.917,20.416c-1.25,1.667 -2.5,3.334 -3.333,5c-3.75,5.417 -7.083,11.25 -11.25,16.667c-7.917,10 -16.25,20 -24.583,30c-5,6.25 -10.834,11.667 -16.667,17.5c-5,5.417 -10,10.833 -15,15.833c-0.833,1.25 -2.5,2.084 -3.75,2.917c-2.917,2.5 -6.25,5 -9.167,7.917c-6.666,6.666 -13.333,12.916 -20.833,17.916c-3.333,2.084 -6.667,4.584 -9.583,7.084c-7.5,7.083 -16.667,12.5 -26.667,17.916" style="fill:#bc2126;fill-rule:nonzero;"/><path d="M1450,926.25c0.417,0 0.417,-0.417 0.417,-1.25c-0,-1.667 0.416,-4.167 0.416,-4.167l4.584,-39.583l2.5,-37.083l-0,-42.5l-4.167,-41.667c0,0 -5,-37.5 -9.167,-57.083c-1.25,-6.667 -5.833,-10.417 -11.25,-12.917c-2.083,-0.833 -3.75,-2.083 -5.833,-2.5c-4.167,-1.25 -8.75,-3.333 -12.5,-4.167c-9.583,-2.5 -18.333,-5.416 -27.917,-7.083c-11.25,-2.083 -22.5,-2.917 -34.166,-4.167c-9.584,-0.833 -18.75,-1.25 -28.334,-1.25l-19.583,0c-4.167,0 -8.333,0 -10,2.5c-1.667,2.5 -0.417,7.084 0,11.25c1.25,9.167 2.917,13.75 4.583,22.917c4.584,26.667 9.167,53.333 10.417,80.833c0.417,12.084 1.25,24.584 1.667,36.667l-0,9.167c-0,2.083 0.416,4.583 1.666,5.833c1.25,1.667 2.917,2.083 4.584,2.5c2.5,0.833 4.583,0.833 6.666,1.667c2.5,0.833 6.667,1.666 9.584,2.5c10.833,3.333 22.5,7.5 32.916,11.666c7.5,2.917 14.584,7.5 21.667,11.25c0.833,0.417 1.667,0.834 2.5,1.667c4.167,2.917 8.333,6.25 12.5,9.167c9.583,7.083 20,14.166 27.5,24.166c1.25,1.667 3.333,3.75 5,5.417c2.917,2.5 7.917,12.083 11.667,16.25l2.083,-0" style="fill:#bc2126;fill-rule:nonzero;"/><clipPath id="_clip2"><rect x="208.333" y="210.833" width="1250" height="1245"/></clipPath><g clip-path="url(#_clip2)"><path d="M1171.25,481.667c3.75,-0 7.083,-0.417 10,-0.834c2.083,0 4.167,-0.416 5,-2.5c0.833,-2.083 -0.833,-4.583 -1.25,-5.416c-0.833,-1.667 -7.917,-14.584 -7.917,-14.584l-7.083,-10.833l-29.167,-42.5l-6.25,-7.083l-5.833,-7.5l-9.583,-10.834l-23.75,-25.833l-10.417,-10l-36.667,-34.167l-30,-23.333l-10.833,-5.833l-35.417,-21.667l-24.583,-13.333l-4.583,-2.084l-50,-18.75l-2.5,-0.416l-9.584,-2.5l-2.5,-0.417l-8.333,-2.083l-17.917,-3.334l-8.333,-0.416l-15.833,-2.917l-19.167,-1.25l-6.667,-0.833l-12.083,-0l-20,0.416l-19.583,2.084l-15.417,0.416l-13.333,1.667l-13.75,2.917l-10.417,3.333l-17.083,3.333l-3.75,0l-15.834,5.834l-9.583,2.5l-5.833,3.333l-13.75,3.75l-6.667,3.75l-8.333,3.333l-20.417,8.75l-26.25,10l-8.75,4.167l-18.333,10l-15.834,10.417l-15,7.916l-5.416,3.334l-16.25,8.75l-2.5,1.666l-18.75,14.584l-15.417,10.416l-2.917,2.084l-17.5,13.75l-6.25,5.416c0,0 -9.166,7.917 -9.583,9.167l6.667,-2.083c-0,-0 12.083,-4.584 12.083,-4.167c0.417,0 2.5,0.417 2.5,0.417l17.083,-7.084l2.5,0l18.75,-7.5c0,0 10,-3.333 10,-2.916c0,0.416 10,-3.75 10,-3.75l14.167,-5l33.75,-12.917l2.917,0l17.5,-6.25l13.75,-5.417l2.083,1.25c-0,0 26.25,0.834 26.667,0.834l16.666,1.25l0.417,0.416l34.167,2.917l0.416,-0.417l47.084,2.5l0.416,1.25l16.667,14.167l1.25,0l17.083,16.667l1.667,-0.834l22.917,-0.833l1.25,-0.833l59.166,3.333l0.417,1.25l26.25,15l1.25,0l46.25,22.5l0.417,2.5l26.25,-10.417l38.75,12.917l6.666,10.833l14.167,0.834l13.75,15.416l1.25,0l10.833,12.5l0,0.834l1.667,-0l30.417,7.083l11.25,17.5l28.333,10c-0,0 30.417,7.917 45.833,9.583c13.334,2.5 29.584,1.667 40.417,0.834" style="fill:#bc2126;fill-rule:nonzero;"/></g><path d="M1433.75,660.417c-0.833,-4.584 -4.167,-13.334 -4.167,-13.334l-1.666,-5l-1.667,-5.833l-5,-15l-4.583,-12.917l-14.584,-32.083l-6.666,-15.833l-8.334,-18.334l-10,-16.25l-2.083,-4.583l-6.667,-13.333l-6.25,-10l-2.5,-3.334l-42.083,-57.083c-0,-0 -4.167,-5 -6.25,-7.083c-0.833,-1.25 -1.25,-2.084 -2.5,-2.084l-0.417,0c0,0 -12.916,21.25 -18.333,27.084c-5.417,5.833 -16.25,15.833 -16.25,15.833c-0,-0 -9.167,7.5 -10.833,8.75c-1.667,1.25 -8.75,5.833 -8.75,5.833l-9.584,5.417c0,-0 -7.083,3.333 -8.333,3.75c-1.25,0.417 -2.5,0.833 -3.333,2.083c-0.834,0.834 -0.834,1.667 -0.834,3.334c0.417,1.25 0.834,2.5 1.25,3.75c3.75,7.916 7.5,16.25 11.667,24.583c6.667,11.667 10.417,24.583 15.833,36.667c1.667,4.166 3.334,8.333 5,12.5c3.75,10.833 7.084,22.083 10.417,32.916c1.25,5 2.917,9.584 4.583,14.584c1.25,5 2.5,9.583 3.75,14.583c0.834,3.333 2.917,4.583 6.25,4.583c3.334,0 6.25,0 9.584,-0.416c11.25,-0.417 22.5,-0.834 33.75,-0.834c3.333,0 25.833,2.084 25.833,2.084c0,-0 7.917,0.833 12.083,1.666c8.75,1.667 17.084,3.334 25.834,5.417c7.083,1.667 14.583,4.167 21.25,7.083c3.333,1.667 6.666,2.5 10.416,3.334c1.25,0.416 2.917,0.416 2.917,0.416c1.25,-1.25 1.667,-2.5 1.25,-2.916" style="fill:#bc2126;fill-rule:nonzero;"/><path d="M1286.25,408.333c-0.417,-1.666 -3.333,-6.25 -3.333,-6.25l-2.084,-3.75l-6.25,-7.083l-4.166,-5.833l-7.5,-7.5c-0,-0 -1.667,-1.25 -2.5,-2.084c-13.334,-10.833 -40.417,-32.5 -40.417,-32.916l-7.5,-5.834l-13.75,-12.083l-70,-42.083l-55,-26.25c-0,-0 -29.167,-11.667 -29.167,-11.25l-10.833,-3.75l-35.833,-12.5l-25.417,-6.25l-24.583,-5.417l-3.75,-0.417l-2.084,2.084l0.834,1.25c-0,-0 2.5,1.25 3.75,1.666c7.5,2.917 15.416,5.834 22.916,8.75c5,2.084 9.584,4.584 15,6.25c3.75,1.25 6.667,2.5 10,4.167c11.667,6.667 23.334,13.75 35,20.417c7.084,4.166 13.334,9.166 19.167,14.583c4.583,4.167 9.167,8.333 14.583,11.25c2.5,1.25 4.584,3.333 6.667,5.417c1.25,0.833 2.5,2.083 3.75,2.916c6.667,5.417 14.167,10.417 20.417,17.084c6.25,7.083 13.333,13.75 20,20.416c6.25,6.25 12.916,12.5 18.333,20c4.583,5.834 9.167,11.667 14.583,17.084c10,10 17.917,22.083 27.084,32.5c1.25,1.25 1.666,2.916 2.916,4.583c5.834,9.167 11.25,19.167 18.334,27.917c5,5.833 9.583,12.5 12.916,19.583c2.084,4.167 5,8.333 7.917,12.083c1.667,2.084 4.167,3.334 5.417,3.334c1.25,-0 3.75,-1.25 3.75,-1.25l5,-2.084c-0,0 6.666,-2.916 8.75,-3.75c2.083,-1.25 6.666,-3.333 7.916,-5c1.667,-1.25 8.334,-5.833 12.084,-9.583c3.75,-3.333 11.25,-12.083 11.25,-12.083l5.416,-7.084l9.167,-15.416c0,-0.417 1.667,-4.167 1.25,-5.834" style="fill:#bc2126;fill-rule:nonzero;"/><path d="M1257.08,641.25c-3.75,-11.667 -6.666,-22.5 -10.833,-34.167c-3.333,-9.583 -5.833,-19.166 -10.417,-27.916c-2.5,-5.417 -3.75,-11.25 -5.833,-17.084c-1.25,-2.916 -2.5,-5.416 -3.333,-8.333c-5,-14.583 -12.084,-26.667 -19.167,-40.417c-0.417,-0.833 -0.833,-1.25 -1.25,-2.5c-0.833,-1.25 -1.25,-2.5 -2.917,-3.333c-1.666,-0.833 -3.333,-0.417 -6.25,0c-5.833,0.833 -13.333,1.25 -16.666,1.25c-2.917,0 -14.584,0.833 -23.75,1.667l-2.084,-0.834l-11.25,0l-30.416,-3.75c-10.834,-1.666 -36.25,-7.916 -36.25,-7.916l-18.334,-6.25l-22.916,-7.917l-1.667,0.833l-35.417,-2.916l-1.25,0.833l-20,-15.417l-2.083,0l-12.5,-11.25l-0.417,-2.5l-13.75,-2.083l-1.25,0.417l-11.25,-3.75l-1.25,-1.25l-26.25,2.083l-23.75,-9.583l-82.083,4.166l-1.25,-0.833l-15.417,1.25l-1.666,1.25l-40.417,2.917l-1.25,-0.834l-57.5,33.334l-0.833,2.5l-2.5,2.5l-1.25,-0.834l-28.75,-2.5l-1.667,0.834l-51.25,0.416l-1.25,-0.416l-14.583,-0.417l-4.584,-2.5l-53.75,41.667l0,1.25l-18.75,15l-21.25,-10l-1.25,0.416l-7.916,-2.5c-0,0 -38.75,9.584 -38.334,10c0.417,0 -35.833,-5.833 -35.833,-5.833l-2.5,-2.083l-6.667,7.083l-14.583,7.083l-0.417,1.25l-28.75,22.084l-40.833,29.583l-45.833,34.167l-20.834,15l-1.25,8.75l-8.75,20l-3.75,17.5l-5.833,35l-3.333,15.416l-1.25,18.334l-5,37.916l-2.084,83.334l2.084,5l1.25,22.916c-0,0 0.416,4.167 1.25,4.167l102.083,-105.417l33.333,-13.75l27.917,-1.25l17.083,-19.583l1.667,-3.75l2.083,0.833l45.834,-5l2.083,-1.25l17.083,0l2.5,0.834l5.417,-7.5l20.417,-12.917l22.083,-15l61.667,0.833l0.416,1.25l24.167,2.5l18.75,-3.75l34.583,-35.416l0.834,-0l27.5,-26.25l41.25,-5.417l1.666,-1.25l1.667,1.667l21.25,10l1.667,-1.25l18.75,-2.5l0.833,-1.25l17.917,-2.917l1.666,-0.833l19.584,16.666l1.25,-1.25l40,-0.833l3.333,-2.5l32.083,1.667l1.667,0.416l5,-1.25l0.833,-1.25l12.917,-5.833l1.667,-0l14.583,-6.667l1.25,-1.25l15.833,-5.833l1.25,-1.667l43.75,-16.666l0.417,-0.834l7.917,-2.5l1.666,-1.666l2.084,2.5l12.916,6.25l3.75,-0l14.167,7.916l0.833,-1.25l4.167,-2.083l0.417,-0l7.083,-3.333l0.417,-0.417l10,-2.5l26.25,6.667l5.416,-1.25l4.584,3.333l19.166,2.917l18.75,7.083l10.834,-0.833l3.333,2.5l2.917,-1.667c-0,-0 37.083,-4.583 55.416,-6.25c12.084,-0.833 24.167,-2.083 36.25,-3.333c6.667,-0.834 13.334,-1.25 20.417,-2.084c4.167,0 5.833,-1.666 4.583,-5.833" style="fill:#bc2126;fill-rule:nonzero;"/><path d="M1284.17,830.833c-0,-2.5 -0.417,-4.166 -0.417,-6.666c-0.417,-7.084 -0.833,-14.167 -1.25,-21.25c-0,-2.5 -0.417,-5 -0.417,-7.084c-0.416,-8.75 -0.833,-17.5 -1.666,-26.666c-1.25,-11.25 -2.917,-22.5 -4.584,-33.334c-1.25,-8.75 -2.916,-17.5 -4.583,-25.833c-1.667,-9.167 -2.917,-17.083 -5,-26.25c-2.083,-9.167 -3.75,-10.417 -13.333,-9.167c-0.834,0 -1.667,0 -2.5,0.417c-3.334,0.833 -8.334,1.25 -11.667,1.667c-18.333,2.5 -35,3.333 -53.333,5.416l-52.084,18.334l-75,-2.084l-8.333,-2.5l-0,1.25l-22.083,16.25l-2.917,0.417l-17.5,16.25l-0.833,2.5l-45,5.833l-41.25,31.667l-4.167,0l-22.083,12.917l-8.75,0.833l-8.75,7.083l-2.084,-1.666l-42.083,-2.917l-7.083,8.333l-0,1.25l-36.25,39.584l-0.417,2.083l-1.25,0l-45.833,52.5l-12.917,0.417l-0.833,1.25l-37.917,6.666l-2.917,0l-0.833,1.667c-0.417,0 -62.5,34.583 -62.5,34.583l-27.917,-3.333l-5.833,2.083l-27.917,-1.666l-27.5,30l-16.666,3.333l-9.584,-0.417l-9.583,4.167l-5.833,-0.833l0.416,1.25l-35,26.666l-3.333,0.417l-53.75,41.667l0.417,2.5l-33.334,80.416l1.25,3.334l-55,5l-17.916,15.416l-1.667,5.834l24.583,33.75l17.917,27.5l15.417,20l25.416,27.5c0,-0 0,2.083 0.834,2.083c0.416,0.417 3.333,0.417 3.333,0.417c-0,-0 15,5 15.417,5l18.75,5.833l0.416,0.833l1.667,-0.416l30.833,12.083l2.5,-0l1.667,2.083l2.917,0c0.416,0 7.5,5 7.5,5l12.916,-7.083l0.834,-0l5.833,-3.75l47.083,11.667l34.584,-17.5l76.666,-7.5l31.25,-50.417c5,-5 14.167,-14.167 14.167,-14.167l1.25,0l10.833,-10l0,-1.25l19.584,-17.916l9.166,-9.584l2.084,-1.25c0.416,0 10.416,-10.833 10.416,-10.833l8.75,-8.75l2.084,-0.417l-2.084,-7.916l8.75,-32.5l17.084,-5l0.833,-0.834l5,-1.25l-0,-2.916l22.917,-37.5l2.083,-0.834l9.583,-18.333l15.834,-8.75l2.083,-2.5l2.917,0.417c-0,-0 9.166,-5.417 9.583,-5.417l0.833,-0l17.084,-7.5l1.25,-2.083l56.25,-25.834l3.333,-0.416l0.833,-2.917l2.084,-1.667l5.833,-19.583l17.917,-7.5l20.416,-2.5l18.75,-12.917l26.667,1.25l2.5,2.084l1.25,-1.667l37.083,-16.667l0,-5l9.167,-17.083l18.333,-5l0.834,-1.25l25,-5.417l9.583,-11.25l1.25,-0.416c0,-0 5.833,-5.417 5.833,-5.834l17.084,2.5l0.833,0.834l9.583,1.25l5.834,0.833c-0,0 25.416,-11.667 35.833,-15.833c4.583,-1.667 8.75,-2.917 12.917,-4.167c5.833,-2.083 11.666,-4.167 17.5,-6.25c2.916,-0.833 5.833,-1.667 8.75,-2.5l11.666,-2.083l13.75,-2.5l8.334,-0.417c-0,0 4.166,-0.417 5.416,-0.833c1.25,-0.417 3.75,-0.417 5.834,-1.667c1.666,-1.667 1.666,-3.333 2.083,-5c0.417,-1.25 0.417,-2.083 0.417,-4.167" style="fill:#bc2126;fill-rule:nonzero;"/><path d="M1283.75,880c0,-2.083 0.417,-5.417 -1.25,-7.083c-1.667,-1.667 -3.75,-2.084 -5,-2.084c-1.25,0 -7.917,0.834 -7.917,0.834l-10.833,1.666c-1.25,0 -2.5,0.417 -3.75,0.834c-6.667,1.666 -12.917,2.916 -19.583,4.583c-7.084,2.083 -14.584,4.167 -21.25,7.083c-7.084,3.334 -15.417,5.834 -22.5,9.167c-2.5,1.25 -26.667,12.917 -37.5,18.333l-14.167,15l-0.417,3.334l-1.666,-0.834l-8.75,0.417l-0.417,0.833l-28.75,9.584l-0,3.333l-2.917,2.917l0,1.666l-13.333,23.75l-1.667,0l-0.416,2.5c-0,0 -2.5,4.584 -5.834,9.584l-60.416,38.75l-1.25,-0l-9.167,7.5l-6.25,25.416l-5.833,5.834l-23.75,87.083l3.333,10l-35,16.667l-5.833,-0l-6.667,30.416l-1.25,0.834l-8.75,27.5l0.417,1.666l-3.334,23.75l-1.25,1.667l1.25,2.083l-33.75,53.334l-2.5,0.833l-8.333,12.917l-0.417,2.5l-28.75,40.416l-30.416,17.917l1.666,2.5c0,0.417 -1.666,12.083 -1.666,12.083l2.5,4.584l-4.167,1.25l-22.083,12.916l-2.084,-0.416l-32.083,19.166l-3.75,5.834c-0,0.416 12.5,1.666 12.5,1.666l20.833,1.667l14.167,0.833l16.667,0.417l7.5,0.417l12.5,0.416l12.5,-0.416l45,-5.417l26.666,-4.583l20,-5.417l22.084,-6.25l27.916,-11.25l2.084,-1.25l7.916,-4.583c0,-0 22.5,-12.084 32.917,-19.584c17.5,-13.333 35,-26.25 50.833,-41.25c5.417,-5 10.834,-10.416 16.25,-15.833c5,-5 10,-10 15.417,-15c0.833,-0.833 2.083,-1.667 2.5,-2.917c1.667,-4.166 5,-7.083 7.917,-10c2.083,-2.083 4.166,-4.166 5.833,-7.083c3.333,-5.417 8.75,-9.167 12.917,-13.75c3.75,-3.333 7.083,-7.5 10,-11.667c5.416,-7.5 10.416,-15.416 15.416,-22.916c6.667,-10.417 14.167,-20 20,-30.834c6.25,-11.666 12.084,-22.916 18.75,-34.166c5.417,-9.584 11.25,-19.167 15.417,-29.584c7.083,-17.083 14.167,-33.75 20.833,-50.833c7.084,-18.333 12.5,-36.667 17.5,-55.417c3.75,-14.166 5.834,-28.333 10.834,-42.083c0.833,-1.667 0.833,-3.75 1.25,-5.417c2.083,-11.666 3.75,-22.916 5.833,-34.166c1.667,-10.834 3.333,-21.667 4.583,-32.5c1.25,-7.5 2.5,-14.584 2.917,-22.084c0.833,-10.416 1.25,-20.416 1.667,-30.833l-0,-3.333c-0,-0 -0.834,-3.334 -0.417,-5.417" style="fill:#bc2126;fill-rule:nonzero;"/></g></g><path d="M1562.5,468.75l-0,729.167c-0,201.219 -163.364,364.583 -364.583,364.583l-729.167,0c-201.219,0 -364.583,-163.364 -364.583,-364.583l-0,-729.167c-0,-201.219 163.364,-364.583 364.583,-364.583l729.167,-0c201.219,-0 364.583,163.364 364.583,364.583Z" style="fill:none;stroke:#000;stroke-width:8.33px;"/></svg>