<?xml version="1.0" encoding="UTF-8" standalone="no"?><!DOCTYPE svg PUBLIC "-//W3C//DTD SVG 1.1//EN" "http://www.w3.org/Graphics/SVG/1.1/DTD/svg11.dtd"><svg width="100%" height="100%" viewBox="0 0 1667 1667" version="1.1" xmlns="http://www.w3.org/2000/svg" xmlns:xlink="http://www.w3.org/1999/xlink" xml:space="preserve" xmlns:serif="http://www.serif.com/" style="fill-rule:evenodd;clip-rule:evenodd;stroke-linecap:round;stroke-linejoin:round;stroke-miterlimit:1.5;"><path d="M1562.5,468.75l-0,729.167c-0,201.219 -163.364,364.583 -364.583,364.583l-729.167,0c-201.219,0 -364.583,-163.364 -364.583,-364.583l-0,-729.167c-0,-201.219 163.364,-364.583 364.583,-364.583l729.167,-0c201.219,-0 364.583,163.364 364.583,364.583Z" style="fill:#e31837;"/><clipPath id="_clip1"><path d="M1562.5,468.75l-0,729.167c-0,201.219 -163.364,364.583 -364.583,364.583l-729.167,0c-201.219,0 -364.583,-163.364 -364.583,-364.583l-0,-729.167c-0,-201.219 163.364,-364.583 364.583,-364.583l729.167,-0c201.219,-0 364.583,163.364 364.583,364.583Z"/></clipPath><g clip-path="url(#_clip1)"><g id="Layer_2_2_"><path d="M834.583,222.5l-1.25,0c-337.083,0 -610,272.917 -611.25,610l0,1.25c0,337.083 272.917,610.417 610,611.25l0.834,0c337.083,0 610.416,-272.917 611.25,-610l-0,-0.833c0.416,-337.5 -272.5,-611.25 -609.584,-611.667" style="fill:#fff;fill-rule:nonzero;"/><path d="M1458.33,831.667c-0.833,-344.167 -280.416,-623.334 -624.583,-623.334l-1.667,0c-344.583,0.834 -623.75,280.417 -623.75,624.584l0,1.25c0.417,345 280,624.166 624.584,624.583l0.833,0c345,-0.417 623.75,-280 624.167,-624.167l-0,-0.833c-0,-0.417 0.416,-1.25 0.416,-2.083m-13.75,2.5c-0.416,337.5 -273.333,610.416 -611.25,610.416l-0.833,0c-337.083,-0.416 -610,-273.75 -610,-610.833l-0,-1.25c0.417,-337.083 274.167,-610 611.25,-610l1.25,-0c337.083,0.833 609.583,274.167 609.583,611.25l0,0.417Z" style="fill:#c4cdd3;fill-rule:nonzero;"/><path d="M629.167,694.583c63.75,-63.75 90,-137.5 90,-137.5l14.166,-51.666l3.334,-12.084l-65.417,-36.666c0,-0 -37.917,-26.25 -122.917,22.916c-99.166,58.75 -180,134.584 -222.083,214.584c-23.333,44.166 -41.667,96.25 -51.25,154.166c2.917,110.417 37.917,212.5 96.25,298.334c-16.25,-159.167 137.5,-333.334 257.917,-452.084" style="fill:#002b5c;fill-rule:nonzero;"/><path d="M1119.17,480c-84.584,-49.583 -122.917,-22.917 -122.917,-22.917l-65.417,36.667l3.334,12.083l14.166,51.667c0,0 26.667,74.167 90,137.5c120,118.333 272.5,291.667 257.5,450.417c57.917,-86.25 92.917,-190 94.584,-301.25c-9.584,-56.25 -27.917,-105.834 -50.417,-149.167c-41.25,-80.417 -122.083,-156.25 -220.833,-215" style="fill:#002b5c;fill-rule:nonzero;"/><path d="M914.583,385c222.917,25 369.584,151.25 445,263.75c-56.666,-162.083 -186.666,-290 -349.583,-343.75c-35.417,10 -75.417,32.5 -95.417,80" style="fill:#e21936;fill-rule:nonzero;"/><path d="M752.917,385c-20,-47.083 -60,-69.583 -96.25,-80c-164.167,55 -294.584,183.333 -350.834,346.667c75.417,-112.917 222.5,-241.667 447.084,-266.667" style="fill:#e21936;fill-rule:nonzero;"/><path d="M789.583,377.917l44.584,-65.417l44.166,65.417c17.917,-48.334 45.834,-75 74.167,-90c-38.333,-8.334 -77.917,-12.917 -117.917,-12.917c-40.833,-0 -80,4.583 -118.75,12.5c27.917,15.417 55.834,42.083 73.75,90.417" style="fill:#e21936;fill-rule:nonzero;"/><path d="M1136.67,867.083c-90.417,-146.25 -296.25,-294.583 -303.334,-299.166c-6.666,4.583 -212.083,152.916 -303.333,299.166c-122.5,197.917 -106.25,312.5 -74.583,377.5c78.75,72.917 178.333,122.5 289.583,140l47.917,-676.25l40,-40l40,40l48.75,675l-0.834,0.417c111.667,-17.5 212.084,-68.333 290.834,-141.667c32.083,-64.583 46.666,-178.75 -75,-375" style="fill:#002b5c;fill-rule:nonzero;"/><path d="M873.75,708.333l-39.583,-40l0.416,765.417l86.25,-49.583l0.834,-0.417l-47.917,-675.417Z" style="fill:#c4cdd3;fill-rule:nonzero;"/><path d="M833.75,516.25l-17.5,12.917l-72.917,53.333l19.167,-69.583l3.333,-12.084l6.25,-23.333l-20.833,-11.25l-68.75,-37.083c34.167,-7.5 69.583,-12.5 105.833,-15l17.5,-1.25l0.834,-1.25l6.666,-14.167l1.25,-2.083l19.584,-39.167l20,41.25l0.416,0.833l6.667,14.167l0.833,1.25l17.5,1.25c35.834,2.083 70.834,6.667 105.834,15l-68.75,37.083l-20.834,11.25l6.25,23.334l3.334,12.083l19.166,69.583l-72.916,-53.333l-17.5,-12.917l-0,-0.416l-0.417,-0l0,-0.417Z" style="fill:#c4cdd3;fill-rule:nonzero;"/><path d="M834.583,516.25l17.5,13.333l72.917,53.334l-19.167,-69.584l-3.333,-12.083l-6.25,-23.333l20.833,-11.25l68.75,-37.084c-34.166,-7.5 -69.583,-12.5 -105.833,-15l-17.5,-1.25l-0.833,-1.25l-6.667,-14.166l-0.417,-0.834l-20,-41.25l-19.583,39.167l-1.25,2.083l-6.667,14.167l-0.833,1.25l-17.5,1.25c-35.833,2.083 -70.833,6.667 -105.833,15l68.75,37.083l20.833,11.25l-5.833,23.334l-3.334,12.083l-19.166,69.583l72.916,-53.333l17.5,-12.917l0,-0.416l0,0.833Z" style="fill:#c4cdd3;fill-rule:nonzero;"/></g></g><path d="M1562.5,468.75l-0,729.167c-0,201.219 -163.364,364.583 -364.583,364.583l-729.167,0c-201.219,0 -364.583,-163.364 -364.583,-364.583l-0,-729.167c-0,-201.219 163.364,-364.583 364.583,-364.583l729.167,-0c201.219,-0 364.583,163.364 364.583,364.583Z" style="fill:none;stroke:#000;stroke-width:8.33px;"/></svg>